<svg width="186" height="44" viewBox="0 0 186 44" fill="none" xmlns="http://www.w3.org/2000/svg">
<g clip-path="url(#clip0_1087_41491)">
<rect x="141.828" width="43.4025" height="43.4025" rx="21.7013" fill="#82CBDB"/>
<path d="M159.715 36.0207C163.108 45.0651 175.565 59.0608 179.887 60.6784C185.218 62.6825 198.546 54.9872 203.949 50.1473C206.176 48.1825 199.24 37.3698 195.671 37.396C193.706 37.396 182.572 46.1195 181.046 45.255C177.313 43.1266 172.257 39.0857 165.001 33.5975C161.052 30.5914 157.6 30.4015 159.715 36.0207Z" fill="#ECADA3"/>
<path d="M174.789 39.8436L167.63 51.9793C167.63 51.9793 159.451 38.8416 158.134 34.2965C156.647 29.1815 159.588 29.5417 164.028 31.9453C168.469 34.3489 174.789 39.8436 174.789 39.8436Z" fill="#466D4A"/>
<path d="M172.349 38.9865C171.236 40.4077 168.485 45.1427 168.02 45.9221C167.778 46.3347 166.88 48.0113 166.631 48.4239C166.599 48.4763 166.69 48.5156 166.717 48.4632C167.188 47.6838 167.738 46.9503 168.216 46.1775C168.694 45.4047 171.668 40.6827 172.408 39.0258C172.41 39.0219 172.412 39.0176 172.413 39.013C172.414 39.0084 172.414 39.0037 172.413 38.9992C172.412 38.9946 172.41 38.9903 172.408 38.9864C172.405 38.9825 172.402 38.9792 172.398 38.9767C172.394 38.9741 172.39 38.9723 172.385 38.9714C172.381 38.9705 172.376 38.9705 172.371 38.9714C172.367 38.9723 172.362 38.9741 172.359 38.9767C172.355 38.9793 172.351 38.9826 172.349 38.9865Z" fill="#263238"/>
<path opacity="0.1" d="M158.161 34.2957C159.471 38.8408 167.658 51.9785 167.658 51.9785L171.332 45.724L159.615 30.2614C157.971 30.1435 157.277 31.2503 158.161 34.2957Z" fill="black"/>
<path d="M129.612 73.9591L166.877 81.1632C166.74 81.8967 170.453 51.5739 164.186 32.0966C163.76 30.7867 158.154 28.3439 155.109 30.2235C141.774 38.4755 129.514 74.4306 129.612 73.9591Z" fill="#466D4A"/>
<path d="M161.988 36.9056C160.128 36.9842 156.834 34.1745 156.094 31.3911C156.475 30.0221 156.925 28.6734 157.443 27.3503C157.875 26.0404 158.327 24.5996 158.642 23.2505C158.707 22.9689 166.658 27.2979 166.658 27.2979C165.777 28.8786 165.093 30.5611 164.621 32.308C164.579 32.4951 164.554 32.686 164.549 32.8778C164.549 32.8778 164.549 32.9367 164.549 32.9695C164.431 34.0698 163.973 36.8532 161.988 36.9056Z" fill="#ECADA3"/>
<path d="M164.52 32.8756C164.523 32.9061 164.523 32.9368 164.52 32.9673C164.224 32.9364 163.931 32.8839 163.643 32.8101C158.665 31.5003 158.809 24.9511 158.927 23.3203C160.388 23.8901 166.642 27.2957 166.642 27.2957C165.761 28.8764 165.077 30.5589 164.605 32.3058C164.562 32.4931 164.533 32.6837 164.52 32.8756Z" fill="#263238"/>
<path d="M159.501 12.3312C157.962 15.1801 157.812 24.2638 159.574 26.6477C162.134 30.1057 167.203 31.409 170.367 28.1279C173.425 24.9515 173.419 13.1105 171.362 10.8511C168.336 7.52406 161.741 8.12659 159.501 12.3312Z" fill="#ECADA3"/>
<path d="M166.981 19.29C166.981 19.29 166.935 19.29 166.935 19.3424C166.935 19.9515 166.844 20.6523 166.281 20.8422V20.8815C166.981 20.7964 167.099 19.8664 166.981 19.29Z" fill="#263238"/>
<path d="M166.465 18.6393C165.482 18.541 165.364 20.5189 166.275 20.604C167.185 20.6892 167.29 18.7179 166.465 18.6393Z" fill="#263238"/>
<path d="M170.528 19.6094C170.528 19.6094 170.573 19.6094 170.573 19.6618C170.514 20.2708 170.573 20.9716 171.097 21.2205C170.416 21.1353 170.377 20.1726 170.528 19.6094Z" fill="#263238"/>
<path d="M171.112 18.9971C172.094 18.9971 172.055 20.9618 171.112 20.9618C170.168 20.9618 170.254 19.0102 171.112 18.9971Z" fill="#263238"/>
<path d="M165.743 17.6863C166.012 17.6339 166.254 17.5422 166.522 17.4637C166.808 17.4235 167.073 17.29 167.276 17.0838C167.326 17.0073 167.349 16.9162 167.342 16.8249C167.335 16.7336 167.298 16.6473 167.236 16.5795C167.095 16.4615 166.924 16.3835 166.742 16.3536C166.56 16.3236 166.373 16.3429 166.201 16.4092C165.831 16.4883 165.504 16.7033 165.285 17.0118C165.239 17.085 165.215 17.1701 165.217 17.2566C165.218 17.3431 165.245 17.4272 165.293 17.4988C165.342 17.5703 165.41 17.6261 165.49 17.6595C165.57 17.6928 165.658 17.7021 165.743 17.6863Z" fill="#263238"/>
<path d="M171.935 18.0569C171.666 17.9914 171.424 17.8932 171.162 17.8081C170.88 17.7567 170.622 17.6141 170.429 17.402C170.381 17.3228 170.36 17.23 170.369 17.1378C170.379 17.0456 170.418 16.959 170.481 16.8912C170.627 16.7791 170.801 16.7079 170.984 16.6849C171.167 16.6619 171.353 16.6879 171.522 16.7602C171.892 16.8565 172.211 17.0909 172.413 17.4151C172.451 17.4892 172.468 17.5726 172.461 17.6557C172.454 17.7389 172.424 17.8184 172.374 17.8853C172.325 17.9522 172.257 18.0037 172.179 18.0341C172.102 18.0644 172.017 18.0723 171.935 18.0569Z" fill="#263238"/>
<path d="M166.84 23.1404C166.979 23.3883 167.167 23.6055 167.392 23.7788C167.617 23.9522 167.875 24.0781 168.15 24.149C168.394 24.2117 168.645 24.2382 168.896 24.2276H169.041H169.172C169.205 24.2235 169.236 24.2083 169.26 24.1846C169.283 24.1609 169.298 24.1299 169.303 24.0966C169.306 24.0749 169.306 24.0528 169.303 24.0311V23.9525C169.348 23.481 169.342 22.7671 169.342 22.7671C169.512 22.8653 170.364 23.3107 170.364 23.0618C170.438 20.9396 170.295 18.8154 169.938 16.7222C169.934 16.7106 169.926 16.7006 169.916 16.6935C169.906 16.6864 169.894 16.6826 169.882 16.6826C169.87 16.6826 169.858 16.6864 169.848 16.6935C169.838 16.7006 169.831 16.7106 169.827 16.7222C169.748 18.6869 170.016 20.6517 169.964 22.6165C169.662 22.4515 169.338 22.3323 169.001 22.2628C168.936 22.2628 169.001 23.6512 169.001 23.8608C168.619 23.8793 168.237 23.8217 167.877 23.6913C167.517 23.5609 167.187 23.3603 166.906 23.1011C166.86 23.0487 166.807 23.1011 166.84 23.1404Z" fill="#263238"/>
<path d="M168.658 23.9696C168.382 24.2877 168.031 24.531 167.636 24.6769C167.423 24.7402 167.195 24.7402 166.981 24.6769C166.503 24.5197 166.516 24.0678 166.628 23.6945C166.689 23.4928 166.775 23.2993 166.883 23.1182C167.37 23.5816 167.991 23.8796 168.658 23.9696Z" fill="#263238"/>
<path d="M167.64 24.6767C167.427 24.74 167.199 24.74 166.985 24.6767C166.507 24.5195 166.52 24.0676 166.632 23.6943C166.885 23.7236 167.121 23.8359 167.303 24.0136C167.486 24.1914 167.604 24.4245 167.64 24.6767Z" fill="#FF99BA"/>
<path d="M172.484 13.9286C172.196 13.1361 171.862 12.3306 171.403 12.1472C170.945 11.9638 170.572 13.0837 169.504 13.0903C168.063 13.0903 167.454 11.7346 165.457 11.4726C162.595 11.0928 161.174 13.4374 160.872 17.4913C160.584 21.1392 158.357 21.3423 158.357 21.3423C158.357 21.3423 157.526 13.2147 159.955 10.6998C162.385 8.18492 167.638 7.32042 170.978 10.0776C172.222 11.0797 172.484 13.9286 172.484 13.9286Z" fill="#263238"/>
<path d="M160.268 20.0171C160.268 20.0171 158.794 16.8211 157.373 17.2926C155.952 17.7641 156.718 22.1652 158.126 23.0035C158.3 23.1223 158.497 23.2048 158.704 23.2461C158.91 23.2874 159.123 23.2867 159.33 23.2439C159.537 23.2011 159.732 23.1172 159.906 22.9971C160.079 22.8771 160.227 22.7233 160.34 22.5451L160.268 20.0171Z" fill="#ECADA3"/>
<path d="M157.619 18.5469C157.619 18.5469 157.587 18.5469 157.619 18.5862C158.063 18.9155 158.433 19.3348 158.704 19.8167C158.975 20.2986 159.141 20.8322 159.191 21.3827C159.149 21.2647 159.082 21.1574 158.994 21.0683C158.906 20.9791 158.8 20.9103 158.682 20.8666C158.565 20.8229 158.44 20.8054 158.315 20.8154C158.19 20.8253 158.069 20.8625 157.96 20.9242V20.9832C158.157 20.9574 158.357 20.9934 158.533 21.086C158.709 21.1786 158.852 21.3235 158.942 21.5006C159.093 21.7994 159.211 22.1133 159.296 22.4371C159.329 22.5419 159.506 22.5222 159.492 22.4044C159.781 21.029 159.047 18.9464 157.619 18.5469Z" fill="#263238"/>
<path d="M168.689 8.57291C167.618 7.90985 166.455 7.40681 165.238 7.07969C163.876 6.73913 159.461 6.55575 158.309 7.30236C157.156 8.04897 156.39 12.1422 156.292 12.7382C156.193 13.3342 156.023 17.0148 157.235 18.0496C158.446 19.0844 159.317 12.915 161.642 11.114C163.967 9.31297 168.689 8.57291 168.689 8.57291Z" fill="#466D4A"/>
<path opacity="0.1" d="M168.689 8.57113C168.689 8.57113 163.967 9.30464 161.642 11.1122C159.317 12.9198 158.453 19.0826 157.235 18.0478C156.684 17.502 156.371 16.7605 156.364 15.9848C156.855 14.21 157.922 11.4921 159.638 9.73033C161.262 8.07994 163.804 7.45121 166.436 7.46431C167.217 7.76967 167.971 8.13991 168.689 8.57113Z" fill="black"/>
<path d="M157.155 21.7885C157.469 20.1578 159.67 15.9401 161.739 13.6217C163.809 11.3032 169.14 10.4453 169.86 10.5697C171.602 10.8841 171.884 11.7682 172.185 11.6438C172.487 11.5194 170.961 9.31883 170.502 8.95863C169.797 8.47937 168.994 8.16386 168.151 8.03519C167.385 7.96315 162.63 7.87146 160.678 9.67249C158.727 11.4735 155.642 16.8046 155.91 18.2978C155.976 18.658 156.408 18.9527 156.5 19.4374C156.611 20.0923 156.657 20.8651 156.801 21.3366C156.945 21.8082 157.155 21.9064 157.155 21.7885Z" fill="#466D4A"/>
<path d="M162.275 12.5074C161.901 12.2137 161.553 11.8895 161.233 11.5381C160.905 11.1864 160.619 10.7973 160.382 10.3789C160.382 10.3789 160.316 10.3789 160.329 10.3789C160.508 10.8536 160.762 11.296 161.083 11.6887C161.401 12.0694 161.791 12.3851 162.229 12.6187C162.275 12.6187 162.314 12.5401 162.275 12.5074Z" fill="#263238"/>
<path d="M158.118 18.4027C157.987 18.1931 157.836 18.0097 157.725 17.787C157.614 17.5764 157.52 17.3574 157.443 17.1321C157.365 16.916 157.306 16.6868 157.227 16.4772C157.148 16.2676 157.024 15.9533 156.945 15.6913C156.945 15.652 156.886 15.6913 156.893 15.6913C156.972 15.9664 157.004 16.2611 157.07 16.5361C157.132 16.7793 157.21 17.0179 157.306 17.25C157.389 17.479 157.497 17.6985 157.627 17.9049C157.746 18.1122 157.906 18.2928 158.098 18.4354C158.098 18.4354 158.131 18.4158 158.118 18.4027Z" fill="#263238"/>
<path d="M160.438 13.4971C160.3 13.3268 160.169 13.1565 160.045 12.9797C159.92 12.8029 159.815 12.6195 159.704 12.4361C159.593 12.2527 159.468 12.0497 159.37 11.8467C159.37 11.8467 159.305 11.8467 159.318 11.8467C159.375 12.0711 159.452 12.2902 159.547 12.5016C159.645 12.703 159.757 12.8977 159.881 13.0845C160.005 13.2683 160.138 13.4454 160.28 13.615C160.415 13.7909 160.582 13.9398 160.772 14.0538C160.779 14.0573 160.787 14.0584 160.795 14.057C160.803 14.0557 160.811 14.0518 160.816 14.0461C160.822 14.0403 160.826 14.033 160.827 14.0249C160.829 14.0169 160.828 14.0087 160.824 14.0014C160.711 13.8221 160.581 13.6533 160.438 13.4971Z" fill="#263238"/>
<path d="M163.656 11.7228C163.519 11.5001 163.381 11.284 163.224 11.0678C163.06 10.858 162.885 10.6569 162.7 10.4653C162.347 10.0858 161.954 9.7454 161.528 9.4502C161.528 9.4502 161.463 9.4502 161.489 9.48949C162.189 10.2492 162.916 10.9827 163.611 11.749C163.637 11.7817 163.676 11.7555 163.656 11.7228Z" fill="#263238"/>
<path d="M164.821 10.4359C164.679 10.2186 164.512 10.0186 164.323 9.83997C163.924 9.47335 163.484 9.15262 163.014 8.88379C163.014 8.88379 162.948 8.88379 163.014 8.92963C163.407 9.26364 163.806 9.58455 164.179 9.94476C164.366 10.1206 164.543 10.3064 164.71 10.5014C164.874 10.6979 164.991 10.9206 165.149 11.1564H165.181C165.115 10.8931 164.992 10.6474 164.821 10.4359Z" fill="#263238"/>
<path d="M166.265 9.94961C166.134 9.73931 165.982 9.54195 165.813 9.36018C165.491 9.01532 165.112 8.72747 164.693 8.50879V8.55463C165.046 8.84707 165.372 9.16916 165.669 9.51736C165.833 9.68764 165.977 9.87102 166.134 10.0544C166.291 10.2378 166.403 10.4539 166.573 10.6176C166.494 10.3848 166.391 10.1609 166.265 9.94961Z" fill="#263238"/>
<path d="M167.363 9.24466C167.206 9.08093 167.042 8.9303 166.872 8.77967C166.717 8.62114 166.538 8.48847 166.341 8.38672V8.43256C166.643 8.74038 166.944 9.08748 167.245 9.37565C167.496 9.68481 167.716 10.0183 167.9 10.3711C167.839 9.95006 167.652 9.55737 167.363 9.24466Z" fill="#263238"/>
<path d="M168.624 9.12724C168.349 8.79425 168.013 8.51645 167.635 8.30859C167.635 8.30859 167.582 8.3086 167.635 8.35444C167.978 8.5997 168.285 8.89304 168.545 9.22548C168.8 9.56002 169.019 9.91995 169.2 10.2996C169.2 10.2996 169.246 10.2996 169.239 10.2996C169.134 9.86391 168.923 9.46113 168.624 9.12724Z" fill="#263238"/>
<path d="M149.751 37.0014C145.573 45.1224 136.391 61.7377 138.166 68.2869C140.504 76.8664 154.611 86.9325 158.252 89.7356C159.837 90.9603 168.587 80.9007 168.194 78.7919C167.801 76.683 153.753 64.4949 153 63.0738C152.247 61.6526 155.574 47.1527 156.576 39.4704C157.813 29.758 153.294 30.1182 149.751 37.0014Z" fill="#ECADA3"/>
<path d="M155.612 50.1132L141.642 50.0478C141.642 50.0478 148.846 36.4778 152.082 33.0788C155.73 29.2606 156.882 31.9654 157.04 37.0083C157.197 42.0512 155.612 50.1132 155.612 50.1132Z" fill="#466D4A"/>
<path d="M156.777 44.2348C156.96 43.5275 157.15 42.8136 157.314 42.0932C157.15 42.6106 157.006 43.1345 156.862 43.6584C156.98 42.5844 157.078 41.5038 157.124 40.4297C156.81 42.0408 156.587 43.665 156.319 45.2826C156.05 46.9003 155.808 48.4525 155.566 50.0439L154.609 50.1684C154.597 50.1684 154.586 50.1732 154.577 50.1818C154.568 50.1904 154.563 50.202 154.563 50.2142C154.563 50.2264 154.568 50.238 154.577 50.2466C154.586 50.2552 154.597 50.26 154.609 50.26C154.963 50.26 155.317 50.2993 155.664 50.3321C155.749 50.3321 155.834 50.3321 155.847 50.2142C156.207 48.2363 156.502 46.2388 156.777 44.2348Z" fill="#263238"/>
</g>
<g clip-path="url(#clip1_1087_41491)">
<rect x="106.563" width="43.4025" height="43.4025" rx="21.7013" fill="#58C6AB"/>
<path d="M131.249 16.4441C132.866 16.4441 134.177 15.1332 134.177 13.5161C134.177 11.899 132.866 10.5881 131.249 10.5881C129.632 10.5881 128.321 11.899 128.321 13.5161C128.321 15.1332 129.632 16.4441 131.249 16.4441Z" fill="#A6A6A6"/>
<path d="M123.294 7.77865C122.471 7.98058 118.805 7.98834 116.778 11.5609C114.86 14.9393 115.17 24.4999 114.93 26.6201C114.689 28.7404 112.009 29.3694 111.652 31.8392C111.349 33.9594 112.941 34.5419 113.268 36.0331C113.532 37.1981 112.553 39.0931 113.827 40.693C114.984 42.1531 116.654 41.6172 117.71 41.99C118.766 42.3628 119.729 44.6849 121.71 45.0966C123.69 45.5082 125.189 43.5433 126.199 43.4656C127.208 43.3879 128.785 46.3237 132.07 45.6635C135.355 45.0034 135.953 42.0909 137.274 41.3764C138.594 40.6619 142.12 41.2133 143.487 39.3183C144.854 37.4233 144.854 35.1166 145.46 34.1924C146.065 33.2682 147.557 33.2294 148.209 31.1868C148.861 29.1442 146.904 28.119 146.454 26.4648C146.135 25.3076 147.052 24.1348 146.112 22.4029C144.815 20.073 141.856 20.9351 140.411 18.5197C139.27 16.6402 136.388 8.2291 130.921 6.71464C127.216 5.71276 123.294 7.77865 123.294 7.77865Z" fill="#263238"/>
<path d="M114.996 26.1133C114.841 26.5749 114.574 26.9911 114.219 27.3249L113.249 28.3811C112.579 29.0357 112.016 29.7903 111.579 30.6178C111.383 31.0154 111.282 31.4525 111.282 31.8954C111.282 32.3384 111.383 32.7755 111.579 33.173C111.8 33.5679 112.08 33.9268 112.41 34.237C112.785 34.5768 113.11 34.9692 113.373 35.402C113.558 35.9007 113.574 36.4464 113.419 36.9553C113.326 37.4368 113.202 37.895 113.124 38.3455C113.015 38.7813 112.994 39.2344 113.062 39.6784C113.13 40.1224 113.286 40.5485 113.52 40.9317C113.759 41.298 114.115 41.572 114.53 41.7084C114.967 41.8427 115.427 41.8877 115.881 41.8404C116.347 41.8404 116.821 41.7472 117.303 41.7006C117.778 41.6045 118.271 41.656 118.716 41.8482C118.259 41.7198 117.775 41.7198 117.318 41.8482C116.852 41.9414 116.386 42.0501 115.905 42.1122C115.413 42.1885 114.912 42.1674 114.429 42.0501C113.923 41.908 113.479 41.5987 113.171 41.1725C112.886 40.7516 112.691 40.2762 112.599 39.7763C112.507 39.2763 112.519 38.7627 112.635 38.2678C112.705 37.7863 112.821 37.3125 112.907 36.8543C113.041 36.4536 113.041 36.0202 112.907 35.6194C112.534 34.8972 111.602 34.3224 111.159 33.3827C110.936 32.9183 110.828 32.4069 110.844 31.8918C110.86 31.3767 111 30.8731 111.253 30.4237C111.747 29.5812 112.374 28.8234 113.109 28.1792L114.157 27.2084C114.512 26.908 114.798 26.5344 114.996 26.1133Z" fill="#263238"/>
<path d="M136.385 11.0449C137.378 12.439 138.285 13.8914 139.104 15.3941C139.546 16.1164 139.974 16.862 140.463 17.5377C140.689 17.8719 140.949 18.1816 141.24 18.4619C141.307 18.5262 141.383 18.5811 141.465 18.625C141.538 18.6786 141.619 18.7206 141.706 18.7493C141.892 18.8192 142.094 18.8813 142.296 18.9434C143.127 19.1579 143.947 19.4171 144.75 19.7201C145.6 20.04 146.33 20.6152 146.839 21.3666C147.087 21.7564 147.231 22.2027 147.259 22.6636C147.263 23.1124 147.181 23.558 147.018 23.9761C146.66 24.7491 146.484 25.5942 146.505 26.4458C146.376 25.5887 146.464 24.7126 146.762 23.8984C146.884 23.5069 146.937 23.0967 146.917 22.6869C146.87 22.2924 146.72 21.9173 146.482 21.5996C145.993 20.9506 145.327 20.457 144.564 20.1783C143.768 19.8741 142.957 19.6149 142.133 19.4016C141.931 19.3317 141.721 19.2696 141.511 19.1842C141.284 19.0913 141.076 18.957 140.898 18.7881C140.575 18.4799 140.288 18.136 140.044 17.7629C139.555 17.0523 139.114 16.3103 138.723 15.5417L137.566 13.2506C137.215 12.4933 136.821 11.7569 136.385 11.0449Z" fill="#263238"/>
<path d="M146.276 33.5332C146.039 34.0931 145.92 34.696 145.926 35.304C145.872 35.9175 145.81 36.5311 145.724 37.1369C145.644 37.7614 145.498 38.3757 145.289 38.9697C145.083 39.5938 144.728 40.1587 144.256 40.6162C143.189 41.3603 141.879 41.6712 140.591 41.4861C139.969 41.4472 139.364 41.3696 138.758 41.3463C138.156 41.2744 137.546 41.349 136.979 41.5637C137.519 41.2471 138.132 41.0783 138.758 41.0745C139.379 41.0745 139.993 41.0745 140.598 41.0745C141.764 41.1674 142.928 40.8636 143.899 40.2124C144.309 39.8162 144.62 39.3294 144.808 38.7911C145.02 38.2329 145.189 37.6591 145.313 37.0747C145.445 36.4845 145.553 35.8787 145.662 35.2729C145.724 34.9778 145.794 34.6749 145.872 34.372C145.929 34.0614 146.069 33.7718 146.276 33.5332Z" fill="#263238"/>
<path d="M140.932 67.4627L142.019 75.9592L105.206 74.7943C105.206 74.7943 107.062 47.6582 117.671 37.4297C122.983 32.3116 128.808 33.065 132.319 37.0725C133.204 38.0821 143.642 51.7278 144.489 57.4828C145.226 62.5621 140.932 67.4627 140.932 67.4627Z" fill="#455A64"/>
<path d="M121.362 74.9112C121.437 75.0506 121.52 75.1855 121.61 75.315H122.224C121.958 75.1394 121.667 75.0033 121.362 74.9112ZM131.831 37.3525C131.424 36.9861 130.949 36.7037 130.433 36.5215C130.695 37.0043 131.049 37.4316 131.474 37.7796C131.884 38.1399 132.358 38.4193 132.872 38.6029C132.612 38.1207 132.258 37.6955 131.831 37.3525ZM109.308 58.5239C108.953 58.9372 108.674 59.4106 108.485 59.9219C109.446 59.3808 110.183 58.5167 110.567 57.4832C110.087 57.7498 109.66 58.1026 109.308 58.5239ZM117.316 39.1077C116.959 39.5198 116.68 39.9936 116.492 40.5057C117.446 39.9582 118.184 39.1002 118.582 38.0748C118.1 38.3385 117.671 38.6886 117.316 39.1077ZM129.167 56.2949C128.807 56.7104 128.523 57.1863 128.328 57.7007C128.808 57.4336 129.237 57.0839 129.594 56.6677C129.954 56.2547 130.234 55.7779 130.418 55.262C129.939 55.5305 129.515 55.8861 129.167 56.3105V56.2949ZM119.917 62.4071C119.379 62.4458 118.853 62.5827 118.364 62.811C118.888 62.9652 119.436 63.0179 119.979 62.9663C120.519 62.9357 121.047 62.7985 121.533 62.5625C121.009 62.4076 120.461 62.3548 119.917 62.4071ZM141.663 58.1045C141.125 58.1469 140.599 58.2863 140.11 58.5161C140.635 58.6662 141.182 58.7188 141.726 58.6715C142.264 58.6364 142.791 58.4993 143.279 58.2676C142.76 58.1138 142.218 58.0559 141.679 58.0968L141.663 58.1045ZM127.994 44.7773C127.455 44.8115 126.927 44.9513 126.441 45.1889C126.965 45.3443 127.514 45.3945 128.057 45.3364C128.595 45.3004 129.122 45.1634 129.61 44.9326C129.086 44.7819 128.538 44.7292 127.994 44.7773ZM134.355 69.032C134.324 68.4936 134.189 67.9663 133.959 67.4787C133.654 68.5384 133.745 69.6732 134.215 70.6707C134.368 70.1387 134.415 69.5821 134.355 69.032ZM110.862 70.2513C110.817 69.7123 110.675 69.186 110.442 68.698C110.294 69.2228 110.244 69.7704 110.295 70.3134C110.33 70.8521 110.467 71.3792 110.699 71.8667C110.848 71.3421 110.903 70.7952 110.862 70.2513ZM139.411 48.0858C139.404 47.9503 139.388 47.8155 139.365 47.6819L138.969 46.6645C138.85 47.1467 138.81 47.6452 138.852 48.1401C138.892 48.6789 139.031 49.2057 139.264 49.6934C139.418 49.1724 139.476 48.6276 139.435 48.0858H139.411ZM118.737 51.3166C118.702 50.7771 118.562 50.2495 118.325 49.7633C118.178 50.2911 118.126 50.8405 118.17 51.3865C118.213 51.9247 118.353 52.4508 118.582 52.9398C118.736 52.4135 118.797 51.864 118.76 51.3166H118.737Z" fill="white"/>
<path d="M123.862 36.8636C124.056 37.5859 127.659 42.1836 130.968 41.9273C132.047 41.8419 131.846 35.9394 131.846 35.9394L131.931 35.4967L133.111 29.3534L125.795 24.9653L124.739 24.3906C124.739 24.3906 124.529 26.0915 124.281 28.2117C124.281 28.3127 124.281 28.4137 124.281 28.5146C124.281 28.6156 124.242 28.7476 124.234 28.8641C124.196 29.1825 124.157 29.501 124.126 29.8272C124.095 30.1534 124.071 30.3087 124.048 30.6038C124.025 30.8989 124.009 31.1164 123.986 31.3805C123.822 33.2033 123.78 35.0352 123.862 36.8636Z" fill="#F7A9A0"/>
<path d="M133.11 29.3435L131.976 35.2227C128.647 34.1664 125.861 31.854 124.21 28.7765L124.28 28.1785C124.528 26.0583 124.738 24.3574 124.738 24.3574L125.794 24.9321L133.11 29.3435Z" fill="#263238"/>
<path d="M140.067 17.975C143.173 28.5219 137.178 31.5586 134.91 32.2187C132.844 32.8245 125.73 34.6108 121.575 24.4523C117.42 14.2937 121.349 9.50956 126.002 7.88637C130.654 6.26318 136.991 7.42815 140.067 17.975Z" fill="#F7A9A0"/>
<path d="M138.051 16.7952C137.794 16.7952 137.553 16.7952 137.274 16.7952C137.008 16.8354 136.735 16.7891 136.497 16.6631C136.43 16.6088 136.382 16.5333 136.363 16.4489C136.343 16.3644 136.352 16.2758 136.389 16.1971C136.489 16.0601 136.623 15.952 136.779 15.8838C136.934 15.8156 137.105 15.7898 137.274 15.8088C137.627 15.7775 137.979 15.8801 138.26 16.0962C138.312 16.1498 138.348 16.216 138.365 16.2881C138.382 16.3603 138.38 16.4357 138.359 16.5068C138.338 16.5778 138.298 16.642 138.244 16.6926C138.19 16.7433 138.123 16.7787 138.051 16.7952Z" fill="#263238"/>
<path d="M130.784 18.4885C131.025 18.4031 131.243 18.2788 131.476 18.1701C131.732 18.0856 131.954 17.9226 132.112 17.7041C132.146 17.625 132.154 17.5371 132.135 17.4533C132.115 17.3694 132.069 17.2941 132.004 17.2381C131.854 17.15 131.684 17.1035 131.511 17.1035C131.337 17.1035 131.167 17.15 131.017 17.2381C130.681 17.3628 130.404 17.6096 130.241 17.9293C130.206 18.006 130.196 18.0913 130.21 18.1741C130.225 18.2569 130.264 18.3334 130.323 18.3937C130.381 18.454 130.457 18.4952 130.539 18.5121C130.621 18.5291 130.707 18.5208 130.784 18.4885Z" fill="#263238"/>
<path d="M132.78 20.0518C132.78 20.0518 132.734 20.0984 132.78 20.1294C132.99 20.8439 133.107 21.6827 132.516 22.1176C133.262 21.8381 133.091 20.6964 132.78 20.0518Z" fill="#263238"/>
<path d="M131.927 19.4559C130.739 19.6656 131.252 22.0266 132.355 21.8325C133.457 21.6383 132.929 19.2773 131.927 19.4559Z" fill="#263238"/>
<path d="M131.491 19.6931C131.313 19.8717 131.165 20.1513 130.924 20.229C130.684 20.3067 130.365 20.1203 130.148 19.9183C130.148 19.9183 130.101 19.9183 130.109 19.9183C130.202 20.3766 130.474 20.7959 130.979 20.7649C131.484 20.7338 131.662 20.2601 131.678 19.7785C131.662 19.6931 131.561 19.6154 131.491 19.6931Z" fill="#263238"/>
<path d="M136.852 19.0615C136.852 19.0615 136.914 19.0615 136.922 19.1159C137.062 19.8537 137.357 20.6692 138.072 20.7624V20.8012C137.272 20.8711 136.868 19.7838 136.852 19.0615Z" fill="#263238"/>
<path d="M137.321 18.1387C138.478 17.7814 139.107 20.1114 138.035 20.4686C136.963 20.8259 136.358 18.4571 137.321 18.1387Z" fill="#263238"/>
<path d="M137.861 18.1771C138.078 18.247 138.319 18.4256 138.544 18.379C138.769 18.3324 138.925 18.0217 139.026 17.7344C139.026 17.7344 139.026 17.7344 139.064 17.7344C139.196 18.1693 139.181 18.6741 138.769 18.876C138.358 19.078 137.993 18.7595 137.783 18.3402C137.744 18.2858 137.775 18.1382 137.861 18.1771Z" fill="#263238"/>
<path d="M134.621 25.9024C134.831 26.0629 135.088 26.1478 135.351 26.1431C135.615 26.0599 135.859 25.9223 136.066 25.7393C136.066 25.7393 136.12 25.7393 136.113 25.7393C136.053 25.9083 135.95 26.0585 135.814 26.1745C135.677 26.2905 135.512 26.3682 135.336 26.3994C135.174 26.4127 135.012 26.3749 134.873 26.2913C134.733 26.2078 134.624 26.0826 134.559 25.9334C134.559 25.9334 134.59 25.9024 134.621 25.9024Z" fill="#263238"/>
<path d="M133.819 24.0698C134.082 24.2916 134.388 24.4565 134.719 24.5541C135.049 24.6517 135.395 24.6798 135.737 24.6367C136.036 24.6042 136.329 24.5283 136.607 24.4115C136.662 24.3963 136.714 24.3727 136.762 24.3416L136.91 24.2717C136.945 24.2525 136.973 24.2225 136.99 24.1862C137.007 24.1498 137.011 24.109 137.003 24.0698C137.007 24.0467 137.007 24.023 137.003 23.9999V23.9377C136.848 23.3941 136.545 22.5941 136.545 22.5941C136.77 22.5941 137.912 22.7728 137.811 22.4932C137 20.0843 135.944 17.7654 134.657 15.5732C134.647 15.5634 134.633 15.5571 134.619 15.5553C134.605 15.5534 134.59 15.5561 134.577 15.5629C134.564 15.5697 134.554 15.5804 134.547 15.5934C134.541 15.6064 134.539 15.621 134.541 15.6354C135.279 17.8644 136.405 19.9458 137.182 22.1748C136.775 22.1161 136.361 22.1161 135.954 22.1748C135.885 22.2214 136.568 23.7281 136.615 23.961C136.188 24.1439 135.728 24.2382 135.263 24.2382C134.799 24.2382 134.339 24.1439 133.912 23.961C133.905 23.9549 133.896 23.9503 133.888 23.9474C133.879 23.9444 133.869 23.9433 133.86 23.944C133.85 23.9447 133.841 23.9473 133.833 23.9516C133.825 23.9558 133.817 23.9617 133.811 23.9688C133.805 23.976 133.8 23.9842 133.797 23.9932C133.794 24.0021 133.793 24.0115 133.794 24.0209C133.795 24.0303 133.797 24.0394 133.801 24.0478C133.806 24.0562 133.812 24.0637 133.819 24.0698Z" fill="#263238"/>
<path d="M122.403 25.6475C124.197 25.2281 123.436 21.4226 123.436 21.4226C123.436 21.4226 127.009 20.2964 126.543 14.7978C126.926 16.3687 126.846 18.0172 126.31 19.5431C126.31 19.5431 132.383 16.8792 133.362 10.7825C133.362 10.7825 133.152 13.7959 132.469 15.0618C133.91 14.0681 134.969 12.6137 135.474 10.9378C135.474 10.9378 137.54 13.625 138.651 14.1997C138.651 14.1997 136.057 -0.727426 123.491 8.36712C123.491 8.36712 117.705 10.1612 117.021 15.9394C116.338 21.7177 122.403 25.6475 122.403 25.6475Z" fill="#263238"/>
<path d="M123.493 24.7527C123.493 24.7527 120.472 21.8636 119.113 23.0053C117.753 24.147 120.503 28.667 122.429 28.9777C122.673 29.0332 122.926 29.0391 123.172 28.9948C123.418 28.9506 123.653 28.8572 123.863 28.7202C124.072 28.5832 124.252 28.4054 124.391 28.1975C124.53 27.9895 124.626 27.7557 124.673 27.5098L123.493 24.7527Z" fill="#F7A9A0"/>
<path d="M123.572 28.2358C123.587 28.3052 123.589 28.3772 123.576 28.4473C123.564 28.5174 123.537 28.5842 123.498 28.6437C123.458 28.7032 123.408 28.7541 123.348 28.7935C123.289 28.8328 123.222 28.8597 123.152 28.8726C123.082 28.8874 123.01 28.8883 122.94 28.8753C122.87 28.8622 122.803 28.8354 122.743 28.7965C122.683 28.7575 122.631 28.7072 122.591 28.6483C122.551 28.5894 122.522 28.5231 122.508 28.4532C122.482 28.3124 122.513 28.1672 122.592 28.0484C122.672 27.9296 122.795 27.8464 122.935 27.8164C123.004 27.8016 123.076 27.8008 123.145 27.814C123.215 27.8271 123.281 27.854 123.341 27.893C123.4 27.932 123.451 27.9824 123.49 28.0412C123.53 28.1001 123.558 28.1662 123.572 28.2358Z" fill="white"/>
<path d="M130.828 56.6429L117.904 67.3528C117.904 67.3528 114.068 49.2958 114.44 43.6729C114.86 37.3354 118.005 38.9353 122.02 43.4399C126.036 47.9444 130.828 56.6429 130.828 56.6429Z" fill="#455A64"/>
<path d="M118.767 51.3176C118.731 50.778 118.592 50.2505 118.355 49.7643C118.208 50.292 118.156 50.8415 118.2 51.3875C118.243 51.9257 118.382 52.4518 118.611 52.9408C118.758 52.4131 118.811 51.8636 118.767 51.3176ZM119.924 62.4081C119.386 62.4468 118.859 62.5837 118.371 62.812C118.894 62.9661 119.442 63.0189 119.986 62.9673C120.525 62.9367 121.053 62.7995 121.539 62.5635C121.016 62.4085 120.467 62.3558 119.924 62.4081ZM130.152 55.4183C129.786 55.657 129.457 55.9474 129.174 56.2804C128.813 56.6958 128.529 57.1717 128.335 57.6861C128.814 57.419 129.243 57.0693 129.601 56.6532C129.865 56.3414 130.091 56 130.277 55.6358L130.152 55.4183ZM117.019 39.4893C116.799 39.7966 116.623 40.134 116.499 40.4911C116.901 40.2746 117.264 39.9909 117.571 39.6523C117.392 39.5894 117.207 39.5452 117.019 39.5203V39.4893Z" fill="white"/>
<path d="M131.9 35.7818L130.284 40.8766L123.683 35.0518L122.083 37.1798C122.083 37.1798 128.809 46.7092 128.816 46.2588L130.556 41.8474L133.717 44.6045L132.94 37.1642L131.9 35.7818Z" fill="#455A64"/>
<path d="M133.523 40.9077C133.352 39.6806 133.22 38.4458 132.995 37.2342C132.995 37.1876 132.917 37.1721 132.909 37.2342C132.746 38.438 133.414 43.1134 133.484 44.224C133.352 44.1075 130.564 41.8009 130.54 41.8475C130.144 42.5542 128.871 45.7696 128.785 46.0647C127.721 44.5114 123.24 38.6011 122.005 37.1798C121.997 37.1743 121.987 37.1716 121.977 37.1719C121.968 37.1722 121.958 37.1757 121.95 37.1817C121.943 37.1877 121.937 37.196 121.934 37.2055C121.931 37.2149 121.932 37.2249 121.935 37.2342C122.89 38.8419 128.7 46.7015 128.77 46.6705C129.458 45.1506 130.064 43.5951 130.587 42.0106C131.622 43.0675 132.728 44.0535 133.895 44.9618C133.857 43.7114 133.686 42.1348 133.523 40.9077Z" fill="#263238"/>
</g>
<g clip-path="url(#clip2_1087_41491)">
<rect x="71.2987" width="43.4025" height="43.4025" rx="21.7013" fill="#DBCD82"/>
<path d="M71.8609 15.8071C70.2306 17.771 68.4585 23.0959 68.5294 24.5435C68.6003 25.9911 77.5468 29.3015 78.8125 28.5118C80.0783 27.7222 85.0604 20.6815 85.111 18.0747C85.1616 15.468 73.5571 13.7723 71.8609 15.8071Z" fill="#AD6359"/>
<path d="M85.3157 12.1911C86.1359 11.3357 88.789 8.7796 89.9687 9.92859C90.718 10.6524 88.9257 12.6214 88.1865 13.3958C86.6675 14.9953 85.4473 17.8298 84.8954 19.2066C84.3436 20.5834 81.726 17.8653 81.726 17.8653C81.726 17.8653 83.1943 14.4132 85.3157 12.1911Z" fill="#AD6359"/>
<path d="M83.1595 20.7481C83.1595 20.7481 82.2431 23.2131 80.7494 23.1574C79.2558 23.1017 79.6356 20.986 79.6609 20.8341C79.6103 20.9606 78.709 23.203 77.2154 22.9954C75.7218 22.7879 76.3547 20.7076 76.4003 20.5709C76.3142 20.6823 75.1598 22.0894 74.0611 21.6693C72.1675 20.9556 75.013 17.2758 74.7345 15.656C74.7345 15.656 71.9447 15.818 71.8587 15.8028C71.8587 15.8028 74.4915 12.2597 76.6939 11.9965C77.0143 11.953 77.3399 12.0208 77.6164 12.1885C77.8928 12.3561 78.1034 12.6135 78.2128 12.9177C78.2128 12.9177 78.9318 11.6725 80.1166 11.7991C80.7241 11.8699 81.1596 12.8974 81.1596 12.8974C81.338 12.6257 81.5878 12.4083 81.8816 12.269C82.1754 12.1298 82.5019 12.074 82.8253 12.1078C83.6607 12.2496 84.0759 13.2923 84.1215 13.6921C84.4809 16.7898 83.1595 20.7481 83.1595 20.7481Z" fill="#AD6359"/>
<path d="M81.1654 12.8652C81.1654 12.8652 81.211 12.8652 81.2161 12.8652C81.6881 15.6432 81.1493 18.4983 79.6971 20.9132C79.6414 20.9942 79.5149 21.0195 79.5655 20.9132C80.492 19.2378 81.2211 15.2138 81.1654 12.8652Z" fill="#263238"/>
<path d="M76.2344 20.7052C77.6217 18.3312 78.1128 15.7447 78.2293 13.0216C78.2293 13.0135 78.2325 13.0058 78.2382 13.0001C78.2439 12.9944 78.2516 12.9912 78.2596 12.9912C78.2677 12.9912 78.2754 12.9944 78.2811 13.0001C78.2868 13.0058 78.29 13.0135 78.29 13.0216C78.5938 14.368 78.3356 16.0991 78.0217 17.4303C77.7551 18.6694 77.1666 19.8164 76.3154 20.7558C76.28 20.7912 76.204 20.7558 76.2344 20.7052Z" fill="#263238"/>
<path d="M83.1598 20.7509C82.9395 21.2071 82.6786 21.6424 82.3801 22.0517C82.1072 22.4591 81.7317 22.7873 81.2915 23.0033C81.0808 23.0817 80.849 23.0817 80.6384 23.0033C80.4287 22.9388 80.2388 22.8221 80.0865 22.6642C79.9527 22.4813 79.8588 22.2724 79.8108 22.0509C79.7629 21.8294 79.7619 21.6004 79.808 21.3785L79.9954 20.2802L79.4384 21.2469C79.1968 21.6767 78.8873 22.0647 78.522 22.3959C78.3597 22.5571 78.1655 22.6826 77.9519 22.7646C77.7384 22.8465 77.51 22.883 77.2815 22.8717C77.0688 22.8578 76.8672 22.7712 76.7106 22.6266C76.5539 22.482 76.4517 22.288 76.4208 22.0771C76.3614 21.6051 76.4242 21.1258 76.6031 20.6851L77.0486 19.4247L76.2234 20.4371C75.995 20.7194 75.7312 20.9712 75.4386 21.1862C75.1705 21.4054 74.842 21.5378 74.4969 21.5658C74.3412 21.573 74.1867 21.5365 74.0507 21.4605C73.9147 21.3844 73.8026 21.2719 73.7273 21.1356C73.6074 20.812 73.581 20.4611 73.6513 20.1233C73.7958 19.3773 74.0007 18.6443 74.264 17.9316C74.3804 17.5621 74.5019 17.1976 74.6032 16.8231C74.7273 16.4536 74.7722 16.0621 74.7348 15.6741C74.7287 16.0583 74.6496 16.4379 74.5019 16.7927C74.3703 17.1521 74.2234 17.5064 74.0766 17.8607C73.7639 18.5742 73.5165 19.3145 73.3374 20.0726C73.2325 20.4824 73.2518 20.9141 73.3931 21.3127C73.4955 21.5207 73.6564 21.6943 73.856 21.8121C74.0557 21.9299 74.2855 21.9868 74.5171 21.9758C74.9455 21.9499 75.3563 21.7966 75.6968 21.5355C76.028 21.2998 76.3275 21.0225 76.5879 20.7104L76.2082 20.4928C75.9898 21.0118 75.9113 21.579 75.9803 22.1378C76.0278 22.447 76.1818 22.7299 76.4158 22.9375C76.6495 23.1343 76.9371 23.256 77.241 23.2868C77.5305 23.3046 77.8205 23.26 78.0913 23.1561C78.3621 23.0522 78.6074 22.8914 78.8106 22.6844C79.2162 22.316 79.5583 21.8834 79.8232 21.4039L79.4536 21.2773C79.4049 21.5545 79.4172 21.8389 79.4898 22.1108C79.5624 22.3827 79.6934 22.6355 79.8738 22.8515C80.0689 23.0549 80.313 23.2048 80.5827 23.2868C80.8575 23.369 81.1531 23.3474 81.413 23.226C81.8786 22.9715 82.263 22.5908 82.5218 22.1277C82.7854 21.6941 82.9994 21.2322 83.1598 20.7509Z" fill="#263238"/>
<path d="M79.872 27.463C79.872 27.463 89.5274 22.5279 85.7503 19.6985C84.6263 18.8582 79.0113 16.7475 78.5658 17.8712C77.9936 19.3138 80.1708 20.6298 81.6694 21.2423C81.6694 21.2423 78.1253 22.4571 78.2671 25.16C78.2963 25.6545 78.4617 26.1312 78.7449 26.5376C79.0282 26.944 79.4182 27.2643 79.872 27.463Z" fill="#AD6359"/>
<path d="M86.0467 19.9537C85.6455 19.5716 85.19 19.2509 84.6949 19.0021C84.2053 18.7374 83.6977 18.5074 83.176 18.3137C82.1425 17.9054 81.0751 17.5887 79.9862 17.3672C79.6964 17.309 79.3998 17.292 79.1052 17.3166C78.9371 17.3341 78.7748 17.3876 78.6293 17.4735C78.5464 17.5186 78.4726 17.5787 78.4116 17.6507C78.3539 17.7205 78.3078 17.7991 78.2749 17.8835C78.1585 18.197 78.1585 18.5418 78.2749 18.8553C78.3847 19.1382 78.5423 19.4002 78.7407 19.6298C79.1232 20.0589 79.5771 20.4185 80.0824 20.6927C80.5708 20.9699 81.0784 21.2118 81.6013 21.4165V21.0571C81.2046 21.2165 80.8247 21.4149 80.4672 21.6494C80.1048 21.8713 79.7655 22.1291 79.4546 22.4187C79.1479 22.7149 78.8883 23.0563 78.685 23.4311C78.4772 23.7944 78.343 24.1952 78.2901 24.6104C78.395 24.215 78.5662 23.8402 78.7964 23.5019C79.0305 23.1726 79.3062 22.8749 79.6166 22.6161C79.9308 22.3584 80.27 22.1329 80.6292 21.9429C80.9791 21.7491 81.3471 21.5897 81.7279 21.4671L82.1937 21.3203L81.738 21.1078C81.2453 20.8919 80.7667 20.6451 80.3052 20.3688C79.8503 20.1063 79.4401 19.7731 79.09 19.3817C78.9225 19.2197 78.7995 19.0171 78.733 18.7937C78.6665 18.5703 78.6586 18.3335 78.7103 18.1062C78.8217 17.7468 79.4242 17.7671 79.9305 17.843C80.4647 17.9286 80.9937 18.0435 81.5153 18.1872C82.0216 18.3188 82.5684 18.4605 83.0899 18.6275C84.1383 18.9137 85.1358 19.3611 86.0467 19.9537Z" fill="#263238"/>
<path d="M90.983 34.4474C82.4466 44.9756 70.037 51.7987 66.9738 49.5817C63.9107 47.3647 74.2343 35.7229 74.4115 35.5559C75.014 34.9738 79.5809 32.5999 87.8742 29.1124C96.0157 25.7009 94.7701 29.7502 90.983 34.4474Z" fill="#AD6359"/>
<path d="M78.2578 33.2075L84.6778 41.6807C84.6778 41.6807 90.075 36.1129 92.9306 32.428C95.7862 28.7431 95.5027 25.8782 89.1181 28.2521C85.3792 29.6301 81.7489 31.2865 78.2578 33.2075Z" fill="url(#paint0_linear_1087_41491)"/>
<path d="M85.3018 39.7421C84.512 38.5881 83.6951 37.456 82.8513 36.3458C82.4361 35.7941 82.026 35.2423 81.5956 34.7007C81.1653 34.1591 80.6792 33.6176 80.2387 33.0557C80.2033 33.0152 80.1425 33.0557 80.1729 33.1013C80.578 33.653 80.9425 34.2401 81.3475 34.7969C81.7526 35.3537 82.1981 35.9307 82.6285 36.4926C83.4757 37.6095 84.3483 38.7045 85.2461 39.7776C85.2714 39.8079 85.3221 39.7725 85.3018 39.7421Z" fill="#263238"/>
<path d="M81.6014 37.6195L84.6798 41.6688C84.6798 41.6688 90.077 36.101 92.9326 32.4161L93.206 32.0567L93.3225 31.8897L93.4997 31.6315C93.6516 31.4088 93.7883 31.1912 93.9098 30.9786C93.9554 30.9027 93.9959 30.8267 94.0364 30.7508C94.2475 30.3666 94.4173 29.9611 94.5427 29.5411C94.58 29.4115 94.6087 29.2796 94.6288 29.1463C94.6288 29.0805 94.6288 29.0197 94.6288 28.959C91.8187 30.9027 85.2367 35.1595 81.6014 37.6195Z" fill="#263238"/>
<path d="M81.3477 65.4795C81.3477 65.4795 110.643 65.9857 110.815 65.8035C111.271 65.3226 105.352 35.14 99.2305 28.9193C97.0686 26.7276 92.608 27.6184 91.8688 27.9829C90.1474 28.813 88.5322 30.6048 87.1804 33.9202C84.4767 40.5661 80.9731 65.0037 81.3477 65.4795Z" fill="url(#paint1_linear_1087_41491)"/>
<path opacity="0.1" d="M90.3917 28.9734H99.2775L99.2319 28.9228C99.0254 28.714 98.7961 28.5289 98.5484 28.3711H91.1816C90.9023 28.55 90.6381 28.7514 90.3917 28.9734ZM89.4146 29.9858H100.113C100.255 30.173 100.391 30.3755 100.528 30.5881H88.9589C89.1057 30.3755 89.2576 30.173 89.4146 29.9858ZM88.3108 31.6004H101.141C101.252 31.7978 101.363 32.0003 101.47 32.2078H87.9767C88.083 32.0003 88.1893 31.7725 88.3108 31.6004ZM87.4855 33.2202H101.981L102.27 33.8225H87.2273C87.3083 33.615 87.3944 33.4125 87.4855 33.2202ZM86.8425 34.8348H102.715L102.974 35.4371H86.6451C86.7109 35.2246 86.7767 35.0272 86.8425 34.8348ZM86.3362 36.4495H103.379C103.455 36.6519 103.536 36.8494 103.617 37.0569H86.1641C86.2248 36.851 86.2822 36.6486 86.3362 36.4495ZM85.9008 38.0641H103.996C104.067 38.2666 104.143 38.464 104.214 38.6715H85.7489C85.7995 38.459 85.8502 38.2565 85.9008 38.0641ZM85.5059 39.6839H104.568C104.639 39.8813 104.705 40.0837 104.771 40.2862H85.3692L85.5059 39.6839ZM85.1413 41.2985H105.11C105.176 41.4959 105.237 41.6984 105.303 41.9009H85.0097C85.0553 41.6984 85.0958 41.4959 85.1515 41.2985H85.1413ZM84.797 42.9081H105.616C105.682 43.1055 105.743 43.308 105.804 43.5155H84.6451C84.711 43.3181 84.7515 43.1157 84.797 42.9081ZM84.4679 44.5228H106.108C106.168 44.7253 106.229 44.9277 106.285 45.1302H84.3464L84.4679 44.5228ZM84.154 46.1425H106.573C106.634 46.345 106.69 46.5424 106.746 46.7449H84.0426C84.0781 46.5475 84.1135 46.345 84.1388 46.1476L84.154 46.1425ZM83.8553 47.7572H107.024C107.08 47.9597 107.135 48.1621 107.186 48.3595H83.7439C83.7794 48.1621 83.8148 47.9698 83.8553 47.7623V47.7572ZM83.5667 49.3719H107.429C107.485 49.5743 107.535 49.7768 107.586 49.9793H83.4351C83.4823 49.7802 83.5262 49.5794 83.5667 49.3769V49.3719ZM83.2781 50.9916H107.875C107.92 51.1941 107.971 51.3915 108.021 51.5939H83.1819C83.2123 51.4016 83.2477 51.1991 83.2781 51.0068V50.9916ZM83.0148 52.6063H108.275C108.32 52.8087 108.371 53.0112 108.416 53.2086H82.9136C82.944 53.0314 82.9794 52.8138 83.0148 52.6113V52.6063ZM82.7516 54.2209H108.659C108.705 54.4284 108.75 54.6309 108.801 54.8283H82.6554C82.6857 54.6309 82.7161 54.4335 82.7516 54.226V54.2209ZM82.4933 55.8356H109.029L109.166 56.443H82.4073C82.4376 56.2506 82.468 56.0684 82.4933 55.8406V55.8356ZM82.2554 57.4553H109.388C109.429 57.6578 109.475 57.8602 109.515 58.0576H82.1744L82.2554 57.4553ZM82.0225 59.07H109.733C109.773 59.2775 109.814 59.4749 109.854 59.6723H81.9364C81.9668 59.48 81.9921 59.2775 82.0225 59.075V59.07ZM81.7997 60.6846H110.052C110.099 60.8938 110.139 61.0963 110.173 61.292H81.7187C81.744 61.0997 81.7744 60.8972 81.7997 60.6897V60.6846ZM81.5972 62.2993H110.361C110.401 62.5119 110.437 62.7144 110.472 62.9067H81.5212C81.5415 62.7346 81.5702 62.5338 81.6073 62.3044L81.5972 62.2993ZM81.4098 63.919H110.639C110.674 64.1367 110.7 64.3391 110.73 64.5214H81.3643C81.3693 64.3493 81.3896 64.167 81.4098 63.9241V63.919ZM110.836 65.5337C110.859 65.6217 110.859 65.7139 110.836 65.802C110.7 65.9386 92.5284 65.6602 84.7869 65.5337H110.836Z" fill="#030402"/>
<path d="M97.5594 32.5778C99.534 35.2858 109.665 46.4721 110.035 47.5148C110.404 48.5575 108.065 50.8453 108.106 51.2756C108.263 53.0319 112.045 64.6737 113.559 63.4944C115.528 61.9354 123.994 50.7643 122.799 45.9456C121.604 41.127 101.858 29.4902 98.7543 28.483C95.6507 27.4757 95.6102 29.9002 97.5594 32.5778Z" fill="#AD6359"/>
<path d="M105.516 42.7658L111.267 34.6672C111.267 34.6672 104.832 30.4508 100.539 28.6337C96.2453 26.8166 94.1137 27.839 98.0477 33.4018C100.345 36.6715 102.839 39.7986 105.516 42.7658Z" fill="url(#paint2_linear_1087_41491)"/>
<path d="M109.564 34.1682C108.653 35.221 107.767 36.3042 106.906 37.4026C106.486 37.9442 106.05 38.4858 105.64 39.0324C105.23 39.5791 104.825 40.2017 104.4 40.7686C104.369 40.8091 104.4 40.8647 104.455 40.8242C104.891 40.2877 105.357 39.8119 105.797 39.2551C106.238 38.6983 106.673 38.1365 107.108 37.5797C107.969 36.4763 108.803 35.3526 109.61 34.2087C109.635 34.1783 109.589 34.1327 109.564 34.1682Z" fill="#263238"/>
<path d="M105.526 42.8116C104.645 41.6424 103.607 40.5997 102.655 39.4861C101.703 38.3726 100.756 37.2388 99.85 36.0847C99.8459 36.0787 99.8397 36.0745 99.8326 36.073C99.8254 36.0716 99.818 36.0731 99.812 36.0771C99.806 36.0811 99.8018 36.0874 99.8003 36.0945C99.7989 36.1016 99.8004 36.109 99.8044 36.1151C100.225 36.7123 100.635 37.3248 101.075 37.9069C101.293 38.2005 101.526 38.4839 101.754 38.7623L101.42 38.489C101.07 38.2258 100.706 37.9828 100.336 37.755C100.336 37.755 100.301 37.755 100.336 37.7905C100.655 38.084 100.989 38.3675 101.349 38.6307C101.602 38.818 101.855 38.9951 102.128 39.1774L102.528 39.6835C103.419 40.8389 104.413 41.9098 105.5 42.8825C105.5 42.9129 105.556 42.8471 105.526 42.8116Z" fill="#263238"/>
<path d="M91.8776 32.4733C93.4927 33.0655 96.642 30.8739 98.009 28.9606C98.1001 28.829 98.1913 23.1346 98.328 22.0109C98.328 21.7781 91.0473 22.8765 91.0473 22.8765C91.2807 24.3339 91.3351 25.8145 91.2093 27.2852C91.189 27.4471 90.3232 31.9014 91.8776 32.4733Z" fill="#AD6359"/>
<path d="M91.0424 22.8763C91.0424 22.8763 91.1234 23.3521 91.1943 24.0506C93.2196 26.5359 96.465 26.794 98.1156 26.7434C98.1763 24.9718 98.2371 22.6941 98.3181 22.0057C98.3535 21.7779 91.0424 22.8763 91.0424 22.8763Z" fill="#263238"/>
<path d="M98.2855 9.87695C98.2855 9.87695 100.614 10.7779 101.095 13.1063C101.576 15.4346 101.095 17.9047 100.898 18.0313C100.701 18.1578 98.2855 9.87695 98.2855 9.87695Z" fill="#263238"/>
<path d="M88.8885 12.8767C88.291 15.448 90.1087 22.6254 92.0073 24.1288C94.7718 26.3053 99.0349 26.2395 100.847 22.9899C102.564 19.8365 100.027 10.5129 97.9261 9.18172C94.8326 7.20768 89.7796 9.08555 88.8885 12.8767Z" fill="#AD6359"/>
<path d="M96.1139 16.915C96.1139 16.915 96.0784 16.9454 96.0835 16.9657C96.1847 17.4718 96.2202 18.0438 95.7999 18.2867C95.7999 18.2867 95.7999 18.3222 95.7999 18.3171C96.3417 18.145 96.2961 17.3706 96.1139 16.915Z" fill="#263238"/>
<path d="M95.5767 16.4707C94.7615 16.5466 94.9792 18.1613 95.7286 18.0904C96.4779 18.0196 96.2551 16.4049 95.5767 16.4707Z" fill="#263238"/>
<path d="M98.9348 16.4141C98.9348 16.4141 98.9753 16.4141 98.9803 16.4546C99.0259 16.9607 99.1626 17.5276 99.6385 17.639V17.6643C99.0765 17.6542 98.8993 16.9 98.9348 16.4141Z" fill="#263238"/>
<path d="M99.3247 15.8337C100.125 15.6717 100.393 17.2813 99.6538 17.4281C98.9146 17.5749 98.6412 15.9704 99.3247 15.8337Z" fill="#263238"/>
<path d="M96.2207 21.1081C96.3523 21.2143 96.489 21.3662 96.6713 21.3662C96.8502 21.3417 97.0224 21.2814 97.1776 21.189C97.1147 21.294 97.0245 21.3801 96.9166 21.438C96.8088 21.4959 96.6873 21.5236 96.5649 21.518C96.4601 21.5 96.3629 21.4515 96.2855 21.3786C96.2081 21.3057 96.1538 21.2116 96.1295 21.1081C96.1295 21.096 96.1343 21.0844 96.1429 21.0758C96.1514 21.0673 96.163 21.0625 96.1751 21.0625C96.1872 21.0625 96.1988 21.0673 96.2073 21.0758C96.2159 21.0844 96.2207 21.096 96.2207 21.1081Z" fill="#263238"/>
<path d="M98.5665 18.7917C98.5665 18.7917 98.7792 19.5256 98.8298 19.8748C98.1428 19.9811 97.4734 20.1804 96.84 20.4671C96.6932 20.543 96.6729 20.4114 96.84 20.2848C97.3087 19.903 97.8828 19.6734 98.4855 19.6268C98.4855 19.5256 98.1362 18.5031 98.1919 18.493C98.4687 18.4764 98.7465 18.4985 99.0172 18.5588C98.6222 17.0403 98.0045 15.5623 97.6096 14.0033C97.6084 13.9923 97.6109 13.9811 97.6167 13.9716C97.6225 13.9621 97.6312 13.9547 97.6416 13.9507C97.652 13.9467 97.6634 13.9462 97.6741 13.9493C97.6848 13.9524 97.6942 13.9589 97.7007 13.9679C98.4343 15.5125 99.011 17.1269 99.4222 18.7866C99.483 18.9941 98.7184 18.8321 98.5665 18.7917Z" fill="#263238"/>
<path d="M94.9516 15.9187C95.1389 15.7922 95.2959 15.6505 95.4579 15.5088C95.6199 15.367 95.8325 15.2456 95.9136 15.0026C95.9279 14.9283 95.9173 14.8513 95.8834 14.7836C95.8496 14.7158 95.7943 14.6612 95.7262 14.628C95.5836 14.5831 95.4316 14.5767 95.2858 14.6096C95.1399 14.6425 95.0053 14.7135 94.8959 14.8153C94.6412 14.988 94.4606 15.2499 94.3896 15.5492C94.3763 15.6199 94.3842 15.6929 94.4123 15.759C94.4404 15.8252 94.4875 15.8815 94.5475 15.921C94.6076 15.9605 94.678 15.9814 94.7499 15.981C94.8218 15.9806 94.8919 15.9589 94.9516 15.9187Z" fill="#263238"/>
<path d="M99.6586 14.0563C99.4358 14.0259 99.2333 13.9601 99.0156 13.9095C98.7822 13.8851 98.5625 13.7877 98.3877 13.6311C98.3433 13.571 98.3194 13.4983 98.3194 13.4236C98.3194 13.3489 98.3433 13.2761 98.3877 13.2161C98.5002 13.1141 98.6381 13.0443 98.7869 13.0141C98.9357 12.9838 99.0899 12.9941 99.2333 13.044C99.5363 13.0949 99.8101 13.2552 100.003 13.4944C100.041 13.5522 100.061 13.6195 100.062 13.6886C100.063 13.7576 100.045 13.8255 100.009 13.8843C99.9726 13.9432 99.9205 13.9906 99.8586 14.0211C99.7966 14.0515 99.7272 14.0637 99.6586 14.0563Z" fill="#263238"/>
<path d="M90.0783 19.0184C91.5669 18.8716 90.7568 12.3066 90.7568 12.3066C91.6756 12.6195 92.6369 12.7902 93.6073 12.8128C94.5891 12.7754 95.5638 12.6295 96.5135 12.3775C96.711 12.2965 94.0225 11.5372 94.0225 11.5372C94.0225 11.5372 100.635 12.1446 100.848 10.8995C100.929 10.4642 99.7033 6.54647 94.2098 6.79449C90.1593 6.98177 88.2708 11.2082 88.2708 11.2082C88.2708 11.2082 86.3013 13.405 86.6405 14.3971C87.2329 16.1079 88.5037 19.1702 90.0783 19.0184Z" fill="#263238"/>
<path d="M90.9758 19.0445C90.9758 19.0445 89.1278 16.8427 88.1101 17.5261C87.0924 18.2094 88.6164 21.4994 89.9227 21.8538C90.0851 21.9111 90.2574 21.9351 90.4292 21.9241C90.6011 21.9131 90.769 21.8675 90.9227 21.7899C91.0765 21.7123 91.2129 21.6045 91.3239 21.4728C91.4348 21.3411 91.5179 21.1883 91.5682 21.0236L90.9758 19.0445Z" fill="#AD6359"/>
<path d="M66.3206 49.2004C62.2094 46.0268 66.1384 29.9156 68.5281 23.9833C69.2319 22.237 80.4011 25.5018 79.8745 27.4607C76.8923 38.5406 70.8217 52.6778 66.3206 49.2004Z" fill="#AD6359"/>
<path d="M78.0233 33.5391L76.793 36.576C76.3727 37.5884 75.9626 38.6007 75.512 39.613C75.0614 40.6254 74.6158 41.6023 74.145 42.5893C73.6741 43.5763 73.1678 44.5431 72.6564 45.5149C73.2969 44.6202 73.8819 43.6871 74.4082 42.7209C74.9146 41.7592 75.4209 40.7671 75.8563 39.7649C76.2917 38.7627 76.7018 37.7402 77.0664 36.6975C77.4309 35.6548 77.7651 34.6071 78.0233 33.5391Z" fill="#263238"/>
</g>
<g clip-path="url(#clip3_1087_41491)">
<rect x="36.0341" width="43.4025" height="43.4025" rx="21.7013" fill="#9BCBD6"/>
<path d="M12.9756 80.0203L87.5737 81.3676C87.5151 82.162 85.4882 52.4066 67.2927 32.9467C66.0507 31.6248 54.4047 30.0106 49.0854 32.5018C25.7464 43.4202 12.9404 80.535 12.9756 80.0203Z" fill="#455A64"/>
<path d="M58.1841 42.6623C58.5584 42.5392 58.959 42.5193 59.3436 42.6047C59.552 42.6822 59.7321 42.821 59.8601 43.0028C59.9882 43.1846 60.0582 43.4009 60.0611 43.6232C60.0591 43.7714 60.0945 43.9177 60.1639 44.0487C60.2333 44.1797 60.3345 44.2911 60.4583 44.3727C60.5969 44.4604 60.7557 44.5111 60.9195 44.52C61.0989 44.5521 61.2846 44.5777 61.4704 44.6225C61.0972 44.7538 60.6931 44.7694 60.3109 44.6674C60.107 44.5814 59.9331 44.437 59.8111 44.2523C59.6891 44.0676 59.6245 43.8509 59.6255 43.6296C59.624 43.4826 59.5842 43.3385 59.5101 43.2116C59.436 43.0846 59.33 42.9792 59.2027 42.9057C59.0623 42.8183 58.9004 42.7718 58.735 42.7712C58.5557 42.7264 58.3699 42.7264 58.1841 42.6623ZM62.3352 65.7239C62.5006 65.7298 62.6617 65.7784 62.8029 65.8649C62.9302 65.9384 63.0361 66.0438 63.1103 66.1707C63.1844 66.2977 63.2242 66.4417 63.2256 66.5887C63.2247 66.8101 63.2893 67.0267 63.4113 67.2114C63.5333 67.3961 63.7072 67.5405 63.9111 67.6265C64.2933 67.7285 64.6974 67.7129 65.0706 67.5817C64.8848 67.5304 64.699 67.5112 64.5197 67.4792C64.3553 67.4683 64.1965 67.4154 64.0584 67.3254C63.9352 67.2448 63.8343 67.1345 63.7648 67.0047C63.6954 66.8748 63.6598 66.7296 63.6613 66.5823C63.658 66.3593 63.5878 66.1424 63.4599 65.9597C63.332 65.777 63.1522 65.6368 62.9438 65.5574C62.5585 65.4744 62.1581 65.4965 61.7843 65.6214C61.9701 65.6919 62.1559 65.7111 62.3352 65.7431V65.7239ZM48.7673 50.4136C48.9325 50.4151 49.0942 50.4616 49.2349 50.5481C49.3606 50.6235 49.4652 50.7293 49.5391 50.8558C49.613 50.9824 49.6538 51.1255 49.6577 51.272C49.6554 51.4928 49.7187 51.7093 49.8396 51.894C49.9605 52.0788 50.1335 52.2235 50.3368 52.3098C50.719 52.4118 51.1231 52.3961 51.4963 52.2649C51.3105 52.2201 51.1311 52.1945 50.9453 52.1624C50.7828 52.1525 50.6258 52.0994 50.4905 52.0087C50.3657 51.9293 50.2631 51.8194 50.1925 51.6894C50.1219 51.5594 50.0856 51.4135 50.0869 51.2656C50.0868 51.0426 50.0178 50.8251 49.8894 50.6428C49.761 50.4604 49.5794 50.3222 49.3695 50.247C48.9869 50.1618 48.5885 50.1818 48.2164 50.3047C48.3957 50.3687 48.5815 50.4136 48.7673 50.4136ZM41.4068 73.9429C41.5712 73.9498 41.7315 73.9959 41.8744 74.0774C42.0001 74.1527 42.1047 74.2586 42.1786 74.3851C42.2525 74.5117 42.2933 74.6548 42.2972 74.8013C42.2949 75.022 42.3582 75.2385 42.4791 75.4233C42.6 75.6081 42.773 75.7527 42.9763 75.839C43.3578 75.9431 43.7619 75.9297 44.1358 75.8006C43.9564 75.7493 43.7706 75.7301 43.5848 75.6917C43.3543 75.6817 43.1366 75.5827 42.9777 75.4154C42.8187 75.2481 42.731 75.0256 42.7328 74.7948C42.7277 74.5722 42.6561 74.3561 42.527 74.1746C42.398 73.993 42.2176 73.8543 42.009 73.7763C41.6264 73.6911 41.228 73.711 40.8559 73.8339C41.0417 73.898 41.221 73.9172 41.4068 73.9557V73.9429ZM35.8848 68.0237C35.7646 68.1385 35.6168 68.2201 35.4556 68.2607C35.3127 68.2974 35.1628 68.2966 35.0203 68.2584C34.8778 68.2203 34.7475 68.1461 34.642 68.0429C34.4869 67.8872 34.2895 67.7804 34.0742 67.736C33.859 67.6916 33.6354 67.7114 33.4313 67.7931C33.0085 67.9789 32.8548 68.344 32.6434 68.6451C32.8035 68.549 32.9509 68.4337 33.1046 68.3312C33.224 68.2191 33.3729 68.1436 33.5338 68.1134C33.6789 68.0824 33.8296 68.0885 33.9717 68.131C34.1139 68.1736 34.2431 68.2512 34.3474 68.3568C34.5055 68.5125 34.7074 68.6162 34.9261 68.654C35.1447 68.6917 35.3697 68.6618 35.5709 68.5682C35.9032 68.3587 36.1714 68.0617 36.346 67.7098C36.1859 67.8187 36.0386 67.934 35.8848 68.0365V68.0237ZM52.3867 64.6157C52.2678 64.7275 52.1222 64.8068 51.9639 64.8463C51.8215 64.8838 51.6719 64.884 51.5295 64.847C51.387 64.81 51.2564 64.737 51.1503 64.6349C50.9956 64.4764 50.797 64.3679 50.5801 64.3234C50.3631 64.2788 50.1378 64.3003 49.9332 64.3851C49.5104 64.5709 49.3567 64.936 49.1453 65.2307C49.3054 65.1357 49.4594 65.0309 49.6065 64.9168C49.73 64.8107 49.8772 64.736 50.0357 64.699C50.1813 64.6669 50.3328 64.6731 50.4753 64.7169C50.6179 64.7607 50.7467 64.8406 50.8492 64.9488C51.0098 65.1027 51.2127 65.2051 51.4319 65.2428C51.651 65.2805 51.8765 65.2517 52.0792 65.1602C52.4098 64.9487 52.6775 64.6522 52.8543 64.3018C52.6878 64.4107 52.5404 64.5068 52.3867 64.6285V64.6157ZM65.4037 80.7076C65.2835 80.8224 65.1357 80.9041 64.9745 80.9446C64.8321 80.9809 64.6828 80.9805 64.5405 80.9435C64.3983 80.9066 64.2677 80.8342 64.1609 80.7332C64.006 80.5751 63.8078 80.4664 63.5912 80.4208C63.3746 80.3752 63.1493 80.3947 62.9438 80.477C62.521 80.6627 62.3673 81.0279 62.1559 81.329C62.3224 81.2329 62.4697 81.1176 62.6235 81.0151C62.742 80.9018 62.8913 80.826 63.0527 80.7973C63.1968 80.7656 63.3467 80.7714 63.4879 80.814C63.6292 80.8566 63.7573 80.9346 63.8599 81.0407C64.0187 81.1972 64.2214 81.3018 64.441 81.3407C64.6606 81.3796 64.8868 81.3509 65.0898 81.2585C65.4209 81.0447 65.6885 80.7461 65.8649 80.3937C65.6984 80.5218 65.5574 80.6179 65.4037 80.7204V80.7076ZM60.1508 54.8273C60.1439 54.9917 60.0977 55.152 60.0162 55.295C59.9417 55.4228 59.8352 55.529 59.7071 55.6031C59.5791 55.6772 59.4339 55.7168 59.286 55.7178C59.0648 55.7176 58.8485 55.7826 58.664 55.9044C58.4795 56.0263 58.3349 56.1998 58.2482 56.4032C58.1497 56.7858 58.1653 57.1888 58.293 57.5627C58.3443 57.3769 58.3635 57.1911 58.4019 57.0118C58.4078 56.8474 58.4588 56.6879 58.5493 56.5505C58.6309 56.4268 58.7423 56.3256 58.8733 56.2562C59.0042 56.1868 59.1506 56.1514 59.2988 56.1534C59.5207 56.1488 59.7362 56.078 59.9177 55.9502C60.0991 55.8224 60.2383 55.6433 60.3173 55.4359C60.4036 55.0509 60.3814 54.6495 60.2533 54.2764C60.2212 54.4622 60.1956 54.648 60.1508 54.8273ZM43.367 43.0659C43.3665 43.2312 43.3199 43.3932 43.2325 43.5335C43.159 43.6608 43.0536 43.7668 42.9266 43.8409C42.7997 43.9151 42.6556 43.9549 42.5086 43.9563C42.2873 43.9554 42.0706 44.02 41.886 44.1419C41.7013 44.2639 41.5568 44.4378 41.4708 44.6418C41.3688 45.024 41.3845 45.4281 41.5157 45.8012C41.5605 45.6155 41.5862 45.4297 41.6182 45.2503C41.6271 45.0865 41.6779 44.9278 41.7655 44.7891C41.848 44.6662 41.9596 44.5656 42.0904 44.4963C42.2211 44.427 42.367 44.3912 42.515 44.3919C42.7372 44.3882 42.953 44.3178 43.1347 44.1899C43.3163 44.0619 43.4553 43.8824 43.5336 43.6745C43.6188 43.2919 43.5988 42.8935 43.4759 42.5214C43.4247 42.7264 43.4055 42.8865 43.367 43.0659ZM43.367 59.1258C43.3655 59.291 43.319 59.4526 43.2325 59.5934C43.1571 59.719 43.0513 59.8237 42.9248 59.8976C42.7982 59.9715 42.6551 60.0123 42.5086 60.0162C42.2878 60.0138 42.0713 60.0772 41.8866 60.198C41.7018 60.3189 41.5571 60.492 41.4708 60.6952C41.3688 61.0774 41.3845 61.4815 41.5157 61.8547C41.5605 61.6689 41.5862 61.4896 41.6182 61.3038C41.6259 61.1418 41.6767 60.9847 41.7655 60.849C41.8468 60.7245 41.958 60.6223 42.0889 60.5518C42.2198 60.4813 42.3663 60.4447 42.515 60.4454C42.7378 60.4443 42.9549 60.375 43.137 60.2467C43.3192 60.1184 43.4576 59.9373 43.5336 59.7279C43.6188 59.3454 43.5988 58.9469 43.4759 58.5748C43.4247 58.7414 43.4055 58.94 43.367 59.1258ZM56.3072 72.9563C56.3003 73.1207 56.2541 73.281 56.1726 73.424C56.0973 73.5496 55.9914 73.6542 55.8649 73.7281C55.7384 73.802 55.5952 73.8428 55.4488 73.8467C55.2278 73.8436 55.0109 73.9065 54.826 74.0275C54.6411 74.1485 54.4965 74.322 54.411 74.5258C54.3069 74.9074 54.3203 75.3114 54.4494 75.6853C54.5007 75.4995 54.5199 75.3201 54.5583 75.1344C54.563 74.9718 54.6141 74.814 54.7057 74.6795C54.7856 74.5538 54.8965 74.4506 55.0278 74.38C55.159 74.3093 55.3061 74.2735 55.4552 74.276C55.6777 74.274 55.8944 74.2043 56.0764 74.0761C56.2583 73.9479 56.3969 73.7674 56.4737 73.5585C56.5601 73.1757 56.538 72.7763 56.4097 72.4054C56.3072 72.5912 56.3072 72.7705 56.3072 72.9563ZM50.3432 37.7233C50.4621 37.6115 50.6076 37.5321 50.766 37.4927C50.9083 37.4552 51.0579 37.4549 51.2004 37.492C51.3429 37.529 51.4734 37.602 51.5795 37.7041C51.7342 37.8626 51.9329 37.9711 52.1498 38.0156C52.3667 38.0601 52.5921 38.0386 52.7967 37.9539C53.2195 37.7681 53.3732 37.403 53.5846 37.1083C53.4234 37.2048 53.2673 37.3095 53.117 37.4222C52.9967 37.5293 52.8512 37.6042 52.6942 37.64C52.5485 37.672 52.3971 37.6659 52.2545 37.6221C52.112 37.5783 51.9832 37.4984 51.8806 37.3902C51.7201 37.2363 51.5172 37.1339 51.298 37.0962C51.0788 37.0585 50.8534 37.0873 50.6507 37.1788C50.3201 37.3903 50.0524 37.6868 49.8755 38.0372C50.0101 37.9603 50.151 37.8514 50.3111 37.7425L50.3432 37.7233Z" fill="white"/>
<path d="M58.1486 38.3614C56.1692 38.6625 52.3256 36.0425 51.1725 33.1598C51.0956 32.9612 51.6209 31.0458 52.1398 28.6755C52.4537 27.2406 52.7804 25.6391 52.947 24.1529C52.9854 23.8454 61.9858 27.5481 61.9858 27.5481C61.2281 29.3402 60.6924 31.2183 60.3907 33.1405C60.37 33.3536 60.37 33.5681 60.3907 33.7811V33.8836C60.4292 35.0367 60.2626 38.0475 58.1486 38.3614Z" fill="#F7A9A0"/>
<path d="M60.3806 33.7571V33.8596C60.0592 33.8591 59.7382 33.8377 59.4197 33.7955C53.9553 33.0076 53.3404 25.9674 53.2763 24.1865C54.897 24.6221 61.9821 27.5369 61.9821 27.5369C61.2254 29.3294 60.6897 31.2073 60.387 33.1293C60.3649 33.3379 60.3628 33.5481 60.3806 33.7571Z" fill="#263238"/>
<path d="M62.624 8.24316C62.624 8.24316 65.7565 9.38984 66.4676 12.4904C67.1786 15.5909 66.6021 18.8964 66.3395 19.0757C66.0768 19.2551 62.624 8.24316 62.624 8.24316Z" fill="#263238"/>
<path d="M50.8821 13.896C50.0622 17.2783 52.3747 26.7656 54.8603 28.7643C58.4668 31.6662 64.0849 31.6342 66.4808 27.3678C68.7997 23.2295 65.5647 10.9172 62.8165 9.12348C58.7615 6.4778 52.0929 8.89287 50.8821 13.896Z" fill="#F7A9A0"/>
<path d="M60.5754 19.0762C60.5754 19.0762 60.5306 19.121 60.537 19.1466C60.71 19.7872 60.7996 20.5368 60.2744 20.8891C60.2744 20.8891 60.2744 20.9275 60.2744 20.9211C60.9726 20.6521 60.8381 19.6591 60.5754 19.0762Z" fill="#263238"/>
<path d="M59.8391 18.5455C58.7885 18.7121 59.1985 20.794 60.1722 20.6403C61.1459 20.4865 60.7167 18.3789 59.8391 18.5455Z" fill="#263238"/>
<path d="M64.3349 18.4453C64.3349 18.4453 64.3926 18.4453 64.399 18.4966C64.5015 19.1372 64.7321 19.8674 65.3599 19.9699C64.6424 20.0468 64.3349 19.0795 64.3349 18.4453Z" fill="#263238"/>
<path d="M64.7743 17.6592C65.7993 17.3773 66.2925 19.4401 65.3444 19.7027C64.3964 19.9654 63.9159 17.8962 64.7743 17.6592Z" fill="#263238"/>
<path d="M58.8264 17.7387C59.0955 17.6106 59.3197 17.4504 59.5759 17.2967C59.8322 17.1429 60.1076 17.0148 60.255 16.6945C60.2868 16.6004 60.2864 16.4983 60.254 16.4044C60.2215 16.3105 60.1588 16.23 60.0756 16.1756C59.8963 16.0923 59.6982 16.0579 59.5013 16.0759C59.3044 16.0939 59.1158 16.1637 58.9546 16.2781C58.5929 16.4638 58.3124 16.7762 58.1666 17.1557C58.138 17.2447 58.1359 17.34 58.1606 17.4301C58.1854 17.5202 58.2358 17.6012 58.3058 17.663C58.3759 17.7249 58.4624 17.765 58.5549 17.7784C58.6473 17.7919 58.7417 17.7781 58.8264 17.7387Z" fill="#263238"/>
<path d="M65.3749 16.4609C65.0738 16.4609 64.7983 16.4289 64.5037 16.4096C64.1944 16.434 63.8857 16.3551 63.626 16.1854C63.5545 16.1163 63.5076 16.0256 63.4926 15.9272C63.4776 15.8289 63.4952 15.7283 63.5428 15.6409C63.6643 15.4852 63.825 15.3646 64.0085 15.2914C64.192 15.2183 64.3916 15.1952 64.5869 15.2245C64.9932 15.2215 65.3861 15.3699 65.6888 15.6409C65.7546 15.7065 65.7999 15.7898 65.8193 15.8807C65.8387 15.9715 65.8314 16.0661 65.7982 16.1529C65.765 16.2397 65.7073 16.3149 65.6322 16.3696C65.557 16.4243 65.4677 16.456 65.3749 16.4609Z" fill="#263238"/>
<path d="M61.1597 25.189C61.3455 25.3043 61.5441 25.4837 61.8003 25.4581C62.032 25.4021 62.2499 25.2997 62.4409 25.157C62.4409 25.157 62.4857 25.157 62.4729 25.157C62.4072 25.3031 62.3024 25.4282 62.1702 25.5186C62.038 25.609 61.8834 25.6612 61.7234 25.6695C61.5813 25.6675 61.4434 25.6215 61.3286 25.5377C61.2139 25.4539 61.128 25.3366 61.0828 25.2018C61.0892 25.189 61.1341 25.1698 61.1597 25.189Z" fill="#263238"/>
<path d="M61.4306 23.1223C61.6443 23.3457 61.9022 23.522 62.1879 23.64C62.4736 23.758 62.7807 23.8152 63.0898 23.8078C63.3587 23.8076 63.6262 23.7688 63.8841 23.6925L64.0314 23.6412C64.08 23.6288 64.1272 23.6116 64.1724 23.59C64.2049 23.5773 64.2322 23.5538 64.2497 23.5236C64.2671 23.4933 64.2738 23.458 64.2685 23.4234C64.2704 23.4021 64.2704 23.3807 64.2685 23.3593V23.3081C64.1852 22.8084 63.9866 22.0589 63.9866 22.0589C64.1852 22.1166 65.1973 22.3472 65.1269 22.0589C64.627 19.8301 63.9015 17.6579 62.9616 15.5761C62.9296 15.512 62.8271 15.576 62.8463 15.6145C63.2947 17.6772 64.1275 19.6503 64.5952 21.713C64.2353 21.6225 63.864 21.5858 63.4933 21.6041C63.4293 21.6361 63.9033 23.0391 63.9225 23.2633C63.5237 23.3868 63.1038 23.4277 62.6886 23.3837C62.2734 23.3396 61.8715 23.2115 61.5075 23.007C61.4306 23.0262 61.4306 23.0775 61.4306 23.1223Z" fill="#263238"/>
<path d="M63.572 23.5038C63.3686 23.9129 63.0643 24.2634 62.688 24.5224C62.476 24.6512 62.2312 24.7157 61.9833 24.7082C61.4388 24.6761 61.3427 24.2021 61.3427 23.7793C61.3558 23.5624 61.3924 23.3477 61.4516 23.1387C62.1007 23.4853 62.8443 23.6133 63.572 23.5038Z" fill="#263238"/>
<path d="M62.7153 24.5121C62.5034 24.6409 62.2586 24.7054 62.0107 24.6978C61.4661 24.6658 61.3701 24.1918 61.3701 23.769C61.6452 23.7228 61.9279 23.7712 62.1722 23.9061C62.4164 24.041 62.6078 24.2546 62.7153 24.5121Z" fill="#FF99BA"/>
<path d="M52.4091 22.864C53.543 22.864 53.8761 19.3983 53.8761 18.0915C53.8761 16.9384 53.2803 13.4536 53.2355 13.2037C53.1907 12.9539 58.6486 14.9333 61.0764 13.4215C63.5043 11.9097 64.6062 9.04621 64.3371 7.92516C64.0681 6.80411 59.9938 4.91433 57.1175 5.56134C54.2412 6.20835 51.397 10.8911 51.397 10.8911C51.7148 10.2348 51.9784 9.55346 52.1849 8.85404C51.7122 9.10616 51.3103 9.47284 51.0159 9.9205C50.7216 10.3682 50.5443 10.8825 50.5001 11.4164C50.5001 11.4164 50.404 9.67401 50.2631 9.68042C50.1222 9.68682 49.078 11.4933 49.6994 12.467C49.6994 12.467 48.4182 14.3568 48.7321 15.9711C49.046 17.5854 51.0703 22.864 52.4091 22.864Z" fill="#263238"/>
<path d="M62.8365 12.361C62.1724 13.0021 61.4141 13.5379 60.588 13.9497C59.6386 14.3082 58.6149 14.4249 57.6092 14.2892C56.6019 14.1872 55.6177 13.9233 54.6945 13.5077C53.8809 13.149 53.1122 12.6557 52.273 12.3674C52.0616 12.2905 51.9271 12.6045 52.0808 12.739C53.7195 14.0659 55.7399 14.8336 57.8462 14.9298C58.8281 14.9731 59.8042 14.7594 60.6782 14.3101C61.5523 13.8607 62.294 13.1911 62.8301 12.3674C62.8301 12.3674 62.8493 12.3482 62.8365 12.361Z" fill="#263238"/>
<path d="M53.7435 21.6698C53.7435 21.6698 51.3348 18.7423 49.9895 19.6263C48.6443 20.5103 50.6301 24.8728 52.3213 25.3533C52.5347 25.4303 52.7615 25.4634 52.988 25.4506C53.2145 25.4378 53.4361 25.3795 53.6395 25.279C53.8429 25.1785 54.0239 25.0379 54.1717 24.8657C54.3194 24.6936 54.4309 24.4934 54.4994 24.2771L53.7435 21.6698Z" fill="#F7A9A0"/>
<path d="M50.6142 20.8594C50.6142 20.8594 50.6142 20.8978 50.6142 20.9042C51.8121 21.2822 52.536 22.3071 53.0164 23.3833C52.9398 23.2735 52.8404 23.1815 52.7249 23.1137C52.6094 23.0459 52.4806 23.0038 52.3474 22.9904C52.2141 22.977 52.0796 22.9926 51.9529 23.0361C51.8262 23.0796 51.7105 23.15 51.6135 23.2424C51.6097 23.2445 51.6064 23.2473 51.6037 23.2507C51.601 23.2541 51.599 23.258 51.5978 23.2622C51.5967 23.2663 51.5963 23.2707 51.5968 23.275C51.5973 23.2793 51.5986 23.2835 51.6007 23.2873C51.6028 23.291 51.6057 23.2944 51.609 23.2971C51.6124 23.2998 51.6163 23.3018 51.6205 23.303C51.6247 23.3041 51.629 23.3045 51.6333 23.304C51.6376 23.3035 51.6418 23.3022 51.6456 23.3001C51.8439 23.2191 52.0624 23.2015 52.2712 23.2496C52.4799 23.2978 52.6687 23.4094 52.8115 23.5691C53.0555 23.8381 53.2702 24.1323 53.4521 24.4467C53.5161 24.5492 53.7019 24.4467 53.6506 24.3635C53.5225 22.8645 52.2093 20.885 50.6142 20.8594Z" fill="#263238"/>
<path d="M58.1887 42.661C58.563 42.5379 58.9636 42.518 59.3482 42.6033C59.5566 42.6809 59.7367 42.8197 59.8647 43.0015C59.9928 43.1833 60.0628 43.3996 60.0657 43.6219C60.0637 43.7701 60.0991 43.9164 60.1685 44.0474C60.2379 44.1784 60.3391 44.2898 60.4629 44.3714C60.6015 44.4591 60.7603 44.5098 60.9241 44.5187C61.1035 44.5508 61.2892 44.5764 61.475 44.6212C61.1018 44.7525 60.6977 44.7681 60.3155 44.6661C60.1116 44.5801 59.9377 44.4356 59.8157 44.251C59.6937 44.0663 59.6291 43.8496 59.6301 43.6283C59.6286 43.4813 59.5888 43.3372 59.5147 43.2103C59.4406 43.0833 59.3346 42.9779 59.2073 42.9044C59.0669 42.817 58.905 42.7705 58.7396 42.7699C58.5603 42.7251 58.3745 42.7251 58.1887 42.661ZM52.9422 37.5362C52.7727 37.6396 52.573 37.682 52.3761 37.6563C52.1792 37.6307 51.997 37.5386 51.8596 37.3953C51.4048 37.3376 50.9692 37.2928 50.5784 37.2607C50.2963 37.4749 50.0646 37.7482 49.8994 38.0615C50.0659 37.9654 50.2068 37.8565 50.3606 37.7476C50.4809 37.6344 50.629 37.5549 50.7898 37.517C50.9322 37.4807 51.0815 37.4811 51.2237 37.5181C51.366 37.555 51.4966 37.6274 51.6033 37.7284C51.757 37.8863 51.9546 37.9946 52.1704 38.0391C52.3862 38.0836 52.6104 38.0624 52.8141 37.9782C53.0016 37.8974 53.1634 37.7667 53.2817 37.6003L52.9422 37.5362Z" fill="white"/>
</g>
<g clip-path="url(#clip4_1087_41491)">
<rect x="0.769531" width="43.4025" height="43.4025" rx="21.7013" fill="#94DB82"/>
<path d="M17.4902 32.5022C21.1227 36.3733 32.1477 46.4668 40.7654 50.0344C44.1152 51.4228 48.191 50.6868 49.8417 49.124C55.6726 43.6065 31.7885 33.4891 31.7885 33.4891C31.5618 33.642 27.6109 30.82 20.6082 28.5857C13.9061 26.4447 15.2358 30.1007 17.4902 32.5022Z" fill="#D3766A"/>
<path d="M34.1886 33.9945L31.8348 46.0283C31.8348 46.0283 21.1868 37.3686 17.4804 33.0076C13.6161 28.4674 14.4975 26.042 22.1192 28.8952C29.6288 31.691 34.1886 33.9945 34.1886 33.9945Z" fill="url(#paint3_linear_1087_41491)"/>
<path d="M30.1642 43.6857C30.1897 43.3799 30.261 43.0716 30.3145 42.7681L30.4826 41.8291C30.5947 41.1958 30.7195 40.5626 30.8469 39.9317C31.1016 38.6677 31.3564 37.406 31.6289 36.1467C31.7054 35.8026 31.7818 35.4561 31.8684 35.112C31.955 34.7679 32.0747 34.3951 32.1664 34.0343C32.1664 34.0104 32.2046 34.0224 32.2021 34.0343C32.1486 34.3473 32.1231 34.6675 32.0722 34.9901C32.0212 35.3127 31.9626 35.6353 31.899 35.9579C31.7792 36.5887 31.6442 37.222 31.5194 37.8528C31.2647 39.093 31.0099 40.3356 30.7144 41.571C30.6329 41.9175 30.5489 42.2616 30.4597 42.6057C30.3705 42.9498 30.3094 43.3392 30.1897 43.6905C30.1948 43.7096 30.1617 43.7072 30.1642 43.6857Z" fill="#282D3E"/>
<path d="M32.4583 42.8176L31.8316 46.0315C31.8316 46.0315 21.1837 37.3718 17.4772 33.0132C16.2341 31.5484 15.4801 30.3058 15.2891 29.3906C18.2695 31.7109 27.8144 39.1544 32.4583 42.8176Z" fill="#282D3E"/>
<path d="M37.4907 18.0693C36.8717 17.4146 32.5692 12.0524 28.9265 10.3056C26.9981 9.38089 21.3914 7.39995 20.645 8.42985C19.9623 9.37133 21.3583 10.2674 21.3583 10.2674C21.3583 10.2674 18.844 9.41913 17.9117 10.7453C16.9794 12.0715 19.4172 13.4646 19.4172 13.4646C19.4172 13.4646 16.7679 12.7693 15.94 14.1457C15.1121 15.5221 17.8124 16.5352 17.8124 16.5352C17.8124 16.5352 15.4204 15.7921 15.2472 17.1971C15.0383 18.8842 19.6108 19.785 21.5188 21.1471C21.9518 21.4553 29.8308 28.0003 29.8308 28.0003L37.4907 18.0693Z" fill="#D3766A"/>
<path d="M17.8206 16.6378C21.1832 17.3069 22.5282 18.1456 24.9532 20.3584C25.0016 20.4038 25.0806 20.3464 25.0348 20.2962C22.8746 17.9258 21.3462 16.645 17.8487 16.4729C17.6754 16.4658 17.6602 16.5948 17.8206 16.6378Z" fill="#282D3E"/>
<path d="M19.413 13.5464C22.8392 14.5261 24.309 15.4246 27.0296 17.568C27.0678 17.599 27.1264 17.5417 27.0907 17.5082C24.6096 15.1952 23.0557 13.9502 19.4945 13.391C19.334 13.3647 19.2576 13.501 19.413 13.5464Z" fill="#282D3E"/>
<path d="M21.4882 10.3737C24.731 11.5494 26.3868 12.467 28.7431 14.8661C28.754 14.877 28.7689 14.8836 28.7849 14.8847C28.8008 14.8857 28.8165 14.8812 28.829 14.8719C28.8415 14.8625 28.8498 14.8492 28.8523 14.8344C28.8548 14.8196 28.8513 14.8045 28.8424 14.792C26.695 12.1253 24.6367 10.9687 21.5366 10.2853C21.3328 10.2399 21.2844 10.2996 21.4882 10.3737Z" fill="#282D3E"/>
<path d="M30.2522 30.5745C30.2522 30.5745 26.1968 29.2172 24.5563 28.2542C22.9158 27.2912 18.2083 21.5849 19.4616 20.5598C21.0817 19.2384 24.4901 22.0294 25.9701 23.6017C25.9701 23.6017 29.7173 20.5407 32.6263 22.0485C35.5354 23.5563 30.2522 30.5745 30.2522 30.5745Z" fill="#D3766A"/>
<path d="M20.026 20.3325C22.4332 20.127 24.2317 22.3087 25.7881 23.7329C25.8101 23.7549 25.8375 23.7716 25.8679 23.7815C25.8983 23.7914 25.9308 23.7943 25.9626 23.7898C25.9944 23.7854 26.0246 23.7737 26.0506 23.7559C26.0765 23.738 26.0975 23.7146 26.1116 23.6875C27.7751 22.4927 30.488 21.2979 32.5819 21.9216C32.5936 21.9243 32.6058 21.9231 32.6166 21.9181C32.6274 21.9132 32.6359 21.9049 32.6408 21.8946C32.6457 21.8843 32.6465 21.8728 32.6432 21.862C32.6399 21.8512 32.6326 21.8418 32.6227 21.8355C30.4727 20.8797 27.7037 21.8594 25.9715 23.2693C24.3998 21.7854 22.4918 19.673 20.0234 20.3158L20.026 20.3325Z" fill="#282D3E"/>
<path d="M45.4805 48.8717C47.3707 49.8275 49.1054 49.9972 50.7587 48.4368C56.5896 42.9193 39.3389 18.8516 36.5903 17.1981C35.1077 16.3044 26.4365 27.5162 28.3801 29.76C29.1774 30.68 31.7859 33.4925 31.7859 33.4925C31.5592 33.6454 40.2177 46.181 45.4805 48.8717Z" fill="#D3766A"/>
<path d="M43.1632 47.4425C42.7633 47.01 42.399 46.5512 42.0195 46.0996C41.6399 45.648 41.2553 45.2059 40.8706 44.7543C40.1217 43.8582 39.3422 42.974 38.6035 42.078C37.1124 40.2842 35.6502 38.4649 34.2169 36.6202C33.8178 36.1025 33.4196 35.5831 33.0222 35.0622C32.6223 34.5341 32.1892 34.0251 31.7969 33.4923C31.7536 33.4349 31.6644 33.4923 31.7027 33.5592C32.0287 34.0371 32.3268 34.5508 32.6579 35.0359C32.9891 35.521 33.3228 35.9917 33.6769 36.4697C34.3562 37.4111 35.0584 38.3407 35.7835 39.2583C37.2253 41.0935 38.7308 42.8832 40.3204 44.6109C40.7687 45.0888 41.2374 45.5667 41.696 46.0446C42.1545 46.5225 42.6716 46.9813 43.1403 47.464C43.1479 47.4831 43.1811 47.464 43.1632 47.4425Z" fill="#282D3E"/>
<path d="M28.6428 65.3691L-3.55078 67.2808C-3.55078 67.2808 -0.162789 38.5033 11.0405 27.9463C12.4263 26.6416 16.4944 26.4958 18.461 27.8124C23.6245 31.2701 28.7192 65.2616 28.6428 65.3691Z" fill="url(#paint4_linear_1087_41491)"/>
<path d="M23.533 39.5181C22.8458 39.8647 22.1906 40.2644 21.5741 40.7129C21.2149 40.971 20.8685 41.2458 20.5322 41.5325C20.4431 41.6066 20.3564 41.6831 20.2775 41.7595C19.875 42.1108 19.4853 42.4764 19.1006 42.8492C18.3058 43.6091 17.511 44.4024 16.5303 45.0165C16.0427 45.3285 15.5053 45.5656 14.9382 45.719C14.3715 45.8672 13.7836 45.9309 13.1958 45.9078L12.3272 45.8266C12.0444 45.7692 11.7617 45.6999 11.4814 45.6378C11.2012 45.5757 10.9389 45.449 10.6688 45.3511C10.3988 45.2531 10.1594 45.1121 9.90463 44.9855C9.01605 44.4783 8.16499 43.9155 7.35727 43.3008L7.11782 43.1312L6.94714 43.0117C6.11512 42.3992 5.20562 41.8856 4.2393 41.4824C3.82868 41.316 3.40223 41.1864 2.96562 41.0952L3.10318 40.7583C3.54096 40.8747 3.96713 41.0266 4.37686 41.2123C5.32863 41.6698 6.22534 42.2218 7.05159 42.8587L7.23754 42.9949L7.45152 43.1503C8.25534 43.7729 9.11245 44.3323 10.0142 44.823C10.9912 45.3451 12.0968 45.6186 13.2213 45.6163C13.7723 45.6178 14.32 45.5371 14.844 45.3773C15.363 45.2104 15.8531 44.9729 16.2985 44.6724C17.1977 44.0726 17.9517 43.2793 18.7363 42.5075C19.042 42.204 19.3528 41.9005 19.6712 41.6042C19.7425 41.5373 19.8139 41.4704 19.8852 41.4083C20.3155 41.0111 20.7669 40.6347 21.2378 40.2804C21.9153 39.7767 22.6419 39.3343 23.4082 38.959L23.533 39.5181ZM26.3071 51.7049C25.7726 51.649 25.2347 51.6274 24.6972 51.6404C23.5342 51.665 22.3797 51.8329 21.2633 52.1398C20.1625 52.4554 19.088 52.8468 18.0485 53.3107C17.0092 53.7432 15.9928 54.2115 14.9178 54.4457C14.6401 54.5056 14.3584 54.5479 14.0747 54.5724C14.0008 54.5724 13.9269 54.5724 13.853 54.5867C13.1113 54.6196 12.3709 54.498 11.6852 54.2307C10.6446 53.8335 9.73291 53.1876 9.04107 52.3572C8.66953 51.925 8.32912 51.47 8.02213 50.9952C7.94571 50.8805 7.87184 50.7658 7.80051 50.6511C7.59672 50.3285 7.39803 50.0011 7.19933 49.6762C6.66301 48.7272 6.01996 47.8348 5.28117 47.0142L5.17928 46.9138C5.04624 46.7767 4.90596 46.6459 4.75896 46.5219C4.08173 45.9378 3.30061 45.4695 2.45105 45.1384C2.1584 45.0264 1.85899 44.9307 1.55438 44.8516C1.50598 44.9998 1.45503 45.1455 1.40663 45.2937C1.70303 45.3626 1.9948 45.448 2.28038 45.5494C3.10971 45.8352 3.87888 46.2558 4.55262 46.792C4.70611 46.91 4.85319 47.0352 4.99332 47.1671L5.05191 47.2221C5.82885 47.9901 6.49981 48.8467 7.04904 49.7717C7.235 50.0633 7.41586 50.3572 7.60182 50.6511L7.82089 50.9976C8.14207 51.5128 8.49771 52.0084 8.88568 52.4815C9.06655 52.6894 9.26269 52.8877 9.4512 53.0908C9.6397 53.2939 9.87151 53.4636 10.0855 53.6452C10.2995 53.8268 10.5542 53.9678 10.7937 54.1231L11.5579 54.5078C12.0929 54.7372 12.6626 54.8872 13.2468 54.9523C13.5562 54.9862 13.8684 54.9926 14.1791 54.9714C14.2555 54.9714 14.3319 54.9714 14.4084 54.9547C14.6094 54.9357 14.8092 54.907 15.007 54.8687C16.1609 54.6488 17.2181 54.1972 18.2574 53.7766C19.2816 53.3406 20.3381 52.9749 21.4187 52.6822C22.4907 52.4024 23.595 52.2459 24.7073 52.2163C25.277 52.1941 25.8477 52.2141 26.4141 52.276C26.381 52.0848 26.3453 51.8984 26.3071 51.7097V51.7049ZM24.0145 41.3414C23.0236 41.6161 21.9833 41.6974 20.9576 41.5803C20.815 41.566 20.6723 41.5469 20.5297 41.523C20.303 41.4871 20.0788 41.4441 19.8546 41.3939C19.1235 41.2218 18.4053 41.0047 17.7046 40.744C16.6519 40.3291 15.5722 39.9771 14.472 39.6902C14.1918 39.6305 13.9065 39.5898 13.6238 39.5396C13.341 39.4895 13.0481 39.4918 12.7602 39.4751C12.4724 39.4584 12.1794 39.4942 11.8916 39.5157L11.0331 39.6615C9.87324 39.917 8.83607 40.5253 8.08327 41.3916C7.68109 41.8483 7.32305 42.3377 7.01338 42.854C6.98026 42.9041 6.94714 42.9543 6.91658 43.0069C6.68731 43.3844 6.47079 43.7644 6.25681 44.1419C5.80276 44.9607 5.29926 45.7546 4.74877 46.5195L4.54244 46.7872L4.50422 46.8374C3.84766 47.6812 3.0847 48.4474 2.23198 49.1194C1.50397 49.7204 0.681754 50.2128 -0.205843 50.5794C-0.261885 50.7825 -0.317927 50.9832 -0.368874 51.1864C0.727704 50.8235 1.74145 50.2698 2.61918 49.5543C3.51348 48.8565 4.30802 48.0533 4.98313 47.1647L5.16909 46.9138C5.74422 46.0982 6.26488 45.2498 6.72807 44.3737C6.92931 44.0129 7.12291 43.6569 7.3267 43.296L7.41331 43.1455C7.7063 42.6232 8.04723 42.1259 8.43225 41.6592C8.77261 41.2561 9.17229 40.9005 9.61932 40.603C10.0769 40.3136 10.5796 40.0927 11.1095 39.9483C12.1878 39.6538 13.3295 39.6291 14.4211 39.8766C15.5193 40.1388 16.5928 40.4848 17.6308 40.9113C18.2854 41.1502 18.9503 41.4011 19.633 41.5947C19.8393 41.652 20.0482 41.707 20.2597 41.7548C20.4711 41.8026 20.6876 41.8456 20.9041 41.879C21.9691 42.0484 23.0598 42.0109 24.1087 41.7691C24.0781 41.6273 24.0459 41.4863 24.0119 41.3462L24.0145 41.3414ZM27.326 57.0718L26.2867 57.4088C25.2277 57.768 24.1364 58.0375 23.0261 58.2141C21.9286 58.3815 20.8088 58.3727 19.7145 58.1878C18.6209 57.9983 17.5852 57.5855 16.6806 56.9786C15.8387 56.389 15.0758 55.7063 14.4084 54.9451L14.2555 54.7803L14.0696 54.5724C13.4194 53.8038 12.7148 53.0774 11.9604 52.3979C11.7438 52.221 11.5146 52.0562 11.2929 51.8841C11.0713 51.7121 10.8115 51.583 10.5695 51.4373C10.3275 51.2915 10.06 51.1983 9.7849 51.0812L8.95701 50.8231C8.57921 50.7308 8.19274 50.6732 7.80306 50.6511H7.59672C7.46935 50.6511 7.34198 50.6511 7.21462 50.6511C6.62471 50.6853 6.04433 50.807 5.49515 51.0119C4.39469 51.411 3.43433 52.0227 2.48417 52.601C1.5539 53.1922 0.579094 53.7193 -0.432558 54.1781C-0.687294 54.288 -0.94203 54.3908 -1.19677 54.4887C-1.25026 54.711 -1.30121 54.9308 -1.34961 55.1506C-0.952221 55.0097 -0.559926 54.8519 -0.177822 54.6727C0.851085 54.1837 1.84041 53.6247 2.78221 53C3.72728 52.4098 4.64688 51.7885 5.66327 51.3871C6.16793 51.1863 6.70064 51.0543 7.24519 50.9952C7.43552 50.9761 7.62699 50.9689 7.81834 50.9737H8.02722C8.31681 50.991 8.60461 51.0285 8.88823 51.086C9.98605 51.3136 11.0007 51.808 11.8304 52.5197C12.562 53.1505 13.2376 53.8362 13.8505 54.57L14.1052 54.8734L14.1689 54.9451C14.8512 55.7721 15.6267 56.5276 16.4819 57.1985C17.3997 57.8802 18.4686 58.3603 19.6101 58.6036C20.7607 58.8439 21.9499 58.8739 23.1127 58.692C24.2449 58.5004 25.3542 58.2043 26.4243 57.8078C26.7478 57.6955 27.0662 57.5808 27.3846 57.4637L27.326 57.0718Z" fill="white"/>
<path d="M18.1328 32.7604C16.2477 33.0567 13.2469 30.1988 12.1388 27.9646C12.065 27.8116 12.4165 26.268 12.7477 24.3802C12.9438 23.2308 13.1349 21.9453 13.2164 20.76C13.2342 20.5211 21.0113 23.054 21.0113 23.054C21.0113 23.054 20.0611 25.4794 19.9287 27.5464C19.9193 27.7059 19.9261 27.866 19.949 28.0243C19.949 28.0482 19.949 28.0745 19.949 28.1056C20.0611 29.0638 19.9541 32.4713 18.1328 32.7604Z" fill="#D3766A"/>
<path d="M19.1373 28.1061C19.4086 28.1274 19.6812 28.1274 19.9525 28.1061C19.9541 28.0791 19.9541 28.052 19.9525 28.0249C19.9304 27.8665 19.9245 27.7065 19.9346 27.547C20.0671 25.4824 21.0173 23.0474 21.0173 23.0474C21.0173 23.0474 14.7023 20.9876 13.4414 20.7559C13.5815 22.1322 14.4705 27.7214 19.1373 28.1061Z" fill="#282D3E"/>
<path d="M10.2306 13.9729C9.99882 16.7233 13.2085 23.8704 15.5546 25.1226C18.9579 26.9434 23.6501 26.2098 25.0766 22.561C26.4573 19.0244 22.1013 9.7816 19.5616 8.72781C15.8221 7.17221 10.5694 9.90586 10.2306 13.9729Z" fill="#D3766A"/>
<path d="M19.1132 17.0148C19.1005 16.9981 19.0827 17.0531 19.0929 17.0722C19.3221 17.5501 19.5004 18.1308 19.1056 18.4701C19.0929 18.4701 19.1056 18.5059 19.1209 18.4964C19.6558 18.2001 19.4113 17.4306 19.1132 17.0148Z" fill="#282D3E"/>
<path d="M18.4291 16.6899C17.5758 16.9527 18.1999 18.5346 18.9896 18.2909C19.7792 18.0472 19.1449 16.4701 18.4291 16.6899Z" fill="#282D3E"/>
<path d="M21.9845 15.8376C21.9845 15.8161 22.0329 15.8376 22.0405 15.8663C22.2163 16.3609 22.5093 16.9009 23.0442 16.8986C23.062 16.8986 23.0697 16.9248 23.0442 16.9272C22.4456 17.0515 22.066 16.3322 21.9845 15.8376Z" fill="#282D3E"/>
<path d="M22.2444 15.1639C23.0621 14.8126 23.7499 16.3587 22.9959 16.6932C22.2419 17.0277 21.5617 15.4578 22.2444 15.1639Z" fill="#282D3E"/>
<path d="M17.7175 16.477C17.937 16.3731 18.1504 16.2582 18.3569 16.1329C18.6019 16.0388 18.8063 15.8706 18.9377 15.655C18.9659 15.581 18.9672 15.5003 18.9414 15.4255C18.9156 15.3508 18.8641 15.2861 18.795 15.2416C18.6438 15.1731 18.4758 15.1436 18.3083 15.1562C18.1408 15.1688 17.98 15.223 17.8423 15.3133C17.5342 15.4564 17.2937 15.7016 17.1673 16.0015C17.1397 16.072 17.1351 16.1486 17.154 16.2216C17.1728 16.2946 17.2143 16.3607 17.2732 16.4115C17.332 16.4624 17.4057 16.4958 17.4848 16.5075C17.5638 16.5191 17.6448 16.5085 17.7175 16.477Z" fill="#282D3E"/>
<path d="M22.3349 13.6476C22.0919 13.6835 21.847 13.7074 21.6013 13.7193C21.346 13.7776 21.0773 13.7549 20.8371 13.6548C20.7681 13.6103 20.7169 13.5455 20.6915 13.4706C20.6662 13.3958 20.6681 13.3151 20.697 13.2414C20.7771 13.103 20.8951 12.987 21.0388 12.9055C21.1825 12.8241 21.3468 12.78 21.5147 12.7778C21.8548 12.7257 22.2033 12.7938 22.4929 12.969C22.5561 13.0125 22.6046 13.0722 22.6323 13.141C22.66 13.2098 22.6659 13.2846 22.6492 13.3565C22.6325 13.4283 22.5939 13.4941 22.5381 13.5458C22.4823 13.5975 22.4117 13.6328 22.3349 13.6476Z" fill="#282D3E"/>
<path d="M20.0939 21.5573C20.2567 21.6613 20.4529 21.7094 20.6492 21.6935C20.8401 21.6209 21.0134 21.5128 21.1587 21.3757C21.1613 21.3725 21.1651 21.3702 21.1694 21.3695C21.1736 21.3687 21.1781 21.3694 21.1818 21.3714C21.1856 21.3735 21.1884 21.3767 21.1898 21.3806C21.1911 21.3845 21.1909 21.3887 21.1892 21.3924C21.1516 21.5139 21.0804 21.6238 20.9829 21.7111C20.8854 21.7984 20.765 21.8599 20.6339 21.8895C20.5169 21.9 20.3992 21.8779 20.2955 21.8261C20.1917 21.7742 20.1066 21.6949 20.0506 21.5979C20.0353 21.5717 20.0709 21.5478 20.0939 21.5573Z" fill="#282D3E"/>
<path d="M20.0538 19.8974C20.2626 20.0449 20.5016 20.1502 20.7558 20.207C21.0101 20.2637 21.2741 20.2706 21.5313 20.2272C21.7576 20.1917 21.9772 20.1257 22.1834 20.0312C22.2244 20.0168 22.2637 19.9984 22.3006 19.9763L22.4076 19.9213C22.4336 19.9063 22.4537 19.8836 22.4647 19.8569C22.4757 19.8301 22.4771 19.8007 22.4687 19.7732C22.4621 19.7568 22.4545 19.7408 22.4458 19.7254L22.4279 19.6824C22.2904 19.3024 22.0255 18.7433 22.0255 18.7433C22.1987 18.76 23.0724 18.8173 22.9833 18.6238C22.2343 17.0276 21.4039 15.2545 20.3009 13.816C20.2652 13.7682 20.1837 13.816 20.2092 13.8614C20.8639 15.4218 21.8064 16.8627 22.4891 18.4183C22.1772 18.3944 21.8633 18.4121 21.5567 18.4709C21.5058 18.5067 22.0891 19.5462 22.1375 19.7206C22.1385 19.7269 22.1385 19.7334 22.1375 19.7397C21.4956 20.0551 20.9097 20.0408 20.0997 19.8425C20.0538 19.821 20.013 19.8688 20.0538 19.8974Z" fill="#282D3E"/>
<path d="M21.8823 19.9255C21.7682 20.2715 21.5612 20.5842 21.2812 20.8335C21.1235 20.9646 20.9272 21.0479 20.7182 21.0725C20.2597 21.1131 20.1068 20.7571 20.0635 20.4249C20.0411 20.2471 20.0411 20.0674 20.0635 19.8896C20.6502 20.083 21.2875 20.0956 21.8823 19.9255Z" fill="#282D3E"/>
<path d="M21.2801 20.8336C21.1225 20.9647 20.9262 21.048 20.7172 21.0725C20.2586 21.1132 20.1058 20.7571 20.0625 20.425C20.5261 20.3079 21.0763 20.4393 21.2801 20.8336Z" fill="#FF97B8"/>
<path d="M18.8907 10.6957C18.7607 11.164 18.5052 11.5934 18.1485 11.943C17.7919 12.2926 17.3458 12.5509 16.8528 12.6934C15.8721 12.9705 14.6621 12.7889 13.908 12.1103C13.8851 12.0912 13.852 12.1246 13.8749 12.1438C14.6824 12.8606 15.8237 13.2525 16.9318 12.9156C17.4469 12.7479 17.9062 12.4565 18.2638 12.0703C18.6214 11.6842 18.8648 11.2168 18.9696 10.7148C18.9724 10.705 18.9708 10.6946 18.9653 10.6858C18.9598 10.6771 18.9508 10.6707 18.9404 10.6682C18.9299 10.6657 18.9188 10.6671 18.9095 10.6723C18.9001 10.6774 18.8934 10.6859 18.8907 10.6957Z" fill="#282D3E"/>
<path d="M13.4324 6.36437C12.1587 6.56987 11.1398 7.63083 10.9054 8.80411C10.7758 9.50514 10.839 10.2256 11.0888 10.8974C11.0897 10.9002 11.0911 10.9028 11.093 10.9051C11.0949 10.9074 11.0973 10.9094 11.1001 10.9108C11.1028 10.9123 11.1058 10.9132 11.1089 10.9135C11.112 10.9139 11.1151 10.9137 11.1181 10.9129C11.1211 10.9121 11.124 10.9108 11.1264 10.909C11.1289 10.9072 11.1309 10.9049 11.1325 10.9024C11.134 10.8998 11.135 10.897 11.1354 10.8941C11.1358 10.8912 11.1355 10.8882 11.1347 10.8854C10.8316 9.7886 11.0022 8.47196 11.7817 7.57826C12.1248 7.15181 12.6017 6.83679 13.1453 6.67737C13.6889 6.51796 14.2721 6.52214 14.8131 6.68935C15.414 6.87605 15.9283 7.25057 16.2702 7.75031C16.2789 7.75917 16.2906 7.76495 16.3033 7.76669C16.316 7.76843 16.329 7.76602 16.34 7.75986C16.351 7.7537 16.3595 7.74416 16.3639 7.73286C16.3684 7.72155 16.3686 7.70915 16.3644 7.69774C16.0812 7.21964 15.6477 6.83509 15.123 6.59648C14.5983 6.35788 14.008 6.27682 13.4324 6.36437Z" fill="#282D3E"/>
<path d="M23.2626 5.11128C22.6615 4.53117 21.8612 4.16894 21.0031 4.08854C19.8109 3.97384 18.8149 4.52344 17.8367 5.08738C17.8113 5.10411 17.8367 5.14234 17.8622 5.12561C18.6977 4.6477 19.5715 4.20802 20.5777 4.22953C21.406 4.24294 22.2041 4.52399 22.8372 5.02525C23.4673 5.55143 23.8741 6.273 23.9831 7.05771C24.0921 7.84242 23.896 8.6377 23.4307 9.29778C23.152 9.671 22.7949 9.98688 22.3814 10.226C21.9679 10.4652 21.5067 10.6226 21.026 10.6885C20.9878 10.6885 20.9878 10.7482 21.026 10.7435C21.6904 10.682 22.323 10.4468 22.8519 10.0647C23.3808 9.68258 23.7848 9.16888 24.0178 8.58204C24.2509 7.9952 24.3036 7.35878 24.1701 6.74519C24.0366 6.13161 23.7222 5.5655 23.2626 5.11128Z" fill="#282D3E"/>
<path d="M10.2212 14.6674C10.2212 14.6674 9.32452 12.5335 9.58435 11.647C9.84418 10.7605 11.044 10.0627 11.044 10.0627C11.044 10.0627 10.9166 7.9814 12.6488 7.0877C14.2027 6.28481 15.9426 7.14266 15.9426 7.14266C15.9426 7.14266 17.1424 4.10792 20.2731 4.182C23.2331 4.24891 24.6291 7.82608 22.8383 9.94084C21.5799 11.4248 18.6606 11.0639 18.6606 11.0639C18.4594 11.1882 16.9004 13.4129 14.3072 12.3208C14.3072 12.3208 13.3468 14.0748 12.0986 13.6805C12.091 13.6805 11.1892 14.6985 10.2212 14.6674Z" fill="#282D3E"/>
<path opacity="0.2" d="M10.924 11.7939C11.3673 12.8908 12.5951 16.033 12.511 16.8741C12.427 17.7153 12.2945 19.8802 11.9557 20.1741C10.8731 17.8682 10.1114 15.3592 10.2311 13.9613C10.2973 13.2012 10.5333 12.4627 10.924 11.7939Z" fill="#282D3E"/>
<path d="M12.9895 19.6874C12.9895 19.6874 10.5822 17.6969 9.57856 18.5595C8.5749 19.4222 10.814 22.5907 12.2991 22.7556C12.4879 22.7887 12.6818 22.7858 12.8693 22.7469C13.0568 22.708 13.2339 22.634 13.3902 22.5294C13.5465 22.4247 13.6786 22.2916 13.7787 22.1379C13.8788 21.9842 13.9448 21.8131 13.9728 21.6349L12.9895 19.6874Z" fill="#D3766A"/>
<path d="M10.2331 19.4496C10.2127 19.4496 10.2153 19.483 10.2331 19.4854C11.2801 19.6312 11.9984 20.3457 12.5741 21.1271C12.2022 20.8594 11.7692 20.7662 11.3794 21.1916C11.359 21.2131 11.3921 21.2441 11.4176 21.2322C11.5736 21.142 11.7558 21.1 11.9386 21.112C12.1213 21.124 12.2955 21.1894 12.4366 21.2991C12.6698 21.4804 12.8816 21.6847 13.0683 21.9084C13.1345 21.9777 13.2772 21.9084 13.2211 21.8152C13.2216 21.8089 13.2216 21.8025 13.2211 21.7961C12.918 20.6491 11.5705 19.2632 10.2331 19.4496Z" fill="#282D3E"/>
<path d="M21.5879 10.7461C22.4983 11.8895 23.2475 13.1384 23.8168 14.4619C24.4024 15.7795 24.8545 17.146 25.1669 18.5432C25.339 19.2429 25.4363 19.9569 25.4573 20.6747C25.49 21.3982 25.3785 22.121 25.1287 22.8062C24.8654 23.4898 24.423 24.1004 23.8423 24.5816C23.2573 25.042 22.5908 25.4027 21.8732 25.6474C22.565 25.3627 23.2019 24.9727 23.7582 24.4932C24.3036 24.0138 24.711 23.413 24.9428 22.7465C25.1654 22.0783 25.2611 21.3787 25.2255 20.6795C25.1966 19.9763 25.0933 19.2775 24.9173 18.5934C24.6193 17.2072 24.1932 15.848 23.6436 14.5312C23.3742 13.8698 23.0681 13.2222 22.7266 12.5908C22.3925 11.9522 22.0121 11.3358 21.5879 10.7461Z" fill="#282D3E"/>
<path d="M8.38505 47.3752L-4.65234 47.3131C-4.65234 47.3131 2.56942 35.9603 6.49491 31.781C10.586 27.4128 13.2811 27.8023 11.6253 35.3438C10.0001 42.761 8.38505 47.3752 8.38505 47.3752Z" fill="url(#paint5_linear_1087_41491)"/>
<path d="M10.181 41.7275C10.4655 41.3337 10.6646 40.8912 10.7669 40.4252C10.7669 40.4252 10.7669 40.4132 10.7516 40.4252C10.6082 40.8264 10.4293 41.2157 10.2167 41.5889C10.2575 41.4193 10.3008 41.252 10.3415 41.0823C10.4918 40.473 10.6421 39.8637 10.7618 39.2495C10.7618 39.2495 10.7466 39.2352 10.744 39.2495C10.4078 40.2938 10.1199 41.3523 9.80912 42.4038C9.49834 43.4552 9.18247 44.5376 8.87424 45.6058C8.70612 46.1888 8.53544 46.7719 8.38005 47.3573C8.16862 47.3716 7.7534 47.3788 7.56744 47.3932C7.51395 47.3932 7.50885 47.4792 7.56744 47.4816C7.88676 47.4985 8.207 47.4922 8.52525 47.4625C9.18757 45.5675 9.70213 43.6392 10.181 41.7275Z" fill="#282D3E"/>
<path d="M11.0968 28.4456C11.8813 30.1287 13.1267 31.5871 14.7064 32.6727C15.4802 33.2306 16.3851 33.6067 17.3455 33.7695C17.849 33.8606 18.3699 33.8107 18.8433 33.6261C19.2854 33.4005 19.6576 33.0712 19.9234 32.6703C20.2351 32.2292 20.4722 31.7456 20.6265 31.2366C20.8096 30.6701 20.9484 30.0919 21.0417 29.5065C21.0417 29.485 21.0799 29.4922 21.0774 29.5065C20.9908 30.0609 20.9525 30.6201 20.8226 31.1673C20.7143 31.6537 20.5378 32.1245 20.2979 32.5675C20.0633 32.993 19.7341 33.3662 19.3324 33.662C18.9026 33.958 18.3774 34.1065 17.8448 34.0825C16.8125 34.0422 15.8131 33.73 14.9612 33.1817C14.1143 32.6573 13.3597 32.0123 12.7246 31.27C12.0035 30.4287 11.4386 29.4795 11.0535 28.4623C11.0484 28.4598 11.0441 28.4559 11.0412 28.4512C11.0383 28.4464 11.0369 28.441 11.0371 28.4356C11.0374 28.4301 11.0393 28.4248 11.0427 28.4204C11.046 28.4159 11.0507 28.4124 11.056 28.4104C11.0614 28.4083 11.0673 28.4077 11.073 28.4086C11.0788 28.4096 11.0841 28.4121 11.0884 28.4158C11.0927 28.4195 11.0957 28.4242 11.0972 28.4295C11.0987 28.4348 11.0986 28.4404 11.0968 28.4456Z" fill="#282D3E"/>
</g>
<defs>
<linearGradient id="paint0_linear_1087_41491" x1="86.4609" y1="27.3848" x2="86.4609" y2="41.6807" gradientUnits="userSpaceOnUse">
<stop stop-color="#F69D01"/>
<stop offset="1" stop-color="#F65901"/>
</linearGradient>
<linearGradient id="paint1_linear_1087_41491" x1="96.0798" y1="27.4924" x2="96.0798" y2="65.843" gradientUnits="userSpaceOnUse">
<stop stop-color="#F69D01"/>
<stop offset="1" stop-color="#F65901"/>
</linearGradient>
<linearGradient id="paint2_linear_1087_41491" x1="103.621" y1="27.8105" x2="103.621" y2="42.7658" gradientUnits="userSpaceOnUse">
<stop stop-color="#F69D01"/>
<stop offset="1" stop-color="#F65901"/>
</linearGradient>
<linearGradient id="paint3_linear_1087_41491" x1="24.7144" y1="27.667" x2="24.7144" y2="46.0283" gradientUnits="userSpaceOnUse">
<stop stop-color="#F69D01"/>
<stop offset="1" stop-color="#F65901"/>
</linearGradient>
<linearGradient id="paint4_linear_1087_41491" x1="12.5464" y1="26.8936" x2="12.5464" y2="67.2808" gradientUnits="userSpaceOnUse">
<stop stop-color="#F69D01"/>
<stop offset="1" stop-color="#F65901"/>
</linearGradient>
<linearGradient id="paint5_linear_1087_41491" x1="3.73409" y1="28.9719" x2="3.73409" y2="47.3752" gradientUnits="userSpaceOnUse">
<stop stop-color="#F69D01"/>
<stop offset="1" stop-color="#F65901"/>
</linearGradient>
<clipPath id="clip0_1087_41491">
<rect x="141.828" width="43.4025" height="43.4025" rx="21.7013" fill="white"/>
</clipPath>
<clipPath id="clip1_1087_41491">
<rect x="106.563" width="43.4025" height="43.4025" rx="21.7013" fill="white"/>
</clipPath>
<clipPath id="clip2_1087_41491">
<rect x="71.2987" width="43.4025" height="43.4025" rx="21.7013" fill="white"/>
</clipPath>
<clipPath id="clip3_1087_41491">
<rect x="36.0341" width="43.4025" height="43.4025" rx="21.7013" fill="white"/>
</clipPath>
<clipPath id="clip4_1087_41491">
<rect x="0.769531" width="43.4025" height="43.4025" rx="21.7013" fill="white"/>
</clipPath>
</defs>
</svg>
