<svg width="96" height="96" viewBox="0 0 96 96" fill="none" xmlns="http://www.w3.org/2000/svg">
<rect width="96" height="96" rx="48" fill="#FF4242" fill-opacity="0.1"/>
<path d="M47.9998 67.0001L44.9387 64.2557C41.385 61.0538 38.447 58.2918 36.1248 55.9696C33.8026 53.6473 31.9553 51.5623 30.5831 49.7143C29.2109 47.8678 28.2524 46.1705 27.7078 44.6223C27.1631 43.0742 26.8901 41.4909 26.8887 39.8723C26.8887 36.5649 27.997 33.8029 30.2137 31.5862C32.4303 29.3696 35.1924 28.2612 38.4998 28.2612C40.3294 28.2612 42.0711 28.6483 43.7248 29.4223C45.3785 30.1964 46.8035 31.2872 47.9998 32.6946C49.1961 31.2872 50.6211 30.1964 52.2748 29.4223C53.9285 28.6483 55.6702 28.2612 57.4998 28.2612C60.8072 28.2612 63.5692 29.3696 65.7859 31.5862C68.0026 33.8029 69.1109 36.5649 69.1109 39.8723C69.1109 41.4909 68.8379 43.0742 68.2918 44.6223C67.7457 46.1705 66.7873 47.8678 65.4165 49.7143C64.0442 51.5623 62.197 53.6473 59.8748 55.9696C57.5526 58.2918 54.6146 61.0538 51.0609 64.2557L47.9998 67.0001Z" fill="#FF4242"/>
</svg>
