<svg width="96" height="96" viewBox="0 0 96 96" fill="none" xmlns="http://www.w3.org/2000/svg">
<rect width="96" height="96" rx="48" fill="#E0EBFF"/>
<g clip-path="url(#clip0_1087_40776)">
<path d="M40.3155 38.7175L40.5015 38.88L57.1199 55.4965C57.3377 55.7141 57.5012 55.98 57.597 56.2725C57.6928 56.5651 57.7183 56.8762 57.6713 57.1805C57.6244 57.4847 57.5064 57.7737 57.3269 58.0238C57.1474 58.2739 56.9114 58.4782 56.6382 58.62L56.411 58.718L36.0737 66.2125C32.2511 67.6225 28.5283 64.029 29.6896 60.2122L29.7875 59.9263L37.2801 39.589C37.3791 39.3196 37.5362 39.0752 37.7401 38.8733C37.9441 38.6713 38.19 38.5166 38.4603 38.4202C38.7307 38.3238 39.0189 38.288 39.3046 38.3154C39.5904 38.3427 39.8666 38.4325 40.1138 38.5785L40.3155 38.7155V38.7175ZM58.0012 47.2245C59.7852 47.3185 62.2312 47.6945 64.3579 48.9713C64.7891 49.2269 65.1058 49.6381 65.2429 50.1202C65.38 50.6024 65.327 51.1187 65.0949 51.5629C64.8627 52.0071 64.4691 52.3454 63.995 52.5081C63.5209 52.6709 63.0025 52.6456 62.5465 52.4376L62.3428 52.3299C61.0072 51.527 59.2996 51.2136 57.7956 51.1353C57.1759 51.0994 56.5545 51.1021 55.9351 51.1431L55.3163 51.2038C54.8055 51.2698 54.2892 51.1318 53.8794 50.8197C53.4695 50.5077 53.1991 50.0468 53.1268 49.5368C53.0544 49.0268 53.1859 48.5088 53.4927 48.0951C53.7995 47.6813 54.257 47.4051 54.766 47.3263C55.8386 47.1878 56.922 47.153 58.0012 47.2225V47.2245ZM61.9668 41.7686C62.4658 41.7696 62.9455 41.9611 63.3081 42.3039C63.6707 42.6467 63.8887 43.115 63.9177 43.6131C63.9467 44.1113 63.7845 44.6017 63.4641 44.9842C63.1438 45.3668 62.6895 45.6126 62.194 45.6715L61.9668 45.6852H60.5803C60.0813 45.6842 59.6016 45.4927 59.239 45.1499C58.8764 44.8071 58.6584 44.3388 58.6294 43.8407C58.6004 43.3426 58.7626 42.8522 59.083 42.4696C59.4034 42.0871 59.8577 41.8412 60.3531 41.7823L60.5803 41.7686H61.9668ZM55.7354 40.2646C56.0726 40.6018 56.2751 41.0504 56.305 41.5264C56.335 42.0023 56.1902 42.4728 55.8979 42.8496L55.7354 43.0337L53.6576 45.1115C53.3052 45.4627 52.8323 45.6666 52.335 45.6818C51.8377 45.697 51.3532 45.5223 50.98 45.1932C50.6068 44.8642 50.3729 44.4054 50.3257 43.9101C50.2785 43.4148 50.4216 42.9201 50.726 42.5265L50.8885 42.3424L52.9643 40.2665C53.1462 40.0845 53.3622 39.94 53.5999 39.8415C53.8377 39.7429 54.0925 39.6922 54.3499 39.6922C54.6072 39.6922 54.8621 39.7429 55.0998 39.8415C55.3375 39.94 55.5535 40.0825 55.7354 40.2646ZM50.6692 29.952C51.5465 32.5879 51.0765 35.4745 50.5282 37.4916C50.1986 38.7491 49.746 39.9711 49.1769 41.14C48.945 41.6048 48.538 41.9585 48.0453 42.1232C47.5526 42.2879 47.0147 42.2502 46.5498 42.0183C46.085 41.7864 45.7313 41.3793 45.5666 40.8866C45.4019 40.3939 45.4396 39.856 45.6715 39.3912C46.1256 38.4522 46.4864 37.471 46.7486 36.4615C47.1931 34.8322 47.4164 33.0638 47.0737 31.6146L46.9542 31.1916C46.8689 30.9467 46.833 30.6873 46.8488 30.4284C46.8645 30.1695 46.9315 29.9164 47.0459 29.6836C47.1602 29.4508 47.3197 29.2431 47.515 29.0724C47.7103 28.9018 47.9376 28.7717 48.1836 28.6896C48.4296 28.6075 48.6895 28.5751 48.9482 28.5942C49.2068 28.6134 49.4591 28.6837 49.6903 28.8012C49.9216 28.9186 50.1272 29.0808 50.2952 29.2784C50.4632 29.4759 50.5904 29.7049 50.6692 29.952ZM61.2736 34.7264C61.6407 35.0937 61.8469 35.5917 61.8469 36.111C61.8469 36.6302 61.6407 37.1283 61.2736 37.4955L59.889 38.88C59.7084 39.0671 59.4923 39.2163 59.2534 39.3189C59.0144 39.4215 58.7575 39.4756 58.4974 39.4778C58.2374 39.4801 57.9795 39.4305 57.7389 39.3321C57.4982 39.2336 57.2795 39.0882 57.0957 38.9043C56.9118 38.7204 56.7664 38.5018 56.6679 38.2611C56.5694 38.0204 56.5199 37.7626 56.5222 37.5025C56.5244 37.2425 56.5784 36.9855 56.6811 36.7466C56.7837 36.5077 56.9329 36.2916 57.1199 36.111L58.5045 34.7264C58.8717 34.3593 59.3697 34.153 59.889 34.153C60.4083 34.153 60.9063 34.3593 61.2736 34.7264Z" fill="#0054F8"/>
</g>
<defs>
<clipPath id="clip0_1087_40776">
<rect width="47" height="47" fill="white" transform="translate(24.5 24.5)"/>
</clipPath>
</defs>
</svg>
