<svg width="96" height="96" viewBox="0 0 96 96" fill="none" xmlns="http://www.w3.org/2000/svg">
<rect width="96" height="96" rx="48" fill="#0596B1" fill-opacity="0.1"/>
<path fill-rule="evenodd" clip-rule="evenodd" d="M41.5834 27C32.2407 27 24.6667 34.574 24.6667 43.9167C24.6667 64.9167 52.6667 69 52.6667 69V60.8333H54.4167C63.7594 60.8333 71.3334 53.2593 71.3334 43.9167C71.3334 34.574 63.7594 27 54.4167 27H41.5834ZM48.0001 47.4167C48.7736 47.4167 49.5155 47.1094 50.0625 46.5624C50.6095 46.0154 50.9167 45.2735 50.9167 44.5C50.9167 43.7265 50.6095 42.9846 50.0625 42.4376C49.5155 41.8906 48.7736 41.5833 48.0001 41.5833C47.2265 41.5833 46.4847 41.8906 45.9377 42.4376C45.3907 42.9846 45.0834 43.7265 45.0834 44.5C45.0834 45.2735 45.3907 46.0154 45.9377 46.5624C46.4847 47.1094 47.2265 47.4167 48.0001 47.4167ZM60.2501 44.5C60.2501 45.2735 59.9428 46.0154 59.3958 46.5624C58.8488 47.1094 58.107 47.4167 57.3334 47.4167C56.5599 47.4167 55.818 47.1094 55.271 46.5624C54.724 46.0154 54.4167 45.2735 54.4167 44.5C54.4167 43.7265 54.724 42.9846 55.271 42.4376C55.818 41.8906 56.5599 41.5833 57.3334 41.5833C58.107 41.5833 58.8488 41.8906 59.3958 42.4376C59.9428 42.9846 60.2501 43.7265 60.2501 44.5ZM38.6667 47.4167C39.4403 47.4167 40.1822 47.1094 40.7291 46.5624C41.2761 46.0154 41.5834 45.2735 41.5834 44.5C41.5834 43.7265 41.2761 42.9846 40.7291 42.4376C40.1822 41.8906 39.4403 41.5833 38.6667 41.5833C37.8932 41.5833 37.1513 41.8906 36.6044 42.4376C36.0574 42.9846 35.7501 43.7265 35.7501 44.5C35.7501 45.2735 36.0574 46.0154 36.6044 46.5624C37.1513 47.1094 37.8932 47.4167 38.6667 47.4167Z" fill="#5EC3EE"/>
</svg>
