<svg width="41" height="41" viewBox="0 0 41 41" fill="none" xmlns="http://www.w3.org/2000/svg">
<g clip-path="url(#clip0_1087_47722)">
<path opacity="0.1" d="M4.5 11.085L20.5 2.08496L36.5 10.085V28.585L20.5 38.085L4.5 28.585V11.085Z" fill="#F68301"/>
<path d="M28.3736 12.2114C27.6521 11.4901 26.6738 11.085 25.6536 11.085C24.6335 11.085 23.6551 11.4901 22.9337 12.2114L22.3374 12.8064L24.1507 14.6197L24.747 14.0247C24.9888 13.7911 25.3128 13.6618 25.649 13.6647C25.9853 13.6677 26.3069 13.8025 26.5447 14.0403C26.7824 14.2781 26.9173 14.5997 26.9202 14.9359C26.9231 15.2722 26.7939 15.5961 26.5603 15.838L22.3374 20.0609L24.1507 21.8742L28.3736 17.6513C29.0948 16.9298 29.5 15.9515 29.5 14.9313C29.5 13.9112 29.0948 12.9328 28.3736 12.2114ZM16.3011 26.0972C16.0593 26.3308 15.7353 26.46 15.3991 26.4571C15.0628 26.4542 14.7412 26.3193 14.5034 26.0815C14.2657 25.8438 14.1308 25.5221 14.1279 25.1859C14.125 24.8496 14.2542 24.5257 14.4878 24.2838L18.7107 20.0609L16.8974 18.2476L12.6745 22.4705C12.3071 22.8254 12.014 23.2499 11.8123 23.7193C11.6107 24.1887 11.5046 24.6935 11.5001 25.2043C11.4957 25.7152 11.593 26.2218 11.7865 26.6946C11.9799 27.1674 12.2656 27.5969 12.6268 27.9581C12.988 28.3194 13.4176 28.605 13.8904 28.7985C14.3632 28.9919 14.8698 29.0893 15.3806 29.0848C15.8914 29.0804 16.3963 28.9742 16.8656 28.7726C17.335 28.571 17.7595 28.2779 18.1144 27.9105L18.7107 27.3154L16.8974 25.5021L16.3011 26.0972ZM18.1144 12.2126C17.3859 11.5288 16.4199 11.1553 15.4208 11.171C14.4218 11.1868 13.4681 11.5906 12.7614 12.297C12.0548 13.0035 11.6508 13.9571 11.6348 14.9562C11.6188 15.9552 11.9921 16.9213 12.6758 17.65L13.2708 18.2463L15.0841 16.433L14.4891 15.8367C14.2555 15.5948 14.1262 15.2709 14.1292 14.9347C14.1321 14.5984 14.2669 14.2768 14.5047 14.039C14.7425 13.8012 15.0641 13.6664 15.4004 13.6635C15.7366 13.6605 16.0605 13.7898 16.3024 14.0234L20.524 18.2476L22.3374 16.4343L18.1144 12.2126Z" fill="url(#paint0_linear_1087_47722)"/>
<path d="M28.3942 22.6715L27.7849 22.085L25.9282 23.8687L26.5375 24.4552C26.7767 24.6932 26.909 25.0118 26.906 25.3426C26.903 25.6733 26.7649 25.9897 26.5215 26.2236C26.278 26.4575 25.9487 26.5901 25.6044 26.593C25.2601 26.5959 24.9284 26.4687 24.6808 26.2389L20.3567 22.085L18.5 23.8687L22.824 28.0226C23.567 28.712 24.5621 29.0934 25.5949 29.0848C26.6278 29.0762 27.6158 28.6782 28.3462 27.9765C29.0766 27.2749 29.4909 26.3257 29.4999 25.3335C29.5088 24.3412 29.1118 23.3853 28.3942 22.6715Z" fill="url(#paint1_linear_1087_47722)"/>
<path d="M18.5524 2.7313C19.749 2.00411 21.251 2.00411 22.4476 2.7313L33.902 9.69262C35.0212 10.3728 35.7045 11.5876 35.7045 12.8972V27.2727C35.7045 28.5824 35.0212 29.7971 33.902 30.4773L22.4476 37.4386C21.251 38.1658 19.749 38.1658 18.5524 37.4386L7.09796 30.4773C5.97877 29.7971 5.29552 28.5824 5.29552 27.2727V12.8972C5.29552 11.5876 5.97877 10.3728 7.09796 9.69262L18.5524 2.7313Z" stroke="url(#paint2_linear_1087_47722)" stroke-width="2.5"/>
</g>
<defs>
<linearGradient id="paint0_linear_1087_47722" x1="20.5" y1="11.085" x2="20.5" y2="29.085" gradientUnits="userSpaceOnUse">
<stop stop-color="#F69D01"/>
<stop offset="1" stop-color="#F65901"/>
</linearGradient>
<linearGradient id="paint1_linear_1087_47722" x1="24" y1="22.085" x2="24" y2="29.085" gradientUnits="userSpaceOnUse">
<stop stop-color="#F69D01"/>
<stop offset="1" stop-color="#F65901"/>
</linearGradient>
<linearGradient id="paint2_linear_1087_47722" x1="20.5" y1="0.0849609" x2="20.5" y2="40.085" gradientUnits="userSpaceOnUse">
<stop stop-color="#F69D01"/>
<stop offset="1" stop-color="#F65901"/>
</linearGradient>
<clipPath id="clip0_1087_47722">
<rect width="40" height="40" fill="white" transform="translate(0.5 0.0849609)"/>
</clipPath>
</defs>
</svg>
