<svg width="40" height="41" viewBox="0 0 40 41" fill="none" xmlns="http://www.w3.org/2000/svg">
<g clip-path="url(#clip0_1087_47757)">
<path opacity="0.1" d="M17 2.08496V11.085H3C1.89543 11.085 1 11.9804 1 13.085V28.585C1 29.6895 1.89543 30.585 3 30.585H6V35.585L12.5 30.585H18.5C19.6046 30.585 20.5 29.6895 20.5 28.585V22.085H36.5C37.6046 22.085 38.5 21.1895 38.5 20.085V4.08496C38.5 2.98039 37.6046 2.08496 36.5 2.08496H17Z" fill="#F68301"/>
<path d="M36.129 1.08496H15.4839V7.44235H18.0645V3.62792H36.129C36.9032 3.62792 37.4194 4.13651 37.4194 4.89939V18.8856C37.4194 19.6485 36.9032 20.1571 36.129 20.1571H19.3548V29.0575H12.5161L7.74194 32.7448V29.0575H3.87097C3.09677 29.0575 2.58065 28.5489 2.58065 27.786V13.7997C2.58065 13.0369 3.09677 12.5283 3.87097 12.5283H20.6452V9.9853H3.87097C1.67742 9.9853 0 11.6382 0 13.7997V27.786C0 29.9475 1.67742 31.6004 3.87097 31.6004H5.16129V38.085L13.2903 31.6004H21.9355V22.7001H36.129C38.3226 22.7001 40 21.0472 40 18.8856V4.89939C40 2.73788 38.3226 1.08496 36.129 1.08496Z" fill="url(#paint0_linear_1087_47757)"/>
<path d="M5 26.085H8.16484L8.95604 24.1074H13.044L13.8352 26.085H17L12.5165 15.085H9.35165L5 26.085ZM10.9341 18.1748L12.2527 22.0063H9.61538L10.9341 18.1748Z" fill="url(#paint1_linear_1087_47757)"/>
<path d="M23 19.085C24.5125 19.085 26.575 18.6759 28.5 17.7213C30.425 18.6759 32.625 19.085 34 19.085V16.3577C34 16.3577 32.625 16.3577 31.1125 15.8122C32.7625 14.1759 34 11.7213 34 8.17587V6.81223H29.875V4.08496H27.125V6.81223H23V9.53951H31.1125C30.8375 11.9941 29.7375 13.4941 28.5 14.4486C27.675 13.7668 26.85 12.8122 26.3 11.585H23.4125C23.9625 13.3577 24.7875 14.7213 25.8875 15.8122C24.5125 16.3577 23.275 16.3577 23 16.3577V19.085Z" fill="url(#paint2_linear_1087_47757)"/>
</g>
<defs>
<linearGradient id="paint0_linear_1087_47757" x1="20" y1="1.08496" x2="20" y2="38.085" gradientUnits="userSpaceOnUse">
<stop stop-color="#F69D01"/>
<stop offset="1" stop-color="#F65901"/>
</linearGradient>
<linearGradient id="paint1_linear_1087_47757" x1="11" y1="15.085" x2="11" y2="26.085" gradientUnits="userSpaceOnUse">
<stop stop-color="#F69D01"/>
<stop offset="1" stop-color="#F65901"/>
</linearGradient>
<linearGradient id="paint2_linear_1087_47757" x1="28.5" y1="4.08496" x2="28.5" y2="19.085" gradientUnits="userSpaceOnUse">
<stop stop-color="#F69D01"/>
<stop offset="1" stop-color="#F65901"/>
</linearGradient>
<clipPath id="clip0_1087_47757">
<rect width="40" height="40" fill="white" transform="translate(0 0.0849609)"/>
</clipPath>
</defs>
</svg>
