<svg width="96" height="96" viewBox="0 0 96 96" fill="none" xmlns="http://www.w3.org/2000/svg">
<rect width="96" height="96" rx="48" fill="#FFF6E6"/>
<path d="M37.6 48C42.6294 48 46.7 43.8902 46.7 38.8125C46.7 33.7348 42.6294 29.625 37.6 29.625C32.5706 29.625 28.5 33.7348 28.5 38.8125C28.5 43.8902 32.5706 48 37.6 48ZM43.84 50.625H43.1656C41.4756 51.4453 39.5987 51.9375 37.6 51.9375C35.6012 51.9375 33.7325 51.4453 32.0344 50.625H31.36C26.1925 50.625 22 54.8578 22 60.075V62.4375C22 64.6113 23.7469 66.375 25.9 66.375H49.3C51.4531 66.375 53.2 64.6113 53.2 62.4375V60.075C53.2 54.8578 49.0075 50.625 43.84 50.625ZM61 48C65.3062 48 68.8 44.4727 68.8 40.125C68.8 35.7773 65.3062 32.25 61 32.25C56.6937 32.25 53.2 35.7773 53.2 40.125C53.2 44.4727 56.6937 48 61 48ZM64.9 50.625H64.5912C63.4619 51.0187 62.2675 51.2812 61 51.2812C59.7325 51.2812 58.5381 51.0187 57.4087 50.625H57.1C55.4425 50.625 53.915 51.109 52.5744 51.8883C54.5569 54.0457 55.8 56.9086 55.8 60.075V63.225C55.8 63.4055 55.7594 63.5777 55.7512 63.75H70.1C72.2531 63.75 74 61.9863 74 59.8125C74 54.7348 69.9294 50.625 64.9 50.625Z" fill="#C17B01"/>
</svg>
