<svg width="1440" height="430" viewBox="0 0 1440 430" fill="none" xmlns="http://www.w3.org/2000/svg">
<path opacity="0.05" d="M1202.26 384.2C1168.16 396.3 1133 461.006 1138.59 489L1497.76 468.182L1509 173C1486.59 178.041 1448.11 180.473 1420.37 213.923C1374.61 269.081 1329.59 234.207 1304.8 258.405C1280.01 282.604 1288.57 305.378 1280.19 334.914C1271.81 364.45 1244.88 369.077 1202.26 384.2Z" fill="#E6E6F0"/>
<path opacity="0.05" d="M1323.17 230.831C1344.02 236.6 1388.19 236.565 1413.45 190.576C1388.49 193.703 1333.32 203.602 1323.17 230.831Z" fill="#E6E6F0"/>
<path opacity="0.05" d="M329.882 98.2753C376.112 81.8497 423.778 -5.9955 416.201 -44L-70.7672 -15.7382L-86 385C-55.6149 378.156 -3.4491 374.855 34.1703 329.443C96.2024 254.561 157.242 301.905 190.851 269.054C224.46 236.203 212.854 205.284 224.218 165.186C235.583 125.088 272.093 118.807 329.882 98.2753Z" fill="#E6E6F0"/>
<path opacity="0.05" d="M331 115C235.26 126.658 227.348 190.524 235.359 221C241.058 221 249.669 207.522 251.464 198.907C255.676 178.694 255.924 183.865 266.33 179.164C275.003 175.247 282.188 179.164 282.188 164.592C282.188 144.183 290.117 153.545 301.514 149.08C312.912 144.614 315.142 141.089 316.629 131.922C317.868 124.283 327.944 118.839 331 115Z" fill="#E6E6F0"/>
</svg>
