<svg width="887" height="814" viewBox="0 0 887 814" fill="none" xmlns="http://www.w3.org/2000/svg">
<path opacity="0.07" d="M706 220.5C801.6 186.5 900.167 4.66666 884.501 -74L-122.5 -15.5L-154 814C-91.1667 799.833 16.7068 793 94.4999 699C222.776 544 349 642 418.5 574C488 506 464 442 487.5 359C511 276 586.5 263 706 220.5Z" fill="#E6E6F0"/>
<path opacity="0.07" d="M707 255C509.658 279.085 493.349 411.035 509.863 474C521.608 474 539.358 446.153 543.059 428.355C551.741 386.594 552.251 397.277 573.702 387.565C591.577 379.472 606.388 387.565 606.388 357.459C606.388 315.294 622.731 334.636 646.224 325.41C669.717 316.184 674.313 308.9 677.378 289.962C679.932 274.178 700.701 262.931 707 255Z" fill="#E6E6F0"/>
</svg>
