<svg width="184" height="144" viewBox="0 0 184 144" fill="none" xmlns="http://www.w3.org/2000/svg">
<path d="M184 137.25H0V137.342H184V137.25Z" fill="#EBEBEB"/>
<path d="M165.563 143.171H153.375V143.263H165.563V143.171Z" fill="#EBEBEB"/>
<path d="M148.742 143.171H122.684V143.263H148.742V143.171Z" fill="#EBEBEB"/>
<path d="M108.314 139.756H101.252V139.848H108.314V139.756Z" fill="#EBEBEB"/>
<path d="M31.9244 140.375H19.3057V140.467H31.9244V140.375Z" fill="#EBEBEB"/>
<path d="M58.144 140.375H35.1992V140.467H58.144V140.375Z" fill="#EBEBEB"/>
<path d="M82.8517 141.927H69.3057V142.019H82.8517V141.927Z" fill="#EBEBEB"/>
<path d="M87.2162 120.837H16.1591C15.6025 120.836 15.0689 120.614 14.6757 120.22C14.2824 119.826 14.0615 119.292 14.0615 118.736V18.8495C14.0664 18.296 14.2894 17.7668 14.6821 17.3768C15.0749 16.9868 15.6056 16.7675 16.1591 16.7666H87.2162C87.7735 16.7666 88.308 16.988 88.7021 17.3821C89.0961 17.7761 89.3175 18.3106 89.3175 18.8679V118.736C89.3175 119.293 89.0961 119.827 88.7021 120.222C88.308 120.616 87.7735 120.837 87.2162 120.837ZM16.1591 16.8402C15.6269 16.8412 15.1167 17.0533 14.7407 17.43C14.3647 17.8067 14.1535 18.3172 14.1535 18.8495V118.736C14.1535 119.268 14.3647 119.778 14.7407 120.155C15.1167 120.532 15.6269 120.744 16.1591 120.745H87.2162C87.7488 120.744 88.2593 120.532 88.6359 120.155C89.0126 119.779 89.2246 119.268 89.2255 118.736V18.8495C89.2246 18.3169 89.0126 17.8064 88.6359 17.4298C88.2593 17.0532 87.7488 16.8412 87.2162 16.8402H16.1591Z" fill="#EBEBEB"/>
<path d="M166.818 120.837H95.7575C95.2005 120.836 94.6666 120.614 94.2728 120.22C93.8789 119.827 93.6572 119.293 93.6562 118.736V18.8495C93.6621 18.2957 93.8859 17.7665 94.2792 17.3766C94.6726 16.9867 95.2037 16.7675 95.7575 16.7666H166.818C167.371 16.7685 167.901 16.9882 168.293 17.3781C168.685 17.768 168.907 18.2967 168.912 18.8495V118.736C168.912 119.292 168.692 119.825 168.299 120.219C167.907 120.613 167.374 120.835 166.818 120.837ZM95.7575 16.8402C95.2249 16.8412 94.7144 17.0532 94.3378 17.4298C93.9612 17.8064 93.7492 18.3169 93.7482 18.8495V118.736C93.7492 119.268 93.9612 119.779 94.3378 120.155C94.7144 120.532 95.2249 120.744 95.7575 120.745H166.818C167.351 120.744 167.861 120.532 168.238 120.155C168.615 119.779 168.827 119.268 168.828 118.736V18.8495C168.827 18.3169 168.615 17.8064 168.238 17.4298C167.861 17.0532 167.351 16.8412 166.818 16.8402H95.7575Z" fill="#EBEBEB"/>
<path d="M27.9091 67.6318H77.8467V24.3661L27.9091 24.3661L27.9091 67.6318Z" fill="#E6E6E6"/>
<path d="M26.7938 67.6318H76.7314V24.3661L26.7938 24.3661L26.7938 67.6318Z" fill="#F5F5F5"/>
<path d="M74.7402 66.0862V25.9116L28.7881 25.9116V66.0862H74.7402Z" fill="#FAFAFA"/>
<path d="M56.312 66.0862L64.6398 25.9116H47.2187L38.8945 66.0862H56.312Z" fill="white"/>
<path d="M29.6279 66.0896L29.6279 25.915H28.7889L28.7889 66.0896H29.6279Z" fill="#E6E6E6"/>
<path d="M27.6183 58.8843L75.9072 58.8843V56.8088L27.6183 56.8088V58.8843Z" fill="#F5F5F5"/>
<path d="M75.5284 135.061H83.5029V100.48H75.5284V135.061Z" fill="#F0F0F0"/>
<path d="M23.4525 137.25H81.9756V135.06H23.4525V137.25Z" fill="#F0F0F0"/>
<path d="M75.5282 100.476H21.918V135.057H75.5282V100.476Z" fill="#F5F5F5"/>
<path d="M72.3969 104.733H25.0537V116.075H72.3969V104.733Z" fill="#F0F0F0"/>
<path d="M72.3969 119.461H25.0537V130.803H72.3969V119.461Z" fill="#F0F0F0"/>
<path d="M35.965 111.181H61.4858C61.6914 111.18 61.8883 111.098 62.0337 110.952C62.1791 110.807 62.2613 110.61 62.2622 110.404C62.2613 110.198 62.1793 110.001 62.034 109.855C61.8887 109.709 61.6917 109.626 61.4858 109.624H35.965C35.759 109.626 35.562 109.709 35.4167 109.855C35.2714 110.001 35.1894 110.198 35.1885 110.404C35.1894 110.61 35.2716 110.807 35.417 110.952C35.5624 111.098 35.7593 111.18 35.965 111.181Z" fill="#F5F5F5"/>
<path d="M35.965 125.908H61.4858C61.6914 125.907 61.8883 125.825 62.0337 125.68C62.1791 125.534 62.2613 125.337 62.2622 125.132C62.2622 124.925 62.1805 124.728 62.035 124.581C61.8895 124.435 61.692 124.353 61.4858 124.352H35.965C35.7587 124.353 35.5612 124.435 35.4157 124.581C35.2702 124.728 35.1885 124.925 35.1885 125.132C35.1894 125.337 35.2716 125.534 35.417 125.68C35.5624 125.825 35.7593 125.907 35.965 125.908Z" fill="#F5F5F5"/>
<path d="M158.836 46.9797C163.377 45.7285 164.93 37.489 153.456 34.1255C155.988 42.4128 150.921 49.1509 158.836 46.9797Z" fill="#EBEBEB"/>
<path d="M159.84 50.5567C163.421 46.689 160.035 37.9379 147.141 41.5149C154.434 47.896 153.603 57.3021 159.84 50.5567Z" fill="#E0E0E0"/>
<path d="M156.308 51.5502C153.312 48.5841 157.603 38.2617 167.495 43.0457C161.891 48.4148 161.552 56.7206 156.308 51.5502Z" fill="#FAFAFA"/>
<path d="M153.319 57.3278H162.037L162.696 51.4287H152.664L153.319 57.3278Z" fill="#E6E6E6"/>
<path d="M152.565 52.4848H162.796C162.969 52.4848 163.134 52.4162 163.256 52.2941C163.379 52.1719 163.447 52.0062 163.447 51.8335C163.447 51.6607 163.379 51.4951 163.256 51.3729C163.134 51.2508 162.969 51.1821 162.796 51.1821H152.565C152.393 51.1821 152.227 51.2508 152.105 51.3729C151.983 51.4951 151.914 51.6607 151.914 51.8335C151.914 52.0062 151.983 52.1719 152.105 52.2941C152.227 52.4162 152.393 52.4848 152.565 52.4848Z" fill="#E6E6E6"/>
<path d="M79.9697 127.259V117.267H88.2901V107.28H96.6143V97.2888H104.935V87.2976H113.259V77.31H121.579V67.3188H129.904V57.3276H138.228H184V137.25H79.9697H71.6455V127.259H79.9697Z" fill="#FAFAFA"/>
<path d="M125.742 127.259V117.267H134.067V107.28H142.387V97.2888H150.711V87.2976H159.032V77.31H167.356V67.3188H175.676V57.3276H184V67.3188V137.25H125.742H117.422V127.259H125.742Z" fill="#E0E0E0"/>
<path d="M117.422 127.259H71.1572V130.254H117.422V127.259Z" fill="#EBEBEB"/>
<path d="M125.745 117.268H79.4805V120.263H125.745V117.268Z" fill="#EBEBEB"/>
<path d="M134.067 107.28H87.8018V110.275H134.067V107.28Z" fill="#EBEBEB"/>
<path d="M142.39 97.2886H96.125V100.284H142.39V97.2886Z" fill="#EBEBEB"/>
<path d="M150.71 87.2974H104.445V90.2929H150.71V87.2974Z" fill="#EBEBEB"/>
<path d="M159.034 77.3105H112.77V80.3061H159.034V77.3105Z" fill="#EBEBEB"/>
<path d="M167.355 67.3193H121.09V70.3149H167.355V67.3193Z" fill="#EBEBEB"/>
<path d="M175.68 57.3276H129.415V60.3232H175.68V57.3276Z" fill="#EBEBEB"/>
<path opacity="0.2" d="M87.688 97.5392C78.6783 101.039 68.8329 101.789 59.397 99.6943C49.961 97.5992 41.3582 92.7532 34.6763 85.7689C27.9945 78.7846 23.5337 69.9758 21.8581 60.4564C20.1825 50.937 21.3673 41.1345 25.2627 32.2884C29.1581 23.4423 35.5892 15.95 43.7426 10.7588C51.8961 5.56767 61.4057 2.91081 71.0691 3.12422C80.7326 3.33763 90.1157 6.41172 98.032 11.9578C105.948 17.5038 112.042 25.2728 115.543 34.2822C117.869 40.2646 118.993 46.6466 118.852 53.0635C118.71 59.4805 117.306 65.8068 114.72 71.681C112.133 77.5552 108.414 82.8623 103.776 87.2991C99.1379 91.7359 93.6712 95.2155 87.688 97.5392Z" fill="#407BFF"/>
<path opacity="0.1" d="M78.8431 3.92141L40.5114 90.9762C39.9211 90.5295 39.3361 90.0668 38.7618 89.5989C35.0569 86.534 31.8306 82.933 29.1895 78.9151L62.299 3.71933C67.7844 2.83584 73.381 2.9042 78.8431 3.92141Z" fill="white"/>
<path opacity="0.1" d="M106.092 19.0246L70.0528 100.873C62.5669 100.881 55.1795 99.1671 48.4619 95.8636L87.8147 6.48486C94.7864 9.21141 101.039 13.5014 106.092 19.0246Z" fill="white"/>
<path d="M29.7538 19.0621C36.266 11.1049 44.9914 5.25749 54.8269 2.25927C64.6623 -0.738964 75.1659 -0.753327 85.0095 2.21799C94.8531 5.18932 103.595 11.0129 110.128 18.9522C116.662 26.8916 120.695 36.5902 121.717 46.8216C122.739 57.0529 120.704 67.3575 115.869 76.4323C111.035 85.5071 103.618 92.9445 94.5564 97.804C85.4949 102.664 75.1959 104.727 64.9617 103.733C54.7276 102.739 45.018 98.7332 37.0607 92.2211C26.3914 83.4878 19.6278 70.8743 18.2576 57.1547C16.8873 43.4352 21.0225 29.7331 29.7538 19.0621ZM106.928 82.2181C112.906 74.9111 116.582 65.9957 117.493 56.5992C118.404 47.2027 116.508 37.7471 112.045 29.428C107.582 21.109 100.753 14.3001 92.4205 9.86231C84.088 5.42454 74.6267 3.55721 65.233 4.49643C55.8393 5.43565 46.935 9.13925 39.6461 15.1389C32.3572 21.1386 27.011 29.1648 24.2836 38.2028C21.5561 47.2408 21.5699 56.8846 24.3232 65.9147C27.0764 74.9449 32.4455 82.9558 39.7515 88.9346C44.6032 92.9049 50.1895 95.8807 56.1913 97.6919C62.1931 99.5031 68.4929 100.114 74.7309 99.4906C80.9689 98.8669 87.023 97.0205 92.5474 94.0568C98.0718 91.0932 102.958 87.0704 106.928 82.2181Z" fill="#407BFF"/>
<path d="M111.518 82.0375C116.639 85.0953 121.511 88.4562 126.297 91.9235C131.083 95.3909 135.747 99.0017 140.336 102.708C144.926 106.415 149.43 110.228 153.775 114.232C155.951 116.232 158.079 118.285 160.156 120.391C162.241 122.518 164.288 124.645 166.219 126.953C166.665 127.487 166.91 128.16 166.914 128.856C166.917 129.552 166.678 130.228 166.238 130.767C165.797 131.305 165.183 131.674 164.5 131.809C163.817 131.943 163.108 131.836 162.496 131.505C159.837 130.069 157.348 128.484 154.865 126.862C152.381 125.24 149.956 123.549 147.563 121.81C142.777 118.343 138.145 114.69 133.609 110.919C129.073 107.149 124.606 103.293 120.261 99.2836C115.916 95.2739 111.656 91.1684 107.647 86.7545C107.146 86.2086 106.859 85.5004 106.838 84.76C106.817 84.0195 107.064 83.2963 107.533 82.7231C108.002 82.1499 108.663 81.765 109.393 81.6391C110.123 81.5131 110.873 81.6546 111.508 82.0375H111.518Z" fill="#407BFF"/>
</svg>
