<svg width="123" height="33" viewBox="0 0 123 33" fill="none" xmlns="http://www.w3.org/2000/svg">
<path d="M45.778 23.2009C44.7469 23.2009 43.7894 23.0201 42.9055 22.6585C42.0217 22.2835 41.2449 21.768 40.5754 21.1118C39.9192 20.4422 39.4103 19.6655 39.0487 18.7816C38.7005 17.8978 38.5264 16.947 38.5264 15.9292C38.5264 14.9114 38.7005 13.9606 39.0487 13.0768C39.4103 12.1929 39.9192 11.4229 40.5754 10.7667C41.2449 10.1105 42.015 9.59497 42.8854 9.22C43.7693 8.84503 44.7335 8.65755 45.778 8.65755C46.9029 8.65755 47.8939 8.84503 48.751 9.22C49.608 9.58157 50.3647 10.0838 51.0208 10.7266L49.1728 12.5746C48.7844 12.1461 48.309 11.8113 47.7466 11.5702C47.1841 11.3292 46.5279 11.2087 45.778 11.2087C45.1218 11.2087 44.5192 11.3225 43.9701 11.5501C43.4345 11.7644 42.9658 12.0858 42.564 12.5143C42.1623 12.9295 41.8543 13.4317 41.64 14.0209C41.4257 14.5967 41.3186 15.2328 41.3186 15.9292C41.3186 16.639 41.4257 17.2818 41.64 17.8576C41.8543 18.4334 42.1623 18.9356 42.564 19.3642C42.9658 19.7793 43.4345 20.1007 43.9701 20.3284C44.5192 20.556 45.1218 20.6699 45.778 20.6699C46.5681 20.6699 47.2444 20.5493 47.8068 20.3083C48.3827 20.0672 48.8648 19.7257 49.2531 19.2838L51.1012 21.1319C50.445 21.7881 49.6817 22.2969 48.8112 22.6585C47.9408 23.0201 46.9297 23.2009 45.778 23.2009ZM59.6493 23V17.4358C59.6493 16.8599 59.4686 16.3912 59.107 16.0297C58.7454 15.6681 58.2767 15.4873 57.7009 15.4873C57.3259 15.4873 56.9911 15.5676 56.6965 15.7283C56.4019 15.889 56.1675 16.1167 55.9934 16.4113C55.8327 16.7059 55.7524 17.0474 55.7524 17.4358L54.7279 16.9135C54.7279 16.1502 54.8886 15.4873 55.21 14.9248C55.5314 14.349 55.9733 13.9004 56.5358 13.579C57.1116 13.2576 57.7678 13.0969 58.5044 13.0969C59.2409 13.0969 59.8904 13.2576 60.4528 13.579C61.0287 13.9004 61.4773 14.3423 61.7987 14.9048C62.1201 15.4672 62.2808 16.1167 62.2808 16.8532V23H59.6493ZM53.1209 23V8.47676H55.7524V23H53.1209ZM68.8599 23.2009C67.9761 23.2009 67.1793 22.9799 66.4695 22.538C65.7598 22.0961 65.204 21.4934 64.8023 20.7301C64.4005 19.9668 64.1996 19.1097 64.1996 18.1589C64.1996 17.1947 64.4005 16.331 64.8023 15.5676C65.204 14.8043 65.7598 14.2017 66.4695 13.7598C67.1793 13.3178 67.9761 13.0969 68.8599 13.0969C69.5563 13.0969 70.179 13.2375 70.7281 13.5187C71.2771 13.7999 71.7123 14.195 72.0337 14.7039C72.3685 15.1994 72.5493 15.7618 72.5761 16.3912V19.8864C72.5493 20.5292 72.3685 21.0984 72.0337 21.5939C71.7123 22.0894 71.2771 22.4844 70.7281 22.779C70.179 23.0603 69.5563 23.2009 68.8599 23.2009ZM69.342 20.7703C70.0786 20.7703 70.6745 20.5292 71.1298 20.0471C71.5851 19.5517 71.8128 18.9155 71.8128 18.1388C71.8128 17.63 71.7056 17.1813 71.4914 16.793C71.2905 16.3912 71.0026 16.0832 70.6276 15.869C70.266 15.6413 69.8375 15.5275 69.342 15.5275C68.8599 15.5275 68.4314 15.6413 68.0564 15.869C67.6948 16.0832 67.4069 16.3912 67.1927 16.793C66.9918 17.1813 66.8913 17.63 66.8913 18.1388C66.8913 18.6611 66.9918 19.1231 67.1927 19.5249C67.4069 19.9132 67.6948 20.2212 68.0564 20.4489C68.4314 20.6632 68.8599 20.7703 69.342 20.7703ZM71.6722 23V20.3886L72.094 18.0183L71.6722 15.6882V13.2978H74.2835V23H71.6722ZM78.4394 23V9.26017H81.0709V23H78.4394ZM76.1696 15.6078V13.2978H83.3408V15.6078H76.1696ZM87.8137 23L84.1779 13.2978H86.8294L89.1997 20.3485L88.3962 20.3685L90.8268 13.2978H92.7351L95.1657 20.3685L94.3622 20.3485L96.7325 13.2978H99.3841L95.7683 23H93.86L91.4094 16.2908H92.1526L89.7019 23H87.8137ZM104.904 23.2009C104.021 23.2009 103.224 22.9799 102.514 22.538C101.804 22.0961 101.248 21.4934 100.847 20.7301C100.445 19.9668 100.244 19.1097 100.244 18.1589C100.244 17.1947 100.445 16.331 100.847 15.5676C101.248 14.8043 101.804 14.2017 102.514 13.7598C103.224 13.3178 104.021 13.0969 104.904 13.0969C105.601 13.0969 106.223 13.2375 106.772 13.5187C107.322 13.7999 107.757 14.195 108.078 14.7039C108.413 15.1994 108.594 15.7618 108.621 16.3912V19.8864C108.594 20.5292 108.413 21.0984 108.078 21.5939C107.757 22.0894 107.322 22.4844 106.772 22.779C106.223 23.0603 105.601 23.2009 104.904 23.2009ZM105.386 20.7703C106.123 20.7703 106.719 20.5292 107.174 20.0471C107.63 19.5517 107.857 18.9155 107.857 18.1388C107.857 17.63 107.75 17.1813 107.536 16.793C107.335 16.3912 107.047 16.0832 106.672 15.869C106.31 15.6413 105.882 15.5275 105.386 15.5275C104.904 15.5275 104.476 15.6413 104.101 15.869C103.739 16.0832 103.451 16.3912 103.237 16.793C103.036 17.1813 102.936 17.63 102.936 18.1388C102.936 18.6611 103.036 19.1231 103.237 19.5249C103.451 19.9132 103.739 20.2212 104.101 20.4489C104.476 20.6632 104.904 20.7703 105.386 20.7703ZM107.717 23V20.3886L108.138 18.0183L107.717 15.6882V13.2978H110.328V23H107.717ZM116.111 23.0803L112.053 13.2978H114.906L117.597 20.7703H116.633L119.425 13.2978H122.298L117.979 23.0603L116.111 23.0803ZM113.419 27.0577L116.372 20.8105L117.979 23.0603L116.211 27.0577H113.419Z" fill="white"/>
<path d="M10.316 31.6494C9.78327 30.435 8.68331 29.5637 7.37927 29.3229L3.08479 28.5301C1.75114 28.2839 0.783203 27.1209 0.783203 25.7647V8.91912C0.783203 6.84523 1.79953 4.903 3.50341 3.72071L7.14831 1.1916C8.58829 0.192428 10.3633 -0.200658 12.0905 0.0971355L25.1146 2.34266C27.8122 2.80777 29.7832 5.14765 29.7832 7.88512V20.6465C29.7832 22.1571 29.1756 23.6042 28.0971 24.6619L23.4585 29.2113C21.6996 30.9363 19.196 31.6702 16.7842 31.1677L15.5165 30.9036C14.1498 30.6189 12.7336 31.0673 11.7798 32.0867L11.6426 32.2333C11.2977 32.6019 10.6883 32.4977 10.4854 32.0355L10.316 31.6494Z" fill="#0446DE"/>
<path d="M6.96577 5.75474C4.13421 5.17935 1.48608 7.34348 1.48608 10.2329V24.6233C1.48608 25.9789 2.45321 27.1415 3.78615 27.3884L8.09441 28.1862C9.36395 28.4213 10.4286 29.2822 10.9242 30.4744C11.0763 30.8402 11.5624 30.9139 11.8161 30.6097L11.9285 30.4748C12.7565 29.4817 14.0136 28.9501 15.3029 29.0477L18.4182 29.2837C20.6624 29.4538 22.577 27.6787 22.577 25.4281V11.2252C22.577 9.88796 21.6353 8.73568 20.3249 8.46939L6.96577 5.75474Z" fill="#0049D6"/>
<path d="M6.66195 5.74082C4.92641 5.40424 3.31445 6.73362 3.31445 8.5015V23.2983C3.31445 24.6959 4.34083 25.8814 5.72404 26.0815L8.30985 26.4555C9.55839 26.6361 10.633 27.4311 11.171 28.5721C11.3201 28.9387 11.805 29.0165 12.0612 28.7149C12.8807 27.764 14.1288 27.2971 15.3712 27.4768L19.3619 28.054C21.0576 28.2992 22.5766 26.9841 22.5766 25.2708V11.1463C22.5766 9.79962 21.6219 8.64198 20.2998 8.3856L6.66195 5.74082Z" fill="white"/>
<path d="M15.4928 20.406L10.6206 19.5518C8.9405 19.2573 7.67087 20.6354 8.74796 21.9581C9.8488 23.31 11.614 24.4352 14.1301 23.7885C14.6885 23.645 15.7674 23.0713 16.4876 22.2537C17.1431 21.5095 16.4696 20.5772 15.4928 20.406Z" fill="#0054F8"/>
<ellipse cx="8.76204" cy="13.8928" rx="1.43922" ry="2.46724" transform="rotate(-4.90348 8.76204 13.8928)" fill="#0054F8"/>
<ellipse cx="16.3675" cy="15.2976" rx="1.43922" ry="2.46724" transform="rotate(-4.90348 16.3675 15.2976)" fill="#0054F8"/>
</svg>
