<svg width="120" height="33" viewBox="0 0 120 33" fill="none" xmlns="http://www.w3.org/2000/svg">
<path d="M42.2419 23.2009C41.2107 23.2009 40.2532 23.0201 39.3694 22.6585C38.4855 22.2835 37.7088 21.768 37.0392 21.1118C36.383 20.4422 35.8742 19.6655 35.5126 18.7816C35.1644 17.8978 34.9903 16.947 34.9903 15.9292C34.9903 14.9114 35.1644 13.9606 35.5126 13.0768C35.8742 12.1929 36.383 11.4229 37.0392 10.7667C37.7088 10.1105 38.4788 9.59497 39.3493 9.22C40.2331 8.84503 41.1973 8.65755 42.2419 8.65755C43.3668 8.65755 44.3578 8.84503 45.2148 9.22C46.0719 9.58157 46.8285 10.0838 47.4847 10.7266L45.6367 12.5746C45.2483 12.1461 44.7729 11.8113 44.2105 11.5702C43.648 11.3292 42.9918 11.2087 42.2419 11.2087C41.5857 11.2087 40.9831 11.3225 40.434 11.5501C39.8983 11.7644 39.4296 12.0858 39.0279 12.5143C38.6261 12.9295 38.3181 13.4317 38.1039 14.0209C37.8896 14.5967 37.7825 15.2328 37.7825 15.9292C37.7825 16.639 37.8896 17.2818 38.1039 17.8576C38.3181 18.4334 38.6261 18.9356 39.0279 19.3642C39.4296 19.7793 39.8983 20.1007 40.434 20.3284C40.9831 20.556 41.5857 20.6699 42.2419 20.6699C43.032 20.6699 43.7083 20.5493 44.2707 20.3083C44.8466 20.0672 45.3287 19.7257 45.717 19.2838L47.5651 21.1319C46.9089 21.7881 46.1455 22.2969 45.2751 22.6585C44.4046 23.0201 43.3936 23.2009 42.2419 23.2009ZM56.1132 23V17.4358C56.1132 16.8599 55.9324 16.3912 55.5709 16.0297C55.2093 15.6681 54.7406 15.4873 54.1647 15.4873C53.7898 15.4873 53.455 15.5676 53.1604 15.7283C52.8657 15.889 52.6314 16.1167 52.4573 16.4113C52.2966 16.7059 52.2162 17.0474 52.2162 17.4358L51.1918 16.9135C51.1918 16.1502 51.3525 15.4873 51.6739 14.9248C51.9953 14.349 52.4372 13.9004 52.9997 13.579C53.5755 13.2576 54.2317 13.0969 54.9682 13.0969C55.7048 13.0969 56.3543 13.2576 56.9167 13.579C57.4926 13.9004 57.9412 14.3423 58.2626 14.9048C58.584 15.4672 58.7447 16.1167 58.7447 16.8532V23H56.1132ZM49.5848 23V8.47676H52.2162V23H49.5848ZM65.3238 23.2009C64.4399 23.2009 63.6431 22.9799 62.9334 22.538C62.2236 22.0961 61.6679 21.4934 61.2661 20.7301C60.8644 19.9668 60.6635 19.1097 60.6635 18.1589C60.6635 17.1947 60.8644 16.331 61.2661 15.5676C61.6679 14.8043 62.2236 14.2017 62.9334 13.7598C63.6431 13.3178 64.4399 13.0969 65.3238 13.0969C66.0202 13.0969 66.6429 13.2375 67.1919 13.5187C67.741 13.7999 68.1762 14.195 68.4976 14.7039C68.8324 15.1994 69.0132 15.7618 69.04 16.3912V19.8864C69.0132 20.5292 68.8324 21.0984 68.4976 21.5939C68.1762 22.0894 67.741 22.4844 67.1919 22.779C66.6429 23.0603 66.0202 23.2009 65.3238 23.2009ZM65.8059 20.7703C66.5424 20.7703 67.1384 20.5292 67.5937 20.0471C68.049 19.5517 68.2766 18.9155 68.2766 18.1388C68.2766 17.63 68.1695 17.1813 67.9552 16.793C67.7544 16.3912 67.4665 16.0832 67.0915 15.869C66.7299 15.6413 66.3014 15.5275 65.8059 15.5275C65.3238 15.5275 64.8953 15.6413 64.5203 15.869C64.1587 16.0832 63.8708 16.3912 63.6565 16.793C63.4557 17.1813 63.3552 17.63 63.3552 18.1388C63.3552 18.6611 63.4557 19.1231 63.6565 19.5249C63.8708 19.9132 64.1587 20.2212 64.5203 20.4489C64.8953 20.6632 65.3238 20.7703 65.8059 20.7703ZM68.136 23V20.3886L68.5579 18.0183L68.136 15.6882V13.2978H70.7474V23H68.136ZM74.9033 23V9.26017H77.5348V23H74.9033ZM72.6334 15.6078V13.2978H79.8047V15.6078H72.6334ZM84.2776 23L80.6417 13.2978H83.2933L85.6636 20.3485L84.8601 20.3685L87.2907 13.2978H89.199L91.6296 20.3685L90.8261 20.3485L93.1964 13.2978H95.8479L92.2322 23H90.3239L87.8732 16.2908H88.6165L86.1658 23H84.2776ZM101.368 23.2009C100.484 23.2009 99.6876 22.9799 98.9778 22.538C98.2681 22.0961 97.7123 21.4934 97.3106 20.7301C96.9088 19.9668 96.7079 19.1097 96.7079 18.1589C96.7079 17.1947 96.9088 16.331 97.3106 15.5676C97.7123 14.8043 98.2681 14.2017 98.9778 13.7598C99.6876 13.3178 100.484 13.0969 101.368 13.0969C102.065 13.0969 102.687 13.2375 103.236 13.5187C103.785 13.7999 104.221 14.195 104.542 14.7039C104.877 15.1994 105.058 15.7618 105.084 16.3912V19.8864C105.058 20.5292 104.877 21.0984 104.542 21.5939C104.221 22.0894 103.785 22.4844 103.236 22.779C102.687 23.0603 102.065 23.2009 101.368 23.2009ZM101.85 20.7703C102.587 20.7703 103.183 20.5292 103.638 20.0471C104.093 19.5517 104.321 18.9155 104.321 18.1388C104.321 17.63 104.214 17.1813 104 16.793C103.799 16.3912 103.511 16.0832 103.136 15.869C102.774 15.6413 102.346 15.5275 101.85 15.5275C101.368 15.5275 100.94 15.6413 100.565 15.869C100.203 16.0832 99.9152 16.3912 99.701 16.793C99.5001 17.1813 99.3997 17.63 99.3997 18.1388C99.3997 18.6611 99.5001 19.1231 99.701 19.5249C99.9152 19.9132 100.203 20.2212 100.565 20.4489C100.94 20.6632 101.368 20.7703 101.85 20.7703ZM104.18 23V20.3886L104.602 18.0183L104.18 15.6882V13.2978H106.792V23H104.18ZM112.575 23.0803L108.517 13.2978H111.37L114.061 20.7703H113.097L115.889 13.2978H118.762L114.443 23.0603L112.575 23.0803ZM109.883 27.0577L112.836 20.8105L114.443 23.0603L112.675 27.0577H109.883Z" fill="#282D3E"/>
<path d="M10.316 31.6494C9.78327 30.435 8.68331 29.5637 7.37928 29.3229L3.08479 28.5301C1.75114 28.2839 0.783203 27.1209 0.783203 25.7647V8.91912C0.783203 6.84523 1.79953 4.903 3.50341 3.72071L7.14831 1.1916C8.58829 0.192428 10.3633 -0.200658 12.0905 0.0971355L25.1146 2.34266C27.8122 2.80777 29.7832 5.14765 29.7832 7.88512V20.6465C29.7832 22.1571 29.1756 23.6042 28.0971 24.6619L23.4585 29.2113C21.6996 30.9363 19.196 31.6702 16.7842 31.1677L15.5165 30.9036C14.1498 30.6189 12.7336 31.0673 11.7798 32.0867L11.6426 32.2333C11.2977 32.6019 10.6883 32.4977 10.4854 32.0355L10.316 31.6494Z" fill="#0446DE"/>
<path d="M6.96602 5.75474C4.13445 5.17935 1.48633 7.34348 1.48633 10.2329V24.6233C1.48633 25.9789 2.45345 27.1415 3.78639 27.3884L8.09466 28.1862C9.36419 28.4213 10.4289 29.2822 10.9245 30.4744C11.0765 30.8402 11.5626 30.9139 11.8163 30.6097L11.9287 30.4748C12.7568 29.4817 14.0138 28.9501 15.3032 29.0477L18.4185 29.2837C20.6626 29.4538 22.5772 27.6787 22.5772 25.4281V11.2252C22.5772 9.88796 21.6356 8.73568 20.3251 8.46939L6.96602 5.75474Z" fill="#0049D6"/>
<path d="M6.66195 5.74082C4.92641 5.40424 3.31445 6.73362 3.31445 8.5015V23.2983C3.31445 24.6959 4.34083 25.8814 5.72404 26.0815L8.30985 26.4555C9.55839 26.6361 10.633 27.4311 11.171 28.5721C11.3201 28.9387 11.805 29.0165 12.0612 28.7149C12.8807 27.764 14.1288 27.2971 15.3712 27.4768L19.3619 28.054C21.0576 28.2992 22.5766 26.9841 22.5766 25.2708V11.1463C22.5766 9.79962 21.6219 8.64198 20.2998 8.3856L6.66195 5.74082Z" fill="white"/>
<path d="M15.4928 20.4065L10.6206 19.5523C8.9405 19.2578 7.67087 20.6359 8.74796 21.9586C9.8488 23.3105 11.614 24.4357 14.1301 23.789C14.6885 23.6455 15.7674 23.0718 16.4876 22.2542C17.1431 21.51 16.4696 20.5777 15.4928 20.4065Z" fill="#0054F8"/>
<ellipse cx="8.76204" cy="13.8928" rx="1.43922" ry="2.46724" transform="rotate(-4.90348 8.76204 13.8928)" fill="#0054F8"/>
<ellipse cx="16.3675" cy="15.2981" rx="1.43922" ry="2.46724" transform="rotate(-4.90348 16.3675 15.2981)" fill="#0054F8"/>
</svg>
