<svg width="40" height="41" viewBox="0 0 40 41" fill="none" xmlns="http://www.w3.org/2000/svg">
<path opacity="0.1" d="M5 6.58496H21.5C24.3 6.58496 25 8.91829 25 10.085H31.5V16.585C31.5 19.385 33.8333 20.085 35 20.085V34.085H5V6.58496Z" fill="#F68301"/>
<path d="M25.0007 8.83464C26.4372 8.83464 27.815 8.26395 28.8308 7.24813C29.8466 6.23231 30.4173 4.85456 30.4173 3.41797H32.9173C32.9173 4.85456 33.488 6.23231 34.5038 7.24813C35.5196 8.26395 36.8974 8.83464 38.334 8.83464V11.3346C36.8974 11.3346 35.5196 11.9053 34.5038 12.9211C33.488 13.937 32.9173 15.3147 32.9173 16.7513H30.4173C30.4173 15.3147 29.8466 13.937 28.8308 12.9211C27.815 11.9053 26.4372 11.3346 25.0007 11.3346V8.83464ZM6.66732 11.7513C6.66732 10.8672 7.01851 10.0194 7.64363 9.39428C8.26875 8.76916 9.1166 8.41797 10.0007 8.41797H21.6673V5.08464H10.0007C8.23254 5.08464 6.53685 5.78701 5.28661 7.03726C4.03636 8.2875 3.33398 9.98319 3.33398 11.7513V28.418C3.33398 30.1861 4.03636 31.8818 5.28661 33.132C6.53685 34.3823 8.23254 35.0846 10.0007 35.0846H30.0007C31.7688 35.0846 33.4645 34.3823 34.7147 33.132C35.9649 31.8818 36.6673 30.1861 36.6673 28.418V20.0846H33.334V28.418C33.334 29.302 32.9828 30.1499 32.3577 30.775C31.7326 31.4001 30.8847 31.7513 30.0007 31.7513H10.0007C9.1166 31.7513 8.26875 31.4001 7.64363 30.775C7.01851 30.1499 6.66732 29.302 6.66732 28.418V11.7513Z" fill="url(#paint0_linear_1087_47768)"/>
<defs>
<linearGradient id="paint0_linear_1087_47768" x1="20.834" y1="3.41797" x2="20.834" y2="35.0846" gradientUnits="userSpaceOnUse">
<stop stop-color="#F69D01"/>
<stop offset="1" stop-color="#F65901"/>
</linearGradient>
</defs>
</svg>
