<svg width="40" height="41" viewBox="0 0 40 41" fill="none" xmlns="http://www.w3.org/2000/svg">
<path opacity="0.1" d="M29 22.585L18 11.585L21.6842 7.69606C24.6168 4.60056 29.5066 4.47763 32.591 7.42185C35.6036 10.2975 35.7838 15.0474 32.9977 18.143L29 22.585Z" fill="#F68301"/>
<path opacity="0.1" d="M11 17.085L22 28.085L18.3158 31.9739C15.3832 35.0694 10.4934 35.1923 7.40897 32.2481C4.39636 29.3724 4.21617 24.6225 7.00226 21.5269L11 17.085Z" fill="#F68301"/>
<path d="M37.8974 4.05775L36.0267 2.18647C35.9561 2.11585 35.8679 2.08496 35.7752 2.08496C35.6826 2.08496 35.5943 2.12027 35.5237 2.18647L32.1662 5.54506C30.7066 4.55581 28.9834 4.02838 27.2203 4.03126C24.9613 4.03126 22.7024 4.89188 20.9772 6.61751L16.4814 11.1148C16.4157 11.1811 16.3788 11.2707 16.3788 11.3641C16.3788 11.4575 16.4157 11.5471 16.4814 11.6135L28.4689 23.6046C28.5395 23.6753 28.6277 23.7061 28.7204 23.7061C28.8086 23.7061 28.9013 23.6708 28.9719 23.6046L33.4677 19.1074C36.5076 16.0622 36.865 11.3531 34.5399 7.91946L37.8974 4.56087C38.0342 4.41964 38.0342 4.19456 37.8974 4.05775ZM31.3411 16.9846L28.7204 19.6061L20.4787 11.3619L23.0994 8.74035C24.198 7.64141 25.6628 7.03237 27.2203 7.03237C28.7777 7.03237 30.2381 7.637 31.3411 8.74035C32.4397 9.83928 33.0486 11.3045 33.0486 12.8625C33.0486 14.4204 32.4397 15.8812 31.3411 16.9846ZM22.9494 21.6186C22.8831 21.5529 22.7935 21.516 22.7001 21.516C22.6068 21.516 22.5172 21.5529 22.4509 21.6186L19.5124 24.5579L15.5284 20.5726L18.4712 17.6289C18.608 17.4921 18.608 17.267 18.4712 17.1302L16.8652 15.5237C16.7989 15.458 16.7093 15.4212 16.6159 15.4212C16.5226 15.4212 16.433 15.458 16.3667 15.5237L13.4238 18.4675L11.5267 16.5697C11.4937 16.5367 11.4545 16.5107 11.4113 16.4933C11.368 16.4759 11.3218 16.4673 11.2752 16.4682C11.1869 16.4682 11.0943 16.5035 11.0237 16.5697L6.53222 21.0669C3.49233 24.1122 3.13495 28.8213 5.4601 32.2549L2.10254 35.6135C2.03685 35.6798 2 35.7694 2 35.8628C2 35.9562 2.03685 36.0458 2.10254 36.1122L3.97324 37.9835C4.04383 38.0541 4.13207 38.085 4.22473 38.085C4.31738 38.085 4.40562 38.0497 4.47621 37.9835L7.83378 34.6249C9.32063 35.6355 11.0502 36.1387 12.7797 36.1387C15.0386 36.1387 17.2976 35.278 19.0227 33.5524L23.5186 29.0552C23.6554 28.9184 23.6554 28.6933 23.5186 28.5565L21.6214 26.6587L24.5642 23.715C24.701 23.5782 24.701 23.3531 24.5642 23.2163L22.9494 21.6186ZM16.8961 31.434C16.3561 31.9769 15.7139 32.4074 15.0066 32.7006C14.2993 32.9937 13.5409 33.1437 12.7753 33.142C11.2178 33.142 9.75743 32.5373 8.65442 31.434C8.11165 30.8938 7.6813 30.2514 7.38823 29.5439C7.09515 28.8364 6.94517 28.0777 6.94696 27.3119C6.94696 25.754 7.55141 24.2931 8.65442 23.1898L11.2752 20.5682L19.5169 28.8124L16.8961 31.434Z" fill="url(#paint0_linear_1087_47749)"/>
<defs>
<linearGradient id="paint0_linear_1087_47749" x1="20" y1="2.08496" x2="20" y2="38.085" gradientUnits="userSpaceOnUse">
<stop stop-color="#F69D01"/>
<stop offset="1" stop-color="#F65901"/>
</linearGradient>
</defs>
</svg>
