<svg width="40" height="41" viewBox="0 0 40 41" fill="none" xmlns="http://www.w3.org/2000/svg">
<g clip-path="url(#clip0_1087_47713)">
<rect opacity="0.1" x="9" y="4.08496" width="22" height="15" fill="#F68301"/>
<path opacity="0.1" d="M5 25.085H35V33.085C35 36.3987 32.3137 39.085 29 39.085H11C7.68629 39.085 5 36.3987 5 33.085V25.085Z" fill="#F68301"/>
<path d="M24.9231 8.83496C24.2702 8.83496 23.6441 9.09835 23.1825 9.56719C22.7209 10.036 22.4615 10.6719 22.4615 11.335C22.4615 11.998 22.7209 12.6339 23.1825 13.1027C23.6441 13.5716 24.2702 13.835 24.9231 13.835C25.5759 13.835 26.202 13.5716 26.6636 13.1027C27.1253 12.6339 27.3846 11.998 27.3846 11.335C27.3846 10.6719 27.1253 10.036 26.6636 9.56719C26.202 9.09835 25.5759 8.83496 24.9231 8.83496ZM12.6154 11.335C12.6154 10.6719 12.8747 10.036 13.3364 9.56719C13.798 9.09835 14.4241 8.83496 15.0769 8.83496C15.7298 8.83496 16.3559 9.09835 16.8175 9.56719C17.2791 10.036 17.5385 10.6719 17.5385 11.335C17.5385 11.998 17.2791 12.6339 16.8175 13.1027C16.3559 13.5716 15.7298 13.835 15.0769 13.835C14.4241 13.835 13.798 13.5716 13.3364 13.1027C12.8747 12.6339 12.6154 11.998 12.6154 11.335ZM21.2308 1.33496C21.2308 1.00344 21.1011 0.685498 20.8703 0.451078C20.6395 0.216657 20.3264 0.0849609 20 0.0849609C19.6736 0.0849609 19.3605 0.216657 19.1297 0.451078C18.8989 0.685498 18.7692 1.00344 18.7692 1.33496V2.58496H11.3846C10.4054 2.58496 9.4662 2.98005 8.77376 3.68331C8.08132 4.38657 7.69231 5.3404 7.69231 6.33496V16.335C7.69231 17.3295 8.08132 18.2833 8.77376 18.9866C9.4662 19.6899 10.4054 20.085 11.3846 20.085H28.6154C29.5946 20.085 30.5338 19.6899 31.2262 18.9866C31.9187 18.2833 32.3077 17.3295 32.3077 16.335V6.33496C32.3077 5.3404 31.9187 4.38657 31.2262 3.68331C30.5338 2.98005 29.5946 2.58496 28.6154 2.58496H21.2308V1.33496ZM11.3846 5.08496H28.6154C28.9418 5.08496 29.2549 5.21666 29.4857 5.45108C29.7165 5.6855 29.8462 6.00344 29.8462 6.33496V16.335C29.8462 16.6665 29.7165 16.9844 29.4857 17.2188C29.2549 17.4533 28.9418 17.585 28.6154 17.585H11.3846C11.0582 17.585 10.7451 17.4533 10.5143 17.2188C10.2835 16.9844 10.1538 16.6665 10.1538 16.335V6.33496C10.1538 6.00344 10.2835 5.6855 10.5143 5.45108C10.7451 5.21666 11.0582 5.08496 11.3846 5.08496ZM20.6154 40.08C27.0548 39.9975 30.9415 38.5925 33.2234 36.48C35.3772 34.48 35.904 32.0375 35.9877 30.09H36V28.365C35.9993 27.1653 35.5297 26.015 34.6942 25.1669C33.8587 24.3189 32.7258 23.8425 31.5446 23.8425H23.6923V23.835H16.3077V23.8425H8.45538C5.99385 23.8425 4 25.8675 4 28.3675V30.09H4.01231C4.096 32.04 4.62277 34.4825 6.77661 36.4775C9.05846 38.5925 12.9452 39.9975 19.3846 40.08V40.085H20.6154V40.08ZM8.45538 26.3425H31.5446C32.0734 26.3425 32.5806 26.5558 32.9545 26.9356C33.3284 27.3153 33.5385 27.8304 33.5385 28.3675V29.46C33.5385 31.185 33.216 33.1 31.5643 34.6325C29.8708 36.2 26.5477 37.585 20 37.585C13.4523 37.585 10.1292 36.2 8.43569 34.6325C6.78646 33.1 6.46154 31.1825 6.46154 29.46V28.365C6.46219 27.8283 6.67254 27.3139 7.04639 26.9347C7.42024 26.5555 7.92701 26.3425 8.45538 26.3425Z" fill="url(#paint0_linear_1087_47713)"/>
</g>
<defs>
<linearGradient id="paint0_linear_1087_47713" x1="20" y1="0.0849609" x2="20" y2="40.085" gradientUnits="userSpaceOnUse">
<stop stop-color="#F69D01"/>
<stop offset="1" stop-color="#F65901"/>
</linearGradient>
<clipPath id="clip0_1087_47713">
<rect width="40" height="40" fill="white" transform="translate(0 0.0849609)"/>
</clipPath>
</defs>
</svg>
