<svg width="96" height="96" viewBox="0 0 96 96" fill="none" xmlns="http://www.w3.org/2000/svg">
<rect width="96" height="96" rx="48" fill="#C8EAD5"/>
<path d="M47.9976 28.0002C60.2198 28.0002 70.2198 35.9558 70.2198 45.778C70.2198 55.6002 60.2198 63.5558 47.9976 63.5558C45.2421 63.5558 42.5976 63.1558 40.1532 62.4447C33.6643 68.0002 25.7754 68.0002 25.7754 68.0002C30.9532 62.8225 31.7754 59.3336 31.8865 58.0002C28.1087 54.8225 25.7754 50.5114 25.7754 45.778C25.7754 35.9558 35.7754 28.0002 47.9976 28.0002Z" fill="#70A986"/>
<path d="M52.4436 49.3619C52.4436 50.6268 52.0487 51.716 51.2587 52.6295C50.4688 53.5431 49.4427 54.1073 48.1803 54.3223V56.4924C48.1803 56.6081 48.1446 56.7032 48.0732 56.7776C48.0017 56.852 47.9104 56.8892 47.7993 56.8892H46.1916C46.0884 56.8892 45.9991 56.8499 45.9237 56.7714C45.8482 56.6929 45.8105 56.5999 45.8105 56.4924V54.3223C45.2866 54.2478 44.7804 54.1197 44.2922 53.9378C43.8039 53.7559 43.401 53.572 43.0835 53.386C42.7659 53.2 42.4721 53.0016 42.2022 52.7908C41.9323 52.5799 41.7477 52.4249 41.6485 52.3257C41.5492 52.2265 41.4798 52.1521 41.4401 52.1025C41.3051 51.9289 41.2972 51.7594 41.4163 51.5941L42.6428 49.92C42.6984 49.8373 42.7897 49.7877 42.9167 49.7712C43.0358 49.7546 43.1311 49.7918 43.2025 49.8828L43.2264 49.9076C44.1235 50.726 45.0881 51.2427 46.1202 51.4577C46.4139 51.5238 46.7076 51.5569 47.0014 51.5569C47.6445 51.5569 48.2101 51.3791 48.6984 51.0236C49.1866 50.6681 49.4308 50.1639 49.4308 49.5107C49.4308 49.2793 49.3712 49.0602 49.2521 48.8535C49.133 48.6468 49.0001 48.4732 48.8532 48.3327C48.7063 48.1921 48.4741 48.0371 48.1565 47.8676C47.839 47.6982 47.577 47.5659 47.3706 47.4708C47.1641 47.3757 46.8466 47.2414 46.4179 47.0678C46.1082 46.9355 45.8641 46.8322 45.6855 46.7578C45.5069 46.6834 45.2627 46.5738 44.9531 46.4291C44.6435 46.2845 44.3954 46.1563 44.2088 46.0447C44.0223 45.9331 43.798 45.7864 43.536 45.6045C43.274 45.4226 43.0616 45.2469 42.8989 45.0775C42.7361 44.908 42.5634 44.7054 42.3808 44.4698C42.1983 44.2342 42.0573 43.9945 41.9581 43.7506C41.8589 43.5067 41.7755 43.2318 41.708 42.9259C41.6405 42.62 41.6068 42.2976 41.6068 41.9587C41.6068 40.8178 41.9958 39.8175 42.7738 38.9577C43.5519 38.0979 44.5641 37.544 45.8105 37.296V35.0638C45.8105 34.9563 45.8482 34.8633 45.9237 34.7848C45.9991 34.7063 46.0884 34.667 46.1916 34.667H47.7993C47.9104 34.667 48.0017 34.7042 48.0732 34.7786C48.1446 34.853 48.1803 34.9481 48.1803 35.0638V37.2464C48.6329 37.296 49.0715 37.391 49.4962 37.5316C49.921 37.6721 50.2663 37.8106 50.5323 37.947C50.7983 38.0834 51.0503 38.2384 51.2885 38.412C51.5267 38.5856 51.6815 38.7055 51.7529 38.7717C51.8244 38.8378 51.8839 38.8957 51.9316 38.9453C52.0665 39.0941 52.0864 39.2512 51.9911 39.4165L51.0265 41.227C50.963 41.351 50.8717 41.4172 50.7526 41.4254C50.6415 41.4502 50.5343 41.4213 50.4311 41.3386C50.4073 41.3138 50.3497 41.2642 50.2584 41.1898C50.1671 41.1154 50.0123 41.0059 49.794 40.8612C49.5756 40.7165 49.3434 40.5842 49.0973 40.4644C48.8512 40.3445 48.5555 40.237 48.2101 40.1419C47.8648 40.0469 47.5254 39.9993 47.1919 39.9993C46.4377 39.9993 45.8224 40.1771 45.3461 40.5326C44.8698 40.8881 44.6316 41.3469 44.6316 41.9091C44.6316 42.124 44.6653 42.3224 44.7328 42.5043C44.8003 42.6862 44.9174 42.8577 45.0841 43.0189C45.2508 43.1801 45.4076 43.3165 45.5545 43.4282C45.7014 43.5398 45.9237 43.6679 46.2214 43.8126C46.5191 43.9573 46.7593 44.0689 46.9419 44.1474C47.1244 44.2259 47.4023 44.3396 47.7755 44.4884C48.1962 44.6538 48.5178 44.784 48.7401 44.879C48.9623 44.9741 49.264 45.1188 49.6451 45.3131C50.0262 45.5074 50.3259 45.683 50.5442 45.8401C50.7625 45.9972 51.0086 46.2039 51.2825 46.4601C51.5564 46.7164 51.7668 46.9789 51.9137 47.2476C52.0606 47.5163 52.1856 47.8325 52.2888 48.1963C52.392 48.56 52.4436 48.9486 52.4436 49.3619Z" fill="#B3E2C5"/>
</svg>
