<svg width="40" height="41" viewBox="0 0 40 41" fill="none" xmlns="http://www.w3.org/2000/svg">
<g clip-path="url(#clip0_1087_47739)">
<path opacity="0.1" d="M2 2.08496H31V27.085H14L8.5 32.585L8 27.085H2V2.08496Z" fill="#F68301"/>
<path d="M15 20.085V22.585H17.5V20.085H15Z" fill="url(#paint0_linear_1087_47739)"/>
<path d="M15.2734 7.78027C15.5729 7.65007 15.8984 7.58496 16.25 7.58496C16.5885 7.57194 16.9141 7.63704 17.2266 7.78027C17.5391 7.9235 17.806 8.10579 18.0273 8.32715C18.2487 8.5485 18.4245 8.80892 18.5547 9.1084C18.6849 9.40788 18.75 9.7334 18.75 10.085C18.776 10.4756 18.6849 10.8141 18.4766 11.1006C18.2682 11.387 18.0339 11.68 17.7734 11.9795C17.513 12.279 17.2135 12.5719 16.875 12.8584C16.5365 13.1449 16.2305 13.4704 15.957 13.835C15.6836 14.1995 15.4557 14.6097 15.2734 15.0654C15.0911 15.5212 15 16.0485 15 16.6475V17.585H17.5C17.487 17.4548 17.4805 17.3376 17.4805 17.2334V16.9209C17.4935 16.5954 17.5326 16.2894 17.5977 16.0029C17.6628 15.7165 17.8255 15.443 18.0859 15.1826C18.4766 14.779 18.8607 14.4014 19.2383 14.0498C19.6159 13.6982 19.9544 13.3271 20.2539 12.9365C20.5534 12.5459 20.7943 12.1227 20.9766 11.667C21.1589 11.2113 21.25 10.6839 21.25 10.085C21.237 9.38184 21.1068 8.73079 20.8594 8.13184C20.612 7.53288 20.2539 7.00553 19.7852 6.5498C19.3164 6.09408 18.7826 5.736 18.1836 5.47559C17.5846 5.21517 16.9401 5.08496 16.25 5.08496C15.5469 5.09798 14.8958 5.22819 14.2969 5.47559C13.6979 5.72298 13.1706 6.08105 12.7148 6.5498C12.2591 7.01855 11.901 7.55241 11.6406 8.15137C11.3802 8.75033 11.25 9.39486 11.25 10.085H13.75C13.737 9.74642 13.8021 9.4209 13.9453 9.1084C14.0885 8.7959 14.2708 8.52897 14.4922 8.30762C14.7135 8.08626 14.974 7.91048 15.2734 7.78027Z" fill="url(#paint1_linear_1087_47739)"/>
<path d="M14.5 26.835C14.1685 26.835 13.8505 26.9667 13.6161 27.2011L8.75 32.0672V28.085C8.75 27.3946 8.19036 26.835 7.5 26.835H4C2.48122 26.835 1.25 25.6037 1.25 24.085V4.08496C1.25 2.56618 2.48122 1.33496 4 1.33496H29C30.5188 1.33496 31.75 2.56618 31.75 4.08496V24.085C31.75 25.6037 30.5188 26.835 29 26.835H14.5Z" stroke="url(#paint2_linear_1087_47739)" stroke-width="2.5" stroke-linecap="round" stroke-linejoin="round"/>
<path d="M36 11.085V27.2482C36 29.3346 34.3086 31.0259 32.2222 31.0259V31.0259V37.085L26.9333 31.0259H19" stroke="url(#paint3_linear_1087_47739)" stroke-width="2.5" stroke-linecap="round" stroke-linejoin="round"/>
</g>
<defs>
<linearGradient id="paint0_linear_1087_47739" x1="16.25" y1="5.08496" x2="16.25" y2="22.585" gradientUnits="userSpaceOnUse">
<stop stop-color="#F69D01"/>
<stop offset="1" stop-color="#F65901"/>
</linearGradient>
<linearGradient id="paint1_linear_1087_47739" x1="16.25" y1="5.08496" x2="16.25" y2="22.585" gradientUnits="userSpaceOnUse">
<stop stop-color="#F69D01"/>
<stop offset="1" stop-color="#F65901"/>
</linearGradient>
<linearGradient id="paint2_linear_1087_47739" x1="16.5" y1="0.0849609" x2="16.5" y2="35.085" gradientUnits="userSpaceOnUse">
<stop stop-color="#F69D01"/>
<stop offset="1" stop-color="#F65901"/>
</linearGradient>
<linearGradient id="paint3_linear_1087_47739" x1="27.5" y1="11.085" x2="27.5" y2="37.085" gradientUnits="userSpaceOnUse">
<stop stop-color="#F69D01"/>
<stop offset="1" stop-color="#F65901"/>
</linearGradient>
<clipPath id="clip0_1087_47739">
<rect width="40" height="40" fill="white" transform="translate(0 0.0849609)"/>
</clipPath>
</defs>
</svg>
