<svg width="96" height="96" viewBox="0 0 96 96" fill="none" xmlns="http://www.w3.org/2000/svg">
<rect width="96" height="96" rx="48" fill="#FF4242" fill-opacity="0.1"/>
<g clip-path="url(#clip0_1087_40764)">
<path d="M48 25.5C50.016 25.5 51.969 25.7655 53.8275 26.2627L49.044 31.044C48.6811 31.4083 48.361 31.813 48.09 32.25H48C44.8849 32.25 41.8398 33.1737 39.2498 34.9044C36.6597 36.635 34.641 39.0948 33.4489 41.9727C32.2568 44.8507 31.9449 48.0175 32.5526 51.0727C33.1603 54.1279 34.6604 56.9343 36.8631 59.1369C39.0657 61.3396 41.8721 62.8397 44.9273 63.4474C47.9825 64.0551 51.1493 63.7432 54.0273 62.5511C56.9052 61.359 59.365 59.3403 61.0956 56.7502C62.8263 54.1602 63.75 51.1151 63.75 48V47.91C64.182 47.64 64.587 47.3228 64.9538 46.9538L69.7372 42.1725C70.2345 44.031 70.5 45.984 70.5 48C70.5 60.4268 60.4268 70.5 48 70.5C35.5733 70.5 25.5 60.4268 25.5 48C25.5 35.5733 35.5733 25.5 48 25.5ZM47.0685 36.7882C47.0685 38.703 46.974 40.6448 47.0775 42.5573L45.8625 43.7723C45.4446 44.1902 45.113 44.6864 44.8868 45.2325C44.6606 45.7785 44.5442 46.3638 44.5442 46.9549C44.5442 47.5459 44.6606 48.1312 44.8868 48.6773C45.113 49.2234 45.4446 49.7196 45.8625 50.1375C46.2804 50.5554 46.7766 50.887 47.3227 51.1132C47.8688 51.3394 48.4541 51.4558 49.0451 51.4558C49.6362 51.4558 50.2215 51.3394 50.7675 51.1132C51.3136 50.887 51.8098 50.5554 52.2277 50.1375L53.4427 48.9225C55.3552 49.026 57.2948 48.9315 59.2118 48.9315C59.034 51.0698 58.2485 53.1126 56.9479 54.8191C55.6472 56.5256 53.8857 57.8245 51.871 58.5628C49.8564 59.301 47.6727 59.4477 45.5774 58.9855C43.4821 58.5234 41.5627 57.4717 40.0455 55.9545C38.5283 54.4373 37.4766 52.5179 37.0145 50.4226C36.5523 48.3273 36.699 46.1436 37.4372 44.129C38.1755 42.1143 39.4744 40.3528 41.1809 39.0521C42.8874 37.7515 44.9302 36.966 47.0685 36.7882ZM62.634 25.7858C63.0447 25.956 63.3957 26.2442 63.6428 26.6138C63.8899 26.9834 64.0219 27.4179 64.0223 27.8625V31.98H68.1375C68.5824 31.9801 69.0174 32.1121 69.3873 32.3593C69.7572 32.6066 70.0455 32.958 70.2158 33.369C70.386 33.7801 70.4306 34.2324 70.3438 34.6688C70.257 35.1052 70.0428 35.5061 69.7282 35.8207L61.77 43.77C61.3481 44.192 60.7759 44.4291 60.1792 44.4293H54.75L50.6347 48.5445C50.2126 48.9664 49.6401 49.2033 49.0432 49.2031C48.4463 49.2029 47.874 48.9656 47.4521 48.5434C47.0302 48.1212 46.7933 47.5487 46.7935 46.9518C46.7938 46.355 47.0311 45.7826 47.4533 45.3607L51.5685 41.25V35.8185C51.5683 35.5227 51.6264 35.2297 51.7395 34.9564C51.8526 34.683 52.0185 34.4347 52.2277 34.2255L60.1815 26.2717C60.4962 25.9569 60.8971 25.7425 61.3337 25.6555C61.7702 25.5686 62.2228 25.6132 62.634 25.7835V25.7858Z" fill="#C51416"/>
</g>
<defs>
<clipPath id="clip0_1087_40764">
<rect width="54" height="54" fill="white" transform="translate(21 21)"/>
</clipPath>
</defs>
</svg>
