<svg width="96" height="96" viewBox="0 0 96 96" fill="none" xmlns="http://www.w3.org/2000/svg">
<rect width="96" height="96" rx="48" fill="#C0DAF7"/>
<path d="M71.1861 67.4051L62.1354 58.3811C65.0555 54.6609 66.64 50.0669 66.6341 45.3376C66.6341 41.1257 65.3852 37.0084 63.0452 33.5064C60.7052 30.0043 57.3793 27.2748 53.488 25.663C49.5968 24.0512 45.3149 23.6295 41.184 24.4512C37.0531 25.2729 33.2585 27.3011 30.2803 30.2793C27.3021 33.2576 25.2739 37.0521 24.4522 41.183C23.6305 45.314 24.0522 49.5958 25.664 53.487C27.2758 57.3783 30.0053 60.7042 33.5074 63.0442C37.0094 65.3842 41.1267 66.6331 45.3386 66.6331C50.0679 66.639 54.6619 65.0546 58.3821 62.1345L67.4061 71.1851C67.6536 71.4346 67.948 71.6326 68.2723 71.7678C68.5967 71.9029 68.9447 71.9725 69.2961 71.9725C69.6475 71.9725 69.9954 71.9029 70.3198 71.7678C70.6442 71.6326 70.9386 71.4346 71.1861 71.1851C71.4356 70.9376 71.6336 70.6432 71.7687 70.3188C71.9039 69.9944 71.9734 69.6465 71.9734 69.2951C71.9734 68.9437 71.9039 68.5958 71.7687 68.2714C71.6336 67.947 71.4356 67.6526 71.1861 67.4051ZM29.3669 45.3376C29.3669 42.1787 30.3036 39.0907 32.0586 36.4642C33.8136 33.8377 36.308 31.7905 39.2265 30.5817C42.1449 29.3728 45.3563 29.0565 48.4545 29.6728C51.5527 30.2891 54.3986 31.8102 56.6322 34.0439C58.8659 36.2776 60.3871 39.1235 61.0033 42.2217C61.6196 45.3199 61.3033 48.5312 60.0945 51.4497C58.8856 54.3681 56.8385 56.8625 54.2119 58.6175C51.5854 60.3725 48.4975 61.3093 45.3386 61.3093C41.1026 61.3093 37.0401 59.6265 34.0449 56.6313C31.0496 53.636 29.3669 49.5735 29.3669 45.3376Z" fill="#73A1CC"/>
</svg>
