<svg width="40" height="41" viewBox="0 0 40 41" fill="none" xmlns="http://www.w3.org/2000/svg">
<circle opacity="0.1" cx="20" cy="20.085" r="16" fill="#F68301"/>
<path d="M20 1.08496C9.52467 1.08496 1 9.60963 1 20.085C1 30.5603 9.52467 39.085 20 39.085C30.4753 39.085 39 30.5603 39 20.085C39 9.60963 30.4753 1.08496 20 1.08496ZM20 4.25163C28.7638 4.25163 35.8333 11.3212 35.8333 20.085C35.8372 23.8754 34.478 27.5409 32.0038 30.4124C29.5296 33.284 26.1054 35.1701 22.356 35.7267V24.702H26.8653L27.5731 20.1214H22.356V17.6197C22.356 15.7197 22.9814 14.0303 24.7595 14.0303H27.6174V10.034C27.1155 9.96588 26.0531 9.81863 24.0454 9.81863C19.8528 9.81863 17.3954 12.0321 17.3954 17.0766V20.1214H13.0856V24.702H17.3954V35.6871C13.6979 35.0786 10.3373 33.1752 7.91393 30.317C5.49056 27.4589 4.16237 23.8322 4.16667 20.085C4.16667 11.3212 11.2363 4.25163 20 4.25163Z" fill="url(#paint0_linear_1087_47775)"/>
<defs>
<linearGradient id="paint0_linear_1087_47775" x1="20" y1="1.08496" x2="20" y2="39.085" gradientUnits="userSpaceOnUse">
<stop stop-color="#F69D01"/>
<stop offset="1" stop-color="#F65901"/>
</linearGradient>
</defs>
</svg>
