<svg width="50" height="50" viewBox="0 0 50 50" fill="none" xmlns="http://www.w3.org/2000/svg">
<g clip-path="url(#clip0_411_2233)">
<path d="M24.9557 39.7047C35.9199 39.7047 44.8081 30.8165 44.8081 19.8524C44.8081 8.8882 35.9199 0 24.9557 0C13.9915 0 5.10333 8.8882 5.10333 19.8524C5.10333 30.8165 13.9915 39.7047 24.9557 39.7047Z" fill="#FFD15C"/>
<path d="M8.87304 31.4668L2.04233 43.3073L10.0148 42.8841L13.6368 50.0003L19.9557 39.0455C15.4282 37.8743 11.5404 35.1479 8.87304 31.4668Z" fill="#003646"/>
<path d="M41.0777 31.4082C38.4301 35.0991 34.5423 37.8354 30.0246 39.0263L36.3632 50.0007L39.9852 42.8846L47.9577 43.3078L41.0777 31.4082Z" fill="#003646"/>
<path d="M24.9557 34.2424C32.903 34.2424 39.3455 27.7999 39.3455 19.8527C39.3455 11.9054 32.903 5.46289 24.9557 5.46289C17.0085 5.46289 10.5659 11.9054 10.5659 19.8527C10.5659 27.7999 17.0085 34.2424 24.9557 34.2424Z" fill="#F8B64C"/>
<path d="M34.8179 18.2971C35.2608 17.864 35.0147 17.1061 34.4045 17.0175L28.7254 16.1908C28.4793 16.1514 28.2726 16.0038 28.1644 15.7774L25.625 10.6298C25.3494 10.0687 24.5522 10.0687 24.2766 10.6298L21.747 15.7774C21.6388 15.9939 21.4222 16.1514 21.186 16.1908L15.5069 17.0175C14.8966 17.1061 14.6506 17.864 15.0935 18.2971L19.1978 22.303C19.375 22.4801 19.4537 22.7262 19.4144 22.9624L18.4498 28.612C18.3415 29.2223 18.9911 29.6947 19.5423 29.3994L24.6211 26.7321C24.8376 26.614 25.1033 26.614 25.3199 26.7321L30.3986 29.3994C30.9498 29.6849 31.5896 29.2223 31.4911 28.612L30.5167 22.9624C30.4773 22.7164 30.5561 22.4703 30.7333 22.303L34.8179 18.2971Z" fill="white"/>
</g>
<defs>
<clipPath id="clip0_411_2233">
<rect width="50" height="50" fill="white"/>
</clipPath>
</defs>
</svg>
