<svg width="50" height="50" viewBox="0 0 50 50" fill="none" xmlns="http://www.w3.org/2000/svg">
<g clip-path="url(#clip0_411_2168)">
<path d="M8.61542 15.5898C0.593753 15.5898 1.4832 25.3447 1.51983 32.4137C1.52119 32.6807 1.66104 32.9214 1.88975 33.0592C2.77861 33.5951 5.21982 34.8479 8.61542 34.8479C12.011 34.8479 14.4522 33.5951 15.3411 33.0592C15.5697 32.9214 15.7096 32.6807 15.711 32.4137C15.7476 25.3447 16.6371 15.5898 8.61542 15.5898Z" fill="#694B4B"/>
<path d="M8.09861 15.6094C0.638171 16.0276 1.48407 25.5014 1.51981 32.4132C1.52118 32.6801 1.66102 32.9209 1.88973 33.0587C2.7786 33.5945 5.2198 34.8473 8.6154 34.8473L10.6426 20.6571" fill="#5A4146"/>
<path d="M8.61543 15.5898C4.05431 15.5898 3.73761 21.1012 3.73761 21.1012C6.36661 20.6577 7.98204 21.7663 10.6427 20.6577L8.61543 34.8479C12.0111 34.8479 14.4522 33.5951 15.3411 33.0592C15.5697 32.9214 15.7097 32.6807 15.711 32.4137C15.7476 25.3447 16.6371 15.5898 8.61543 15.5898Z" fill="#694B4B"/>
<path d="M15.711 32.412C15.7424 26.3377 16.3982 18.2859 11.4939 16.1387C11.4084 16.583 11.2534 17.8235 11.6561 18.6287C12.6697 20.6559 13.6834 20.6559 14.6968 22.1763C15.7104 27.751 12.7602 33.6678 11.7803 34.4734C13.5165 34.0605 14.761 33.4071 15.3411 33.0575C15.5697 32.9197 15.7096 32.679 15.711 32.412Z" fill="#785550"/>
<path d="M16.2953 33.9508L11.7731 32.0666C11.3955 31.9093 11.1494 31.5402 11.1494 31.131V29.9062H6.08153V31.131C6.08153 31.5402 5.83544 31.9093 5.4578 32.0666L0.935643 33.9508C0.369042 34.1869 0 34.7405 0 35.3543V37.3815C0 37.9413 0.453808 38.3951 1.01357 38.3951H16.2173C16.777 38.3951 17.2308 37.9413 17.2308 37.3815V35.3543C17.2309 34.7405 16.8619 34.1869 16.2953 33.9508Z" fill="#E6AF78"/>
<path d="M16.2953 33.9508L11.9229 32.1289L8.61541 33.5564L5.3079 32.129L0.935643 33.9509C0.369042 34.1869 0 34.7405 0 35.3543V37.3815C0 37.9413 0.453808 38.3951 1.01357 38.3951H16.2173C16.777 38.3951 17.2308 37.9413 17.2308 37.3815V35.3543C17.2309 34.7405 16.8619 34.1869 16.2953 33.9508Z" fill="#EFF2FA"/>
<path d="M11.1494 29.9062H6.0815V31.131C6.0815 31.5402 5.83541 31.9093 5.45777 32.0666L4.75153 32.3609C10.1563 33.7391 11.1494 29.9062 11.1494 29.9062Z" fill="#D29B6E"/>
<path d="M2.47011 35.911L0.435937 34.293C0.163379 34.5717 0 34.9486 0 35.354V37.3812C0 37.941 0.453808 38.3948 1.01357 38.3948H3.04081V37.0983C3.04072 36.6364 2.83085 36.1996 2.47011 35.911Z" fill="#E4EAF6"/>
<path d="M17.2309 37.3808V35.3535C17.2309 34.9513 17.0703 34.577 16.8015 34.2988L14.7607 35.9105C14.4001 36.199 14.1901 36.6358 14.1901 37.0977V38.3941H16.2174C16.7771 38.3943 17.2309 37.9405 17.2309 37.3808Z" fill="#E4EAF6"/>
<path d="M8.69152 37.3805H8.53946C8.30157 37.3805 8.1087 37.1876 8.1087 36.9497V33.5566H9.12228V36.9496C9.12228 37.1876 8.92941 37.3805 8.69152 37.3805Z" fill="#E4EAF6"/>
<path d="M8.61539 33.5553L5.7148 31.38C5.52857 31.2403 5.26334 31.2857 5.13424 31.4794L4.5611 32.339L6.33941 34.8287C6.47457 35.0179 6.74097 35.055 6.92261 34.9096L8.61539 33.5553Z" fill="#E4EAF6"/>
<path d="M8.61542 33.5553L11.516 31.38C11.7022 31.2403 11.9675 31.2857 12.0966 31.4794L12.6697 32.339L10.8914 34.8287C10.7562 35.0179 10.4898 35.055 10.3082 34.9096L8.61542 33.5553Z" fill="#E4EAF6"/>
<path d="M11.1494 20.1504C8.61542 22.6843 3.64258 20.657 3.64258 24.7113L3.95723 27.6977C4.01797 28.3658 4.40527 28.9605 4.9915 29.2863L7.87704 30.8893C8.33622 31.1444 8.89452 31.1444 9.3537 30.8893L12.2392 29.2863C12.8257 28.9605 13.2129 28.3657 13.2735 27.6977L13.6368 24.1509C13.6627 23.8987 13.6681 23.6451 13.6596 23.3922C13.4702 22.1021 11.6561 21.1639 11.1494 20.1504Z" fill="#F0C087"/>
<path d="M3.64258 24.7116L3.95723 27.698C4.01797 28.3661 4.40527 28.9608 4.9915 29.2866L7.87704 30.8896C8.19569 31.0667 8.56112 31.1125 8.90897 31.0438C8.90897 31.0438 7.45419 30.6029 6.58828 28.2591C6.32304 27.5411 5.95478 23.7401 6.27158 23.2756C6.89775 22.3574 10.3892 22.262 11.4209 20.5586C11.3699 20.4954 11.3228 20.432 11.2799 20.3687C11.2764 20.3636 11.2723 20.3584 11.2687 20.3532C11.2239 20.2858 11.1833 20.2183 11.1493 20.1504C8.61542 22.6846 3.64258 20.6573 3.64258 24.7116Z" fill="#E6AF78"/>
<path d="M12.315 37.3809H10.9973C10.5215 37.3809 10.1358 37.7666 10.1358 38.2424V38.3944H13.1765V38.2424C13.1765 37.7665 12.7908 37.3809 12.315 37.3809Z" fill="#E4EAF6"/>
<path d="M43.2401 31.5939V28.8105H36.0826V31.5939L39.6613 34.7751L43.2401 31.5939Z" fill="#E6AF78"/>
<path d="M48.7736 32.8962L43.8532 31.7385C43.7789 31.721 43.7105 31.6913 43.6467 31.6554L39.6613 33.9802L35.8315 31.543C35.7322 31.6363 35.6093 31.7057 35.4695 31.7386L30.5491 32.8963C29.8306 33.0653 29.3229 33.7064 29.3229 34.4446V37.5589C29.3229 37.998 29.6789 38.3542 30.1182 38.3542H49.2048C49.6439 38.3542 50.0001 37.9981 50.0001 37.5589V34.4446C49.9999 33.7063 49.4921 33.0652 48.7736 32.8962Z" fill="#EFF2FA"/>
<path d="M36.0826 28.8105V31.7474C40.5909 33.3716 43.2401 29.3064 43.2401 29.3064V28.8105H36.0826Z" fill="#D29B6E"/>
<path d="M34.4921 19.6641L34.8387 27.2874C34.8711 27.9996 35.2202 28.6599 35.7906 29.0877L37.4347 30.3208C37.8477 30.6305 38.35 30.7979 38.8661 30.7979H40.4567C40.9729 30.7979 41.4752 30.6304 41.8881 30.3208L43.5322 29.0877C44.1026 28.6599 44.4518 27.9995 44.4841 27.2874L44.8307 19.6641H34.4921Z" fill="#F0C087"/>
<path d="M38.4685 21.2546C40.059 21.2546 42.4448 20.857 43.0108 19.6641H34.4921L34.8386 27.2874C34.871 27.9996 35.2202 28.6599 35.7905 29.0877L37.4346 30.3208C37.8476 30.6305 38.3499 30.7979 38.866 30.7979H39.6614C38.866 30.7979 37.2755 29.2074 37.2755 27.2191C37.2755 26.2468 37.2755 23.6404 37.2755 22.4475C37.2755 22.0499 37.6732 21.2546 38.4685 21.2546Z" fill="#E6AF78"/>
<path d="M47.0807 35.7736L49.6573 33.459C49.8732 33.7324 49.9999 34.0764 49.9999 34.4447V37.559C49.9999 37.9981 49.6439 38.3543 49.2046 38.3543H46.4212V37.2527C46.4212 36.6885 46.6609 36.1508 47.0807 35.7736Z" fill="#E4EAF6"/>
<path d="M40.6555 38.3541H38.6672L38.9159 34.7754H40.407L40.6555 38.3541Z" fill="#5B5D6E"/>
<path d="M40.6555 33.9805H38.6672V34.2102C38.6672 34.7422 39.0985 35.1733 39.6304 35.1733H39.6921C40.2242 35.1733 40.6553 34.7421 40.6553 34.2102V33.9805H40.6555Z" fill="#515262"/>
<path d="M36.0267 30.7095L39.6613 33.9806C39.6613 33.9806 38.6434 34.4944 37.3872 35.5301C37.1282 35.7438 36.7362 35.6572 36.5972 35.3515L34.8896 31.5949L35.4298 30.7846C35.5644 30.5828 35.8465 30.5473 36.0267 30.7095Z" fill="#E4EAF6"/>
<path d="M43.2959 30.7095L39.6614 33.9806C39.6614 33.9806 40.6792 34.4944 41.9354 35.5301C42.1945 35.7438 42.5865 35.6572 42.7254 35.3515L44.433 31.5949L43.8928 30.7846C43.7583 30.5828 43.4762 30.5473 43.2959 30.7095Z" fill="#E4EAF6"/>
<path d="M42.072 17.0302L42.4449 19.6646C44.1465 20.0049 44.3917 22.6753 44.4271 23.4381C44.4335 23.5765 44.4777 23.7103 44.5528 23.8267L45.2021 24.8338C45.2021 24.8338 44.9798 23.1687 45.9974 22.0504C45.9973 22.0504 46.3466 15.4397 42.072 17.0302Z" fill="#785550"/>
<path d="M45.6009 24.6634L45.1518 26.4596C45.0986 26.6724 44.9074 26.8217 44.688 26.8217C44.4469 26.8217 44.2436 26.6422 44.2136 26.4029L43.984 24.5658C43.9226 24.0745 44.3057 23.6406 44.8007 23.6406H44.8024C45.3379 23.6405 45.7308 24.1438 45.6009 24.6634Z" fill="#F0C087"/>
<path d="M34.8731 16.3174L35.4613 16.7192C32.8021 18.6826 33.2991 22.05 33.2991 22.05C34.0944 22.8453 34.0944 24.8334 34.0944 24.8334L34.8897 24.0381C34.8897 24.0381 34.5827 21.7408 36.0826 20.8571C37.4743 20.037 38.6921 20.4595 39.9347 20.4595C43.2649 20.4595 44.1969 19.2044 44.0354 17.6761C43.9518 16.8852 42.7426 15.2379 39.6614 15.2903C38.4178 15.3114 36.0826 15.6879 34.8731 16.3174Z" fill="#694B4B"/>
<path d="M34.6411 20.1131C34.6411 20.1131 34.2187 18.4479 35.4613 16.7207C32.8021 18.6841 33.2991 22.0516 33.2991 22.0516C34.0944 22.8469 34.0944 24.8349 34.0944 24.8349L34.8897 24.0396C34.8897 24.0396 34.5827 21.7423 36.0825 20.8586C37.4742 20.0385 38.692 20.461 39.9346 20.461C40.4762 20.461 40.9482 20.4247 41.3686 20.3626C38.8039 20.4486 37.2921 18.5061 34.6411 20.1131Z" fill="#5A4146"/>
<path d="M33.7217 24.6634L34.1708 26.4596C34.224 26.6724 34.4152 26.8217 34.6347 26.8217C34.8758 26.8217 35.0791 26.6422 35.1091 26.4029L35.3387 24.5658C35.4001 24.0745 35.017 23.6406 34.5219 23.6406H34.5202C33.9849 23.6405 33.5918 24.1438 33.7217 24.6634Z" fill="#E6AF78"/>
<path d="M44.433 37.5586H42.4447C42.0056 37.5586 41.6494 37.9146 41.6494 38.3539H45.2281C45.2282 37.9146 44.8722 37.5586 44.433 37.5586Z" fill="#E4EAF6"/>
<path d="M25.0151 5.61523C11.3782 5.61523 12.8903 22.1986 12.9526 34.2159C12.9549 34.6697 13.1926 35.079 13.5814 35.3132C15.0925 36.2242 19.2425 38.3539 25.0151 38.3539C30.7876 38.3539 34.9376 36.2242 36.4487 35.3132C36.8374 35.0789 37.0752 34.6697 37.0776 34.2159C37.1399 22.1985 38.652 5.61523 25.0151 5.61523Z" fill="#694B4B"/>
<path d="M24.1364 5.64844C11.4537 6.35947 12.8917 22.465 12.9526 34.2149C12.955 34.6687 13.1927 35.078 13.5814 35.3122C15.0925 36.2232 19.2425 38.353 25.0151 38.353L28.4613 14.2297" fill="#5A4146"/>
<path d="M25.0151 5.61523C17.2612 5.61523 16.7227 14.9846 16.7227 14.9846C21.1919 14.2307 23.9381 16.1153 28.4613 14.2307L25.0151 38.354C30.7876 38.354 34.9376 36.2243 36.4488 35.3133C36.8374 35.0789 37.0752 34.6698 37.0776 34.216C37.1399 22.1985 38.652 5.61523 25.0151 5.61523Z" fill="#694B4B"/>
<path d="M37.0776 34.2154C37.1311 23.889 38.2457 10.2012 29.9086 6.55078C29.7632 7.30625 29.4999 9.41513 30.1843 10.784C31.9075 14.2302 33.6305 14.2302 35.3535 16.8148C37.0766 26.2919 32.0612 36.3506 30.3954 37.7199C33.3468 37.0179 35.4625 35.9072 36.4487 35.3127C36.8374 35.0784 37.0752 34.6692 37.0776 34.2154Z" fill="#785550"/>
<path d="M38.0708 36.829L30.3832 33.6258C29.7411 33.3583 29.3228 32.7309 29.3228 32.0352V29.9531H20.7074V32.0352C20.7074 32.7308 20.2891 33.3582 19.647 33.6258L11.9594 36.829C10.9963 37.2303 10.3688 38.1714 10.3688 39.2148V42.661C10.3688 43.6126 11.1403 44.3842 12.0919 44.3842H37.9382C38.8898 44.3842 39.6613 43.6127 39.6613 42.661V39.2148C39.6614 38.1713 39.0339 37.2303 38.0708 36.829Z" fill="#E6AF78"/>
<path d="M38.0708 36.8295L30.6378 33.7324L25.0151 36.1591L19.3924 33.7324L11.9594 36.8295C10.9963 37.2308 10.3688 38.1719 10.3688 39.2153V42.6615C10.3688 43.6131 11.1403 44.3846 12.0919 44.3846H37.9382C38.8898 44.3846 39.6613 43.6132 39.6613 42.6615V39.2153C39.6614 38.1718 39.0339 37.2308 38.0708 36.8295Z" fill="#B4E1FA"/>
<path d="M29.3228 29.9531H20.7074V32.0352C20.7074 32.7308 20.2891 33.3582 19.647 33.6258L18.4464 34.1262C27.6345 36.4688 29.3228 29.9531 29.3228 29.9531Z" fill="#D29B6E"/>
<path d="M14.5681 40.1608L11.11 37.4102C10.6468 37.884 10.369 38.5247 10.369 39.2138V42.66C10.369 43.6115 11.1405 44.383 12.0921 44.383H15.5382V42.1791C15.5381 41.3939 15.1812 40.6514 14.5681 40.1608Z" fill="#A0D2F0"/>
<path d="M39.6613 42.6609V39.2147C39.6613 38.531 39.3882 37.8946 38.9314 37.4219L35.462 40.1618C34.8489 40.6523 34.492 41.3949 34.492 42.1801V44.384H37.9382C38.8898 44.3841 39.6613 43.6126 39.6613 42.6609Z" fill="#A0D2F0"/>
<path d="M25.0151 42.6605C24.5393 42.6605 24.1536 42.2748 24.1536 41.799V36.1602H25.8766V41.7991C25.8766 42.2749 25.4909 42.6605 25.0151 42.6605Z" fill="#A0D2F0"/>
<path d="M25.0151 36.1585L20.0841 32.4602C19.7676 32.2228 19.3165 32.3 19.0971 32.6292L18.1227 34.0907L21.1459 38.3231C21.3757 38.6448 21.8286 38.7076 22.1373 38.4607L25.0151 36.1585Z" fill="#A0D2F0"/>
<path d="M25.0151 36.1585L29.9461 32.4602C30.2626 32.2228 30.7137 32.3 30.9331 32.6292L31.9074 34.0907L28.8843 38.3231C28.6545 38.6448 28.2016 38.7076 27.8929 38.4607L25.0151 36.1585Z" fill="#A0D2F0"/>
<path d="M29.3228 13.3691C25.0151 17.6768 16.5612 14.2307 16.5612 21.123L17.0963 26.2001C17.1994 27.3357 17.8579 28.3468 18.8547 28.9006L23.76 31.6257C24.5407 32.0594 25.4898 32.0594 26.2705 31.6257L31.1758 28.9006C32.1726 28.3467 32.831 27.3356 32.9342 26.2001L33.5518 20.1703C33.5958 19.7418 33.6051 19.3106 33.5906 18.8805C33.268 16.6874 30.1843 15.0922 29.3228 13.3691Z" fill="#F0C087"/>
<path d="M16.5612 21.123L17.0963 26.2001C17.1994 27.3357 17.8579 28.3468 18.8547 28.9006L23.76 31.6257C24.3017 31.9266 24.9229 32.0047 25.5142 31.888C25.5142 31.888 23.041 31.1385 21.5691 27.1539C21.1182 25.9332 20.4922 19.4718 21.0306 18.682C22.095 17.121 28.0307 16.9589 29.7846 14.0631C29.6979 13.9556 29.6179 13.8479 29.5449 13.74C29.5389 13.7313 29.5319 13.7226 29.526 13.7139C29.4499 13.5994 29.3807 13.4846 29.323 13.3691C25.0151 17.6768 16.5612 14.2307 16.5612 21.123Z" fill="#E6AF78"/>
<path d="M31.9074 42.6621H28.4613C27.9855 42.6621 27.5997 43.0479 27.5997 43.5236V44.3852H32.769V43.5236C32.769 43.0479 32.3832 42.6621 31.9074 42.6621Z" fill="#A0D2F0"/>
</g>
<defs>
<clipPath id="clip0_411_2168">
<rect width="50" height="50" fill="white"/>
</clipPath>
</defs>
</svg>
