<svg width="100" height="100" viewBox="0 0 100 100" fill="none" xmlns="http://www.w3.org/2000/svg">
<path d="M50 92.0115C73.2196 92.0115 92.0429 73.1883 92.0429 49.9686C92.0429 26.7489 73.2196 7.92566 50 7.92566C26.7803 7.92566 7.95703 26.7489 7.95703 49.9686C7.95703 73.1883 26.7803 92.0115 50 92.0115Z" fill="url(#paint0_linear_1_3317)"/>
<path d="M50.0003 85.5982C69.6778 85.5982 85.6296 69.6464 85.6296 49.969C85.6296 30.2915 69.6778 14.3397 50.0003 14.3397C30.3228 14.3397 14.3711 30.2915 14.3711 49.969C14.3711 69.6464 30.3228 85.5982 50.0003 85.5982Z" fill="url(#paint1_linear_1_3317)"/>
<path d="M51.2531 73.6816H48.7476C48.5115 73.6816 48.3203 73.873 48.3203 74.1089V82.5669C48.3203 82.803 48.5117 82.9942 48.7476 82.9942H51.2531C51.4892 82.9942 51.6804 82.8028 51.6804 82.5669V74.1089C51.6804 73.873 51.489 73.6816 51.2531 73.6816Z" fill="#A2AEE6"/>
<path d="M51.2531 16.9414H48.7476C48.5115 16.9414 48.3203 17.1328 48.3203 17.3687V25.8267C48.3203 26.0628 48.5117 26.2539 48.7476 26.2539H51.2531C51.4892 26.2539 51.6804 26.0626 51.6804 25.8267V17.3687C51.6804 17.1328 51.489 16.9414 51.2531 16.9414Z" fill="#8795DE"/>
<path d="M26.2864 51.2199V48.7144C26.2864 48.4783 26.095 48.2871 25.8591 48.2871H17.4009C17.1648 48.2871 16.9736 48.4785 16.9736 48.7144V51.2199C16.9736 51.456 17.165 51.6472 17.4009 51.6472H25.8589C26.095 51.6472 26.2864 51.456 26.2864 51.2199Z" fill="#8795DE"/>
<path d="M82.5992 48.2874H74.1411C73.9052 48.2874 73.7139 48.4787 73.7139 48.7146V51.2201C73.7139 51.4562 73.9052 51.6474 74.1411 51.6474H82.5992C82.8353 51.6474 83.0264 51.456 83.0264 51.2201V48.7146C83.0264 48.4787 82.8351 48.2874 82.5992 48.2874Z" fill="#A2AEE6"/>
<path d="M32.346 65.8499C32.1791 65.683 31.9085 65.683 31.7417 65.8499L25.7609 71.8307C25.594 71.9975 25.594 72.2681 25.7609 72.435L27.5325 74.2066C27.6993 74.3734 27.9699 74.3734 28.1368 74.2066L34.1176 68.2258C34.2844 68.0589 34.2844 67.7883 34.1176 67.6214L32.346 65.8499Z" fill="#A2AEE6"/>
<path d="M67.6536 34.0856C67.8204 34.2524 68.091 34.2524 68.2579 34.0856L74.2387 28.1048C74.4055 27.9379 74.4055 27.6673 74.2387 27.5005L72.4671 25.7289C72.3002 25.562 72.0296 25.562 71.8628 25.7289L65.882 31.7097C65.7151 31.8766 65.7151 32.1471 65.882 32.314L67.6536 34.0856Z" fill="#A2AEE6"/>
<path d="M28.1368 25.7289C27.9699 25.562 27.6993 25.562 27.5325 25.7289L25.7609 27.5005C25.594 27.6673 25.594 27.9379 25.7609 28.1048L31.7417 34.0856C31.9085 34.2524 32.1791 34.2524 32.346 34.0856L34.1176 32.314C34.2844 32.1471 34.2844 31.8766 34.1176 31.7097L28.1368 25.7289Z" fill="#8795DE"/>
<path d="M68.2579 65.8499C68.091 65.683 67.8204 65.683 67.6536 65.8499L65.882 67.6214C65.7151 67.7883 65.7151 68.0589 65.882 68.2258L71.8628 74.2066C72.0296 74.3734 72.3002 74.3734 72.4671 74.2066L74.2387 72.435C74.4055 72.2681 74.4055 71.9975 74.2387 71.8307L68.2579 65.8499Z" fill="#A2AEE6"/>
<path d="M50.0001 7.92566C38.3426 7.92566 27.7942 12.6711 20.1787 20.3345L79.6342 79.7899C87.2975 72.1745 92.043 61.626 92.043 49.9686C92.043 26.749 73.2197 7.92566 50.0001 7.92566Z" fill="url(#paint2_linear_1_3317)"/>
<path d="M84.5682 73.9007L47.4029 36.7354C45.4747 34.3442 42.2802 33.082 39.1015 33.082C34.1461 33.082 29.2774 36.1248 29.2774 41.4281C29.2774 43.3552 29.9237 44.3128 30.9121 44.7116C31.1968 45.375 35.3931 49.5305 35.828 49.7714C32.3312 52.3411 28.7559 55.0679 28.7559 58.5552V62.7716C28.7559 63.5183 29.3672 64.1107 30.1174 64.4711L57.0649 91.4185C68.4362 89.4938 78.2535 83.005 84.5682 73.9007Z" fill="url(#paint3_linear_1_3317)"/>
<path d="M65.6064 34.724C64.9779 33.6999 63.4117 33.082 62.4891 33.082C61.4022 33.082 60.3156 33.5603 59.6636 34.8209L49.6223 54.5124C49.3615 54.9907 49.2744 55.4687 49.2744 55.8165C49.2744 56.8462 49.7332 57.556 50.4201 57.9081L75.7307 83.2189C83.1275 77.4864 88.5583 69.3411 90.845 59.9628L65.6064 34.724Z" fill="url(#paint4_linear_1_3317)"/>
<path d="M49.2302 42.0803C49.2302 36.2554 44.1443 33.082 39.1019 33.082C34.1464 33.082 29.2778 36.1248 29.2778 41.4281C29.2778 44.1667 30.5819 44.9491 32.3206 44.9491C34.5376 44.9491 35.8851 43.732 35.8851 42.4714C35.8851 40.0807 37.4064 39.2112 39.1451 39.2112C41.5794 39.2112 42.4488 40.9065 42.4488 42.2975C42.4488 47.8181 28.7559 51.7304 28.7559 58.5551V62.7716C28.7559 64.0322 30.4947 64.8581 31.7117 64.8581H47.1868C48.2735 64.8581 49.2298 63.4236 49.2298 61.8587C49.2298 60.2938 48.2735 58.9463 47.1868 58.9463H35.7982V58.5551C35.7982 54.5993 49.2302 51.513 49.2302 42.0803Z" fill="url(#paint5_linear_1_3317)"/>
<path d="M70.3566 51.9042H68.4873V48.8614C68.4873 47.4269 66.7922 46.8183 65.097 46.8183C63.4017 46.8183 61.7064 47.4269 61.7064 48.8614V51.9042H57.9681L65.6622 36.4726C65.7926 36.1683 65.8795 35.9075 65.8795 35.6467C65.8795 34.0818 63.6626 33.082 62.4891 33.082C61.4023 33.082 60.3156 33.5603 59.6636 34.8209L49.6223 54.5124C49.3615 54.9906 49.2744 55.4687 49.2744 55.8165C49.2744 57.3379 50.2742 58.1638 51.5348 58.1638H61.7066V62.7716C61.7066 64.1626 63.4019 64.8581 65.0972 64.8581C66.7924 64.8581 68.4875 64.1626 68.4875 62.7716V58.1638H70.3568C71.3999 58.1638 72.4432 56.5989 72.4432 55.034C72.443 53.4691 71.7475 51.9042 70.3566 51.9042Z" fill="url(#paint6_linear_1_3317)"/>
<path d="M85.3562 14.6123C76.5368 5.79468 65.0033 0.67566 52.641 0.0366403C51.207 -0.0374774 50 1.09644 50 2.53233C50 3.85703 51.0337 4.95841 52.3567 5.02605C63.4921 5.59664 73.8788 10.2049 81.8221 18.1464C90.3213 26.6476 95.0027 37.9474 95.0027 49.9686C95.0027 61.9898 90.3213 73.2896 81.8221 81.7908C73.321 90.29 62.0212 94.9714 50 94.9714C37.9788 94.9714 26.679 90.29 18.1778 81.7908C9.67862 73.2896 4.99725 61.9898 4.99725 49.9686C4.99725 37.9914 9.6447 26.7315 18.0859 18.2404L23.2186 23.3713C24.6425 24.7953 27.0786 24.0639 27.4827 22.091L31.0761 4.54664C31.44 2.76958 29.8694 1.1988 28.0923 1.56291L10.548 5.15644C8.57529 5.56056 7.84372 7.99664 9.26784 9.42056L14.552 14.7064C5.16706 24.1392 0 36.658 0 49.9686C0 63.3231 5.20117 75.8802 14.6437 85.3249C24.0884 94.7676 36.6455 99.9686 50 99.9686C63.3545 99.9686 75.9115 94.7674 85.3562 85.3249C94.7988 75.8802 100 63.3231 100 49.9686C100 36.6141 94.7988 24.0572 85.3562 14.6123Z" fill="url(#paint7_linear_1_3317)"/>
<path d="M30.8948 5.43347L27.4826 22.0901C27.0789 24.0631 24.6422 24.7946 23.2191 23.3715L18.0859 18.2403L30.8948 5.43347Z" fill="url(#paint8_linear_1_3317)"/>
<path d="M27.593 1.66602L14.5522 14.7068L9.26728 9.42171C7.84415 7.99641 8.57571 5.55994 10.5487 5.15602L27.593 1.66602Z" fill="url(#paint9_linear_1_3317)"/>
<path d="M11.7119 67.3594C18.3272 81.9011 32.9823 92.0121 49.9998 92.0121C67.0172 92.0121 81.6723 81.9011 88.2876 67.3594H11.7119Z" fill="url(#paint10_linear_1_3317)"/>
<defs>
<linearGradient id="paint0_linear_1_3317" x1="33.4209" y1="33.3896" x2="99.7999" y2="99.7686" gradientUnits="userSpaceOnUse">
<stop stop-color="#EAF6FF"/>
<stop offset="0.2575" stop-color="#DCE8FA"/>
<stop offset="0.7423" stop-color="#B8C4ED"/>
<stop offset="1" stop-color="#A2AEE6"/>
</linearGradient>
<linearGradient id="paint1_linear_1_3317" x1="64.008" y1="63.9766" x2="-7.83617" y2="-7.86754" gradientUnits="userSpaceOnUse">
<stop stop-color="#EAF6FF"/>
<stop offset="0.2575" stop-color="#DCE8FA"/>
<stop offset="0.7423" stop-color="#B8C4ED"/>
<stop offset="1" stop-color="#A2AEE6"/>
</linearGradient>
<linearGradient id="paint2_linear_1_3317" x1="58.3873" y1="39.5778" x2="3.21813" y2="17.1904" gradientUnits="userSpaceOnUse">
<stop stop-color="#8795DE" stop-opacity="0"/>
<stop offset="0.4678" stop-color="#7D8DDC" stop-opacity="0.468"/>
<stop offset="1" stop-color="#6C7FD8"/>
</linearGradient>
<linearGradient id="paint3_linear_1_3317" x1="63.1562" y1="73.6712" x2="14.1837" y2="30.2956" gradientUnits="userSpaceOnUse">
<stop stop-color="#8795DE" stop-opacity="0"/>
<stop offset="0.4678" stop-color="#7D8DDC" stop-opacity="0.468"/>
<stop offset="1" stop-color="#6C7FD8"/>
</linearGradient>
<linearGradient id="paint4_linear_1_3317" x1="81.5573" y1="69.8836" x2="41.4199" y2="29.7462" gradientUnits="userSpaceOnUse">
<stop stop-color="#8795DE" stop-opacity="0"/>
<stop offset="0.4678" stop-color="#7D8DDC" stop-opacity="0.468"/>
<stop offset="1" stop-color="#6C7FD8"/>
</linearGradient>
<linearGradient id="paint5_linear_1_3317" x1="38.9931" y1="51.7685" x2="38.9931" y2="64.9626" gradientUnits="userSpaceOnUse">
<stop stop-color="#FD4755"/>
<stop offset="1" stop-color="#AC2538"/>
</linearGradient>
<linearGradient id="paint6_linear_1_3317" x1="60.8585" y1="51.7685" x2="60.8585" y2="64.9626" gradientUnits="userSpaceOnUse">
<stop stop-color="#FD4755"/>
<stop offset="1" stop-color="#AC2538"/>
</linearGradient>
<linearGradient id="paint7_linear_1_3317" x1="22.4239" y1="34.8141" x2="106.482" y2="81.008" gradientUnits="userSpaceOnUse">
<stop stop-color="#FD4755"/>
<stop offset="1" stop-color="#AC2538"/>
</linearGradient>
<linearGradient id="paint8_linear_1_3317" x1="24.5383" y1="18.7101" x2="17.8301" y2="25.4182" gradientUnits="userSpaceOnUse">
<stop stop-color="#972437" stop-opacity="0"/>
<stop offset="1" stop-color="#972437"/>
</linearGradient>
<linearGradient id="paint9_linear_1_3317" x1="14.0057" y1="8.17739" x2="7.29747" y2="14.8856" gradientUnits="userSpaceOnUse">
<stop stop-color="#972437" stop-opacity="0"/>
<stop offset="1" stop-color="#972437"/>
</linearGradient>
<linearGradient id="paint10_linear_1_3317" x1="49.9998" y1="73.356" x2="49.9998" y2="91.5635" gradientUnits="userSpaceOnUse">
<stop stop-color="#8795DE" stop-opacity="0"/>
<stop offset="0.4678" stop-color="#7D8DDC" stop-opacity="0.468"/>
<stop offset="1" stop-color="#6C7FD8"/>
</linearGradient>
</defs>
</svg>
