<svg width="100" height="100" viewBox="0 0 100 100" fill="none" xmlns="http://www.w3.org/2000/svg">
<g clip-path="url(#clip0_1_3291)">
<path d="M88.5699 8.39648H11.4297C9.26328 8.39648 7.50488 10.1549 7.50488 12.3213V93.3026C7.50488 95.469 9.26328 97.2274 11.4297 97.2274H88.5699C90.7363 97.2274 92.4947 95.469 92.4947 93.3026V12.3213C92.4947 10.1549 90.7367 8.39648 88.5699 8.39648Z" fill="url(#paint0_linear_1_3291)"/>
<path d="M88.5693 97.2281H11.4307C9.26308 97.2281 7.50586 95.471 7.50586 93.3033V50.7849H92.4941V93.3033C92.4941 95.471 90.7369 97.2281 88.5693 97.2281Z" fill="url(#paint1_linear_1_3291)"/>
<path d="M88.5693 97.2273H11.4307C9.26308 97.2273 7.50586 95.4703 7.50586 93.3025V85.0605H92.4941V93.3025C92.4941 95.4703 90.7369 97.2273 88.5693 97.2273Z" fill="url(#paint2_linear_1_3291)"/>
<path d="M96.0731 87.6779H3.9264C1.4053 87.6779 -0.461886 85.335 0.100614 82.8775L7.50569 50.5234H92.494L99.8991 82.8775C100.462 85.335 98.5942 87.6779 96.0731 87.6779Z" fill="url(#paint3_linear_1_3291)"/>
<path d="M96.0731 87.6779H3.9264C1.4053 87.6779 -0.461886 85.335 0.100614 82.8775L7.50569 50.5234H92.494L99.8991 82.8775C100.462 85.335 98.5942 87.6779 96.0731 87.6779Z" fill="url(#paint4_linear_1_3291)"/>
<path d="M96.0733 87.6779C98.5944 87.6779 100.462 85.335 99.8991 82.8775L92.494 50.5234H7.50586L44.6604 87.6779H96.0733Z" fill="url(#paint5_linear_1_3291)"/>
<path d="M92.4941 87.678H7.50586V87.8088L16.9252 97.2282H88.5693C90.7369 97.2282 92.4941 95.4711 92.4941 93.3034V87.678Z" fill="url(#paint6_linear_1_3291)"/>
<path d="M29.7139 58.3066V41.7479C29.7139 37.3859 30.8705 34.1797 33.185 32.1313C35.4984 30.0826 38.5908 29.0586 42.46 29.0586C46.3293 29.0586 49.4307 30.0828 51.7637 32.1313C54.0967 34.1799 55.2631 37.3857 55.2631 41.7479V58.3066C55.2631 62.6695 54.0967 65.8748 51.7637 67.9232C49.4305 69.9719 46.3295 70.9959 42.46 70.9959C38.5906 70.9959 35.4982 69.9717 33.185 67.9232C30.8707 65.8746 29.7139 62.6693 29.7139 58.3066ZM35.7457 58.3066C35.7457 63.2004 37.9836 65.6473 42.4604 65.6473C44.6227 65.6473 46.2916 65.0408 47.4678 63.8262C48.6432 62.6127 49.2316 60.773 49.2316 58.3066V41.7479C49.2316 39.2824 48.6432 37.4426 47.4678 36.2283C46.2916 35.0148 44.6227 34.4072 42.4604 34.4072C37.9836 34.4072 35.7457 36.8541 35.7457 41.7479V58.3066Z" fill="white"/>
<path d="M58.9619 37.6514C58.9619 36.6652 59.36 35.8875 60.1568 35.3182L66.0748 29.6279C66.4916 29.2109 67.0039 29.002 67.6111 29.002C68.2941 29.002 68.9102 29.1826 69.4605 29.5426C70.0102 29.9033 70.2855 30.3871 70.2855 30.9936V68.6633C70.2855 69.2705 69.9814 69.7543 69.3752 70.1143C68.768 70.475 68.0664 70.6549 67.2697 70.6549C66.4348 70.6549 65.7234 70.4754 65.1359 70.1143C64.5475 69.7541 64.2539 69.2705 64.2539 68.6633V37.0252L62.2623 39.5289C61.8828 39.9084 61.4656 40.0978 61.0103 40.0978C60.4414 40.0978 59.9576 39.8418 59.5594 39.3297C59.1609 38.8178 58.9619 38.2586 58.9619 37.6514Z" fill="white"/>
<path d="M49.2305 50.5232V58.3074C49.2305 60.7748 48.6443 62.6142 47.467 63.8283C46.2922 65.0425 44.6229 65.6494 42.4615 65.6494C37.9846 65.6494 35.7449 63.2002 35.7449 58.3076V50.5234H29.7139V58.3076C29.7139 62.672 30.8703 65.8771 33.1859 67.9232C35.4988 69.972 38.5918 70.9976 42.4615 70.9976C46.3289 70.9976 49.432 69.972 51.7633 67.9232C54.0973 65.8771 55.2641 62.6718 55.2641 58.3076V50.5234L49.2305 50.5232Z" fill="url(#paint7_linear_1_3291)"/>
<path d="M64.2549 50.5232V68.6636C64.2549 69.2707 64.548 69.7546 65.1365 70.1158C65.7227 70.4769 66.4342 70.6546 67.2689 70.6546C68.067 70.6546 68.7684 70.4767 69.3752 70.1158C69.9822 69.7546 70.2857 69.2707 70.2857 68.6636V50.5232H64.2549Z" fill="url(#paint8_linear_1_3291)"/>
<path d="M99.8988 82.8758L92.4939 50.5225V12.3213C92.4939 10.1549 90.7355 8.39648 88.5691 8.39648H86.7129C88.8793 8.39648 90.6377 10.1549 90.6377 12.3213V50.5225L98.0426 82.8758C98.6051 85.3354 96.7369 87.677 94.2172 87.677H96.0734C98.5932 87.6772 100.461 85.3352 99.8988 82.8758Z" fill="url(#paint9_linear_1_3291)"/>
<path d="M33.3715 15.3879C32.657 14.7182 32.207 13.7709 32.207 12.7137V8.39648H39.5332L45.5164 14.3797C47.4234 16.2867 48.4949 18.8734 48.4949 21.5705C48.4949 23.5463 46.9748 25.2455 45.001 25.3348C43.876 25.3855 42.8631 24.9264 42.1578 24.1744L33.3715 15.3879Z" fill="url(#paint10_linear_1_3291)"/>
<path d="M35.8701 16.3773C33.8471 16.3773 32.207 14.7373 32.207 12.7143V6.43457C32.207 4.41152 33.8471 2.77148 35.8701 2.77148C37.8932 2.77148 39.5332 4.41152 39.5332 6.43457V12.7141C39.5332 14.7373 37.8932 16.3773 35.8701 16.3773Z" fill="url(#paint11_linear_1_3291)"/>
<path d="M35.8711 2.77148V16.3773C37.8941 16.3773 39.5342 14.7373 39.5342 12.7143V6.43457C39.5342 4.41152 37.8941 2.77148 35.8711 2.77148Z" fill="url(#paint12_linear_1_3291)"/>
<path d="M59.9945 15.3879C59.2801 14.7182 58.8301 13.7709 58.8301 12.7137V8.39648H66.1563L72.1395 14.3797C74.0465 16.2867 75.118 18.8734 75.118 21.5705C75.118 23.5463 73.5979 25.2455 71.624 25.3348C70.499 25.3855 69.4861 24.9264 68.7809 24.1744L59.9945 15.3879Z" fill="url(#paint13_linear_1_3291)"/>
<path d="M62.4932 16.3773C60.4701 16.3773 58.8301 14.7373 58.8301 12.7143V6.43457C58.8301 4.41152 60.4701 2.77148 62.4932 2.77148C64.5162 2.77148 66.1562 4.41152 66.1562 6.43457V12.7141C66.1562 14.7373 64.516 16.3773 62.4932 16.3773Z" fill="url(#paint14_linear_1_3291)"/>
<path d="M62.4941 2.77148V16.3773C64.5172 16.3773 66.1572 14.7373 66.1572 12.7143V6.43457C66.1572 4.41152 64.517 2.77148 62.4941 2.77148Z" fill="url(#paint15_linear_1_3291)"/>
</g>
<defs>
<linearGradient id="paint0_linear_1_3291" x1="35.2124" y1="19.9461" x2="57.8569" y2="70.2664" gradientUnits="userSpaceOnUse">
<stop stop-color="#00A6F9"/>
<stop offset="1" stop-color="#0071E2"/>
</linearGradient>
<linearGradient id="paint1_linear_1_3291" x1="20.9572" y1="41.4164" x2="79.3111" y2="104.493" gradientUnits="userSpaceOnUse">
<stop stop-color="#C2CECE"/>
<stop offset="1" stop-color="#97AAAA"/>
</linearGradient>
<linearGradient id="paint2_linear_1_3291" x1="50.0015" y1="96.1196" x2="50.0015" y2="87.4152" gradientUnits="userSpaceOnUse">
<stop stop-color="#C2CECE" stop-opacity="0"/>
<stop offset="0.179" stop-color="#AFBCBC" stop-opacity="0.179"/>
<stop offset="1" stop-color="#5B6A6A"/>
</linearGradient>
<linearGradient id="paint3_linear_1_3291" x1="13.4979" y1="53.6554" x2="107.126" y2="95.8255" gradientUnits="userSpaceOnUse">
<stop stop-color="#00A6F9"/>
<stop offset="1" stop-color="#0071E2"/>
</linearGradient>
<linearGradient id="paint4_linear_1_3291" x1="50.0014" y1="84.1013" x2="50.0014" y2="89.3348" gradientUnits="userSpaceOnUse">
<stop offset="0.0001" stop-color="#008BF2" stop-opacity="0"/>
<stop offset="1" stop-color="#0046E2"/>
</linearGradient>
<linearGradient id="paint5_linear_1_3291" x1="67.752" y1="68.2719" x2="8.43533" y2="8.95548" gradientUnits="userSpaceOnUse">
<stop offset="0.0001" stop-color="#008BF2" stop-opacity="0"/>
<stop offset="1" stop-color="#0046E2"/>
</linearGradient>
<linearGradient id="paint6_linear_1_3291" x1="43.7616" y1="80.0181" x2="34.0426" y2="67.9865" gradientUnits="userSpaceOnUse">
<stop stop-color="#C2CECE" stop-opacity="0"/>
<stop offset="0.179" stop-color="#AFBCBC" stop-opacity="0.179"/>
<stop offset="1" stop-color="#5B6A6A"/>
</linearGradient>
<linearGradient id="paint7_linear_1_3291" x1="42.4901" y1="57.2004" x2="42.4901" y2="27.339" gradientUnits="userSpaceOnUse">
<stop stop-color="#C2CECE" stop-opacity="0"/>
<stop offset="0.179" stop-color="#AFBCBC" stop-opacity="0.179"/>
<stop offset="1" stop-color="#5B6A6A"/>
</linearGradient>
<linearGradient id="paint8_linear_1_3291" x1="67.2726" y1="57.2004" x2="67.2726" y2="27.339" gradientUnits="userSpaceOnUse">
<stop stop-color="#C2CECE" stop-opacity="0"/>
<stop offset="0.179" stop-color="#AFBCBC" stop-opacity="0.179"/>
<stop offset="1" stop-color="#5B6A6A"/>
</linearGradient>
<linearGradient id="paint9_linear_1_3291" x1="92.5864" y1="47.7906" x2="72.5649" y2="53.0241" gradientUnits="userSpaceOnUse">
<stop offset="0.0001" stop-color="#008BF2" stop-opacity="0"/>
<stop offset="1" stop-color="#0046E2"/>
</linearGradient>
<linearGradient id="paint10_linear_1_3291" x1="43.3511" y1="18.7879" x2="35.5946" y2="11.0316" gradientUnits="userSpaceOnUse">
<stop offset="0.0001" stop-color="#008BF2" stop-opacity="0"/>
<stop offset="1" stop-color="#0046E2"/>
</linearGradient>
<linearGradient id="paint11_linear_1_3291" x1="35.8711" y1="2.95628" x2="35.8711" y2="44.9497" gradientUnits="userSpaceOnUse">
<stop stop-color="#FFC200"/>
<stop offset="0.268" stop-color="#FFBB00"/>
<stop offset="0.659" stop-color="#FFA801"/>
<stop offset="1" stop-color="#FF9102"/>
</linearGradient>
<linearGradient id="paint12_linear_1_3291" x1="36.4598" y1="9.57127" x2="39.7641" y2="9.57127" gradientUnits="userSpaceOnUse">
<stop stop-color="#FFC200" stop-opacity="0"/>
<stop offset="0.203" stop-color="#FFBB00" stop-opacity="0.203"/>
<stop offset="0.499" stop-color="#FFA700" stop-opacity="0.499"/>
<stop offset="0.852" stop-color="#FF8800" stop-opacity="0.852"/>
<stop offset="1" stop-color="#FF7800"/>
</linearGradient>
<linearGradient id="paint13_linear_1_3291" x1="69.975" y1="18.7879" x2="62.2185" y2="11.0316" gradientUnits="userSpaceOnUse">
<stop offset="0.0001" stop-color="#008BF2" stop-opacity="0"/>
<stop offset="1" stop-color="#0046E2"/>
</linearGradient>
<linearGradient id="paint14_linear_1_3291" x1="62.4951" y1="2.95628" x2="62.4951" y2="44.9497" gradientUnits="userSpaceOnUse">
<stop stop-color="#FFC200"/>
<stop offset="0.268" stop-color="#FFBB00"/>
<stop offset="0.659" stop-color="#FFA801"/>
<stop offset="1" stop-color="#FF9102"/>
</linearGradient>
<linearGradient id="paint15_linear_1_3291" x1="63.0857" y1="9.57127" x2="66.3878" y2="9.57127" gradientUnits="userSpaceOnUse">
<stop stop-color="#FFC200" stop-opacity="0"/>
<stop offset="0.203" stop-color="#FFBB00" stop-opacity="0.203"/>
<stop offset="0.499" stop-color="#FFA700" stop-opacity="0.499"/>
<stop offset="0.852" stop-color="#FF8800" stop-opacity="0.852"/>
<stop offset="1" stop-color="#FF7800"/>
</linearGradient>
<clipPath id="clip0_1_3291">
<rect width="100" height="100" fill="white"/>
</clipPath>
</defs>
</svg>
