<svg width="100" height="100" viewBox="0 0 100 100" fill="none" xmlns="http://www.w3.org/2000/svg">
<g clip-path="url(#clip0_1_3385)">
<path d="M95.8333 33.5H4.16667C1.86667 33.5 0 35.3667 0 37.6667V87.5C0 94.3917 5.60833 100 12.5 100H87.5C94.3916 100 100 94.3917 100 87.5V37.6667C100 35.3667 98.1333 33.5 95.8333 33.5Z" fill="#ECEFF1"/>
<path d="M87.5 12.5H12.5C5.59583 12.5 0 18.0958 0 25V37.6666H100V25C100 18.0958 94.4041 12.5 87.5 12.5Z" fill="#2196F3"/>
<path d="M50 37.666H0V87.4994C0 94.391 5.60833 99.9994 12.5 99.9994H50V37.666Z" fill="#CDD0D2"/>
<path d="M50 12.5H12.5C5.59583 12.5 0 18.0958 0 25V37.6666H50V12.5Z" fill="#1D83D4"/>
<path d="M79.1663 0H74.9997C72.6997 0 70.833 1.86667 70.833 4.16667V20.8333C70.833 23.1333 72.6997 25 74.9997 25H79.1663C81.4663 25 83.333 23.1333 83.333 20.8333V4.16667C83.333 1.86667 81.4663 0 79.1663 0Z" fill="#1976D2"/>
<path d="M77.083 0H74.9997C72.6997 0 70.833 1.86667 70.833 4.16667V20.8333C70.833 23.1333 72.6997 25 74.9997 25H77.083V0Z" fill="#1667B7"/>
<path d="M25.0003 0H20.8337C18.5337 0 16.667 1.86667 16.667 4.16667V20.8333C16.667 23.1333 18.5337 25 20.8337 25H25.0003C27.3003 25 29.167 23.1333 29.167 20.8333V4.16667C29.167 1.86667 27.3003 0 25.0003 0Z" fill="#1976D2"/>
<path d="M22.917 0H20.8337C18.5337 0 16.667 1.86667 16.667 4.16667V20.8333C16.667 23.1333 18.5337 25 20.8337 25H22.917V0Z" fill="#1667B7"/>
<path d="M42.7083 83.3333H28.125C26.4 83.3333 25 81.9333 25 80.2083V75C25 69.2583 29.675 64.5833 35.4167 64.5833C37.7125 64.5833 39.5833 62.7125 39.5833 60.4167C39.5833 58.1208 37.7125 56.25 35.4167 56.25H28.125C26.4 56.25 25 54.85 25 53.125C25 51.4 26.4 50 28.125 50H35.4167C41.1583 50 45.8333 54.675 45.8333 60.4167C45.8333 66.1583 41.1583 70.8333 35.4167 70.8333C33.1208 70.8333 31.25 72.7041 31.25 75V77.0833H42.7083C44.4333 77.0833 45.8333 78.4833 45.8333 80.2083C45.8333 81.9333 44.4333 83.3333 42.7083 83.3333Z" fill="#2196F3"/>
<path d="M35.4167 64.5833C29.675 64.5833 25 69.2583 25 75V80.2083C25 81.9333 26.4 83.3333 28.125 83.3333H35.4167V77.0833H31.25V75C31.25 72.7041 33.1208 70.8333 35.4167 70.8333V64.5833ZM35.4167 50H28.125C26.4 50 25 51.4 25 53.125C25 54.85 26.4 56.25 28.125 56.25H35.4167V50Z" fill="#1D83D4"/>
<path d="M64.5837 83.3333H57.292C55.567 83.3333 54.167 81.9333 54.167 80.2083C54.167 78.4833 55.567 77.0833 57.292 77.0833H64.5837C66.8795 77.0833 68.7503 75.2125 68.7503 72.9166C68.7503 70.6208 66.8795 68.75 64.5837 68.75H57.292C55.567 68.75 54.167 67.35 54.167 65.625V53.125C54.167 51.4 55.567 50 57.292 50H71.8754C73.6004 50 75.0004 51.4 75.0004 53.125C75.0004 54.85 73.6004 56.25 71.8754 56.25H60.417V62.5H64.5837C70.3254 62.5 75.0004 67.175 75.0004 72.9166C75.0004 78.6583 70.3254 83.3333 64.5837 83.3333Z" fill="#2196F3"/>
<path d="M64.5836 77.0833H57.292C55.567 77.0833 54.167 78.4833 54.167 80.2083C54.167 81.9333 55.567 83.3333 57.292 83.3333H64.5836V77.0833ZM64.5836 50H57.292C55.567 50 54.167 51.4 54.167 53.125V65.625C54.167 67.35 55.567 68.75 57.292 68.75H64.5836V62.5H60.417V56.25H64.5836V50Z" fill="#1D83D4"/>
</g>
<defs>
<clipPath id="clip0_1_3385">
<rect width="100" height="100" fill="white"/>
</clipPath>
</defs>
</svg>
