<svg width="86" height="100" viewBox="0 0 86 100" fill="none" xmlns="http://www.w3.org/2000/svg">
<path d="M75.2566 10.5408C76.3058 11.59 76.3058 13.2912 75.2566 14.3404L68.3678 21.2293C67.3186 22.2785 65.6174 22.2785 64.5682 21.2293C63.5189 20.18 63.5189 18.4789 64.5682 17.4296L71.457 10.5408C72.5062 9.4916 74.2074 9.4916 75.2566 10.5408Z" fill="url(#paint0_linear_1_3255)"/>
<path d="M85.7954 35.0693C85.7954 36.5532 84.5924 37.7561 83.1087 37.7561H73.3664C71.8824 37.7561 70.6797 36.5532 70.6797 35.0695C70.6797 33.5856 71.8826 32.3828 73.3664 32.3828H83.1087C84.5924 32.3824 85.7954 33.5854 85.7954 35.0693Z" fill="url(#paint1_linear_1_3255)"/>
<path d="M50.7279 15.1159C49.244 15.1159 48.041 13.9129 48.041 12.429V2.68686C48.041 1.20294 49.244 0 50.7279 0C52.2118 0 53.4147 1.20294 53.4147 2.68686V12.4292C53.4145 13.9129 52.2118 15.1159 50.7279 15.1159Z" fill="url(#paint2_linear_1_3255)"/>
<path d="M18.2656 77.0405L25.4793 84.2543C27.9243 86.6992 29.4252 89.9301 29.7166 93.3754L30.3186 97.2013C30.4609 98.8839 31.9403 100.133 33.6229 99.9903L40.886 99.376C42.5686 99.2337 43.8174 97.7543 43.675 96.0717L42.7446 88.3631C42.3986 84.2717 40.6162 80.4348 37.7129 77.5315L27.7439 67.5625L18.2656 77.0405Z" fill="url(#paint3_linear_1_3255)"/>
<path d="M41.0631 96.7641C40.9909 96.8362 40.866 96.9254 40.6809 96.9411L33.4178 97.5552C33.208 97.5731 33.0582 97.4874 32.9691 97.4125C32.8803 97.3376 32.7709 97.2041 32.7531 96.9945L32.7458 96.907L32.1431 93.078C31.7852 89.0972 30.0346 85.3533 27.2074 82.526L21.7207 77.0394L27.7444 71.0156L35.9864 79.2576C38.4786 81.7498 40.0144 85.0562 40.3115 88.5676L40.3203 88.6545L41.2436 96.3039C41.2536 96.5364 41.136 96.6911 41.0631 96.7641Z" fill="url(#paint4_linear_1_3255)"/>
<path d="M34.961 96.5048C34.2091 96.5683 33.5357 96.0403 33.4185 95.2948L33.0516 92.9646C32.6687 88.7832 30.8236 84.8469 27.8542 81.8775L24.0328 78.0562C23.4708 77.4942 23.4708 76.5832 24.0328 76.0213L26.7263 73.3277C27.2883 72.7658 28.1993 72.7658 28.7612 73.3277L35.3379 79.9044C37.6773 82.2438 39.1191 85.3473 39.3979 88.644L39.4083 88.7464L40.1114 94.5734C40.2091 95.3824 39.6161 96.1109 38.8042 96.1795L34.961 96.5048Z" fill="url(#paint5_linear_1_3255)"/>
<path d="M27.5432 8.02083C26.5994 8.96455 26.5306 10.6863 27.2055 12.9691C27.5904 20.3595 26.413 42.0351 3.29492 65.1532L20.6155 82.4738C43.7336 59.3555 65.4091 58.1783 72.7995 58.5632C75.0822 59.2381 76.8038 59.1693 77.7477 58.2255C81.2312 54.742 72.8163 40.6795 58.9528 26.8159C45.0891 12.9522 31.0265 4.5373 27.5432 8.02083Z" fill="url(#paint6_linear_1_3255)"/>
<path d="M59.0359 26.8971L47.3437 26.8906C40.9729 26.8906 35.8086 32.0551 35.8086 38.4257C35.8086 44.7965 40.9731 49.9608 47.3437 49.9608H76.778C73.8496 43.8222 67.4521 35.3269 59.0359 26.8971Z" fill="url(#paint7_linear_1_3255)"/>
<path d="M58.9537 26.8149C72.8165 40.6776 81.232 54.741 77.7474 58.2255C77.1494 58.8235 76.2384 59.0696 75.0682 58.9963C74.7184 53.3614 66.9765 41.7463 55.4994 30.2692C44.0223 18.7922 32.4072 11.0502 26.7723 10.7004C26.699 9.5302 26.9451 8.61922 27.5431 8.02118C31.0276 4.53667 45.091 12.9522 58.9537 26.8149Z" fill="url(#paint8_linear_1_3255)"/>
<path d="M76.7772 49.9622C73.8488 43.8238 67.4514 35.3283 59.0351 26.8985L52.0059 26.8945C53.1678 27.9792 54.3347 29.1041 55.5004 30.2698C62.4714 37.2408 68.0602 44.2604 71.4559 49.9624L76.7772 49.9622Z" fill="url(#paint9_linear_1_3255)"/>
<path d="M47.3437 49.9608C53.7144 49.9608 58.8788 44.7964 58.8788 38.4257C58.8788 32.0551 53.7144 26.8906 47.3437 26.8906C40.973 26.8906 35.8086 32.0551 35.8086 38.4257C35.8086 44.7964 40.973 49.9608 47.3437 49.9608Z" fill="url(#paint10_linear_1_3255)"/>
<path d="M53.272 28.5273C54.312 30.2599 54.9104 32.2877 54.9104 34.4554C54.9104 40.826 49.7459 45.9905 43.3753 45.9905C41.2075 45.9905 39.1796 45.3921 37.4473 44.3521C39.4635 47.7111 43.141 49.9591 47.3439 49.9591C53.7145 49.9591 58.879 44.7946 58.879 38.424C58.879 34.2213 56.631 30.5438 53.272 28.5273Z" fill="url(#paint11_linear_1_3255)"/>
<path d="M47.3445 49.0561C53.2161 49.0561 57.976 44.2962 57.976 38.4245C57.976 32.5529 53.2161 27.793 47.3445 27.793C41.4728 27.793 36.7129 32.5529 36.7129 38.4245C36.7129 44.2962 41.4728 49.0561 47.3445 49.0561Z" fill="url(#paint12_linear_1_3255)"/>
<path d="M11.7402 85.5663C18.1108 85.5663 23.2753 80.4019 23.2753 74.0312C23.2753 67.6605 18.1108 62.4961 11.7402 62.4961C5.36952 62.4961 0.205078 67.6605 0.205078 74.0312C0.205078 80.4019 5.36952 85.5663 11.7402 85.5663Z" fill="url(#paint13_linear_1_3255)"/>
<path d="M8.93359 62.8409C10.894 63.3305 12.751 64.3413 14.284 65.874C18.7887 70.3787 18.7887 77.6825 14.284 82.1872C12.751 83.7201 10.8942 84.7307 8.93359 85.2205C12.7346 86.1699 16.9244 85.1591 19.8963 82.1872C24.401 77.6825 24.401 70.3787 19.8963 65.874C16.9244 62.9023 12.7346 61.8917 8.93359 62.8409Z" fill="url(#paint14_linear_1_3255)"/>
<path d="M11.7409 84.6616C17.6126 84.6616 22.3725 79.9017 22.3725 74.03C22.3725 68.1584 17.6126 63.3984 11.7409 63.3984C5.86929 63.3984 1.10938 68.1584 1.10938 74.03C1.10938 79.9017 5.86929 84.6616 11.7409 84.6616Z" fill="url(#paint15_linear_1_3255)"/>
<path d="M37.7129 77.5315L27.7439 67.5625L18.2656 77.0405L24.1807 82.9556H41.3868C40.5221 80.9466 39.2831 79.1017 37.7129 77.5315Z" fill="url(#paint16_linear_1_3255)"/>
<path d="M46.34 39.4311C56.4461 49.5372 66.66 56.7503 72.8024 58.566C65.4167 58.1795 43.7363 59.354 20.6161 82.4742L3.29688 65.155C26.4171 42.0348 27.5916 20.3544 27.2051 12.9688C29.0208 19.1111 36.2318 29.3229 46.34 39.4311Z" fill="url(#paint17_linear_1_3255)"/>
<path d="M8.05908 60.9037L24.8634 77.708C26.1673 79.012 26.1673 81.1261 24.8634 82.43C23.5595 83.7339 21.4454 83.7339 20.1416 82.43L3.33732 65.6257C2.03339 64.3218 2.03339 62.2076 3.33732 60.9037C4.64124 59.5998 6.75516 59.5998 8.05908 60.9037Z" fill="url(#paint18_linear_1_3255)"/>
<path d="M77.657 58.3133C76.2386 59.667 74.1011 60.1592 71.4758 59.8915L71.4737 59.8894L71.4672 59.8915C64.2411 59.1552 60.1219 61.2711 42.3105 43.4598C24.4992 25.6484 26.6148 21.529 25.8788 14.3031L25.8809 14.2966L25.8788 14.2945C25.6111 11.6692 26.1033 9.53171 27.457 8.11328C26.5956 9.07407 26.5503 10.7601 27.2044 12.9688L27.2066 12.9709V12.9752C29.0266 19.1174 36.2354 29.3272 46.3393 39.4311C56.4411 49.5329 66.6529 56.7439 72.7952 58.5639H72.7995L72.8017 58.566C75.0101 59.2199 76.6964 59.1746 77.657 58.3133Z" fill="url(#paint19_linear_1_3255)"/>
<defs>
<linearGradient id="paint0_linear_1_3255" x1="69.4961" y1="15.4763" x2="73.4049" y2="19.385" gradientUnits="userSpaceOnUse">
<stop stop-color="#FF7044"/>
<stop offset="1" stop-color="#F82814"/>
</linearGradient>
<linearGradient id="paint1_linear_1_3255" x1="78.2373" y1="34.4434" x2="78.2373" y2="39.972" gradientUnits="userSpaceOnUse">
<stop stop-color="#FF7044"/>
<stop offset="1" stop-color="#F82814"/>
</linearGradient>
<linearGradient id="paint2_linear_1_3255" x1="51.3536" y1="7.55784" x2="45.8249" y2="7.55784" gradientUnits="userSpaceOnUse">
<stop stop-color="#FF7044"/>
<stop offset="1" stop-color="#F82814"/>
</linearGradient>
<linearGradient id="paint3_linear_1_3255" x1="26.6462" y1="83.7814" x2="42.5655" y2="83.7813" gradientUnits="userSpaceOnUse">
<stop stop-color="#FFD945"/>
<stop offset="0.3043" stop-color="#FFCD3E"/>
<stop offset="0.8558" stop-color="#FFAD2B"/>
<stop offset="1" stop-color="#FFA325"/>
</linearGradient>
<linearGradient id="paint4_linear_1_3255" x1="41.4747" y1="80.656" x2="21.723" y2="89.7222" gradientUnits="userSpaceOnUse">
<stop stop-color="#FFD945"/>
<stop offset="0.3043" stop-color="#FFCD3E"/>
<stop offset="0.8558" stop-color="#FFAD2B"/>
<stop offset="1" stop-color="#FFA325"/>
</linearGradient>
<linearGradient id="paint5_linear_1_3255" x1="27.3383" y1="84.7076" x2="41.7667" y2="84.7076" gradientUnits="userSpaceOnUse">
<stop stop-color="#FFD945"/>
<stop offset="0.3043" stop-color="#FFCD3E"/>
<stop offset="0.8558" stop-color="#FFAD2B"/>
<stop offset="1" stop-color="#FFA325"/>
</linearGradient>
<linearGradient id="paint6_linear_1_3255" x1="62.5071" y1="37.89" x2="32.2859" y2="43.5026" gradientUnits="userSpaceOnUse">
<stop stop-color="#F8F6FB"/>
<stop offset="1" stop-color="#EFDCFB"/>
</linearGradient>
<linearGradient id="paint7_linear_1_3255" x1="64.9684" y1="38.1858" x2="39.0648" y2="40.2007" gradientUnits="userSpaceOnUse">
<stop stop-color="#EFDCFB" stop-opacity="0"/>
<stop offset="0.2889" stop-color="#C7B6DF" stop-opacity="0.289"/>
<stop offset="0.5915" stop-color="#A495C7" stop-opacity="0.592"/>
<stop offset="0.8395" stop-color="#8E80B7" stop-opacity="0.84"/>
<stop offset="1" stop-color="#8679B2"/>
</linearGradient>
<linearGradient id="paint8_linear_1_3255" x1="66.7028" y1="30.5143" x2="49.6531" y2="33.6807" gradientUnits="userSpaceOnUse">
<stop stop-color="#FFD945"/>
<stop offset="0.3043" stop-color="#FFCD3E"/>
<stop offset="0.8558" stop-color="#FFAD2B"/>
<stop offset="1" stop-color="#FFA325"/>
</linearGradient>
<linearGradient id="paint9_linear_1_3255" x1="67.5187" y1="37.4824" x2="53.7035" y2="41.6558" gradientUnits="userSpaceOnUse">
<stop stop-color="#F35227" stop-opacity="0"/>
<stop offset="1" stop-color="#F35227"/>
</linearGradient>
<linearGradient id="paint10_linear_1_3255" x1="42.9519" y1="34.034" x2="52.2517" y2="43.334" gradientUnits="userSpaceOnUse">
<stop stop-color="#FF7044"/>
<stop offset="1" stop-color="#F82814"/>
</linearGradient>
<linearGradient id="paint11_linear_1_3255" x1="49.3192" y1="39.7779" x2="69.6755" y2="33.8068" gradientUnits="userSpaceOnUse">
<stop stop-color="#F82814" stop-opacity="0"/>
<stop offset="1" stop-color="#C0272D"/>
</linearGradient>
<linearGradient id="paint12_linear_1_3255" x1="49.5298" y1="42.0385" x2="35.6876" y2="19.149" gradientUnits="userSpaceOnUse">
<stop stop-color="#FF7044" stop-opacity="0"/>
<stop offset="1" stop-color="#FFA325"/>
</linearGradient>
<linearGradient id="paint13_linear_1_3255" x1="5.51103" y1="74.0309" x2="18.6612" y2="74.0309" gradientUnits="userSpaceOnUse">
<stop stop-color="#8A7889"/>
<stop offset="1" stop-color="#6E566E"/>
</linearGradient>
<linearGradient id="paint14_linear_1_3255" x1="14.0744" y1="73.5908" x2="24.2447" y2="54.9773" gradientUnits="userSpaceOnUse">
<stop stop-color="#6E566E" stop-opacity="0"/>
<stop offset="0.2191" stop-color="#685168" stop-opacity="0.219"/>
<stop offset="1" stop-color="#564357"/>
</linearGradient>
<linearGradient id="paint15_linear_1_3255" x1="15.8219" y1="75.0396" x2="-10.1476" y2="68.6432" gradientUnits="userSpaceOnUse">
<stop stop-color="#8A7889" stop-opacity="0"/>
<stop offset="1" stop-color="#9D8B91"/>
</linearGradient>
<linearGradient id="paint16_linear_1_3255" x1="37.2632" y1="80.8119" x2="17.3497" y2="71.0439" gradientUnits="userSpaceOnUse">
<stop stop-color="#F35227" stop-opacity="0"/>
<stop offset="1" stop-color="#F35227"/>
</linearGradient>
<linearGradient id="paint17_linear_1_3255" x1="22.7844" y1="46.6177" x2="40.7064" y2="64.5397" gradientUnits="userSpaceOnUse">
<stop stop-color="#F8F6FB"/>
<stop offset="1" stop-color="#EFDCFB"/>
</linearGradient>
<linearGradient id="paint18_linear_1_3255" x1="11.341" y1="74.4779" x2="17.891" y2="67.9279" gradientUnits="userSpaceOnUse">
<stop stop-color="#8A7889"/>
<stop offset="1" stop-color="#6E566E"/>
</linearGradient>
<linearGradient id="paint19_linear_1_3255" x1="39.6418" y1="30.5712" x2="67.5294" y2="58.4589" gradientUnits="userSpaceOnUse">
<stop stop-color="#FFD945"/>
<stop offset="0.3043" stop-color="#FFCD3E"/>
<stop offset="0.8558" stop-color="#FFAD2B"/>
<stop offset="1" stop-color="#FFA325"/>
</linearGradient>
</defs>
</svg>
