<svg width="100" height="100" viewBox="0 0 100 100" fill="none" xmlns="http://www.w3.org/2000/svg">
<g clip-path="url(#clip0_1_3344)">
<path d="M85.4518 94.3278H27.4906C25.1702 94.3278 23.2891 92.4466 23.2891 90.1262V6.20157C23.2891 3.88118 25.1702 2 27.4906 2H85.4518C87.7722 2 89.6534 3.88118 89.6534 6.20157V90.1262C89.6532 92.4466 87.7722 94.3278 85.4518 94.3278Z" fill="url(#paint0_linear_1_3344)"/>
<path d="M81.6176 11.2812V69.7501C81.6176 78.6889 78.6465 87.3203 73.2539 94.3281H85.4512C87.7716 94.3281 89.6528 92.4469 89.6528 90.1265V19.3163L81.6176 11.2812Z" fill="url(#paint1_linear_1_3344)"/>
<path d="M72.5104 98.2497H14.5492C12.2288 98.2497 10.3477 96.3685 10.3477 94.0481V10.1234C10.3477 7.80305 12.2288 5.92188 14.5492 5.92188H72.5104C74.8308 5.92188 76.712 7.80305 76.712 10.1234V94.0481C76.7118 96.3685 74.8308 98.2497 72.5104 98.2497Z" fill="url(#paint2_linear_1_3344)"/>
<path d="M65.9797 102H20.2244C17.9642 102 16.1318 100.167 16.1318 97.9072V13.7644C16.1318 11.5042 17.964 9.67188 20.2244 9.67188H78.4036C80.6638 9.67188 82.4962 11.5042 82.4962 13.7644V85.4835C82.496 94.6053 75.1014 102 65.9797 102Z" fill="url(#paint3_linear_1_3344)"/>
<path d="M52.0662 20.6124C52.0543 20.5985 52.0437 20.5838 52.0315 20.5699C49.0949 17.1687 43.8303 15.5391 37.5882 16.1012C36.7792 16.174 36.1825 16.8887 36.2552 17.6975C36.3156 18.3689 38.0384 20.0773 38.6258 20.1863C38.6343 20.232 38.6452 21.8257 38.6578 21.8697L35.1774 22.0461C32.8025 22.4573 30.5898 23.2695 28.8199 24.3932C26.0684 26.1402 24.4456 28.5791 24.127 31.4459C23.8347 34.0763 24.6605 36.5987 26.4521 38.5483L80.7731 92.8287C81.8739 90.6159 82.496 88.1232 82.496 85.4841V51.0365L52.0662 20.6124Z" fill="url(#paint4_linear_1_3344)"/>
<path d="M16.1318 72.0078V97.9065C16.1318 100.167 17.964 101.999 20.2244 101.999H65.9797C75.1014 101.999 82.496 94.6045 82.496 85.4827V72.008H16.1318V72.0078Z" fill="url(#paint5_linear_1_3344)"/>
<path d="M65.9795 101.999V89.575C65.9795 87.3148 67.8119 85.4824 70.0721 85.4824H82.496C82.4958 94.6044 75.1013 101.999 65.9795 101.999Z" fill="url(#paint6_linear_1_3344)"/>
<path d="M39.4745 72.3793H56.1063C56.9184 72.3793 57.5769 73.0377 57.5769 73.8498C57.5769 74.662 56.9184 75.3204 56.1063 75.3204H39.4745C38.6623 75.3204 38.0039 74.662 38.0039 73.8498C38.0039 73.0377 38.6623 72.3793 39.4745 72.3793Z" fill="#7BACDF"/>
<path d="M39.4745 65.9747H50.9102C51.7223 65.9747 52.3808 66.6332 52.3808 67.4453C52.3808 68.2575 51.7223 68.9159 50.9102 68.9159H39.4745C38.6623 68.9159 38.0039 68.2575 38.0039 67.4453C38.0039 66.633 38.6623 65.9747 39.4745 65.9747Z" fill="#7BACDF"/>
<path d="M73.8861 75.3204H62.0233C61.2112 75.3204 60.5527 74.662 60.5527 73.8498C60.5527 73.0377 61.2112 72.3793 62.0233 72.3793H73.8861C74.6982 72.3793 75.3567 73.0377 75.3567 73.8498C75.3567 74.662 74.6982 75.3204 73.8861 75.3204Z" fill="#7BACDF"/>
<path d="M68.69 65.9747C69.5021 65.9747 70.1606 66.6332 70.1606 67.4453C70.1606 68.2575 69.5021 68.9159 68.69 68.9159H62.0233C61.2112 68.9159 60.5527 68.2575 60.5527 67.4453C60.5527 66.6332 61.2112 65.9747 62.0233 65.9747H68.69Z" fill="#7BACDF"/>
<path d="M55.2587 68.9159C54.4465 68.9159 53.7881 68.2575 53.7881 67.4453C53.7881 66.6332 54.4465 65.9747 55.2587 65.9747H56.9253C57.7375 65.9747 58.3959 66.6332 58.3959 67.4453C58.3959 68.2575 57.7375 68.9159 56.9253 68.9159H55.2587Z" fill="#7BACDF"/>
<path d="M73.8856 61.5956H57.2538C56.4416 61.5956 55.7832 60.9371 55.7832 60.125C55.7832 59.3128 56.4416 58.6544 57.2538 58.6544H73.8856C74.6978 58.6544 75.3562 59.3128 75.3562 60.125C75.3562 60.9371 74.6978 61.5956 73.8856 61.5956Z" fill="#7BACDF"/>
<path d="M68.6895 55.1893H57.2538C56.4416 55.1893 55.7832 54.5309 55.7832 53.7187C55.7832 52.9066 56.4416 52.2482 57.2538 52.2482H68.6895C69.5017 52.2482 70.1601 52.9066 70.1601 53.7187C70.1601 54.5309 69.5017 55.1893 68.6895 55.1893Z" fill="#7BACDF"/>
<path d="M39.4745 58.6544H51.3373C52.1494 58.6544 52.8079 59.3128 52.8079 60.125C52.8079 60.9371 52.1494 61.5956 51.3373 61.5956H39.4745C38.6623 61.5956 38.0039 60.9371 38.0039 60.125C38.0039 59.3128 38.6623 58.6544 39.4745 58.6544Z" fill="#7BACDF"/>
<path d="M39.4745 52.2482H46.1412C46.9533 52.2482 47.6118 52.9066 47.6118 53.7187C47.6118 54.5309 46.9533 55.1893 46.1412 55.1893H39.4745C38.6623 55.1893 38.0039 54.5309 38.0039 53.7187C38.0039 52.9064 38.6623 52.2482 39.4745 52.2482Z" fill="#7BACDF"/>
<path d="M51.2391 55.1893C50.427 55.1893 49.7686 54.5309 49.7686 53.7187C49.7686 52.9066 50.427 52.2482 51.2391 52.2482H52.9058C53.718 52.2482 54.3764 52.9066 54.3764 53.7187C54.3764 54.5309 53.718 55.1893 52.9058 55.1893H51.2391Z" fill="#7BACDF"/>
<path d="M50.9102 48.2616H39.4745C38.6623 48.2616 38.0039 47.6034 38.0039 46.791C38.0039 45.9789 38.6623 45.3204 39.4745 45.3204H50.9102C51.7223 45.3204 52.3808 45.9789 52.3808 46.791C52.3808 47.6034 51.7223 48.2616 50.9102 48.2616Z" fill="#7BACDF"/>
<path d="M68.69 48.2616H62.0233C61.2112 48.2616 60.5527 47.6034 60.5527 46.791C60.5527 45.9789 61.2112 45.3204 62.0233 45.3204H68.69C69.5021 45.3204 70.1606 45.9789 70.1606 46.791C70.1606 47.6034 69.5021 48.2616 68.69 48.2616Z" fill="#7BACDF"/>
<path d="M56.9253 48.2616H55.2587C54.4465 48.2616 53.7881 47.6034 53.7881 46.791C53.7881 45.9789 54.4465 45.3204 55.2587 45.3204H56.9253C57.7375 45.3204 58.3959 45.9789 58.3959 46.791C58.3959 47.6034 57.7375 48.2616 56.9253 48.2616Z" fill="#7BACDF"/>
<path d="M39.4745 79.7325H47.8557C48.6678 79.7325 49.3263 80.391 49.3263 81.2031C49.3263 82.0153 48.6678 82.6737 47.8557 82.6737H39.4745C38.6623 82.6737 38.0039 82.0153 38.0039 81.2031C38.0039 80.391 38.6623 79.7325 39.4745 79.7325Z" fill="#7BACDF"/>
<path d="M54.2304 79.7325H73.8861C74.6982 79.7325 75.3566 80.391 75.3566 81.2031C75.3566 82.0153 74.6982 82.6737 73.8861 82.6737H54.2304C53.4182 82.6737 52.7598 82.0153 52.7598 81.2031C52.7598 80.391 53.4182 79.7325 54.2304 79.7325Z" fill="#7BACDF"/>
<path d="M31.5156 56.5235H26.2558C24.6101 56.5235 23.2715 55.1846 23.2715 53.5392V48.2794C23.2715 46.6337 24.6103 45.295 26.2558 45.295H31.5156C33.1613 45.295 34.4999 46.6339 34.4999 48.2794V53.5392C34.4999 55.1846 33.1613 56.5235 31.5156 56.5235ZM26.2558 48.236C26.2319 48.236 26.2127 48.2554 26.2127 48.2792V53.539C26.2127 53.5629 26.2321 53.5821 26.2558 53.5821H31.5156C31.5395 53.5821 31.5587 53.5627 31.5587 53.539V48.2792C31.5587 48.2552 31.5393 48.236 31.5156 48.236H26.2558Z" fill="#7BACDF"/>
<path d="M31.5156 69.6113H26.2558C24.6101 69.6113 23.2715 68.2725 23.2715 66.627V61.3672C23.2715 59.7218 24.6103 58.3829 26.2558 58.3829H31.5156C33.1613 58.3829 34.4999 59.7218 34.4999 61.3672V66.627C34.4999 68.2725 33.1613 69.6113 31.5156 69.6113ZM26.2558 61.3239C26.2319 61.3239 26.2127 61.3433 26.2127 61.367V66.6268C26.2127 66.6508 26.2321 66.67 26.2558 66.67H31.5156C31.5395 66.67 31.5587 66.6506 31.5587 66.6268V61.367C31.5587 61.3431 31.5393 61.3239 31.5156 61.3239H26.2558Z" fill="#7BACDF"/>
<path d="M31.5156 82.6992H26.2558C24.6101 82.6992 23.2715 81.3604 23.2715 79.7149V74.4551C23.2715 72.8095 24.6103 71.4708 26.2558 71.4708H31.5156C33.1613 71.4708 34.4999 72.8096 34.4999 74.4551V79.7149C34.4999 81.3604 33.1613 82.6992 31.5156 82.6992ZM26.2558 74.412C26.2319 74.412 26.2127 74.4314 26.2127 74.4551V79.7149C26.2127 79.7389 26.2321 79.7581 26.2558 79.7581H31.5156C31.5395 79.7581 31.5587 79.7387 31.5587 79.7149V74.4551C31.5587 74.4312 31.5393 74.412 31.5156 74.412H26.2558Z" fill="#7BACDF"/>
<path d="M35.1149 41.8249C31.4547 41.8251 28.3215 40.6002 26.2558 38.3527C24.4641 36.4033 23.6384 33.881 23.9307 31.2504C24.2494 28.3835 25.8719 25.9447 28.6237 24.1976C30.8072 22.8113 33.6643 21.899 36.6688 21.629C37.477 21.557 38.1925 22.1529 38.2651 22.9619C38.3378 23.7709 37.7409 24.4857 36.9321 24.5582C34.386 24.787 31.9952 25.5408 30.2001 26.6806C28.1996 27.9508 27.0737 29.5976 26.8541 31.5751C26.6572 33.348 27.2139 35.0482 28.4215 36.3625C29.9852 38.0639 32.4925 38.9582 35.4756 38.8788C43.1513 38.6766 49.7902 33.1711 50.9478 28.3566C51.5027 26.0488 51.04 23.9531 49.6094 22.2966C47.3335 19.6609 42.8649 18.3674 37.6555 18.8351C36.8468 18.909 36.1319 18.3109 36.0592 17.5021C35.9864 16.6933 36.5833 15.9784 37.3921 15.9059C43.6343 15.3439 48.8988 16.9735 51.8355 20.3745C53.8815 22.7441 54.5817 25.8231 53.8072 29.0443C52.1947 35.7508 43.8355 41.6008 35.5531 41.819C35.4062 41.8229 35.2602 41.8249 35.1149 41.8249Z" fill="url(#paint7_linear_1_3344)"/>
<path d="M26.6673 53.7974C26.2791 53.7974 25.9042 53.6443 25.6275 53.3674L23.1438 50.8839C22.5693 50.3096 22.5693 49.3786 23.1436 48.8043C23.7181 48.23 24.6493 48.2298 25.2232 48.8043L26.5414 50.1223C28.0263 48.3841 30.9909 45.3482 35.1363 43.1814C35.8563 42.8051 36.7448 43.0833 37.1209 43.8033C37.4971 44.5231 37.2187 45.4117 36.4989 45.7878C31.1544 48.5813 27.9014 53.1292 27.8693 53.1749C27.6191 53.529 27.2248 53.7554 26.7928 53.7923C26.7511 53.7954 26.7091 53.7974 26.6673 53.7974Z" fill="url(#paint8_linear_1_3344)"/>
<path d="M30.7845 66.9344C30.3963 66.9344 30.0214 66.7812 29.7447 66.5044L27.261 64.0206C26.6865 63.4463 26.6865 62.5153 27.2608 61.941C27.8353 61.3667 28.7665 61.3665 29.3404 61.941L30.6586 63.2591C32.1435 61.5208 35.108 58.4849 39.2535 56.318C39.9735 55.9418 40.862 56.2202 41.238 56.94C41.6143 57.6598 41.3359 58.5484 40.6161 58.9245C35.2716 61.7181 32.0186 66.2659 31.9865 66.3116C31.7363 66.6657 31.342 66.8922 30.91 66.9291C30.8682 66.9324 30.8263 66.9344 30.7845 66.9344Z" fill="url(#paint9_linear_1_3344)"/>
<path d="M26.765 80.9539C26.3768 80.9539 26.0019 80.8008 25.7252 80.5239L23.2415 78.0402C22.6669 77.4658 22.6669 76.5349 23.2413 75.9605C23.8158 75.3862 24.7469 75.386 25.3209 75.9605L26.6391 77.2786C28.124 75.5403 31.0885 72.5044 35.234 70.3376C35.954 69.9613 36.8425 70.2397 37.2185 70.9595C37.5948 71.6793 37.3164 72.568 36.5966 72.9441C31.2521 75.7376 27.9991 80.2855 27.967 80.3312C27.7168 80.6853 27.3224 80.9117 26.8905 80.9486C26.8487 80.9519 26.8068 80.9539 26.765 80.9539Z" fill="url(#paint10_linear_1_3344)"/>
<path d="M32.5684 36.6701C32.5684 36.5954 32.5931 36.496 32.618 36.3963L37.2452 21.2213C37.5189 20.3505 38.6384 19.9277 39.7827 19.9277C40.927 19.9277 42.0466 20.3507 42.3201 21.2213L46.9723 36.3963C46.9972 36.4958 47.0219 36.5954 47.0219 36.6701C47.0219 37.5905 45.604 38.2622 44.5342 38.2622C43.9123 38.2622 43.4148 38.0632 43.2654 37.5409L42.4197 34.4313H37.1705L36.3246 37.5409C36.1754 38.0632 35.6778 38.2622 35.0558 38.2622C33.9862 38.2622 32.5684 37.5907 32.5684 36.6701ZM41.5988 31.446L39.7827 24.7789L37.9666 31.446H41.5988Z" fill="url(#paint11_linear_1_3344)"/>
</g>
<defs>
<linearGradient id="paint0_linear_1_3344" x1="14.1591" y1="5.85176" x2="42.0392" y2="33.7318" gradientUnits="userSpaceOnUse">
<stop stop-color="#B4D2E2"/>
<stop offset="1" stop-color="#7BACDF"/>
</linearGradient>
<linearGradient id="paint1_linear_1_3344" x1="96.2092" y1="52.8048" x2="80.5092" y2="52.8048" gradientUnits="userSpaceOnUse">
<stop stop-color="#7BACDF" stop-opacity="0"/>
<stop offset="1" stop-color="#017297"/>
</linearGradient>
<linearGradient id="paint2_linear_1_3344" x1="13.1775" y1="21.7334" x2="79.4035" y2="87.9595" gradientUnits="userSpaceOnUse">
<stop stop-color="#B4D2E2"/>
<stop offset="1" stop-color="#7BACDF"/>
</linearGradient>
<linearGradient id="paint3_linear_1_3344" x1="27.1579" y1="33.6797" x2="93.8464" y2="100.368" gradientUnits="userSpaceOnUse">
<stop stop-color="#E6EEFF"/>
<stop offset="1" stop-color="#BAC8FA"/>
</linearGradient>
<linearGradient id="paint4_linear_1_3344" x1="65.4733" y1="57.0536" x2="26.1596" y2="13.23" gradientUnits="userSpaceOnUse">
<stop stop-color="#A7B7F1" stop-opacity="0"/>
<stop offset="1" stop-color="#A7B7F1"/>
</linearGradient>
<linearGradient id="paint5_linear_1_3344" x1="49.314" y1="95.3323" x2="49.314" y2="101.04" gradientUnits="userSpaceOnUse">
<stop stop-color="#A7B7F1" stop-opacity="0"/>
<stop offset="1" stop-color="#A7B7F1"/>
</linearGradient>
<linearGradient id="paint6_linear_1_3344" x1="66.2115" y1="85.7146" x2="76.6532" y2="96.1562" gradientUnits="userSpaceOnUse">
<stop stop-color="#E6EEFF"/>
<stop offset="1" stop-color="#BAC8FA"/>
</linearGradient>
<linearGradient id="paint7_linear_1_3344" x1="32.7113" y1="23.0153" x2="46.6747" y2="36.9786" gradientUnits="userSpaceOnUse">
<stop stop-color="#FD4755"/>
<stop offset="1" stop-color="#A72B2B"/>
</linearGradient>
<linearGradient id="paint8_linear_1_3344" x1="27.8112" y1="44.9745" x2="32.651" y2="49.8143" gradientUnits="userSpaceOnUse">
<stop stop-color="#FD4755"/>
<stop offset="1" stop-color="#A72B2B"/>
</linearGradient>
<linearGradient id="paint9_linear_1_3344" x1="31.9284" y1="58.1114" x2="36.7683" y2="62.9512" gradientUnits="userSpaceOnUse">
<stop stop-color="#FD4755"/>
<stop offset="1" stop-color="#A72B2B"/>
</linearGradient>
<linearGradient id="paint10_linear_1_3344" x1="27.9089" y1="72.1309" x2="32.7487" y2="76.9707" gradientUnits="userSpaceOnUse">
<stop stop-color="#FD4755"/>
<stop offset="1" stop-color="#A72B2B"/>
</linearGradient>
<linearGradient id="paint11_linear_1_3344" x1="32.5684" y1="29.095" x2="47.0219" y2="29.095" gradientUnits="userSpaceOnUse">
<stop stop-color="#FD4755"/>
<stop offset="1" stop-color="#A72B2B"/>
</linearGradient>
<clipPath id="clip0_1_3344">
<rect width="100" height="100" fill="white"/>
</clipPath>
</defs>
</svg>
