<svg width="100" height="100" viewBox="0 0 100 100" fill="none" xmlns="http://www.w3.org/2000/svg">
<g clip-path="url(#clip0_1_3238)">
<path d="M84.2203 94.4578H15.7793C12.4951 94.4578 9.83301 91.7955 9.83301 88.5116V5.94628C9.83281 2.6623 12.4951 0 15.7793 0H84.2205C87.5047 0 90.1668 2.6623 90.1668 5.94628V88.5114C90.1668 91.7955 87.5043 94.4578 84.2203 94.4578Z" fill="url(#paint0_linear_1_3238)"/>
<path d="M35.5644 94.457L30.0801 88.9727H18.3604V94.457H35.5644Z" fill="url(#paint1_linear_1_3238)"/>
<path d="M82.3923 91.9344H15.4523C13.5344 91.9344 11.9795 90.3796 11.9795 88.4616V8.15214C11.9795 5.04355 14.4994 2.52344 17.6082 2.52344H82.3925C85.5011 2.52344 88.0212 5.04336 88.0212 8.15214V86.3057C88.021 89.4143 85.5009 91.9344 82.3923 91.9344Z" fill="url(#paint2_linear_1_3238)"/>
<path d="M84.2208 0H15.7795C12.4953 0 9.83301 2.6623 9.83301 5.94628V88.4614H11.9791C11.9791 86.6297 13.4639 85.1452 15.2953 85.1452H84.2206C87.5047 85.1452 90.1668 82.4829 90.1668 79.1989V5.94628C90.167 2.6623 87.5045 0 84.2208 0Z" fill="url(#paint3_linear_1_3238)"/>
<path d="M84.2211 85.1452H15.2957C13.465 85.1452 11.9811 86.6286 11.9795 88.4588V88.4616C11.9795 90.3795 13.5344 91.9344 15.4523 91.9344H82.3924C85.501 91.9344 88.0211 89.4145 88.0211 86.3057V83.7717C86.9907 84.6291 85.6662 85.1452 84.2211 85.1452Z" fill="url(#paint4_linear_1_3238)"/>
<path d="M15.4519 91.9346C13.534 91.9346 11.9797 90.3803 11.9797 88.4623C11.9797 87.5467 12.3498 86.7172 12.9508 86.1164C13.5494 85.5178 14.3789 85.1453 15.2945 85.1453H24.534V0H15.7795C12.4953 0 9.83301 2.6621 9.83301 5.94628V88.5114C9.83301 91.7955 12.4953 94.4576 15.7793 94.4576H24.5338V91.9344H15.4519V91.9346Z" fill="url(#paint5_linear_1_3238)"/>
<path d="M72.6171 19.746H31.5049C30.7174 19.746 30.0791 19.1077 30.0791 18.3202V16.2697C30.0791 15.4822 30.7174 14.8439 31.5049 14.8439H72.6169C73.4044 14.8439 74.0425 15.4822 74.0425 16.2697V18.3202C74.0427 19.1077 73.4044 19.746 72.6171 19.746Z" fill="white"/>
<path d="M62.0992 28.6151H42.0223C41.2348 28.6151 40.5967 27.9768 40.5967 27.1895V25.1389C40.5967 24.3514 41.235 23.7131 42.0223 23.7131H62.0996C62.8871 23.7131 63.5254 24.3514 63.5254 25.1389V27.1895C63.525 27.977 62.8867 28.6151 62.0992 28.6151Z" fill="white"/>
<path d="M71.1015 73.7137H33.0221C31.3975 73.7137 30.0801 72.3967 30.0801 70.7717V59.6938C30.0801 58.069 31.3971 56.7518 33.0221 56.7518H71.1015C72.7263 56.7518 74.0435 58.0688 74.0435 59.6938V70.7717C74.0435 72.3967 72.7263 73.7137 71.1015 73.7137Z" fill="url(#paint6_linear_1_3238)"/>
<path d="M33.0408 91.9336L30.0801 88.9727H18.3604V91.9336H33.0408Z" fill="url(#paint7_linear_1_3238)"/>
<path d="M28.5375 99.8773L24.7111 97.8504C24.4037 97.6875 24.0351 97.6875 23.7277 97.8504L19.9014 99.8773C19.202 100.248 18.3594 99.7408 18.3594 98.9492V88.9746H30.0789V98.9492C30.0795 99.7406 29.2369 100.248 28.5375 99.8773Z" fill="url(#paint8_linear_1_3238)"/>
</g>
<defs>
<linearGradient id="paint0_linear_1_3238" x1="-44.2344" y1="47.2301" x2="50.7222" y2="47.2301" gradientUnits="userSpaceOnUse">
<stop stop-color="#B8DE6F"/>
<stop offset="1" stop-color="#8AA753"/>
</linearGradient>
<linearGradient id="paint1_linear_1_3238" x1="44.9484" y1="112.444" x2="23.0842" y2="90.5795" gradientUnits="userSpaceOnUse">
<stop stop-color="#B8DE6F" stop-opacity="0"/>
<stop offset="1" stop-color="#4B7104"/>
</linearGradient>
<linearGradient id="paint2_linear_1_3238" x1="49.9991" y1="84.4806" x2="49.9991" y2="95.3471" gradientUnits="userSpaceOnUse">
<stop stop-color="#FFF2EB"/>
<stop offset="1" stop-color="#F1DACB"/>
</linearGradient>
<linearGradient id="paint3_linear_1_3238" x1="25.3051" y1="6.47513" x2="69.5394" y2="77.9185" gradientUnits="userSpaceOnUse">
<stop stop-color="#B8DE6F"/>
<stop offset="1" stop-color="#8AA753"/>
</linearGradient>
<linearGradient id="paint4_linear_1_3238" x1="49.9992" y1="89.3589" x2="49.9992" y2="85.11" gradientUnits="userSpaceOnUse">
<stop stop-color="#FFF2EB" stop-opacity="0"/>
<stop offset="1" stop-color="#D3B4A0"/>
</linearGradient>
<linearGradient id="paint5_linear_1_3238" x1="45.2157" y1="99.1628" x2="33.9034" y2="77.2986" gradientUnits="userSpaceOnUse">
<stop stop-color="#B8DE6F" stop-opacity="0"/>
<stop offset="1" stop-color="#4B7104"/>
</linearGradient>
<linearGradient id="paint6_linear_1_3238" x1="52.0606" y1="59.787" x2="52.0606" y2="100.472" gradientUnits="userSpaceOnUse">
<stop stop-color="#FFF2EB"/>
<stop offset="1" stop-color="#F1DACB"/>
</linearGradient>
<linearGradient id="paint7_linear_1_3238" x1="40.0107" y1="106.244" x2="23.0111" y2="89.2448" gradientUnits="userSpaceOnUse">
<stop stop-color="#FFF2EB" stop-opacity="0"/>
<stop offset="1" stop-color="#D3B4A0"/>
</linearGradient>
<linearGradient id="paint8_linear_1_3238" x1="24.219" y1="89.4285" x2="24.219" y2="107.344" gradientUnits="userSpaceOnUse">
<stop stop-color="#FCC344"/>
<stop offset="1" stop-color="#F7AE3D"/>
</linearGradient>
<clipPath id="clip0_1_3238">
<rect width="100" height="100" fill="white"/>
</clipPath>
</defs>
</svg>
