<svg width="50" height="42" viewBox="0 0 50 42" fill="none" xmlns="http://www.w3.org/2000/svg">
<path d="M3.05884 29.1191H46.9413V41.4851H3.05884V29.1191Z" fill="url(#paint0_linear_411_2063)"/>
<path d="M3.05884 29.1191V29.5753L14.9685 41.4851H46.9412V29.1191H3.05884Z" fill="url(#paint1_linear_411_2063)"/>
<path d="M34.9425 29.5753H15.0576V10.7241L25 0.9375L34.9425 10.7241V29.5753Z" fill="url(#paint2_linear_411_2063)"/>
<path d="M25 0.9375L15.0576 10.7241V12.3715L32.2614 29.5753H34.9425V10.7241L25 0.9375Z" fill="url(#paint3_linear_411_2063)"/>
<path d="M36.7132 11.6661L25.8039 0.756843C25.3599 0.312823 24.64 0.312823 24.1961 0.756843L13.2868 11.6661C13.0265 11.9264 13.2108 12.3715 13.5789 12.3715H15.9624C16.5592 12.3715 17.1317 12.1344 17.5537 11.7123L24.6073 4.6588C24.8241 4.44194 25.1758 4.44194 25.3927 4.6588L32.4462 11.7123C32.8682 12.1344 33.4407 12.3715 34.0376 12.3715H36.421C36.7892 12.3715 36.9735 11.9265 36.7132 11.6661Z" fill="#003646"/>
<path d="M17.5538 11.7118L24.6073 4.65824C24.8242 4.44138 25.1758 4.44138 25.3927 4.65824L32.4462 11.7118C32.8683 12.1338 33.4407 12.3709 34.0376 12.3709H35.4239L25.804 2.75098C25.3599 2.30696 24.64 2.30696 24.1961 2.75098L14.5761 12.371H15.9624C16.5593 12.3709 17.1317 12.1338 17.5538 11.7118Z" fill="#003646"/>
<path d="M25.3927 4.65883L32.4463 11.7124C32.8683 12.1344 33.4408 12.3715 34.0376 12.3715H36.4211C36.7892 12.3715 36.9735 11.9264 36.7132 11.6661L25.8039 0.756867C25.582 0.534906 25.291 0.423828 25 0.423828V4.49618C25.1422 4.49618 25.2843 4.5504 25.3927 4.65883Z" fill="#003646"/>
<path d="M34.9425 16.9539L29.1828 11.3754C28.1591 10.298 26.7127 9.66406 25.1091 9.66406C22.0313 9.66406 19.5291 12.1663 19.5292 15.2441C19.5292 16.8476 20.1631 18.2941 21.2406 19.3176L31.4981 29.575H34.9425V16.9539Z" fill="url(#paint4_linear_411_2063)"/>
<path d="M25 20.7863C28.06 20.7863 30.5406 18.3056 30.5406 15.2457C30.5406 12.1857 28.06 9.70508 25 9.70508C21.94 9.70508 19.4594 12.1857 19.4594 15.2457C19.4594 18.3056 21.94 20.7863 25 20.7863Z" fill="url(#paint5_linear_411_2063)"/>
<path d="M25 11.7099C25.161 11.7099 25.2915 11.5794 25.2915 11.4184C25.2915 11.2574 25.161 11.127 25 11.127C24.8391 11.127 24.7086 11.2574 24.7086 11.4184C24.7086 11.5794 24.8391 11.7099 25 11.7099Z" fill="url(#paint6_linear_411_2063)"/>
<path d="M25 19.3642C25.161 19.3642 25.2915 19.2337 25.2915 19.0727C25.2915 18.9117 25.161 18.7812 25 18.7812C24.8391 18.7812 24.7086 18.9117 24.7086 19.0727C24.7086 19.2337 24.8391 19.3642 25 19.3642Z" fill="url(#paint7_linear_411_2063)"/>
<path d="M28.827 15.5361C28.988 15.5361 29.1185 15.4056 29.1185 15.2446C29.1185 15.0836 28.988 14.9531 28.827 14.9531C28.666 14.9531 28.5355 15.0836 28.5355 15.2446C28.5355 15.4056 28.666 15.5361 28.827 15.5361Z" fill="url(#paint8_linear_411_2063)"/>
<path d="M21.1731 15.5361C21.334 15.5361 21.4645 15.4056 21.4645 15.2446C21.4645 15.0836 21.334 14.9531 21.1731 14.9531C21.0121 14.9531 20.8816 15.0836 20.8816 15.2446C20.8816 15.4056 21.0121 15.5361 21.1731 15.5361Z" fill="url(#paint9_linear_411_2063)"/>
<path d="M26.8994 12.2138C27.0604 12.2138 27.1909 12.0833 27.1909 11.9223C27.1909 11.7614 27.0604 11.6309 26.8994 11.6309C26.7385 11.6309 26.608 11.7614 26.608 11.9223C26.608 12.0833 26.7385 12.2138 26.8994 12.2138Z" fill="url(#paint10_linear_411_2063)"/>
<path d="M23.1006 18.8583C23.2616 18.8583 23.3921 18.7278 23.3921 18.5669C23.3921 18.4059 23.2616 18.2754 23.1006 18.2754C22.9396 18.2754 22.8091 18.4059 22.8091 18.5669C22.8091 18.7278 22.9396 18.8583 23.1006 18.8583Z" fill="url(#paint11_linear_411_2063)"/>
<path d="M28.3223 17.4345C28.4833 17.4345 28.6138 17.304 28.6138 17.143C28.6138 16.9821 28.4833 16.8516 28.3223 16.8516C28.1613 16.8516 28.0308 16.9821 28.0308 17.143C28.0308 17.304 28.1613 17.4345 28.3223 17.4345Z" fill="url(#paint12_linear_411_2063)"/>
<path d="M21.6778 13.6357C21.8387 13.6357 21.9692 13.5052 21.9692 13.3442C21.9692 13.1832 21.8387 13.0527 21.6778 13.0527C21.5168 13.0527 21.3863 13.1832 21.3863 13.3442C21.3863 13.5052 21.5168 13.6357 21.6778 13.6357Z" fill="url(#paint13_linear_411_2063)"/>
<path d="M23.1006 12.2138C23.2616 12.2138 23.3921 12.0833 23.3921 11.9223C23.3921 11.7614 23.2616 11.6309 23.1006 11.6309C22.9396 11.6309 22.8091 11.7614 22.8091 11.9223C22.8091 12.0833 22.9396 12.2138 23.1006 12.2138Z" fill="url(#paint14_linear_411_2063)"/>
<path d="M26.8994 18.8583C27.0604 18.8583 27.1909 18.7278 27.1909 18.5669C27.1909 18.4059 27.0604 18.2754 26.8994 18.2754C26.7385 18.2754 26.608 18.4059 26.608 18.5669C26.608 18.7278 26.7385 18.8583 26.8994 18.8583Z" fill="url(#paint15_linear_411_2063)"/>
<path d="M21.6778 17.4345C21.8387 17.4345 21.9692 17.304 21.9692 17.143C21.9692 16.9821 21.8387 16.8516 21.6778 16.8516C21.5168 16.8516 21.3863 16.9821 21.3863 17.143C21.3863 17.304 21.5168 17.4345 21.6778 17.4345Z" fill="url(#paint16_linear_411_2063)"/>
<path d="M28.3223 13.6357C28.4833 13.6357 28.6138 13.5052 28.6138 13.3442C28.6138 13.1832 28.4833 13.0527 28.3223 13.0527C28.1613 13.0527 28.0308 13.1832 28.0308 13.3442C28.0308 13.5052 28.1613 13.6357 28.3223 13.6357Z" fill="url(#paint17_linear_411_2063)"/>
<path d="M30.4225 16.3872L25.3266 11.2913C25.2573 11.1843 25.137 11.1133 25 11.1133C24.7851 11.1133 24.6109 11.2875 24.6109 11.5024V14.3486C24.2648 14.499 24.0227 14.8437 24.0227 15.245C24.0227 15.3717 24.0472 15.4927 24.091 15.6038L22.8378 16.8569C22.6859 17.0089 22.6859 17.2552 22.8378 17.4072L26.1143 20.6736C28.271 20.2332 29.9714 18.5399 30.4225 16.3872Z" fill="url(#paint18_linear_411_2063)"/>
<path d="M29.546 18.4127L25.7379 14.6045C25.5586 14.3983 25.2946 14.2676 25 14.2676C24.4603 14.2676 24.0228 14.7051 24.0228 15.2448C24.0228 15.5395 24.1534 15.8036 24.3597 15.9827L28.1678 19.7907C28.7043 19.4163 29.1715 18.9492 29.546 18.4127Z" fill="url(#paint19_linear_411_2063)"/>
<path d="M25 9.62695C21.8973 9.62695 19.3821 12.1422 19.3821 15.2449C19.3821 18.3476 21.8973 20.8628 25 20.8628C28.1028 20.8628 30.618 18.3476 30.618 15.2449C30.618 12.1422 28.1028 9.62695 25 9.62695ZM25 19.8136C22.4767 19.8136 20.4313 17.7682 20.4313 15.2449C20.4313 12.7216 22.4767 10.6762 25 10.6762C27.5234 10.6762 29.5687 12.7216 29.5687 15.2449C29.5687 17.7682 27.5234 19.8136 25 19.8136Z" fill="url(#paint20_linear_411_2063)"/>
<path d="M25 20.3471C27.8175 20.3471 30.1013 18.0633 30.1013 15.2458C30.1013 12.4284 27.8175 10.1445 25 10.1445C22.1826 10.1445 19.8987 12.4284 19.8987 15.2458C19.8987 18.0633 22.1826 20.3471 25 20.3471ZM25 10.6771C27.5234 10.6771 29.5687 12.7225 29.5687 15.2458C29.5687 17.7691 27.5234 19.8145 25 19.8145C22.4767 19.8145 20.4313 17.7691 20.4313 15.2458C20.4313 12.7225 22.4767 10.6771 25 10.6771Z" fill="url(#paint21_linear_411_2063)"/>
<path d="M25 15.245C24.7851 15.245 24.6109 15.0708 24.6109 14.8559V11.5024C24.6109 11.2875 24.7851 11.1133 25 11.1133C25.2149 11.1133 25.3891 11.2875 25.3891 11.5024V14.8559C25.3891 15.0708 25.2149 15.245 25 15.245Z" fill="url(#paint22_linear_411_2063)"/>
<path d="M25 15.2448C24.8481 15.0929 24.6017 15.0929 24.4497 15.2448L22.838 16.8566C22.686 17.0086 22.686 17.2549 22.838 17.4069C22.9899 17.5588 23.2363 17.5588 23.3883 17.4069L25 15.7951C25.152 15.6432 25.152 15.3968 25 15.2448Z" fill="url(#paint23_linear_411_2063)"/>
<path d="M25 16.2221C25.5397 16.2221 25.9773 15.7846 25.9773 15.2448C25.9773 14.7051 25.5397 14.2676 25 14.2676C24.4603 14.2676 24.0228 14.7051 24.0228 15.2448C24.0228 15.7846 24.4603 16.2221 25 16.2221Z" fill="url(#paint24_linear_411_2063)"/>
<path d="M3.05872 17.5684H15.8507V29.5766H3.05872V17.5684Z" fill="url(#paint25_linear_411_2063)"/>
<path d="M15.8508 29.5765V17.5684H3.05872V18.9956L13.6397 29.5765H15.8508Z" fill="url(#paint26_linear_411_2063)"/>
<path d="M15.8508 18.9952H2.56246C1.86472 18.9952 1.43383 18.2337 1.79315 17.6356L3.8106 14.2775C4.11932 13.7636 4.67491 13.4492 5.27432 13.4492H15.8507V18.9952H15.8508Z" fill="#003646"/>
<path d="M8.18424 21.4605C8.01894 21.2752 7.77904 21.2207 7.5111 21.2207H5.591C5.09247 21.2207 4.7511 21.562 4.7511 22.0606V23.9808C4.7511 24.2486 4.80561 24.4886 4.9909 24.6539L7.28914 26.9522C7.45443 27.1375 7.69433 27.2548 7.96228 27.2548H9.88237C10.3809 27.2548 10.7851 26.8506 10.7851 26.3521V24.4319C10.7851 24.1639 10.6678 23.924 10.4825 23.7587L8.18424 21.4605Z" fill="url(#paint27_linear_411_2063)"/>
<path d="M7.41373 21.0879H5.49363C4.9951 21.0879 4.59088 21.4921 4.59088 21.9906V23.9108C4.59088 24.4094 4.9951 24.8136 5.49363 24.8136H7.41373C7.91225 24.8136 8.31647 24.4094 8.31647 23.9108V21.9906C8.31647 21.4921 7.91235 21.0879 7.41373 21.0879Z" fill="#18CEFB"/>
<path d="M13.2498 21.4605C13.0845 21.2752 12.8446 21.2207 12.5767 21.2207H10.6565C10.158 21.2207 9.81659 21.562 9.81659 22.0606V23.9808C9.81659 24.2486 9.8711 24.4886 10.0564 24.6539L12.3546 26.9522C12.5199 27.1375 12.7598 27.2548 13.0278 27.2548H14.948C15.4465 27.2548 15.8507 26.8506 15.8507 26.3521V24.4319C15.8507 24.1639 15.7334 23.924 15.5481 23.7587L13.2498 21.4605Z" fill="url(#paint28_linear_411_2063)"/>
<path d="M12.4793 24.8136H10.5591C10.0606 24.8136 9.65637 24.4094 9.65637 23.9108V21.9906C9.65637 21.4921 10.0606 21.0879 10.5591 21.0879H12.4793C12.9778 21.0879 13.3821 21.4921 13.3821 21.9906V23.9108C13.3821 24.4095 12.9779 24.8136 12.4793 24.8136Z" fill="#18CEFB"/>
<path d="M34.1493 17.5684H46.9413V29.5766H34.1493V17.5684Z" fill="url(#paint29_linear_411_2063)"/>
<path d="M34.1493 18.9952H47.4376C48.1354 18.9952 48.5663 18.2337 48.2069 17.6356L46.1895 14.2775C45.8808 13.7636 45.3252 13.4492 44.7258 13.4492H34.1493V18.9952Z" fill="#003646"/>
<path d="M39.2747 21.4605C39.1094 21.2752 38.8695 21.2207 38.6016 21.2207H36.6814C36.1829 21.2207 35.8415 21.562 35.8415 22.0606V23.9808C35.8415 24.2486 35.896 24.4886 36.0813 24.6539L38.3795 26.9522C38.5448 27.1375 38.7847 27.2548 39.0527 27.2548H40.9729C41.4714 27.2548 41.8756 26.8506 41.8756 26.3521V24.4319C41.8756 24.1639 41.7583 23.924 41.573 23.7587L39.2747 21.4605Z" fill="url(#paint30_linear_411_2063)"/>
<path d="M38.5042 21.0879H36.584C36.0855 21.0879 35.6813 21.4921 35.6813 21.9906V23.9108C35.6813 24.4094 36.0855 24.8136 36.584 24.8136H38.5042C39.0027 24.8136 39.407 24.4094 39.407 23.9108V21.9906C39.407 21.4921 39.0028 21.0879 38.5042 21.0879Z" fill="#18CEFB"/>
<path d="M44.3403 21.4605C44.175 21.2752 43.9351 21.2207 43.6672 21.2207H41.7471C41.2485 21.2207 40.9072 21.562 40.9072 22.0606V23.9808C40.9072 24.2486 40.9617 24.4886 41.147 24.6539L43.4452 26.9522C43.6105 27.1375 43.8504 27.2548 44.1183 27.2548H46.0385C46.5371 27.2548 46.9413 26.8506 46.9413 26.3521V24.4319C46.9413 24.1639 46.8239 23.924 46.6386 23.7587L44.3403 21.4605Z" fill="url(#paint31_linear_411_2063)"/>
<path d="M43.5698 24.8136H41.6496C41.1511 24.8136 40.7469 24.4094 40.7469 23.9108V21.9906C40.7469 21.4921 41.1511 21.0879 41.6496 21.0879H43.5698C44.0684 21.0879 44.4726 21.4921 44.4726 21.9906V23.9108C44.4726 24.4095 44.0685 24.8136 43.5698 24.8136Z" fill="#18CEFB"/>
<path d="M47.1178 29.5745H2.88227C2.47952 29.5745 2.15295 29.2479 2.15295 28.8451V27.368C2.15295 26.9652 2.47952 26.6387 2.88227 26.6387H47.1178C47.5205 26.6387 47.8471 26.9652 47.8471 27.368V28.8451C47.8471 29.248 47.5205 29.5745 47.1178 29.5745Z" fill="url(#paint32_linear_411_2063)"/>
<path d="M28.9158 41.4859H21.0842V31.963C21.0842 31.4193 21.525 30.9785 22.0687 30.9785H27.9314C28.4751 30.9785 28.9159 31.4193 28.9159 31.963V41.4859H28.9158Z" fill="url(#paint33_linear_411_2063)"/>
<path d="M27.7465 41.4851H22.2535V32.7477C22.2535 32.3661 22.563 32.0566 22.9446 32.0566H27.0555C27.4372 32.0566 27.7466 32.3661 27.7466 32.7477V41.4851H27.7465Z" fill="url(#paint34_linear_411_2063)"/>
<path d="M25 41.4851H27.7465V32.7477C27.7465 32.3661 27.4371 32.0566 27.0554 32.0566H25V41.4851Z" fill="url(#paint35_linear_411_2063)"/>
<path d="M47.1178 41.5745H2.88227C2.47952 41.5745 2.15295 41.2479 2.15295 40.8451V39.368C2.15295 38.9652 2.47952 38.6387 2.88227 38.6387H47.1178C47.5205 38.6387 47.8471 38.9652 47.8471 39.368V40.8451C47.8471 41.2479 47.5205 41.5745 47.1178 41.5745Z" fill="url(#paint36_linear_411_2063)"/>
<path d="M8.48601 32.2461C8.32572 32.0665 8.09317 32.0137 7.83346 32.0137H5.97199C5.48866 32.0137 5.15778 32.3446 5.15778 32.8279V34.6894C5.15778 34.9491 5.21062 35.1816 5.39023 35.3419L7.61817 37.5698C7.77846 37.7495 8.01101 37.8633 8.27072 37.8633H10.1322C10.6155 37.8633 11.0073 37.4715 11.0073 36.9882V35.1267C11.0073 34.867 10.8936 34.6345 10.7139 34.4742L8.48601 32.2461Z" fill="url(#paint37_linear_411_2063)"/>
<path d="M7.83343 31.9531H5.97196C5.48863 31.9531 5.09686 32.345 5.09686 32.8282V34.6897C5.09686 35.173 5.48863 35.5648 5.97196 35.5648H7.83343C8.31677 35.5648 8.70853 35.173 8.70853 34.6897V32.8282C8.70853 32.345 8.31677 31.9531 7.83343 31.9531Z" fill="#18CEFB"/>
<path d="M13.3966 32.2461C13.2363 32.0665 13.0038 32.0137 12.744 32.0137H10.8826C10.3992 32.0137 10.0684 32.3446 10.0684 32.8279V34.6894C10.0684 34.9491 10.1212 35.1816 10.3008 35.3419L12.5288 37.5698C12.689 37.7495 12.9216 37.8633 13.1813 37.8633H15.0428C15.5261 37.8633 15.9179 37.4715 15.9179 36.9882V35.1267C15.9179 34.867 15.8041 34.6345 15.6244 34.4742L13.3966 32.2461Z" fill="url(#paint38_linear_411_2063)"/>
<path d="M12.7441 35.5648H10.8827C10.3993 35.5648 10.0076 35.173 10.0076 34.6897V32.8282C10.0076 32.3449 10.3993 31.9531 10.8827 31.9531H12.7441C13.2275 31.9531 13.6192 32.3449 13.6192 32.8282V34.6897C13.6192 35.1729 13.2274 35.5648 12.7441 35.5648Z" fill="#18CEFB"/>
<path d="M18.3072 32.2461C18.1469 32.0665 17.9144 32.0137 17.6547 32.0137H15.7932C15.3099 32.0137 14.979 32.3446 14.979 32.8279V34.6894C14.979 34.9491 15.0318 35.1816 15.2115 35.3419L17.4394 37.5698C17.5997 37.7495 17.8322 37.8633 18.0919 37.8633H19.9534C20.4367 37.8633 20.8285 37.4715 20.8285 36.9882V35.1267C20.8285 34.867 20.7148 34.6345 20.5351 34.4742L18.3072 32.2461Z" fill="url(#paint39_linear_411_2063)"/>
<path d="M17.6547 35.5648H15.7933C15.3099 35.5648 14.9182 35.173 14.9182 34.6897V32.8282C14.9182 32.3449 15.3099 31.9531 15.7933 31.9531H17.6547C18.1381 31.9531 18.5298 32.3449 18.5298 32.8282V34.6897C18.5299 35.1729 18.1381 35.5648 17.6547 35.5648Z" fill="#18CEFB"/>
<path d="M34.466 32.2461C34.3057 32.0665 34.0731 32.0137 33.8134 32.0137H31.952C31.4687 32.0137 31.1378 32.3446 31.1378 32.8279V34.6894C31.1378 34.9491 31.1907 35.1816 31.3703 35.3419L33.5982 37.5698C33.7585 37.7495 33.9911 37.8633 34.2508 37.8633H36.1122C36.5956 37.8633 36.9873 37.4715 36.9873 36.9882V35.1267C36.9873 34.867 36.8736 34.6345 36.6939 34.4742L34.466 32.2461Z" fill="url(#paint40_linear_411_2063)"/>
<path d="M33.8134 31.9531H31.952C31.4687 31.9531 31.0769 32.345 31.0769 32.8282V34.6897C31.0769 35.173 31.4687 35.5648 31.952 35.5648H33.8135C34.2968 35.5648 34.6886 35.173 34.6886 34.6897V32.8282C34.6886 32.345 34.2967 31.9531 33.8134 31.9531Z" fill="#18CEFB"/>
<path d="M39.3766 32.2461C39.2163 32.0665 38.9837 32.0137 38.724 32.0137H36.8626C36.3792 32.0137 36.0483 32.3446 36.0483 32.8279V34.6894C36.0483 34.9491 36.1012 35.1816 36.2808 35.3419L38.5087 37.5698C38.669 37.7495 38.9016 37.8633 39.1613 37.8633H41.0228C41.5061 37.8633 41.8979 37.4715 41.8979 36.9882V35.1267C41.8979 34.867 41.7841 34.6345 41.6044 34.4742L39.3766 32.2461Z" fill="url(#paint41_linear_411_2063)"/>
<path d="M38.7241 35.5648H36.8626C36.3793 35.5648 35.9875 35.173 35.9875 34.6897V32.8282C35.9875 32.3449 36.3793 31.9531 36.8626 31.9531H38.7241C39.2074 31.9531 39.5992 32.3449 39.5992 32.8282V34.6897C39.5992 35.1729 39.2074 35.5648 38.7241 35.5648Z" fill="#18CEFB"/>
<path d="M44.2872 32.2461C44.1269 32.0665 43.8944 32.0137 43.6347 32.0137H41.7732C41.2899 32.0137 40.959 32.3446 40.959 32.8279V34.6894C40.959 34.9491 41.0118 35.1816 41.1914 35.3419L43.4194 37.5698C43.5797 37.7495 43.8122 37.8633 44.0719 37.8633H45.9334C46.4167 37.8633 46.8085 37.4715 46.8085 36.9882V35.1267C46.8085 34.867 46.6948 34.6345 46.5151 34.4742L44.2872 32.2461Z" fill="url(#paint42_linear_411_2063)"/>
<path d="M43.6346 35.5648H41.7732C41.2898 35.5648 40.8981 35.173 40.8981 34.6897V32.8282C40.8981 32.3449 41.2898 31.9531 41.7732 31.9531H43.6346C44.118 31.9531 44.5097 32.3449 44.5097 32.8282V34.6897C44.5098 35.1729 44.118 35.5648 43.6346 35.5648Z" fill="#18CEFB"/>
<path d="M8.71255 41.5736H1.48451C0.664608 41.5736 0 40.9089 0 40.089V39.3953C0 36.9895 1.95039 35.0391 4.35627 35.0391C6.76216 35.0391 8.71255 36.9895 8.71255 39.3953V41.5736Z" fill="#003646"/>
<path d="M41.5597 41.5743H48.5618C49.3562 41.5743 50 40.9304 50 40.1362V39.4642C50 37.1336 48.1106 35.2441 45.7799 35.2441C43.4492 35.2441 41.5598 37.1336 41.5598 39.4642V41.5743H41.5597Z" fill="#003646"/>
<defs>
<linearGradient id="paint0_linear_411_2063" x1="25" y1="33.2143" x2="25" y2="42.995" gradientUnits="userSpaceOnUse">
<stop stop-color="#F8F6FB"/>
<stop offset="1" stop-color="#EFDCFB"/>
</linearGradient>
<linearGradient id="paint1_linear_411_2063" x1="25" y1="36.0411" x2="25" y2="25.6449" gradientUnits="userSpaceOnUse">
<stop stop-color="#EFDCFB" stop-opacity="0"/>
<stop offset="0.4856" stop-color="#BAAAD6" stop-opacity="0.486"/>
<stop offset="1" stop-color="#8679B2"/>
</linearGradient>
<linearGradient id="paint2_linear_411_2063" x1="18.3544" y1="5.24319" x2="28.1913" y2="27.308" gradientUnits="userSpaceOnUse">
<stop stop-color="#F8F6FB"/>
<stop offset="1" stop-color="#EFDCFB"/>
</linearGradient>
<linearGradient id="paint3_linear_411_2063" x1="28.589" y1="19.517" x2="20.1194" y2="0.710832" gradientUnits="userSpaceOnUse">
<stop stop-color="#EFDCFB" stop-opacity="0"/>
<stop offset="0.4856" stop-color="#BAAAD6" stop-opacity="0.486"/>
<stop offset="1" stop-color="#8679B2"/>
</linearGradient>
<linearGradient id="paint4_linear_411_2063" x1="34.2705" y1="24.316" x2="19.3812" y2="9.42671" gradientUnits="userSpaceOnUse">
<stop stop-color="#EFDCFB" stop-opacity="0"/>
<stop offset="0.4856" stop-color="#BAAAD6" stop-opacity="0.486"/>
<stop offset="1" stop-color="#8679B2"/>
</linearGradient>
<linearGradient id="paint5_linear_411_2063" x1="22.1444" y1="12.3901" x2="31.305" y2="21.5507" gradientUnits="userSpaceOnUse">
<stop stop-color="#F8F6FB"/>
<stop offset="1" stop-color="#EFDCFB"/>
</linearGradient>
<linearGradient id="paint6_linear_411_2063" x1="24.8856" y1="11.304" x2="25.1301" y2="11.5485" gradientUnits="userSpaceOnUse">
<stop stop-color="#8A7889"/>
<stop offset="0.3344" stop-color="#867385"/>
<stop offset="0.7039" stop-color="#7B667B"/>
<stop offset="1" stop-color="#6E566E"/>
</linearGradient>
<linearGradient id="paint7_linear_411_2063" x1="24.8856" y1="18.9583" x2="25.1301" y2="19.2028" gradientUnits="userSpaceOnUse">
<stop stop-color="#8A7889"/>
<stop offset="0.3344" stop-color="#867385"/>
<stop offset="0.7039" stop-color="#7B667B"/>
<stop offset="1" stop-color="#6E566E"/>
</linearGradient>
<linearGradient id="paint8_linear_411_2063" x1="28.9414" y1="15.1301" x2="28.6969" y2="15.3747" gradientUnits="userSpaceOnUse">
<stop stop-color="#8A7889"/>
<stop offset="0.3344" stop-color="#867385"/>
<stop offset="0.7039" stop-color="#7B667B"/>
<stop offset="1" stop-color="#6E566E"/>
</linearGradient>
<linearGradient id="paint9_linear_411_2063" x1="21.2876" y1="15.1301" x2="21.043" y2="15.3747" gradientUnits="userSpaceOnUse">
<stop stop-color="#8A7889"/>
<stop offset="0.3344" stop-color="#867385"/>
<stop offset="0.7039" stop-color="#7B667B"/>
<stop offset="1" stop-color="#6E566E"/>
</linearGradient>
<linearGradient id="paint10_linear_411_2063" x1="26.8232" y1="11.676" x2="26.9142" y2="12.0096" gradientUnits="userSpaceOnUse">
<stop stop-color="#8A7889"/>
<stop offset="0.3344" stop-color="#867385"/>
<stop offset="0.7039" stop-color="#7B667B"/>
<stop offset="1" stop-color="#6E566E"/>
</linearGradient>
<linearGradient id="paint11_linear_411_2063" x1="23.0269" y1="18.3195" x2="23.1179" y2="18.6532" gradientUnits="userSpaceOnUse">
<stop stop-color="#8A7889"/>
<stop offset="0.3344" stop-color="#867385"/>
<stop offset="0.7039" stop-color="#7B667B"/>
<stop offset="1" stop-color="#6E566E"/>
</linearGradient>
<linearGradient id="paint12_linear_411_2063" x1="28.5944" y1="16.8278" x2="28.2608" y2="16.9187" gradientUnits="userSpaceOnUse">
<stop stop-color="#8A7889"/>
<stop offset="0.3344" stop-color="#867385"/>
<stop offset="0.7039" stop-color="#7B667B"/>
<stop offset="1" stop-color="#6E566E"/>
</linearGradient>
<linearGradient id="paint13_linear_411_2063" x1="21.9508" y1="13.0315" x2="21.6172" y2="13.1224" gradientUnits="userSpaceOnUse">
<stop stop-color="#8A7889"/>
<stop offset="0.3344" stop-color="#867385"/>
<stop offset="0.7039" stop-color="#7B667B"/>
<stop offset="1" stop-color="#6E566E"/>
</linearGradient>
<linearGradient id="paint14_linear_411_2063" x1="23.2352" y1="11.6296" x2="23.1443" y2="11.9631" gradientUnits="userSpaceOnUse">
<stop stop-color="#8A7889"/>
<stop offset="0.3344" stop-color="#867385"/>
<stop offset="0.7039" stop-color="#7B667B"/>
<stop offset="1" stop-color="#6E566E"/>
</linearGradient>
<linearGradient id="paint15_linear_411_2063" x1="27.0315" y1="18.2731" x2="26.9406" y2="18.6067" gradientUnits="userSpaceOnUse">
<stop stop-color="#8A7889"/>
<stop offset="0.3344" stop-color="#867385"/>
<stop offset="0.7039" stop-color="#7B667B"/>
<stop offset="1" stop-color="#6E566E"/>
</linearGradient>
<linearGradient id="paint16_linear_411_2063" x1="21.4642" y1="16.7813" x2="21.7977" y2="16.8723" gradientUnits="userSpaceOnUse">
<stop stop-color="#8A7889"/>
<stop offset="0.3344" stop-color="#867385"/>
<stop offset="0.7039" stop-color="#7B667B"/>
<stop offset="1" stop-color="#6E566E"/>
</linearGradient>
<linearGradient id="paint17_linear_411_2063" x1="28.1077" y1="12.985" x2="28.4413" y2="13.0759" gradientUnits="userSpaceOnUse">
<stop stop-color="#8A7889"/>
<stop offset="0.3344" stop-color="#867385"/>
<stop offset="0.7039" stop-color="#7B667B"/>
<stop offset="1" stop-color="#6E566E"/>
</linearGradient>
<linearGradient id="paint18_linear_411_2063" x1="27.0207" y1="16.7311" x2="16.0677" y2="10.2245" gradientUnits="userSpaceOnUse">
<stop stop-color="#EFDCFB" stop-opacity="0"/>
<stop offset="0.0287" stop-color="#E9D6F7" stop-opacity="0.029"/>
<stop offset="0.2203" stop-color="#C5B5DE" stop-opacity="0.22"/>
<stop offset="0.4138" stop-color="#AA9BCB" stop-opacity="0.414"/>
<stop offset="0.6078" stop-color="#9688BD" stop-opacity="0.608"/>
<stop offset="0.8028" stop-color="#8A7DB5" stop-opacity="0.803"/>
<stop offset="1" stop-color="#8679B2"/>
</linearGradient>
<linearGradient id="paint19_linear_411_2063" x1="26.8742" y1="17.1191" x2="20.8809" y2="11.1258" gradientUnits="userSpaceOnUse">
<stop stop-color="#EFDCFB" stop-opacity="0"/>
<stop offset="0.0287" stop-color="#E9D6F7" stop-opacity="0.029"/>
<stop offset="0.2203" stop-color="#C5B5DE" stop-opacity="0.22"/>
<stop offset="0.4138" stop-color="#AA9BCB" stop-opacity="0.414"/>
<stop offset="0.6078" stop-color="#9688BD" stop-opacity="0.608"/>
<stop offset="0.8028" stop-color="#8A7DB5" stop-opacity="0.803"/>
<stop offset="1" stop-color="#8679B2"/>
</linearGradient>
<linearGradient id="paint20_linear_411_2063" x1="22.1045" y1="12.3494" x2="31.3931" y2="21.6379" gradientUnits="userSpaceOnUse">
<stop stop-color="#FFD945"/>
<stop offset="0.3043" stop-color="#FFCD3E"/>
<stop offset="0.8558" stop-color="#FFAD2B"/>
<stop offset="1" stop-color="#FFA325"/>
</linearGradient>
<linearGradient id="paint21_linear_411_2063" x1="29.8847" y1="20.1305" x2="19.2194" y2="9.46522" gradientUnits="userSpaceOnUse">
<stop stop-color="#FFD945"/>
<stop offset="0.3043" stop-color="#FFCD3E"/>
<stop offset="0.8558" stop-color="#FFAD2B"/>
<stop offset="1" stop-color="#FFA325"/>
</linearGradient>
<linearGradient id="paint22_linear_411_2063" x1="24.2079" y1="13.1792" x2="25.8779" y2="13.1792" gradientUnits="userSpaceOnUse">
<stop stop-color="#18CEFB"/>
<stop offset="1" stop-color="#4A97F6"/>
</linearGradient>
<linearGradient id="paint23_linear_411_2063" x1="23.4084" y1="15.6343" x2="24.5892" y2="16.8151" gradientUnits="userSpaceOnUse">
<stop stop-color="#18CEFB"/>
<stop offset="1" stop-color="#4A97F6"/>
</linearGradient>
<linearGradient id="paint24_linear_411_2063" x1="24.4964" y1="14.7411" x2="26.1121" y2="16.3569" gradientUnits="userSpaceOnUse">
<stop stop-color="#8A7889"/>
<stop offset="1" stop-color="#6E566E"/>
</linearGradient>
<linearGradient id="paint25_linear_411_2063" x1="6.5544" y1="20.6721" x2="12.5367" y2="26.6543" gradientUnits="userSpaceOnUse">
<stop stop-color="#F8F6FB"/>
<stop offset="1" stop-color="#EFDCFB"/>
</linearGradient>
<linearGradient id="paint26_linear_411_2063" x1="10.636" y1="25.041" x2="9.0295" y2="15.8487" gradientUnits="userSpaceOnUse">
<stop stop-color="#EFDCFB" stop-opacity="0"/>
<stop offset="0.4856" stop-color="#BAAAD6" stop-opacity="0.486"/>
<stop offset="1" stop-color="#8679B2"/>
</linearGradient>
<linearGradient id="paint27_linear_411_2063" x1="9.03875" y1="25.5084" x2="1.80561" y2="18.2752" gradientUnits="userSpaceOnUse">
<stop stop-color="#EFDCFB" stop-opacity="0"/>
<stop offset="0.4856" stop-color="#BAAAD6" stop-opacity="0.486"/>
<stop offset="1" stop-color="#8679B2"/>
</linearGradient>
<linearGradient id="paint28_linear_411_2063" x1="14.211" y1="25.615" x2="7.75531" y2="19.1593" gradientUnits="userSpaceOnUse">
<stop stop-color="#EFDCFB" stop-opacity="0"/>
<stop offset="0.4856" stop-color="#BAAAD6" stop-opacity="0.486"/>
<stop offset="1" stop-color="#8679B2"/>
</linearGradient>
<linearGradient id="paint29_linear_411_2063" x1="37.2672" y1="20.2944" x2="42.7438" y2="25.771" gradientUnits="userSpaceOnUse">
<stop stop-color="#F8F6FB"/>
<stop offset="1" stop-color="#EFDCFB"/>
</linearGradient>
<linearGradient id="paint30_linear_411_2063" x1="40.1292" y1="25.5084" x2="32.8961" y2="18.2752" gradientUnits="userSpaceOnUse">
<stop stop-color="#EFDCFB" stop-opacity="0"/>
<stop offset="0.4856" stop-color="#BAAAD6" stop-opacity="0.486"/>
<stop offset="1" stop-color="#8679B2"/>
</linearGradient>
<linearGradient id="paint31_linear_411_2063" x1="45.3015" y1="25.615" x2="38.8458" y2="19.1593" gradientUnits="userSpaceOnUse">
<stop stop-color="#EFDCFB" stop-opacity="0"/>
<stop offset="0.4856" stop-color="#BAAAD6" stop-opacity="0.486"/>
<stop offset="1" stop-color="#8679B2"/>
</linearGradient>
<linearGradient id="paint32_linear_411_2063" x1="25" y1="26.8479" x2="25" y2="29.6159" gradientUnits="userSpaceOnUse">
<stop stop-color="#FFD945"/>
<stop offset="0.3043" stop-color="#FFCD3E"/>
<stop offset="0.8558" stop-color="#FFAD2B"/>
<stop offset="1" stop-color="#FFA325"/>
</linearGradient>
<linearGradient id="paint33_linear_411_2063" x1="31.5582" y1="37.4005" x2="20.7312" y2="35.596" gradientUnits="userSpaceOnUse">
<stop stop-color="#F8F6FB"/>
<stop offset="1" stop-color="#EFDCFB"/>
</linearGradient>
<linearGradient id="paint34_linear_411_2063" x1="29.8362" y1="37.6297" x2="21.8485" y2="36.2984" gradientUnits="userSpaceOnUse">
<stop stop-color="#8A7889"/>
<stop offset="1" stop-color="#6E566E"/>
</linearGradient>
<linearGradient id="paint35_linear_411_2063" x1="26.2031" y1="36.803" x2="23.3709" y2="36.1243" gradientUnits="userSpaceOnUse">
<stop stop-color="#6E566E" stop-opacity="0"/>
<stop offset="0.2944" stop-color="#674D66" stop-opacity="0.294"/>
<stop offset="1" stop-color="#593B56"/>
</linearGradient>
<linearGradient id="paint36_linear_411_2063" x1="25" y1="38.8479" x2="25" y2="41.6159" gradientUnits="userSpaceOnUse">
<stop stop-color="#FFD945"/>
<stop offset="0.3043" stop-color="#FFCD3E"/>
<stop offset="0.8558" stop-color="#FFAD2B"/>
<stop offset="1" stop-color="#FFA325"/>
</linearGradient>
<linearGradient id="paint37_linear_411_2063" x1="9.31434" y1="36.1702" x2="2.30248" y2="29.1583" gradientUnits="userSpaceOnUse">
<stop stop-color="#EFDCFB" stop-opacity="0"/>
<stop offset="0.4856" stop-color="#BAAAD6" stop-opacity="0.486"/>
<stop offset="1" stop-color="#8679B2"/>
</linearGradient>
<linearGradient id="paint38_linear_411_2063" x1="14.3284" y1="36.2736" x2="8.07022" y2="30.0154" gradientUnits="userSpaceOnUse">
<stop stop-color="#EFDCFB" stop-opacity="0"/>
<stop offset="0.4856" stop-color="#BAAAD6" stop-opacity="0.486"/>
<stop offset="1" stop-color="#8679B2"/>
</linearGradient>
<linearGradient id="paint39_linear_411_2063" x1="18.9384" y1="35.973" x2="11.2364" y2="28.2709" gradientUnits="userSpaceOnUse">
<stop stop-color="#EFDCFB" stop-opacity="0"/>
<stop offset="0.4856" stop-color="#BAAAD6" stop-opacity="0.486"/>
<stop offset="1" stop-color="#8679B2"/>
</linearGradient>
<linearGradient id="paint40_linear_411_2063" x1="35.2944" y1="36.1702" x2="28.2824" y2="29.1583" gradientUnits="userSpaceOnUse">
<stop stop-color="#EFDCFB" stop-opacity="0"/>
<stop offset="0.4856" stop-color="#BAAAD6" stop-opacity="0.486"/>
<stop offset="1" stop-color="#8679B2"/>
</linearGradient>
<linearGradient id="paint41_linear_411_2063" x1="40.3082" y1="36.2736" x2="34.0501" y2="30.0154" gradientUnits="userSpaceOnUse">
<stop stop-color="#EFDCFB" stop-opacity="0"/>
<stop offset="0.4856" stop-color="#BAAAD6" stop-opacity="0.486"/>
<stop offset="1" stop-color="#8679B2"/>
</linearGradient>
<linearGradient id="paint42_linear_411_2063" x1="44.9184" y1="35.973" x2="37.2163" y2="28.2709" gradientUnits="userSpaceOnUse">
<stop stop-color="#EFDCFB" stop-opacity="0"/>
<stop offset="0.4856" stop-color="#BAAAD6" stop-opacity="0.486"/>
<stop offset="1" stop-color="#8679B2"/>
</linearGradient>
</defs>
</svg>
