<svg width="168" height="47" viewBox="0 0 168 47" fill="none" xmlns="http://www.w3.org/2000/svg">
<path d="M58.7602 34.7178C57.2988 34.7178 55.9417 34.4616 54.689 33.9491C53.4363 33.4177 52.3355 32.687 51.3865 31.7569C50.4565 30.8079 49.7353 29.7071 49.2228 28.4544C48.7293 27.2018 48.4826 25.8542 48.4826 24.4117C48.4826 22.9692 48.7293 21.6217 49.2228 20.369C49.7353 19.1163 50.4565 18.025 51.3865 17.095C52.3355 16.1649 53.4269 15.4342 54.6605 14.9028C55.9132 14.3713 57.2798 14.1056 58.7602 14.1056C60.3545 14.1056 61.759 14.3713 62.9737 14.9028C64.1885 15.4152 65.2608 16.127 66.1908 17.038L63.5716 19.6572C63.0212 19.0499 62.3474 18.5754 61.5503 18.2338C60.7531 17.8921 59.8231 17.7213 58.7602 17.7213C57.8302 17.7213 56.9761 17.8826 56.1979 18.2053C55.4387 18.509 54.7744 18.9645 54.205 19.5718C53.6356 20.1602 53.1991 20.872 52.8954 21.7071C52.5917 22.5232 52.4399 23.4248 52.4399 24.4117C52.4399 25.4176 52.5917 26.3287 52.8954 27.1448C53.1991 27.961 53.6356 28.6727 54.205 29.2801C54.7744 29.8684 55.4387 30.324 56.1979 30.6466C56.9761 30.9693 57.8302 31.1306 58.7602 31.1306C59.88 31.1306 60.8385 30.9598 61.6357 30.6181C62.4518 30.2765 63.1351 29.7925 63.6855 29.1662L66.3047 31.7854C65.3747 32.7154 64.2929 33.4367 63.0592 33.9491C61.8255 34.4616 60.3925 34.7178 58.7602 34.7178ZM78.42 34.4331V26.547C78.42 25.7308 78.1638 25.0665 77.6513 24.5541C77.1388 24.0416 76.4745 23.7854 75.6584 23.7854C75.127 23.7854 74.6525 23.8993 74.2349 24.127C73.8174 24.3548 73.4852 24.6774 73.2385 25.095C73.0107 25.5125 72.8968 25.9965 72.8968 26.547L71.4449 25.8067C71.4449 24.7249 71.6726 23.7854 72.1281 22.9882C72.5837 22.1721 73.21 21.5363 74.0072 21.0807C74.8233 20.6252 75.7533 20.3975 76.7972 20.3975C77.8411 20.3975 78.7616 20.6252 79.5588 21.0807C80.3749 21.5363 81.0107 22.1626 81.4663 22.9597C81.9218 23.7569 82.1495 24.6774 82.1495 25.7213V34.4331H78.42ZM69.1673 34.4331V13.8494H72.8968V34.4331H69.1673ZM91.4741 34.7178C90.2214 34.7178 89.0921 34.4046 88.0862 33.7783C87.0802 33.152 86.2926 32.2979 85.7232 31.216C85.1538 30.1342 84.8691 28.9194 84.8691 27.5719C84.8691 26.2053 85.1538 24.9811 85.7232 23.8993C86.2926 22.8174 87.0802 21.9633 88.0862 21.337C89.0921 20.7106 90.2214 20.3975 91.4741 20.3975C92.461 20.3975 93.3436 20.5967 94.1218 20.9953C94.9 21.3939 95.5168 21.9538 95.9723 22.675C96.4468 23.3773 96.7031 24.1745 96.741 25.0665V30.0203C96.7031 30.9313 96.4468 31.738 95.9723 32.4402C95.5168 33.1425 94.9 33.7024 94.1218 34.1199C93.3436 34.5185 92.461 34.7178 91.4741 34.7178ZM92.1574 31.2729C93.2013 31.2729 94.0459 30.9313 94.6912 30.248C95.3365 29.5458 95.6592 28.6442 95.6592 27.5434C95.6592 26.8222 95.5073 26.1863 95.2036 25.6359C94.9189 25.0665 94.5109 24.63 93.9794 24.3263C93.467 24.0036 92.8596 23.8423 92.1574 23.8423C91.4741 23.8423 90.8667 24.0036 90.3353 24.3263C89.8228 24.63 89.4148 25.0665 89.1111 25.6359C88.8264 26.1863 88.684 26.8222 88.684 27.5434C88.684 28.2836 88.8264 28.9384 89.1111 29.5078C89.4148 30.0582 89.8228 30.4948 90.3353 30.8174C90.8667 31.1211 91.4741 31.2729 92.1574 31.2729ZM95.4599 34.4331V30.732L96.0577 27.3726L95.4599 24.0701V20.6822H99.161V34.4331H95.4599ZM105.051 34.4331V14.9597H108.781V34.4331H105.051ZM101.834 23.9562V20.6822H111.998V23.9562H101.834ZM118.337 34.4331L113.184 20.6822H116.942L120.302 30.6751L119.163 30.7036L122.608 20.6822H125.312L128.757 30.7036L127.618 30.6751L130.978 20.6822H134.736L129.611 34.4331H126.907L123.433 24.9242H124.487L121.013 34.4331H118.337ZM142.56 34.7178C141.307 34.7178 140.178 34.4046 139.172 33.7783C138.166 33.152 137.378 32.2979 136.809 31.216C136.239 30.1342 135.955 28.9194 135.955 27.5719C135.955 26.2053 136.239 24.9811 136.809 23.8993C137.378 22.8174 138.166 21.9633 139.172 21.337C140.178 20.7106 141.307 20.3975 142.56 20.3975C143.547 20.3975 144.429 20.5967 145.207 20.9953C145.986 21.3939 146.602 21.9538 147.058 22.675C147.532 23.3773 147.789 24.1745 147.827 25.0665V30.0203C147.789 30.9313 147.532 31.738 147.058 32.4402C146.602 33.1425 145.986 33.7024 145.207 34.1199C144.429 34.5185 143.547 34.7178 142.56 34.7178ZM143.243 31.2729C144.287 31.2729 145.131 30.9313 145.777 30.248C146.422 29.5458 146.745 28.6442 146.745 27.5434C146.745 26.8222 146.593 26.1863 146.289 25.6359C146.005 25.0665 145.596 24.63 145.065 24.3263C144.553 24.0036 143.945 23.8423 143.243 23.8423C142.56 23.8423 141.952 24.0036 141.421 24.3263C140.908 24.63 140.5 25.0665 140.197 25.6359C139.912 26.1863 139.77 26.8222 139.77 27.5434C139.77 28.2836 139.912 28.9384 140.197 29.5078C140.5 30.0582 140.908 30.4948 141.421 30.8174C141.952 31.1211 142.56 31.2729 143.243 31.2729ZM146.545 34.4331V30.732L147.143 27.3726L146.545 24.0701V20.6822H150.247V34.4331H146.545ZM158.443 34.547L152.692 20.6822H156.735L160.55 31.2729H159.183L163.14 20.6822H167.212L161.09 34.5185L158.443 34.547ZM154.628 40.184L158.813 31.3299L161.09 34.5185L158.585 40.184H154.628Z" fill="white"/>
<path d="M13.5111 45.7715C12.756 44.0505 11.197 42.8155 9.34883 42.4743L3.26227 41.3506C1.37209 41.0016 0.000244141 39.3533 0.000244141 37.4312V13.5561C0.000244141 10.6168 1.44068 7.86403 3.85559 6.18838L9.02147 2.60389C11.0624 1.18777 13.5781 0.630648 16.0261 1.05271L34.485 4.23528C38.3084 4.89448 41.1018 8.21078 41.1018 12.0906V30.1772C41.1018 32.3182 40.2406 34.3691 38.7121 35.8682L32.1379 42.316C29.645 44.761 26.0967 45.8011 22.6783 45.0889L20.8816 44.7146C18.9447 44.3111 16.9374 44.9466 15.5856 46.3914L15.3912 46.5992C14.9024 47.1216 14.0386 46.9739 13.7512 46.3187L13.5111 45.7715Z" fill="#0446DE"/>
<path d="M8.76268 9.07045C4.74951 8.25495 0.996338 11.3222 0.996338 15.4173V35.8127C0.996338 37.734 2.36704 39.3819 4.25621 39.7317L10.3623 40.8625C12.1616 41.1957 13.6705 42.4158 14.373 44.1055C14.5885 44.624 15.2774 44.7285 15.637 44.2972L15.7963 44.1061C16.9699 42.6985 18.7515 41.9451 20.5789 42.0835L24.9942 42.418C28.1748 42.659 30.8884 40.1432 30.8884 36.9535V16.8237C30.8884 14.9285 29.5537 13.2953 27.6965 12.9179L8.76268 9.07045Z" fill="#0049D6"/>
<path d="M8.33253 9.05172C5.87275 8.5747 3.58813 10.4588 3.58813 12.9644V33.9359C3.58813 35.9167 5.04282 37.5969 7.00323 37.8805L10.6681 38.4105C12.4376 38.6665 13.9607 39.7932 14.7232 41.4104C14.9345 41.93 15.6217 42.0402 15.9849 41.6127C17.1463 40.265 18.9153 39.6033 20.6761 39.858L26.3321 40.6761C28.7353 41.0236 30.8882 39.1597 30.8882 36.7315V16.7129C30.8882 14.8042 29.5351 13.1635 27.6614 12.8002L8.33253 9.05172Z" fill="white"/>
<path d="M20.8494 29.8373L13.9441 28.6267C11.5628 28.2092 9.76336 30.1625 11.2899 32.0371C12.8501 33.9531 15.352 35.5479 18.918 34.6313C19.7095 34.4279 21.2385 33.6148 22.2592 32.456C23.1883 31.4013 22.2338 30.08 20.8494 29.8373Z" fill="#0054F8"/>
<ellipse cx="11.308" cy="20.6055" rx="2.0398" ry="3.49681" transform="rotate(-4.90348 11.308 20.6055)" fill="#0054F8"/>
<ellipse cx="22.0893" cy="22.5968" rx="2.0398" ry="3.49681" transform="rotate(-4.90348 22.0893 22.5968)" fill="#0054F8"/>
</svg>
