<svg width="38" height="38" viewBox="0 0 38 38" fill="none" xmlns="http://www.w3.org/2000/svg">
<g clip-path="url(#clip0_346_9654)">
<path fill-rule="evenodd" clip-rule="evenodd" d="M17.1613 0.0656072C13.4315 0.415572 9.62742 2.03896 6.67535 4.54034C1.85048 8.62877 -0.656287 15.1031 0.148529 21.3975C0.727224 25.9228 2.63577 29.7183 5.92712 32.889C8.8364 35.6916 12.3827 37.3991 16.5178 37.9882C18.2128 38.2296 21.0656 38.138 22.7019 37.7896C27.8332 36.6968 32.0714 33.7984 34.9202 29.4339C37.6484 25.2545 38.5979 19.8587 37.4857 14.8558C35.9445 7.92307 30.5419 2.32839 23.7054 0.585544C21.773 0.0928391 19.1183 -0.118031 17.1613 0.0656072ZM22.1449 0.677161C27.872 1.70509 32.6691 5.2176 35.415 10.3937C37.7281 14.7542 38.1785 20.1209 36.6296 24.8699C35.99 26.8312 34.7318 29.1723 33.4738 30.7415C30.3884 34.5902 25.8137 37.1214 21.0374 37.6227C13.2743 38.4375 5.97786 34.4726 2.41871 27.5054C0.0114064 22.793 -0.236764 17.0759 1.74991 12.1007C3.11167 8.69063 5.60012 5.60917 8.63675 3.57265C10.9985 1.98885 13.9419 0.869707 16.5069 0.580381C17.033 0.521058 17.5993 0.453231 17.7654 0.429745C18.4461 0.333269 21.0481 0.480362 22.1449 0.677161ZM17.7654 1.03553C17.5993 1.0582 17.0783 1.12806 16.6076 1.19072C10.1308 2.05343 4.50585 6.63102 2.26135 12.8658C1.44506 15.1332 1.15158 17.086 1.24078 19.6564C1.35233 22.8687 2.1057 25.4679 3.73527 28.2631L4.15791 28.988L4.71959 28.6995C5.06743 28.5208 5.52109 28.3866 5.91061 28.347C6.25664 28.3118 6.53984 28.2626 6.53984 28.2375C6.53984 28.2125 6.44923 28.0761 6.33849 27.9346C6.02427 27.5329 6.06535 26.8774 6.43071 26.466L6.72428 26.1353L8.78858 26.1044L10.8528 26.0733L11.2826 25.3451C11.519 24.9445 11.9077 24.3237 12.1465 23.9653C12.4994 23.4353 12.5806 23.2275 12.5811 22.8517C12.582 22.1566 12.8441 20.557 13.0879 19.7576C13.4413 18.5997 14.3303 16.9893 15.1341 16.0512C17.4673 13.3282 20.6879 11.7267 25.4776 10.9075C27.606 10.5435 31.8099 10.2624 31.8099 10.4841C31.8099 10.5505 31.6456 11.0469 31.4446 11.5874C30.4542 14.2522 29.0074 16.5862 27.2199 18.4028L26.3616 19.2752L25.4362 19.3348C24.9272 19.3676 23.7406 19.3604 22.7993 19.3189C21.8579 19.2773 21.0722 19.2532 21.0532 19.2652C20.8653 19.3846 22.8696 20.0357 24.1834 20.2821C24.7232 20.3834 25.1631 20.489 25.1609 20.5169C25.154 20.6049 23.9367 21.4744 23.1508 21.9527C21.4927 22.9618 19.8306 23.6231 18.0891 23.9668C17.0856 24.1648 15.9029 24.2265 15.9029 24.0807C15.9029 23.947 16.7399 22.625 17.3642 21.7727C18.7658 19.8591 19.989 18.4155 21.6772 16.6822L22.7993 15.5303L22.1952 15.9163C18.9585 17.985 16.0341 20.9844 13.5493 24.784C13.1272 25.4294 12.7818 25.9861 12.7818 26.0211C12.7818 26.0561 13.6314 26.085 14.6696 26.0854C16.3659 26.086 16.5872 26.1059 16.8525 26.2817C17.4556 26.6815 17.5882 27.3784 17.1588 27.8915C16.8653 28.2422 16.8734 28.248 17.8157 28.3673C18.9754 28.5141 20.1274 29.419 20.5291 30.4984C20.7197 31.0106 20.7354 31.2773 20.7354 33.9978V36.9429L21.2639 36.8741C27.8799 36.0139 33.4132 31.6709 35.7952 25.4689C36.1972 24.4223 36.6907 22.4953 36.8382 21.3954C36.9967 20.2141 36.9702 17.4388 36.7894 16.2892C35.8525 10.331 32.1503 5.33796 26.7532 2.75397C24.465 1.65852 22.1944 1.11328 19.6105 1.03887C18.7618 1.01437 17.9315 1.01295 17.7654 1.03553Z" fill="url(#paint0_linear_346_9654)"/>
</g>
<defs>
<linearGradient id="paint0_linear_346_9654" x1="18.9707" y1="0" x2="18.9707" y2="38.1233" gradientUnits="userSpaceOnUse">
<stop stop-color="#517DFC"/>
<stop offset="1" stop-color="#0A42C6"/>
</linearGradient>
<clipPath id="clip0_346_9654">
<rect width="38" height="38" fill="white"/>
</clipPath>
</defs>
</svg>
