<svg width="181" height="41" viewBox="0 0 181 41" fill="none" xmlns="http://www.w3.org/2000/svg">
<path fill-rule="evenodd" clip-rule="evenodd" d="M18.0646 0.0690602C14.1384 0.437445 10.1341 2.14627 7.02669 4.77931C1.94788 9.08292 -0.690829 15.898 0.156347 22.5237C0.765499 27.2872 2.77449 31.2824 6.23907 34.6201C9.30147 37.5701 13.0344 39.3675 17.3872 39.9876C19.1714 40.2417 22.1743 40.1453 23.8968 39.7785C29.2982 38.6282 33.7593 35.5773 36.7582 30.9831C39.6299 26.5837 40.6294 20.9039 39.4586 15.6376C37.8364 8.34007 32.1493 2.45093 24.953 0.616362C22.9189 0.0977254 20.1245 -0.124243 18.0646 0.0690602ZM23.3104 0.712801C29.339 1.79483 34.3885 5.49221 37.2789 10.9407C39.7138 15.5308 40.1879 21.1799 38.5575 26.1789C37.8843 28.2434 36.5598 30.7076 35.2356 32.3594C31.9878 36.4107 27.1723 39.0752 22.1446 39.6029C13.9729 40.4605 6.29249 36.287 2.54601 28.9531C0.012007 23.9926 -0.249225 17.9747 1.84201 12.7376C3.27544 9.14803 5.89486 5.90439 9.09132 3.76068C11.5774 2.09352 14.6756 0.915481 17.3757 0.610928C17.9294 0.548482 18.5255 0.477086 18.7004 0.452363C19.4169 0.35081 22.1559 0.505644 23.3104 0.712801ZM18.7004 1.09003C18.5255 1.1139 17.9771 1.18743 17.4817 1.25339C10.664 2.16151 4.743 6.98002 2.38037 13.543C1.52111 15.9297 1.21219 17.9853 1.30608 20.6909C1.42351 24.0723 2.21653 26.8083 3.93186 29.7506L4.04197 29.9395C4.22968 30.2614 4.63648 30.3803 4.96799 30.21C5.33414 30.0219 5.81167 29.8806 6.22169 29.8389C6.58593 29.8019 6.88405 29.7501 6.88405 29.7236C6.88405 29.6973 6.78867 29.5538 6.67209 29.4048C6.34134 28.982 6.38458 28.292 6.76917 27.8589C6.96606 27.6372 7.24706 27.5083 7.54357 27.5039L9.25113 27.4783L10.534 27.459C11.0868 27.4506 11.5954 27.1552 11.8764 26.6791C12.1252 26.2574 12.5344 25.6038 12.7858 25.2266C13.1573 24.6688 13.2427 24.45 13.2433 24.0544C13.2442 23.3228 13.5201 21.639 13.7767 20.7975C14.1487 19.5786 15.0845 17.8834 15.9306 16.896C18.3866 14.0297 21.7767 12.3439 26.8185 11.4816C29.059 11.0984 33.4841 10.8025 33.4841 11.0359C33.4841 11.1058 33.3112 11.6284 33.0996 12.1973C32.057 15.0023 30.5342 17.4591 28.6525 19.3714L28.4337 19.5939C27.9928 20.042 27.4023 20.312 26.775 20.3524C26.2391 20.3869 24.9901 20.3793 23.9992 20.3356C23.0084 20.2918 22.1813 20.2665 22.1613 20.2792C21.9634 20.4048 24.0733 21.0902 25.4562 21.3496C26.0244 21.4562 26.4874 21.5674 26.4851 21.5967C26.4779 21.6894 25.1966 22.6047 24.3693 23.1081C22.6239 24.1703 20.8743 24.8664 19.0411 25.2282C17.9849 25.4367 16.7398 25.5015 16.7398 25.3481C16.7398 25.2073 17.6209 23.8157 18.2781 22.9186C19.7535 20.9044 21.041 19.3848 22.8181 17.5602L23.4727 16.8882C23.545 16.814 23.4506 16.6982 23.3634 16.754C19.9563 18.9316 16.878 22.0888 14.2624 26.0884C13.8181 26.7678 13.4546 27.3538 13.4546 27.3907C13.4546 27.4274 14.3488 27.4579 15.4416 27.4583C17.2272 27.459 17.4602 27.4799 17.7395 27.665C18.3743 28.0858 18.5139 28.8194 18.0619 29.3595C17.753 29.7286 17.7615 29.7347 18.7534 29.8604C19.9741 30.0149 21.1867 30.9673 21.6096 32.1036C21.8102 32.6427 21.8267 32.9235 21.8267 35.7871V38.3262C21.8267 38.6236 22.0882 38.8532 22.3831 38.8149C29.3472 37.9094 35.1718 33.3378 37.6792 26.8094C38.1024 25.7076 38.6217 23.6792 38.7771 22.5214C38.9439 21.278 38.916 18.3567 38.7257 17.1466C37.7395 10.8748 33.8424 5.61891 28.1612 2.89892C25.7526 1.74581 23.3625 1.17187 20.6426 1.09355C19.7493 1.06776 18.8753 1.06627 18.7004 1.09003ZM140.573 4.42627C139.816 4.79029 139.599 5.01673 139.131 5.9306C138.818 6.5428 138.773 6.73749 138.738 7.63559C138.69 8.86393 138.865 9.4009 139.55 10.1355L139.658 10.2523C139.878 10.4879 139.967 10.8169 139.896 11.131C139.668 12.1359 139.232 15.6152 139.139 17.1744C138.87 21.6887 139.155 25.6537 139.991 29.0038C140.427 30.7545 140.633 31.2752 141.027 31.6246C141.401 31.9561 141.67 32.0054 142.037 31.8099C142.591 31.5148 142.691 31.2759 143.119 29.2159C143.892 25.4904 143.889 20.0002 143.109 15.203C142.91 13.9755 142.471 11.7721 142.323 11.2609C142.16 10.6931 142.183 10.5966 142.64 9.98145C143.045 9.43542 143.064 9.37532 143.064 8.62182C143.064 7.94633 143.012 7.72415 142.703 7.06932C142.126 5.84418 142.126 5.87093 142.683 5.35016C143.515 4.57023 143.249 4.12044 141.954 4.12065C141.353 4.12065 141.087 4.17958 140.573 4.42627ZM141.402 5.71546C141.347 6.18316 141.387 6.34129 141.748 7.07412C142.071 7.72862 142.158 8.027 142.16 8.48958C142.162 8.81945 141.907 9.09403 141.578 9.11766L141.421 9.12895C141.013 9.15826 140.499 9.16508 140.279 9.14408C139.721 9.09102 139.53 8.7058 139.585 7.73981C139.621 7.09746 139.676 6.94518 140.114 6.28322C140.54 5.63894 141.052 5.19959 141.39 5.18861C141.43 5.18723 141.436 5.42433 141.402 5.71546ZM141.554 11.1003C141.765 11.945 142.292 14.6466 142.418 15.5227C142.605 16.8323 142.746 17.8516 142.746 17.8992C142.746 17.9238 142.305 17.9221 141.765 17.8956C141.226 17.8689 140.572 17.897 140.311 17.9577C140.05 18.0185 139.825 18.0563 139.811 18.0417C139.744 17.9748 140.227 13.4184 140.417 12.3258C140.759 10.3504 140.704 10.4976 141.086 10.5348C141.392 10.5647 141.433 10.614 141.554 11.1003ZM142.786 18.8158C142.919 18.9265 142.958 19.1588 142.958 19.8451C142.958 20.3328 142.917 20.7572 142.866 20.7884C142.774 20.8454 142.65 20.8481 141.58 20.8153C141.259 20.8055 140.723 20.8369 140.388 20.8851C140.066 20.9313 139.778 20.6819 139.778 20.357V19.9181V19.2782C139.778 19.0323 139.94 18.8158 140.176 18.746C140.726 18.5831 142.567 18.6324 142.786 18.8158ZM142.84 21.5873C142.962 21.6648 142.977 22.087 142.926 24.0099C142.862 26.4123 142.634 28.3407 142.229 29.9085C141.963 30.9351 141.915 31.0514 141.721 31.1261C141.399 31.2505 141.315 31.0985 140.89 29.6258C140.384 27.8717 139.948 25.1499 139.821 22.9437L139.778 22.1963C139.762 21.9223 139.947 21.6772 140.215 21.6172C140.806 21.4845 142.646 21.4636 142.84 21.5873Z" fill="url(#paint0_linear_4_42)"/>
<path d="M167.441 17.9245C166.708 18.1312 166.042 18.5222 165.409 19.118L164.912 19.5846L164.791 18.9944C164.606 18.0988 164.389 17.9736 163.026 17.9736H161.928V31.6135H165.107V21.6239L165.592 21.1745C166.32 20.499 166.88 20.2878 167.815 20.3353C168.488 20.3695 168.641 20.4168 168.994 20.7014C169.745 21.3069 169.76 21.4281 169.765 26.8449L169.77 31.6135H173.047L173.077 26.7916C173.108 22.0067 173.11 21.9661 173.349 21.5154C173.822 20.6251 174.908 20.1261 175.944 20.3228C176.58 20.4434 176.779 20.5513 177.121 20.96C177.684 21.6331 177.718 21.9733 177.718 26.9975V31.6135H180.994L181 27.4842C181.008 21.7611 180.887 20.7902 180.01 19.4933C178.582 17.3838 174.716 17.1725 172.8 19.0992C172.529 19.3722 172.235 19.7341 172.148 19.9034C172.061 20.0729 171.968 20.2114 171.941 20.2114C171.914 20.2114 171.827 20.0555 171.747 19.8651C171.469 19.2031 170.763 18.4347 170.157 18.1368C169.421 17.7747 168.286 17.686 167.441 17.9245Z" fill="black"/>
<path fill-rule="evenodd" clip-rule="evenodd" d="M151.37 17.8597C148.571 18.3098 146.678 20.1559 146.064 23.0353C145.812 24.2189 145.919 26.3133 146.288 27.4033C147.127 29.8803 148.916 31.3622 151.516 31.7329C154.57 32.1681 157.36 30.8401 158.519 28.3997C159.064 27.2523 159.278 26.2538 159.278 24.8619C159.278 23.3439 159.058 22.2685 158.526 21.1829C157.77 19.6414 156.36 18.4902 154.668 18.0339C153.915 17.8307 152.135 17.7367 151.37 17.8597ZM153.862 20.4736C154.791 20.8032 155.364 21.5136 155.714 22.7689C156.079 24.0805 156.02 26.1961 155.588 27.3028C155.053 28.6721 154.293 29.1939 152.75 29.2522C151.575 29.2965 150.922 29.0624 150.287 28.3693C148.912 26.8692 148.894 22.7659 150.256 21.2463C150.842 20.5933 151.521 20.3203 152.562 20.319C153.049 20.3184 153.613 20.3856 153.862 20.4736Z" fill="black"/>
<path fill-rule="evenodd" clip-rule="evenodd" d="M46.6252 31.8444V12.5389H50.5756C52.7484 12.5389 54.9302 12.5892 55.4241 12.6506C59.5772 13.167 62.5607 15.8865 63.4267 19.945C63.6661 21.0666 63.6638 23.2572 63.422 24.4206C62.6556 28.1084 60.1109 30.6969 56.3776 31.5864C55.8294 31.7169 54.7478 31.7607 51.1557 31.7978L46.6252 31.8444ZM58.8617 17.8442C58.1021 16.6872 57.1026 15.9935 55.6607 15.6226C54.9864 15.4493 54.486 15.4161 52.543 15.4161H50.2284V28.9495H52.543C54.5049 28.9495 54.9829 28.9173 55.6802 28.738C57.3002 28.3213 58.4706 27.372 59.2197 25.8673C59.8532 24.5945 60.0141 23.7108 59.955 21.8266C59.8971 19.9786 59.6342 19.0208 58.8617 17.8442Z" fill="black"/>
<path d="M105.866 31.8266V12.5389H109.363V20.661L110.138 20.6217C110.649 20.5957 111.011 20.5174 111.202 20.3913C111.362 20.2862 112.735 18.6358 114.254 16.7236C115.774 14.8115 117.119 13.1603 117.244 13.0543C117.651 12.7082 118.16 12.633 119.87 12.6664L121.527 12.6988L118.88 15.9489C117.425 17.7365 115.879 19.6405 115.446 20.1802C115.012 20.7198 114.515 21.2456 114.342 21.3487C114.168 21.4518 114.028 21.5618 114.03 21.5931C114.031 21.6244 114.242 21.7773 114.497 21.9329C114.841 22.1425 115.326 22.7092 116.367 24.1174C121.161 30.6029 121.974 31.7127 121.974 31.7737C121.974 31.8029 121.186 31.8266 120.222 31.8266C118.98 31.8266 118.369 31.7842 118.124 31.681C117.875 31.5764 117.427 31.0723 116.537 29.8961C116.323 29.6129 116.118 29.3418 115.922 29.0822C115.739 28.8399 115.564 28.6076 115.396 28.385L115.395 28.3846C112.205 24.1578 111.646 23.4175 110.983 23.3074C110.843 23.284 110.697 23.289 110.521 23.2951C110.43 23.2983 110.332 23.3017 110.222 23.3017H109.363V31.8266H105.866Z" fill="black"/>
<path d="M97.0835 14.2304C96.9548 14.3598 96.8222 14.7814 96.7066 15.4292C96.2054 18.2359 96.1948 18.2772 95.9645 18.3327C95.8439 18.3618 95.3519 18.445 94.871 18.5177L93.9967 18.6498V19.4306C93.9967 20.4984 94.1366 20.6376 95.2089 20.6376H95.9973L96.0369 24.98C96.0799 29.669 96.0877 29.7382 96.6755 30.6166C97.3317 31.5973 98.2186 31.9886 99.7724 31.9831C100.881 31.9791 101.923 31.6994 102.716 31.1922L103.223 30.8686L103.045 30.5217C102.709 29.8643 102.043 28.9495 101.9 28.9495C101.821 28.9495 101.548 29.0443 101.294 29.1603C100.572 29.4899 100.086 29.4464 99.6558 29.0134L99.2955 28.6511V20.6376H102.874L102.909 18.2933H99.2955V14.0308H98.2887C97.4461 14.0308 97.2496 14.0633 97.0835 14.2304Z" fill="black"/>
<path fill-rule="evenodd" clip-rule="evenodd" d="M66.7949 20.3685C67.7574 19.0866 69.0336 18.3955 71.1058 18.0342C71.6098 17.9463 73.4926 18.072 74.0985 18.2339C76.4048 18.8505 78.0284 20.6023 78.5676 23.0563C78.787 24.0548 78.787 25.9586 78.5676 26.9571C77.8429 30.2549 75.1502 32.2115 71.6357 31.9942C69.6911 31.874 68.5086 31.3673 67.2864 30.1308C65.8859 28.7141 65.4361 27.4552 65.4361 24.9534C65.4361 23.5727 65.47 23.2463 65.6852 22.557C65.9976 21.5566 66.1946 21.1679 66.7949 20.3685ZM73.2253 20.661C74.0705 20.9229 74.7492 21.6373 75.0762 22.609C75.532 23.9635 75.5206 26.3009 75.0526 27.4992C74.5107 28.8863 73.7575 29.4067 72.2077 29.4653C71.3957 29.496 71.1572 29.4646 70.7 29.2668C69.5983 28.7903 68.9893 27.7587 68.7721 26.0013C68.6063 24.6601 68.82 22.9839 69.2716 22.0809C69.9357 20.7534 71.5977 20.1565 73.2253 20.661Z" fill="black"/>
<path fill-rule="evenodd" clip-rule="evenodd" d="M85.313 18.1363C84.0186 18.3718 82.7791 18.9178 81.8345 19.6687L81.2877 20.1033L81.6725 20.7528C81.8841 21.11 82.1693 21.4762 82.3063 21.5664C82.6787 21.8117 83.3643 21.6898 84.1214 21.2437C85.7237 20.2994 87.5256 20.2912 88.2561 21.225C88.5831 21.6431 88.8038 22.4787 88.8038 23.2984V24.0023L87.2937 24.1257C83.0559 24.472 80.7129 25.9759 80.7012 28.3571C80.695 29.6615 81.1024 30.571 82.0026 31.2613C83.1693 32.1562 85.4567 32.2669 87.1369 31.5097C87.4151 31.3844 87.9582 31.0417 88.3437 30.7482C88.7292 30.4549 89.0788 30.2537 89.1206 30.3014C89.1624 30.3491 89.2568 30.6134 89.3304 30.8889C89.5386 31.6678 89.712 31.7673 90.9343 31.81L91.9831 31.8466L91.9813 27.2279C91.9798 23.5633 91.9471 22.4553 91.8227 21.8649C91.2054 18.9347 88.727 17.5151 85.313 18.1363ZM88.7509 28.4676L88.8108 26.0723L88.092 26.0894C86.0871 26.1369 84.475 26.6499 84.0315 27.3814C83.7566 27.8348 83.7541 28.6748 84.0263 29.1237C84.3228 29.6126 85.0067 29.8468 85.9157 29.7708C86.9405 29.6851 87.3416 29.5372 88.0892 28.9697L88.7509 28.4676Z" fill="black"/>
<path fill-rule="evenodd" clip-rule="evenodd" d="M127.379 18.2001C127.7 18.1354 128.058 18.06 128.174 18.033C128.59 17.936 130.623 18.0772 131.247 18.2463C133.322 18.8081 134.811 20.2662 135.539 22.4492C135.871 23.4446 135.956 25.7135 135.705 26.8819C135.172 29.3571 133.527 31.1451 131.194 31.7841C130.329 32.0213 128.221 32.0516 127.379 31.839C125.159 31.2777 123.642 29.8608 122.859 27.6164C122.579 26.8145 122.562 26.6625 122.564 25.0067C122.566 23.3846 122.589 23.1818 122.852 22.3876C123.576 20.2074 125.289 18.6231 127.379 18.2001ZM130.733 20.7732C131.501 21.1832 132.093 22.0617 132.366 23.1951C132.543 23.9268 132.553 26.0468 132.384 26.7894C132.123 27.9341 131.543 28.8006 130.742 29.2407C130.247 29.5128 128.231 29.5107 127.686 29.2376C126.444 28.6158 125.853 27.2457 125.86 25.0067C125.868 22.7151 126.457 21.3955 127.749 20.7755C128.222 20.549 128.397 20.5251 129.34 20.5582C130.066 20.5835 130.504 20.6512 130.733 20.7732Z" fill="black"/>
<defs>
<linearGradient id="paint0_linear_4_42" x1="71.8482" y1="0" x2="71.8482" y2="40.1298" gradientUnits="userSpaceOnUse">
<stop stop-color="#517DFC"/>
<stop offset="1" stop-color="#0A42C6"/>
</linearGradient>
</defs>
</svg>
