<svg width="40" height="40" viewBox="0 0 40 40" fill="none" xmlns="http://www.w3.org/2000/svg">
<circle cx="20" cy="20" r="18" fill="white"/>
<path d="M19.1864 2.00871C16.6482 2.16203 14.3279 2.74706 12.2335 3.76378C10.3289 4.68369 8.88827 5.69638 7.40731 7.14482C6.39445 8.14137 5.65195 9.0411 4.91349 10.1789C4.41715 10.9374 4.18714 11.3408 3.75536 12.2406C2.86759 14.0683 2.31072 16.0614 2.07264 18.2441C1.97579 19.1035 1.97579 20.8949 2.07264 21.7543C2.31072 23.937 2.86759 25.9301 3.75536 27.7578C4.4575 29.2103 5.17175 30.3239 6.20479 31.5706C6.62043 32.0749 7.6696 33.136 8.2063 33.604C10.6799 35.7384 13.5692 37.1182 16.7934 37.7113C19.9531 38.2883 23.2257 37.9978 26.2925 36.864C29.4603 35.694 32.2971 33.5677 34.3954 30.7959C35.7997 28.944 36.8368 26.7774 37.4259 24.4777C38.237 21.3024 38.1886 18.1513 37.2807 14.9962C36.5866 12.5714 35.4527 10.4492 33.7821 8.42783C33.3664 7.9235 32.3173 6.86239 31.7806 6.39437C28.9397 3.94534 25.542 2.4848 21.7528 2.08537C21.2081 2.02485 19.6464 1.98047 19.1864 2.00871ZM21.9506 2.52515C24.0449 2.7753 25.8567 3.30383 27.7009 4.20356C32.7289 6.65259 36.3445 11.4336 37.3009 16.8925C37.5067 18.0706 37.543 18.5427 37.547 19.9589C37.547 21.3952 37.5188 21.7946 37.3251 22.9566C36.2557 29.3434 31.6676 34.6651 25.4613 36.7107C24.3919 37.0658 22.9755 37.3643 21.7286 37.4975C21.087 37.566 18.8999 37.566 18.2582 37.4975C17.0113 37.3643 15.5949 37.0658 14.5256 36.7107C8.31929 34.6611 3.73115 29.3434 2.66179 22.9566C2.4681 21.7946 2.43985 21.3952 2.43985 19.9589C2.44388 18.93 2.46002 18.4943 2.51652 18.0424C2.78285 15.8879 3.29533 14.1409 4.19521 12.293C6.28549 8.02033 9.95359 4.81683 14.5014 3.29576C15.603 2.92861 17.1082 2.61391 18.2381 2.51304C18.5165 2.48883 18.799 2.46059 18.8635 2.45252C19.1743 2.41218 21.4381 2.46463 21.9506 2.52515Z" fill="#0073E6"/>
<path d="M19.3197 3.14799C16.8957 3.284 14.6077 3.904 12.4557 5.016C8.18773 7.21999 5.05173 11.18 3.87973 15.84C3.10773 18.904 3.21973 22.228 4.19173 25.18C4.62773 26.5 5.30373 27.928 6.01573 29.032L6.20373 29.32L6.38773 29.192C6.60773 29.044 7.10373 28.828 7.37973 28.768C7.49173 28.74 7.77173 28.704 8.01173 28.68C8.24773 28.656 8.46373 28.628 8.49172 28.616C8.52373 28.604 8.46772 28.52 8.33173 28.38C8.17573 28.22 8.10773 28.112 8.05573 27.94C7.91573 27.448 8.14373 26.936 8.60773 26.704L8.81572 26.6H10.6237H12.4357L12.4997 26.512C12.5357 26.46 12.6757 26.232 12.8157 26C13.1957 25.36 13.3037 25.192 13.7357 24.54L14.1357 23.944L14.1437 23.34C14.1917 20.552 15.4677 17.904 17.6837 15.988C20.4557 13.588 24.5717 12.276 30.1557 12C31.3517 11.94 32.1197 11.948 32.1197 12.012C32.1197 12.12 31.8277 12.996 31.5997 13.564C30.5677 16.14 28.6717 18.876 27.0597 20.108L26.8597 20.26L25.0997 20.256C24.1317 20.256 23.0357 20.232 22.6637 20.208C22.2877 20.184 21.9797 20.168 21.9717 20.176C21.9397 20.204 22.4237 20.448 22.7797 20.588C22.9797 20.664 23.3917 20.796 23.6997 20.88C24.2397 21.028 25.6277 21.32 25.7957 21.32C25.8437 21.32 25.8797 21.336 25.8797 21.356C25.8797 21.444 24.6397 22.336 23.9197 22.768C22.0997 23.86 19.9837 24.588 18.2717 24.72C17.7637 24.756 17.1997 24.736 17.1997 24.68C17.1997 24.596 18.0557 23.28 18.5957 22.54C19.7997 20.888 21.5277 18.876 23.0837 17.324L23.7757 16.632L23.4197 16.86C21.5117 18.088 20.2277 19.132 18.6517 20.728C17.8277 21.564 17.0197 22.504 16.3197 23.44C16.1157 23.716 15.8997 24.004 15.8397 24.08C15.7157 24.24 14.8597 25.508 14.7317 25.72C14.6837 25.796 14.5477 26.02 14.4277 26.22L14.2077 26.58L16.0317 26.6C17.3317 26.616 17.8917 26.632 17.9677 26.668C18.1557 26.752 18.4077 27.012 18.5037 27.22C18.6957 27.624 18.5877 28.144 18.2597 28.436C18.1837 28.504 18.1357 28.564 18.1557 28.576C18.1757 28.588 18.3117 28.616 18.4637 28.64C19.4237 28.78 19.5477 28.808 19.8477 28.94C20.7557 29.332 21.4357 30.136 21.6797 31.104C21.7597 31.416 21.7637 31.524 21.7517 34.076C21.7397 36.452 21.7477 36.72 21.8037 36.72C21.8357 36.72 22.0717 36.692 22.3237 36.66C24.3037 36.4 26.0077 35.876 27.7797 34.98C30.5877 33.564 32.8357 31.5 34.5437 28.78C34.9077 28.192 35.5757 26.868 35.8357 26.2C37.0117 23.208 37.3237 20.1 36.7597 16.92C36.1757 13.636 34.5117 10.468 32.0997 8.05999C28.7357 4.69199 24.0317 2.884 19.3197 3.14799Z" fill="url(#paint0_linear_421_11958)"/>
<defs>
<linearGradient id="paint0_linear_421_11958" x1="20.2023" y1="36.72" x2="3" y2="7" gradientUnits="userSpaceOnUse">
<stop stop-color="#275DAD"/>
<stop offset="1" stop-color="#008EFF"/>
</linearGradient>
</defs>
</svg>
