<svg width="206" height="42" viewBox="0 0 206 42" fill="none" xmlns="http://www.w3.org/2000/svg">
<circle cx="20" cy="21" r="18" fill="white"/>
<path d="M19.1864 3.00871C16.6482 3.16203 14.3279 3.74706 12.2335 4.76378C10.3289 5.68369 8.88827 6.69638 7.40731 8.14482C6.39445 9.14137 5.65195 10.0411 4.91349 11.1789C4.41715 11.9374 4.18714 12.3408 3.75536 13.2406C2.86759 15.0683 2.31072 17.0614 2.07264 19.2441C1.97579 20.1035 1.97579 21.8949 2.07264 22.7543C2.31072 24.937 2.86759 26.9301 3.75536 28.7578C4.4575 30.2103 5.17175 31.3239 6.20479 32.5706C6.62043 33.0749 7.6696 34.136 8.2063 34.604C10.6799 36.7384 13.5692 38.1182 16.7934 38.7113C19.9531 39.2883 23.2257 38.9978 26.2925 37.864C29.4603 36.694 32.2971 34.5677 34.3954 31.7959C35.7997 29.944 36.8368 27.7774 37.4259 25.4777C38.237 22.3024 38.1886 19.1513 37.2807 15.9962C36.5866 13.5714 35.4527 11.4492 33.7821 9.42783C33.3664 8.9235 32.3173 7.86239 31.7806 7.39437C28.9397 4.94534 25.542 3.4848 21.7528 3.08537C21.2081 3.02485 19.6464 2.98047 19.1864 3.00871ZM21.9506 3.52515C24.0449 3.7753 25.8567 4.30383 27.7009 5.20356C32.7289 7.65259 36.3445 12.4336 37.3009 17.8925C37.5067 19.0706 37.543 19.5427 37.547 20.9589C37.547 22.3952 37.5188 22.7946 37.3251 23.9566C36.2557 30.3434 31.6676 35.6651 25.4613 37.7107C24.3919 38.0658 22.9755 38.3643 21.7286 38.4975C21.087 38.566 18.8999 38.566 18.2582 38.4975C17.0113 38.3643 15.5949 38.0658 14.5256 37.7107C8.31929 35.6611 3.73115 30.3434 2.66179 23.9566C2.4681 22.7946 2.43985 22.3952 2.43985 20.9589C2.44388 19.93 2.46002 19.4943 2.51652 19.0424C2.78285 16.8879 3.29533 15.1409 4.19521 13.293C6.28549 9.02033 9.95359 5.81683 14.5014 4.29576C15.603 3.92861 17.1082 3.61391 18.2381 3.51304C18.5165 3.48883 18.799 3.46059 18.8635 3.45252C19.1743 3.41218 21.4381 3.46463 21.9506 3.52515Z" fill="#0073E6"/>
<path d="M19.3197 4.14799C16.8957 4.284 14.6077 4.904 12.4557 6.016C8.18773 8.21999 5.05173 12.18 3.87973 16.84C3.10773 19.904 3.21973 23.228 4.19173 26.18C4.62773 27.5 5.30373 28.928 6.01573 30.032L6.20373 30.32L6.38773 30.192C6.60773 30.044 7.10373 29.828 7.37973 29.768C7.49173 29.74 7.77173 29.704 8.01173 29.68C8.24773 29.656 8.46373 29.628 8.49172 29.616C8.52373 29.604 8.46772 29.52 8.33173 29.38C8.17573 29.22 8.10773 29.112 8.05573 28.94C7.91573 28.448 8.14373 27.936 8.60773 27.704L8.81572 27.6H10.6237H12.4357L12.4997 27.512C12.5357 27.46 12.6757 27.232 12.8157 27C13.1957 26.36 13.3037 26.192 13.7357 25.54L14.1357 24.944L14.1437 24.34C14.1917 21.552 15.4677 18.904 17.6837 16.988C20.4557 14.588 24.5717 13.276 30.1557 13C31.3517 12.94 32.1197 12.948 32.1197 13.012C32.1197 13.12 31.8277 13.996 31.5997 14.564C30.5677 17.14 28.6717 19.876 27.0597 21.108L26.8597 21.26L25.0997 21.256C24.1317 21.256 23.0357 21.232 22.6637 21.208C22.2877 21.184 21.9797 21.168 21.9717 21.176C21.9397 21.204 22.4237 21.448 22.7797 21.588C22.9797 21.664 23.3917 21.796 23.6997 21.88C24.2397 22.028 25.6277 22.32 25.7957 22.32C25.8437 22.32 25.8797 22.336 25.8797 22.356C25.8797 22.444 24.6397 23.336 23.9197 23.768C22.0997 24.86 19.9837 25.588 18.2717 25.72C17.7637 25.756 17.1997 25.736 17.1997 25.68C17.1997 25.596 18.0557 24.28 18.5957 23.54C19.7997 21.888 21.5277 19.876 23.0837 18.324L23.7757 17.632L23.4197 17.86C21.5117 19.088 20.2277 20.132 18.6517 21.728C17.8277 22.564 17.0197 23.504 16.3197 24.44C16.1157 24.716 15.8997 25.004 15.8397 25.08C15.7157 25.24 14.8597 26.508 14.7317 26.72C14.6837 26.796 14.5477 27.02 14.4277 27.22L14.2077 27.58L16.0317 27.6C17.3317 27.616 17.8917 27.632 17.9677 27.668C18.1557 27.752 18.4077 28.012 18.5037 28.22C18.6957 28.624 18.5877 29.144 18.2597 29.436C18.1837 29.504 18.1357 29.564 18.1557 29.576C18.1757 29.588 18.3117 29.616 18.4637 29.64C19.4237 29.78 19.5477 29.808 19.8477 29.94C20.7557 30.332 21.4357 31.136 21.6797 32.104C21.7597 32.416 21.7637 32.524 21.7517 35.076C21.7397 37.452 21.7477 37.72 21.8037 37.72C21.8357 37.72 22.0717 37.692 22.3237 37.66C24.3037 37.4 26.0077 36.876 27.7797 35.98C30.5877 34.564 32.8357 32.5 34.5437 29.78C34.9077 29.192 35.5757 27.868 35.8357 27.2C37.0117 24.208 37.3237 21.1 36.7597 17.92C36.1757 14.636 34.5117 11.468 32.0997 9.05999C28.7357 5.69199 24.0317 3.884 19.3197 4.14799Z" fill="url(#paint0_linear_421_11957)"/>
<path d="M54.232 11.484C56.36 11.484 58.1987 11.8853 59.748 12.688C61.316 13.472 62.5107 14.6013 63.332 16.076C64.172 17.5507 64.592 19.2867 64.592 21.284C64.592 23.2813 64.172 25.0173 63.332 26.492C62.5107 27.948 61.316 29.068 59.748 29.852C58.1987 30.6173 56.36 31 54.232 31H48.156V11.484H54.232ZM54.232 28.9C56.752 28.9 58.6747 28.2373 60 26.912C61.3253 25.568 61.988 23.692 61.988 21.284C61.988 18.8573 61.316 16.9627 59.972 15.6C58.6467 14.2373 56.7333 13.556 54.232 13.556H50.704V28.9H54.232ZM74.6449 31.252C73.2075 31.252 71.9009 30.9253 70.7249 30.272C69.5675 29.6187 68.6529 28.6947 67.9809 27.5C67.3275 26.2867 67.0009 24.8867 67.0009 23.3C67.0009 21.732 67.3369 20.3507 68.0089 19.156C68.6995 17.9427 69.6329 17.0187 70.8089 16.384C71.9849 15.7307 73.3009 15.404 74.7569 15.404C76.2129 15.404 77.5289 15.7307 78.7049 16.384C79.8809 17.0187 80.8049 17.9333 81.4769 19.128C82.1675 20.3227 82.5129 21.7133 82.5129 23.3C82.5129 24.8867 82.1582 26.2867 81.4489 27.5C80.7582 28.6947 79.8155 29.6187 78.6209 30.272C77.4262 30.9253 76.1009 31.252 74.6449 31.252ZM74.6449 29.012C75.5595 29.012 76.4182 28.7973 77.2209 28.368C78.0235 27.9387 78.6675 27.2947 79.1529 26.436C79.6569 25.5773 79.9089 24.532 79.9089 23.3C79.9089 22.068 79.6662 21.0227 79.1809 20.164C78.6955 19.3053 78.0609 18.6707 77.2769 18.26C76.4929 17.8307 75.6435 17.616 74.7289 17.616C73.7955 17.616 72.9369 17.8307 72.1529 18.26C71.3875 18.6707 70.7715 19.3053 70.3049 20.164C69.8382 21.0227 69.6049 22.068 69.6049 23.3C69.6049 24.5507 69.8289 25.6053 70.2769 26.464C70.7435 27.3227 71.3595 27.9667 72.1249 28.396C72.8902 28.8067 73.7302 29.012 74.6449 29.012ZM84.911 23.272C84.911 21.704 85.2284 20.332 85.863 19.156C86.4977 17.9613 87.3657 17.0373 88.467 16.384C89.587 15.7307 90.8284 15.404 92.191 15.404C93.535 15.404 94.7017 15.6933 95.691 16.272C96.6804 16.8507 97.4177 17.5787 97.903 18.456V15.656H100.479V31H97.903V28.144C97.399 29.04 96.643 29.7867 95.635 30.384C94.6457 30.9627 93.4884 31.252 92.163 31.252C90.8004 31.252 89.5684 30.916 88.467 30.244C87.3657 29.572 86.4977 28.6293 85.863 27.416C85.2284 26.2027 84.911 24.8213 84.911 23.272ZM97.903 23.3C97.903 22.1427 97.6697 21.1347 97.203 20.276C96.7364 19.4173 96.1017 18.764 95.299 18.316C94.515 17.8493 93.647 17.616 92.695 17.616C91.743 17.616 90.875 17.84 90.091 18.288C89.307 18.736 88.6817 19.3893 88.215 20.248C87.7484 21.1067 87.515 22.1147 87.515 23.272C87.515 24.448 87.7484 25.4747 88.215 26.352C88.6817 27.2107 89.307 27.8733 90.091 28.34C90.875 28.788 91.743 29.012 92.695 29.012C93.647 29.012 94.515 28.788 95.299 28.34C96.1017 27.8733 96.7364 27.2107 97.203 26.352C97.6697 25.4747 97.903 24.4573 97.903 23.3ZM107.893 17.756V26.8C107.893 27.5467 108.052 28.0787 108.369 28.396C108.686 28.6947 109.237 28.844 110.021 28.844H111.897V31H109.601C108.182 31 107.118 30.6733 106.409 30.02C105.7 29.3667 105.345 28.2933 105.345 26.8V17.756H103.357V15.656H105.345V11.792H107.893V15.656H111.897V17.756H107.893Z" fill="#1A202C"/>
<path d="M125.96 31L119.352 22.32V31H114.564V11.344H119.352V19.968L125.904 11.344H131.532L123.916 20.976L131.812 31H125.96ZM141.2 31.224C139.669 31.224 138.288 30.8973 137.056 30.244C135.842 29.5907 134.881 28.6573 134.172 27.444C133.481 26.2307 133.136 24.812 133.136 23.188C133.136 21.5827 133.49 20.1733 134.2 18.96C134.909 17.728 135.88 16.7853 137.112 16.132C138.344 15.4787 139.725 15.152 141.256 15.152C142.786 15.152 144.168 15.4787 145.4 16.132C146.632 16.7853 147.602 17.728 148.312 18.96C149.021 20.1733 149.376 21.5827 149.376 23.188C149.376 24.7933 149.012 26.212 148.284 27.444C147.574 28.6573 146.594 29.5907 145.344 30.244C144.112 30.8973 142.73 31.224 141.2 31.224ZM141.2 27.08C142.114 27.08 142.889 26.744 143.524 26.072C144.177 25.4 144.504 24.4387 144.504 23.188C144.504 21.9373 144.186 20.976 143.552 20.304C142.936 19.632 142.17 19.296 141.256 19.296C140.322 19.296 139.548 19.632 138.932 20.304C138.316 20.9573 138.008 21.9187 138.008 23.188C138.008 24.4387 138.306 25.4 138.904 26.072C139.52 26.744 140.285 27.08 141.2 27.08ZM156.704 10.28V31H151.916V10.28H156.704ZM167.286 31.224C165.755 31.224 164.374 30.8973 163.142 30.244C161.928 29.5907 160.967 28.6573 160.258 27.444C159.567 26.2307 159.222 24.812 159.222 23.188C159.222 21.5827 159.576 20.1733 160.285 18.96C160.995 17.728 161.966 16.7853 163.198 16.132C164.43 15.4787 165.811 15.152 167.342 15.152C168.872 15.152 170.254 15.4787 171.486 16.132C172.718 16.7853 173.688 17.728 174.398 18.96C175.107 20.1733 175.462 21.5827 175.462 23.188C175.462 24.7933 175.098 26.212 174.37 27.444C173.66 28.6573 172.68 29.5907 171.43 30.244C170.198 30.8973 168.816 31.224 167.286 31.224ZM167.286 27.08C168.2 27.08 168.975 26.744 169.61 26.072C170.263 25.4 170.59 24.4387 170.59 23.188C170.59 21.9373 170.272 20.976 169.638 20.304C169.022 19.632 168.256 19.296 167.342 19.296C166.408 19.296 165.634 19.632 165.018 20.304C164.402 20.9573 164.094 21.9187 164.094 23.188C164.094 24.4387 164.392 25.4 164.99 26.072C165.606 26.744 166.371 27.08 167.286 27.08ZM197.938 15.208C199.879 15.208 201.419 15.796 202.558 16.972C203.715 18.148 204.294 19.7813 204.294 21.872V31H199.534V22.516C199.534 21.508 199.263 20.7333 198.722 20.192C198.199 19.632 197.471 19.352 196.538 19.352C195.604 19.352 194.867 19.632 194.326 20.192C193.803 20.7333 193.542 21.508 193.542 22.516V31H188.782V22.516C188.782 21.508 188.511 20.7333 187.97 20.192C187.447 19.632 186.719 19.352 185.786 19.352C184.852 19.352 184.115 19.632 183.574 20.192C183.051 20.7333 182.79 21.508 182.79 22.516V31H178.002V15.376H182.79V17.336C183.275 16.6827 183.91 16.1693 184.694 15.796C185.478 15.404 186.364 15.208 187.354 15.208C188.53 15.208 189.575 15.46 190.49 15.964C191.423 16.468 192.151 17.1867 192.674 18.12C193.215 17.2613 193.952 16.5613 194.886 16.02C195.819 15.4787 196.836 15.208 197.938 15.208Z" fill="url(#paint1_linear_421_11957)"/>
<defs>
<linearGradient id="paint0_linear_421_11957" x1="20.2023" y1="37.72" x2="3" y2="8" gradientUnits="userSpaceOnUse">
<stop stop-color="#275DAD"/>
<stop offset="1" stop-color="#008EFF"/>
</linearGradient>
<linearGradient id="paint1_linear_421_11957" x1="124" y1="11" x2="126" y2="42" gradientUnits="userSpaceOnUse">
<stop stop-color="#1F87EF"/>
<stop offset="1" stop-color="#0E59A5"/>
</linearGradient>
</defs>
</svg>
