<svg width="158" height="152" viewBox="0 0 158 152" fill="none" xmlns="http://www.w3.org/2000/svg">
<path d="M65.7 77.7H11.7C5.29998 77.7 0.0999756 72.5 0.0999756 66.1V12.1C0.0999756 5.69998 5.29998 0.5 11.7 0.5H65.7C72.1 0.5 77.3 5.69998 77.3 12.1V66.1C77.3 72.5 72.1 77.7 65.7 77.7Z" fill="#16558F"/>
<path d="M34.4 32.0999C34.4 30.4999 35.8 29.0999 38.8 29.0999C42.2 29.0999 44.6 30 46.4 31.2V25.7999C45 24.9999 42.9 24.6 40.1 24.4V20.7H37.2V24.4C34.8 24.6 32.8 25.4999 31.3 26.9999C29.8 28.4999 29.1 30.3 29.1 32.4C29.1 40.7 43 40.8999 43 45.4999C43 47.0999 41 48.4 38.7 48.4C34.1 48.4 30.4 46.3999 29.6 45.7999V51.4C31.9 52.6 34.5 53.2 37.2 53.2V57.4H40.1V52.9999C42.7 52.6999 44.8 51.8999 46.2 50.4999C47.6 49.0999 48.3 47.3999 48.3 45.0999C48.3 36.3999 34.4 36.9999 34.4 32.0999Z" fill="white"/>
<path d="M81.6 138.5H27.6C21.2 138.5 16 133.3 16 126.9V72.9001C16 66.5001 21.2 61.3 27.6 61.3H81.6C88 61.3 93.2 66.5001 93.2 72.9001V126.9C93.2 133.3 88 138.5 81.6 138.5Z" fill="#0BBAFF"/>
<path d="M66.1 117.9H43V113.6C46.4 112.6 48.1 110.3 48.1 106.7V102.5H43.5V98.2001H48.1V92.1001C48.1 89.1001 49.1 86.7001 51 84.8001C52.9 82.9001 55.4 81.9001 58.4 81.9001C60.4 81.9001 62.3 82.2001 64 82.9001V87.9001C62.4 87.0001 60.8 86.5001 59 86.5001C55.4 86.5001 53.6 88.7001 53.6 93.1001V98.2001H60.6V102.5H53.6V105.9C53.6 109.4 52 111.9 48.8 113.3H66L66.1 117.9Z" fill="white"/>
<path d="M146.4 151.4H92.4C86 151.4 80.8 146.2 80.8 139.8V85.7999C80.8 79.3999 86 74.2 92.4 74.2H146.4C152.8 74.2 158 79.3999 158 85.7999V139.8C158 146.3 152.8 151.4 146.4 151.4Z" fill="#07A2EF"/>
<path d="M131.7 95.7999L123.3 111.2H129.7V115H122.1V119.3H129.7V123.1H122.1V129.7H116.7V123.1H108.8V119.3H116.7V115H108.8V111.2H115.3L107 95.7999H112.9L118.4 107.5C118.8 108.4 119.2 109.2 119.4 110H119.5C119.7 109.4 120 108.5 120.6 107.3L126 95.7H131.7V95.7999Z" fill="white"/>
<path d="M129.2 92.5999H75.2C68.8 92.5999 63.6 87.3999 63.6 80.9999V26.9999C63.6 20.5999 68.8 15.3999 75.2 15.3999H129.2C135.6 15.3999 140.8 20.5999 140.8 26.9999V80.9999C140.8 87.3999 135.6 92.5999 129.2 92.5999Z" fill="#0583D2"/>
<path d="M111.1 46.8999H90.2V50.6999H111.1V46.8999Z" fill="white"/>
<path d="M111.1 55.0999H90.2V58.8999H111.1V55.0999Z" fill="white"/>
<path d="M114.1 41.4999V36.8999C114.1 36.8999 112.1 35.8999 106.9 35.8999C101.6 35.8999 93.2 40.2999 93.2 54.5999C93.2 61.8999 96 71.9999 107.2 71.9999C113.1 71.9999 114.2 70.4999 114.2 70.4999V65.9999C114.2 65.9999 111.6 67.6999 108.1 67.6999C104.6 67.6999 99 65.2999 99 54.2999C99 43.2999 104.7 40.1999 108.5 40.1999C112.4 40.0999 114.1 41.4999 114.1 41.4999Z" fill="white"/>
</svg>
